%TF.GenerationSoftware,KiCad,Pcbnew,(7.0.0)*%
%TF.CreationDate,2023-10-22T09:50:51+03:00*%
%TF.ProjectId,nanoInvaderBot-logic,6e616e6f-496e-4766-9164-6572426f742d,rev?*%
%TF.SameCoordinates,Original*%
%TF.FileFunction,Copper,L2,Bot*%
%TF.FilePolarity,Positive*%
%FSLAX46Y46*%
G04 Gerber Fmt 4.6, Leading zero omitted, Abs format (unit mm)*
G04 Created by KiCad (PCBNEW (7.0.0)) date 2023-10-22 09:50:51*
%MOMM*%
%LPD*%
G01*
G04 APERTURE LIST*
G04 Aperture macros list*
%AMRoundRect*
0 Rectangle with rounded corners*
0 $1 Rounding radius*
0 $2 $3 $4 $5 $6 $7 $8 $9 X,Y pos of 4 corners*
0 Add a 4 corners polygon primitive as box body*
4,1,4,$2,$3,$4,$5,$6,$7,$8,$9,$2,$3,0*
0 Add four circle primitives for the rounded corners*
1,1,$1+$1,$2,$3*
1,1,$1+$1,$4,$5*
1,1,$1+$1,$6,$7*
1,1,$1+$1,$8,$9*
0 Add four rect primitives between the rounded corners*
20,1,$1+$1,$2,$3,$4,$5,0*
20,1,$1+$1,$4,$5,$6,$7,0*
20,1,$1+$1,$6,$7,$8,$9,0*
20,1,$1+$1,$8,$9,$2,$3,0*%
%AMFreePoly0*
4,1,14,0.728536,0.728536,0.730000,0.725000,0.730000,-0.725000,0.728536,-0.728536,0.725000,-0.730000,-0.125000,-0.730001,-0.128536,-0.728534,-0.728536,-0.128536,-0.730000,-0.124998,-0.730000,0.725000,-0.728536,0.728536,-0.725000,0.730000,0.725000,0.730000,0.728536,0.728536,0.728536,0.728536,$1*%
G04 Aperture macros list end*
%TA.AperFunction,SMDPad,CuDef*%
%ADD10RoundRect,0.135000X-0.135000X-0.185000X0.135000X-0.185000X0.135000X0.185000X-0.135000X0.185000X0*%
%TD*%
%TA.AperFunction,SMDPad,CuDef*%
%ADD11RoundRect,0.087500X0.087500X-0.225000X0.087500X0.225000X-0.087500X0.225000X-0.087500X-0.225000X0*%
%TD*%
%TA.AperFunction,SMDPad,CuDef*%
%ADD12RoundRect,0.087500X0.225000X-0.087500X0.225000X0.087500X-0.225000X0.087500X-0.225000X-0.087500X0*%
%TD*%
%TA.AperFunction,SMDPad,CuDef*%
%ADD13RoundRect,0.225000X-0.225000X-0.250000X0.225000X-0.250000X0.225000X0.250000X-0.225000X0.250000X0*%
%TD*%
%TA.AperFunction,SMDPad,CuDef*%
%ADD14RoundRect,0.135000X0.135000X0.185000X-0.135000X0.185000X-0.135000X-0.185000X0.135000X-0.185000X0*%
%TD*%
%TA.AperFunction,SMDPad,CuDef*%
%ADD15R,0.450000X0.700000*%
%TD*%
%TA.AperFunction,SMDPad,CuDef*%
%ADD16RoundRect,0.250000X0.475000X-0.250000X0.475000X0.250000X-0.475000X0.250000X-0.475000X-0.250000X0*%
%TD*%
%TA.AperFunction,SMDPad,CuDef*%
%ADD17RoundRect,0.062500X0.062500X-0.337500X0.062500X0.337500X-0.062500X0.337500X-0.062500X-0.337500X0*%
%TD*%
%TA.AperFunction,SMDPad,CuDef*%
%ADD18RoundRect,0.062500X0.337500X-0.062500X0.337500X0.062500X-0.337500X0.062500X-0.337500X-0.062500X0*%
%TD*%
%TA.AperFunction,SMDPad,CuDef*%
%ADD19R,3.350000X3.350000*%
%TD*%
%TA.AperFunction,SMDPad,CuDef*%
%ADD20RoundRect,0.135000X0.185000X-0.135000X0.185000X0.135000X-0.185000X0.135000X-0.185000X-0.135000X0*%
%TD*%
%TA.AperFunction,SMDPad,CuDef*%
%ADD21RoundRect,0.225000X0.225000X0.250000X-0.225000X0.250000X-0.225000X-0.250000X0.225000X-0.250000X0*%
%TD*%
%TA.AperFunction,SMDPad,CuDef*%
%ADD22RoundRect,0.250000X-0.250000X-0.475000X0.250000X-0.475000X0.250000X0.475000X-0.250000X0.475000X0*%
%TD*%
%TA.AperFunction,SMDPad,CuDef*%
%ADD23R,0.400000X0.800000*%
%TD*%
%TA.AperFunction,SMDPad,CuDef*%
%ADD24R,0.800000X0.400000*%
%TD*%
%TA.AperFunction,SMDPad,CuDef*%
%ADD25FreePoly0,90.000000*%
%TD*%
%TA.AperFunction,SMDPad,CuDef*%
%ADD26R,1.450000X1.450000*%
%TD*%
%TA.AperFunction,SMDPad,CuDef*%
%ADD27R,0.700000X0.700000*%
%TD*%
%TA.AperFunction,ViaPad*%
%ADD28C,0.800000*%
%TD*%
%TA.AperFunction,Conductor*%
%ADD29C,0.250000*%
%TD*%
%TA.AperFunction,Conductor*%
%ADD30C,0.200000*%
%TD*%
%TA.AperFunction,Conductor*%
%ADD31C,0.150000*%
%TD*%
G04 APERTURE END LIST*
D10*
%TO.P,R2,1*%
%TO.N,/VUSB*%
X130995000Y-91750000D03*
%TO.P,R2,2*%
%TO.N,Net-(U1-VBUS)*%
X132015000Y-91750000D03*
%TD*%
D11*
%TO.P,U3,1,SDO/SA0*%
%TO.N,/GND*%
X142750000Y-101162500D03*
%TO.P,U3,2,SDX*%
X142250000Y-101162500D03*
%TO.P,U3,3,SCX*%
X141750000Y-101162500D03*
%TO.P,U3,4,INT1*%
%TO.N,unconnected-(U3-INT1-Pad4)*%
X141250000Y-101162500D03*
D12*
%TO.P,U3,5,VDDIO*%
%TO.N,/3V3*%
X141087500Y-100500000D03*
%TO.P,U3,6,GND*%
%TO.N,/GND*%
X141087500Y-100000000D03*
%TO.P,U3,7,GND*%
X141087500Y-99500000D03*
D11*
%TO.P,U3,8,VDD*%
%TO.N,/3V3*%
X141250000Y-98837500D03*
%TO.P,U3,9,INT2*%
%TO.N,unconnected-(U3-INT2-Pad9)*%
X141750000Y-98837500D03*
%TO.P,U3,10,NC*%
%TO.N,unconnected-(U3-NC-Pad10)*%
X142250000Y-98837500D03*
%TO.P,U3,11,NC*%
%TO.N,unconnected-(U3-NC-Pad11)*%
X142750000Y-98837500D03*
D12*
%TO.P,U3,12,CS*%
%TO.N,/3V3*%
X142912500Y-99500000D03*
%TO.P,U3,13,SCL*%
%TO.N,/IMU_SCL*%
X142912500Y-100000000D03*
%TO.P,U3,14,SDA*%
%TO.N,/IMU_SDA*%
X142912500Y-100500000D03*
%TD*%
D13*
%TO.P,C5,1*%
%TO.N,/3V3*%
X141475000Y-96750000D03*
%TO.P,C5,2*%
%TO.N,/GND*%
X143025000Y-96750000D03*
%TD*%
D14*
%TO.P,R3,1*%
%TO.N,Net-(U1-VBUS)*%
X132015000Y-93000000D03*
%TO.P,R3,2*%
%TO.N,/GND*%
X130995000Y-93000000D03*
%TD*%
D15*
%TO.P,Q1,1,B*%
%TO.N,Net-(Q1-B)*%
X153849999Y-92999999D03*
%TO.P,Q1,2,E*%
%TO.N,/RTS*%
X155149999Y-92999999D03*
%TO.P,Q1,3,C*%
%TO.N,/CHIP_PU*%
X154499999Y-94999999D03*
%TD*%
D16*
%TO.P,C8,1*%
%TO.N,/GND*%
X171750000Y-109650000D03*
%TO.P,C8,2*%
%TO.N,/3V3*%
X171750000Y-107750000D03*
%TD*%
D17*
%TO.P,U1,1,~{DCD}*%
%TO.N,unconnected-(U1-~{DCD}-Pad1)*%
X135000000Y-102450000D03*
%TO.P,U1,2,~{RI}/CLK*%
%TO.N,unconnected-(U1-~{RI}{slash}CLK-Pad2)*%
X134500000Y-102450000D03*
%TO.P,U1,3,GND*%
%TO.N,/GND*%
X134000000Y-102450000D03*
%TO.P,U1,4,D+*%
%TO.N,/USB_DP*%
X133500000Y-102450000D03*
%TO.P,U1,5,D-*%
%TO.N,/USB_DN*%
X133000000Y-102450000D03*
%TO.P,U1,6,VDD*%
%TO.N,/3V3*%
X132500000Y-102450000D03*
%TO.P,U1,7,VREGIN*%
X132000000Y-102450000D03*
D18*
%TO.P,U1,8,VBUS*%
%TO.N,Net-(U1-VBUS)*%
X131050000Y-101500000D03*
%TO.P,U1,9,~{RST}*%
%TO.N,Net-(U1-~{RST})*%
X131050000Y-101000000D03*
%TO.P,U1,10,NC*%
%TO.N,unconnected-(U1-NC-Pad10)*%
X131050000Y-100500000D03*
%TO.P,U1,11,~{SUSPEND}*%
%TO.N,Net-(U1-~{SUSPEND})*%
X131050000Y-100000000D03*
%TO.P,U1,12,SUSPEND*%
%TO.N,unconnected-(U1-SUSPEND-Pad12)*%
X131050000Y-99500000D03*
%TO.P,U1,13,CHREN*%
%TO.N,unconnected-(U1-CHREN-Pad13)*%
X131050000Y-99000000D03*
%TO.P,U1,14,CHR1*%
%TO.N,unconnected-(U1-CHR1-Pad14)*%
X131050000Y-98500000D03*
D17*
%TO.P,U1,15,CHR0*%
%TO.N,unconnected-(U1-CHR0-Pad15)*%
X132000000Y-97550000D03*
%TO.P,U1,16,~{WAKEUP}/GPIO.3*%
%TO.N,unconnected-(U1-~{WAKEUP}{slash}GPIO.3-Pad16)*%
X132500000Y-97550000D03*
%TO.P,U1,17,RS485/GPIO.2*%
%TO.N,unconnected-(U1-RS485{slash}GPIO.2-Pad17)*%
X133000000Y-97550000D03*
%TO.P,U1,18,~{RXT}/GPIO.1*%
%TO.N,unconnected-(U1-~{RXT}{slash}GPIO.1-Pad18)*%
X133500000Y-97550000D03*
%TO.P,U1,19,~{TXT}/GPIO.0*%
%TO.N,unconnected-(U1-~{TXT}{slash}GPIO.0-Pad19)*%
X134000000Y-97550000D03*
%TO.P,U1,20,GPIO.6*%
%TO.N,unconnected-(U1-GPIO.6-Pad20)*%
X134500000Y-97550000D03*
%TO.P,U1,21,GPIO.5*%
%TO.N,unconnected-(U1-GPIO.5-Pad21)*%
X135000000Y-97550000D03*
D18*
%TO.P,U1,22,GPIO.4*%
%TO.N,unconnected-(U1-GPIO.4-Pad22)*%
X135950000Y-98500000D03*
%TO.P,U1,23,~{CTS}*%
%TO.N,unconnected-(U1-~{CTS}-Pad23)*%
X135950000Y-99000000D03*
%TO.P,U1,24,~{RTS}*%
%TO.N,/RTS*%
X135950000Y-99500000D03*
%TO.P,U1,25,RXD*%
%TO.N,/USB_RX*%
X135950000Y-100000000D03*
%TO.P,U1,26,TXD*%
%TO.N,/USB_TX*%
X135950000Y-100500000D03*
%TO.P,U1,27,~{DSR}*%
%TO.N,unconnected-(U1-~{DSR}-Pad27)*%
X135950000Y-101000000D03*
%TO.P,U1,28,~{DTR}*%
%TO.N,/DTR*%
X135950000Y-101500000D03*
D19*
%TO.P,U1,29,GND*%
%TO.N,/GND*%
X133499999Y-99999999D03*
%TD*%
D10*
%TO.P,R4,1*%
%TO.N,/DTR*%
X151490000Y-92750000D03*
%TO.P,R4,2*%
%TO.N,Net-(Q1-B)*%
X152510000Y-92750000D03*
%TD*%
D20*
%TO.P,R5,1*%
%TO.N,/3V3*%
X155500000Y-106760000D03*
%TO.P,R5,2*%
%TO.N,/CHIP_PU*%
X155500000Y-105740000D03*
%TD*%
D15*
%TO.P,Q2,1,B*%
%TO.N,Net-(Q2-B)*%
X150149999Y-94999999D03*
%TO.P,Q2,2,E*%
%TO.N,/GPIO9*%
X148849999Y-94999999D03*
%TO.P,Q2,3,C*%
%TO.N,/DTR*%
X149499999Y-92999999D03*
%TD*%
D14*
%TO.P,R8,1*%
%TO.N,/RTS*%
X152510000Y-95000000D03*
%TO.P,R8,2*%
%TO.N,Net-(Q2-B)*%
X151490000Y-95000000D03*
%TD*%
D10*
%TO.P,R11,1*%
%TO.N,Net-(U1-~{SUSPEND})*%
X133485000Y-93000000D03*
%TO.P,R11,2*%
%TO.N,/GND*%
X134505000Y-93000000D03*
%TD*%
D21*
%TO.P,C4,1*%
%TO.N,/3V3*%
X139525000Y-102500000D03*
%TO.P,C4,2*%
%TO.N,/GND*%
X137975000Y-102500000D03*
%TD*%
D22*
%TO.P,C6,1*%
%TO.N,/GND*%
X127050000Y-103000000D03*
%TO.P,C6,2*%
%TO.N,/3V3*%
X128950000Y-103000000D03*
%TD*%
D23*
%TO.P,U2,1,GND*%
%TO.N,/GND*%
X173249999Y-105899999D03*
%TO.P,U2,2,GND*%
X172449999Y-105899999D03*
%TO.P,U2,3,3V3*%
%TO.N,/3V3*%
X171649999Y-105899999D03*
%TO.P,U2,4,NC*%
%TO.N,unconnected-(U2-NC-Pad4)*%
X170849999Y-105899999D03*
%TO.P,U2,5,IO2*%
%TO.N,/IMU_SDA*%
X170049999Y-105899999D03*
%TO.P,U2,6,IO3*%
%TO.N,/MOTOR1_ENC1*%
X169249999Y-105899999D03*
%TO.P,U2,7,NC*%
%TO.N,unconnected-(U2-NC-Pad7)*%
X168449999Y-105899999D03*
%TO.P,U2,8,EN*%
%TO.N,/CHIP_PU*%
X167649999Y-105899999D03*
%TO.P,U2,9,NC*%
%TO.N,unconnected-(U2-NC-Pad9)*%
X166849999Y-105899999D03*
%TO.P,U2,10,NC*%
%TO.N,unconnected-(U2-NC-Pad10)*%
X166049999Y-105899999D03*
%TO.P,U2,11,GND*%
%TO.N,/GND*%
X165249999Y-105899999D03*
D24*
%TO.P,U2,12,IO0*%
%TO.N,/MOTOR1_B_MCU*%
X164349999Y-104799999D03*
%TO.P,U2,13,IO1*%
%TO.N,/MOTOR1_A_MCU*%
X164349999Y-103999999D03*
%TO.P,U2,14,GND*%
%TO.N,/GND*%
X164349999Y-103199999D03*
%TO.P,U2,15,NC*%
%TO.N,unconnected-(U2-NC-Pad15)*%
X164349999Y-102399999D03*
%TO.P,U2,16,IO10*%
%TO.N,/MOTOR1_EN_MCU*%
X164349999Y-101599999D03*
%TO.P,U2,17,NC*%
%TO.N,unconnected-(U2-NC-Pad17)*%
X164349999Y-100799999D03*
%TO.P,U2,18,IO4*%
%TO.N,/MOTOR1_ENC2*%
X164349999Y-99999999D03*
%TO.P,U2,19,IO5*%
%TO.N,/MOTOR2_EN_MCU*%
X164349999Y-99199999D03*
%TO.P,U2,20,IO6*%
%TO.N,/MOTOR2_B_MCU*%
X164349999Y-98399999D03*
%TO.P,U2,21,IO7*%
%TO.N,/MOTOR2_A_MCU*%
X164349999Y-97599999D03*
%TO.P,U2,22,IO8*%
%TO.N,/IMU_SCL*%
X164349999Y-96799999D03*
%TO.P,U2,23,IO9*%
%TO.N,/GPIO9*%
X164349999Y-95999999D03*
%TO.P,U2,24,NC*%
%TO.N,unconnected-(U2-NC-Pad24)*%
X164349999Y-95199999D03*
D23*
%TO.P,U2,25,NC*%
%TO.N,unconnected-(U2-NC-Pad25)*%
X165249999Y-94099999D03*
%TO.P,U2,26,IO18*%
%TO.N,/MOTOR2_ENC2*%
X166049999Y-94099999D03*
%TO.P,U2,27,IO19*%
%TO.N,/MOTOR2_ENC1*%
X166849999Y-94099999D03*
%TO.P,U2,28,NC*%
%TO.N,unconnected-(U2-NC-Pad28)*%
X167649999Y-94099999D03*
%TO.P,U2,29,NC*%
%TO.N,unconnected-(U2-NC-Pad29)*%
X168449999Y-94099999D03*
%TO.P,U2,30,RXD0*%
%TO.N,/USB_TX*%
X169249999Y-94099999D03*
%TO.P,U2,31,TXD0*%
%TO.N,/USB_RX*%
X170049999Y-94099999D03*
%TO.P,U2,32,NC*%
%TO.N,unconnected-(U2-NC-Pad32)*%
X170849999Y-94099999D03*
%TO.P,U2,33,NC*%
%TO.N,unconnected-(U2-NC-Pad33)*%
X171649999Y-94099999D03*
%TO.P,U2,34,NC*%
%TO.N,unconnected-(U2-NC-Pad34)*%
X172449999Y-94099999D03*
%TO.P,U2,35,NC*%
%TO.N,unconnected-(U2-NC-Pad35)*%
X173249999Y-94099999D03*
D24*
%TO.P,U2,36,GND*%
%TO.N,/GND*%
X174149999Y-95199999D03*
%TO.P,U2,37,GND*%
X174149999Y-95999999D03*
%TO.P,U2,38,GND*%
X174149999Y-96799999D03*
%TO.P,U2,39,GND*%
X174149999Y-97599999D03*
%TO.P,U2,40,GND*%
X174149999Y-98399999D03*
%TO.P,U2,41,GND*%
X174149999Y-99199999D03*
%TO.P,U2,42,GND*%
X174149999Y-99999999D03*
%TO.P,U2,43,GND*%
X174149999Y-100799999D03*
%TO.P,U2,44,GND*%
X174149999Y-101599999D03*
%TO.P,U2,45,GND*%
X174149999Y-102399999D03*
%TO.P,U2,46,GND*%
X174149999Y-103199999D03*
%TO.P,U2,47,GND*%
X174149999Y-103999999D03*
%TO.P,U2,48,GND*%
X174149999Y-104799999D03*
D25*
%TO.P,U2,49_1,GND*%
X171225000Y-101975000D03*
D26*
%TO.P,U2,49_2,GND*%
X171224999Y-99999999D03*
%TO.P,U2,49_3,GND*%
X171224999Y-98024999D03*
%TO.P,U2,49_4,GND*%
X169249999Y-98024999D03*
%TO.P,U2,49_5,GND*%
X167274999Y-98024999D03*
%TO.P,U2,49_6,GND*%
X167274999Y-99999999D03*
%TO.P,U2,49_7,GND*%
X167274999Y-101974999D03*
%TO.P,U2,49_8,GND*%
X169249999Y-101974999D03*
%TO.P,U2,49_9,GND*%
X169249999Y-99999999D03*
D27*
%TO.P,U2,50,GND*%
X174199999Y-94049999D03*
%TO.P,U2,51,GND*%
X164299999Y-94049999D03*
%TO.P,U2,52,GND*%
X164299999Y-105949999D03*
%TO.P,U2,53,GND*%
X174199999Y-105949999D03*
%TD*%
D10*
%TO.P,R6,1*%
%TO.N,Net-(J1-CC2)*%
X121740000Y-101500000D03*
%TO.P,R6,2*%
%TO.N,/GND*%
X122760000Y-101500000D03*
%TD*%
D20*
%TO.P,R13,1*%
%TO.N,/3V3*%
X157500000Y-106760000D03*
%TO.P,R13,2*%
%TO.N,/IMU_SDA*%
X157500000Y-105740000D03*
%TD*%
%TO.P,R12,1*%
%TO.N,/3V3*%
X156500000Y-106750000D03*
%TO.P,R12,2*%
%TO.N,/IMU_SCL*%
X156500000Y-105730000D03*
%TD*%
D10*
%TO.P,R7,1*%
%TO.N,Net-(J1-CC1)*%
X121740000Y-98500000D03*
%TO.P,R7,2*%
%TO.N,/GND*%
X122760000Y-98500000D03*
%TD*%
D14*
%TO.P,R1,1*%
%TO.N,/3V3*%
X134515000Y-91750000D03*
%TO.P,R1,2*%
%TO.N,Net-(U1-~{RST})*%
X133495000Y-91750000D03*
%TD*%
D22*
%TO.P,C7,1*%
%TO.N,/GND*%
X127050000Y-105000000D03*
%TO.P,C7,2*%
%TO.N,/3V3*%
X128950000Y-105000000D03*
%TD*%
D21*
%TO.P,C3,1*%
%TO.N,/CHIP_PU*%
X154050000Y-105250000D03*
%TO.P,C3,2*%
%TO.N,/GND*%
X152500000Y-105250000D03*
%TD*%
D28*
%TO.N,/GND*%
X137750000Y-104500000D03*
X127000000Y-107000000D03*
X167250000Y-96000000D03*
X158250000Y-94250000D03*
X157000000Y-107750000D03*
X173250000Y-90250000D03*
X169250000Y-104000000D03*
X162250000Y-106000000D03*
X136500000Y-87750000D03*
X146750000Y-104500000D03*
X151250000Y-97250000D03*
X164500000Y-109500000D03*
X123000000Y-100000000D03*
X136500000Y-93250000D03*
X144250000Y-102250000D03*
X167250000Y-104000000D03*
X171250000Y-96000000D03*
X156000000Y-97250000D03*
X168250000Y-109500000D03*
X169250000Y-96000000D03*
X173500000Y-109750000D03*
X127250000Y-96500000D03*
X171250000Y-104000000D03*
X162500000Y-93750000D03*
X144250000Y-94750000D03*
X153250000Y-102250000D03*
X133500000Y-100000000D03*
%TO.N,/MOTOR1_B_MCU*%
X161000000Y-103250000D03*
%TO.N,/MOTOR1_A_MCU*%
X160250000Y-102500000D03*
%TO.N,/MOTOR1_EN_MCU*%
X159500000Y-101750000D03*
%TO.N,/3V3*%
X140750000Y-94750000D03*
X138000000Y-92000000D03*
X154250000Y-106500000D03*
%TO.N,/MOTOR2_B_MCU*%
X160500000Y-98250000D03*
%TO.N,/MOTOR2_A_MCU*%
X161250000Y-97500000D03*
%TO.N,/MOTOR2_EN_MCU*%
X159500000Y-98250000D03*
%TO.N,/MOTOR1_ENC1*%
X158500000Y-101750000D03*
%TO.N,/MOTOR1_ENC2*%
X157500000Y-101750000D03*
%TO.N,/MOTOR2_ENC1*%
X157250000Y-99250000D03*
%TO.N,/MOTOR2_ENC2*%
X158000000Y-98000000D03*
%TO.N,/VUSB*%
X129750000Y-91750000D03*
X167250000Y-89750000D03*
%TO.N,/USB_DP*%
X133775000Y-104750000D03*
%TO.N,/USB_DN*%
X132725000Y-104750000D03*
%TO.N,Net-(J1-CC1)*%
X120500000Y-98500000D03*
%TO.N,Net-(J1-CC2)*%
X120500000Y-101500000D03*
%TO.N,/RTS*%
X156750000Y-92750000D03*
X156750000Y-89500000D03*
%TO.N,/CHIP_PU*%
X159500000Y-103750000D03*
X155250000Y-101000000D03*
X155500000Y-104750000D03*
%TO.N,/GPIO9*%
X148237701Y-92762299D03*
X160500000Y-91750000D03*
X161012299Y-95262299D03*
X149500000Y-91750000D03*
%TO.N,/IMU_SCL*%
X156500000Y-103250000D03*
X156500000Y-104750000D03*
%TD*%
D29*
%TO.N,/GND*%
X162800000Y-94050000D02*
X164300000Y-94050000D01*
X141750000Y-100000000D02*
X142250000Y-100000000D01*
X127000000Y-107000000D02*
X127000000Y-105050000D01*
X134000000Y-100500000D02*
X133500000Y-100000000D01*
X142250000Y-100000000D02*
X142250000Y-100500000D01*
X142250000Y-99500000D02*
X142250000Y-100000000D01*
X164300000Y-105950000D02*
X162300000Y-105950000D01*
X142250000Y-101162500D02*
X141750000Y-101162500D01*
X141750000Y-99500000D02*
X142250000Y-99500000D01*
X134500000Y-104000000D02*
X136250000Y-104000000D01*
X141750000Y-100500000D02*
X142250000Y-100500000D01*
X141750000Y-101162500D02*
X141750000Y-100500000D01*
X141750000Y-100000000D02*
X141750000Y-99500000D01*
X134000000Y-102450000D02*
X134000000Y-103500000D01*
X142250000Y-100500000D02*
X142250000Y-101162500D01*
X134000000Y-102450000D02*
X134000000Y-100500000D01*
X141087500Y-99500000D02*
X141750000Y-99500000D01*
X134000000Y-103500000D02*
X134500000Y-104000000D01*
X162300000Y-105950000D02*
X162250000Y-106000000D01*
X142750000Y-101162500D02*
X142250000Y-101162500D01*
X162500000Y-93750000D02*
X162800000Y-94050000D01*
X165250000Y-105900000D02*
X165250000Y-105000000D01*
D30*
X139500000Y-101000000D02*
X139500000Y-100000000D01*
X139475000Y-101000000D02*
X139500000Y-101000000D01*
D29*
X127000000Y-105050000D02*
X127050000Y-105000000D01*
X141087500Y-100000000D02*
X141750000Y-100000000D01*
X141750000Y-100500000D02*
X141750000Y-100000000D01*
D30*
X137975000Y-102500000D02*
X139475000Y-101000000D01*
D29*
X165250000Y-105000000D02*
X165750000Y-104500000D01*
X164350000Y-103200000D02*
X165700000Y-103200000D01*
%TO.N,/MOTOR1_B_MCU*%
X162000000Y-103250000D02*
X163550000Y-104800000D01*
X161000000Y-103250000D02*
X162000000Y-103250000D01*
X163550000Y-104800000D02*
X164350000Y-104800000D01*
%TO.N,/MOTOR1_A_MCU*%
X160250000Y-102500000D02*
X162250000Y-102500000D01*
X163750000Y-104000000D02*
X164350000Y-104000000D01*
X162250000Y-102500000D02*
X163750000Y-104000000D01*
%TO.N,/MOTOR1_EN_MCU*%
X159650000Y-101600000D02*
X164350000Y-101600000D01*
X159500000Y-101750000D02*
X159650000Y-101600000D01*
%TO.N,/3V3*%
X131000000Y-107750000D02*
X140250000Y-107750000D01*
X140787500Y-98837500D02*
X140250000Y-99375000D01*
D30*
X139525000Y-102500000D02*
X140250000Y-102500000D01*
X130750000Y-102500000D02*
X131950000Y-102500000D01*
D29*
X143250000Y-98000000D02*
X141500000Y-98000000D01*
X140750000Y-94750000D02*
X141500000Y-95500000D01*
X142912500Y-99500000D02*
X143250000Y-99500000D01*
D30*
X132000000Y-102450000D02*
X132000000Y-103750000D01*
D29*
X140250000Y-102500000D02*
X140250000Y-107750000D01*
X141500000Y-95500000D02*
X141500000Y-98000000D01*
X137750000Y-91750000D02*
X138000000Y-92000000D01*
X130250000Y-106000000D02*
X130250000Y-107000000D01*
X171650000Y-107850000D02*
X171650000Y-105900000D01*
D30*
X131950000Y-102500000D02*
X132000000Y-102450000D01*
D29*
X154250000Y-106500000D02*
X154250000Y-107750000D01*
X130250000Y-104250000D02*
X130250000Y-106000000D01*
D30*
X128950000Y-103000000D02*
X130250000Y-103000000D01*
D29*
X155500000Y-107750000D02*
X155750000Y-107750000D01*
X155750000Y-107750000D02*
X158500000Y-110500000D01*
D30*
X130500000Y-104000000D02*
X130750000Y-103750000D01*
D29*
X158500000Y-110500000D02*
X169000000Y-110500000D01*
X132000000Y-103750000D02*
X130750000Y-103750000D01*
X140500000Y-107750000D02*
X152250000Y-107750000D01*
X143250000Y-99500000D02*
X143500000Y-99250000D01*
D30*
X128950000Y-104000000D02*
X130500000Y-104000000D01*
D29*
X140250000Y-100500000D02*
X140250000Y-102500000D01*
X130250000Y-107000000D02*
X131000000Y-107750000D01*
D30*
X128950000Y-104000000D02*
X128950000Y-103000000D01*
D29*
X152250000Y-107750000D02*
X154250000Y-107750000D01*
X143500000Y-98250000D02*
X143250000Y-98000000D01*
X140250000Y-99375000D02*
X140250000Y-100500000D01*
X143500000Y-99250000D02*
X143500000Y-98250000D01*
D30*
X157500000Y-106760000D02*
X155500000Y-106760000D01*
D31*
X155500000Y-106760000D02*
X155500000Y-107750000D01*
D30*
X128950000Y-105000000D02*
X128950000Y-104000000D01*
D29*
X130750000Y-103750000D02*
X130250000Y-104250000D01*
X169000000Y-110500000D02*
X171650000Y-107850000D01*
X141087500Y-100500000D02*
X140250000Y-100500000D01*
X132500000Y-102450000D02*
X132500000Y-103250000D01*
X134515000Y-91750000D02*
X137750000Y-91750000D01*
X141250000Y-98837500D02*
X140787500Y-98837500D01*
X154250000Y-107750000D02*
X155500000Y-107750000D01*
D30*
X130250000Y-103000000D02*
X130750000Y-102500000D01*
D29*
X141250000Y-98250000D02*
X141250000Y-98837500D01*
X132500000Y-103250000D02*
X132000000Y-103750000D01*
X140250000Y-107750000D02*
X140500000Y-107750000D01*
X141500000Y-98000000D02*
X141250000Y-98250000D01*
%TO.N,/MOTOR2_B_MCU*%
X160650000Y-98400000D02*
X164350000Y-98400000D01*
X160500000Y-98250000D02*
X160650000Y-98400000D01*
%TO.N,/MOTOR2_A_MCU*%
X161250000Y-97500000D02*
X161350000Y-97600000D01*
X161350000Y-97600000D02*
X164350000Y-97600000D01*
%TO.N,/MOTOR2_EN_MCU*%
X159500000Y-98250000D02*
X159500000Y-98500000D01*
X160200000Y-99200000D02*
X164350000Y-99200000D01*
X159500000Y-98500000D02*
X160200000Y-99200000D01*
%TO.N,/MOTOR1_ENC1*%
X158500000Y-105500000D02*
X161000000Y-108000000D01*
X161000000Y-108000000D02*
X168250000Y-108000000D01*
X169250000Y-107000000D02*
X169250000Y-105900000D01*
X168250000Y-108000000D02*
X169250000Y-107000000D01*
X158500000Y-101750000D02*
X158500000Y-105500000D01*
%TO.N,/MOTOR1_ENC2*%
X158250000Y-101000000D02*
X162500000Y-101000000D01*
X162500000Y-101000000D02*
X163500000Y-100000000D01*
X163500000Y-100000000D02*
X164350000Y-100000000D01*
X157500000Y-101750000D02*
X158250000Y-101000000D01*
%TO.N,/MOTOR2_ENC1*%
X160750000Y-93750000D02*
X160750000Y-92750000D01*
X161750000Y-91750000D02*
X166250000Y-91750000D01*
X166250000Y-91750000D02*
X166850000Y-92350000D01*
X166850000Y-92350000D02*
X166850000Y-94100000D01*
X160750000Y-92750000D02*
X161750000Y-91750000D01*
X157250000Y-97250000D02*
X160750000Y-93750000D01*
X157250000Y-99250000D02*
X157250000Y-97250000D01*
%TO.N,/MOTOR2_ENC2*%
X161250000Y-93000000D02*
X162000000Y-92250000D01*
X161250000Y-94000000D02*
X161250000Y-93000000D01*
X158000000Y-97250000D02*
X161250000Y-94000000D01*
X165500000Y-92250000D02*
X166050000Y-92800000D01*
X158000000Y-98000000D02*
X158000000Y-97250000D01*
X162000000Y-92250000D02*
X165500000Y-92250000D01*
X166050000Y-92800000D02*
X166050000Y-94100000D01*
%TO.N,/VUSB*%
X155624695Y-89600000D02*
X141584314Y-89600000D01*
X156449695Y-88775000D02*
X155624695Y-89600000D01*
X140184314Y-91000000D02*
X130500000Y-91000000D01*
X130500000Y-91000000D02*
X129750000Y-91750000D01*
X158000000Y-89750000D02*
X157475000Y-89225000D01*
X157475000Y-89225000D02*
X157475000Y-89199695D01*
X157050305Y-88775000D02*
X156449695Y-88775000D01*
X141584314Y-89600000D02*
X140184314Y-91000000D01*
X157475000Y-89199695D02*
X157050305Y-88775000D01*
X167250000Y-89750000D02*
X158000000Y-89750000D01*
X129750000Y-91750000D02*
X130995000Y-91750000D01*
D30*
%TO.N,/USB_DP*%
X133475001Y-102474999D02*
X133475001Y-104450001D01*
X133475001Y-104450001D02*
X133775000Y-104750000D01*
X133500000Y-102450000D02*
X133475001Y-102474999D01*
%TO.N,/USB_DN*%
X133024999Y-102474999D02*
X133024999Y-104450001D01*
X133024999Y-104450001D02*
X132725000Y-104750000D01*
X133000000Y-102450000D02*
X133024999Y-102474999D01*
D29*
%TO.N,/USB_RX*%
X137000000Y-100000000D02*
X135950000Y-100000000D01*
X170050000Y-94100000D02*
X170050000Y-92050000D01*
X142000000Y-90500000D02*
X137750000Y-94750000D01*
X168500000Y-90500000D02*
X142000000Y-90500000D01*
X137750000Y-99250000D02*
X137000000Y-100000000D01*
X170050000Y-92050000D02*
X168500000Y-90500000D01*
X137750000Y-94750000D02*
X137750000Y-99250000D01*
%TO.N,/USB_TX*%
X142250000Y-91000000D02*
X138200000Y-95050000D01*
X138200000Y-95050000D02*
X138200000Y-99550000D01*
X138200000Y-99550000D02*
X137250000Y-100500000D01*
X169250000Y-94100000D02*
X169250000Y-92250000D01*
X137250000Y-100500000D02*
X135950000Y-100500000D01*
X168000000Y-91000000D02*
X142250000Y-91000000D01*
X169250000Y-92250000D02*
X168000000Y-91000000D01*
%TO.N,Net-(J1-CC1)*%
X121740000Y-98500000D02*
X120500000Y-98500000D01*
%TO.N,Net-(J1-CC2)*%
X120500000Y-101500000D02*
X121740000Y-101500000D01*
%TO.N,Net-(Q1-B)*%
X152760000Y-93000000D02*
X152510000Y-92750000D01*
X153850000Y-93000000D02*
X152760000Y-93000000D01*
%TO.N,/RTS*%
X156750000Y-89500000D02*
X156250000Y-90000000D01*
X137250000Y-99000000D02*
X136750000Y-99500000D01*
X155150000Y-93100000D02*
X154250000Y-94000000D01*
X136750000Y-99500000D02*
X135950000Y-99500000D01*
X153500000Y-94000000D02*
X154250000Y-94000000D01*
X155150000Y-93000000D02*
X156500000Y-93000000D01*
X152510000Y-95000000D02*
X152510000Y-94990000D01*
X141750000Y-90000000D02*
X137250000Y-94500000D01*
X152750000Y-90000000D02*
X141750000Y-90000000D01*
X152510000Y-94990000D02*
X153500000Y-94000000D01*
X156250000Y-90000000D02*
X152750000Y-90000000D01*
X156500000Y-93000000D02*
X156750000Y-92750000D01*
X155150000Y-93000000D02*
X155150000Y-93100000D01*
X137250000Y-94500000D02*
X137250000Y-99000000D01*
D31*
%TO.N,/CHIP_PU*%
X155500000Y-104750000D02*
X155500000Y-105250000D01*
X155500000Y-105740000D02*
X155500000Y-105250000D01*
D30*
X154050000Y-105250000D02*
X155500000Y-105250000D01*
D29*
X155250000Y-95000000D02*
X154500000Y-95000000D01*
X155250000Y-100000000D02*
X156750000Y-98500000D01*
X167650000Y-105900000D02*
X167650000Y-106850000D01*
X159500000Y-105750000D02*
X159500000Y-103750000D01*
X155250000Y-101000000D02*
X155250000Y-100000000D01*
X167000000Y-107500000D02*
X161250000Y-107500000D01*
X156750000Y-96500000D02*
X155250000Y-95000000D01*
X156750000Y-98500000D02*
X156750000Y-96500000D01*
X167650000Y-106850000D02*
X167000000Y-107500000D01*
X161250000Y-107500000D02*
X159500000Y-105750000D01*
%TO.N,Net-(Q2-B)*%
X150150000Y-95000000D02*
X151490000Y-95000000D01*
%TO.N,/GPIO9*%
X160500000Y-91750000D02*
X149500000Y-91750000D01*
X148237701Y-92762299D02*
X148237701Y-94737701D01*
X148500000Y-95000000D02*
X148850000Y-95000000D01*
X161012299Y-95262299D02*
X161024598Y-95250000D01*
X163250000Y-95250000D02*
X164000000Y-96000000D01*
X161024598Y-95250000D02*
X163250000Y-95250000D01*
X148237701Y-94737701D02*
X148500000Y-95000000D01*
X164000000Y-96000000D02*
X164350000Y-96000000D01*
%TO.N,/DTR*%
X148000000Y-91500000D02*
X149500000Y-93000000D01*
X135950000Y-101500000D02*
X137750000Y-101500000D01*
X142500000Y-91500000D02*
X148000000Y-91500000D01*
X138650000Y-95350000D02*
X142500000Y-91500000D01*
X138650000Y-100600000D02*
X138650000Y-95350000D01*
X149500000Y-93000000D02*
X151240000Y-93000000D01*
X151240000Y-93000000D02*
X151490000Y-92750000D01*
X137750000Y-101500000D02*
X138650000Y-100600000D01*
%TO.N,Net-(U1-VBUS)*%
X130000000Y-101500000D02*
X129250000Y-100750000D01*
X130250000Y-95750000D02*
X131500000Y-95750000D01*
X131050000Y-101500000D02*
X130000000Y-101500000D01*
X132000000Y-94255000D02*
X132005000Y-94250000D01*
X132000000Y-95250000D02*
X132000000Y-94255000D01*
X132005000Y-93010000D02*
X132015000Y-93000000D01*
X132005000Y-94250000D02*
X132005000Y-93010000D01*
X129250000Y-100750000D02*
X129250000Y-96750000D01*
X129250000Y-96750000D02*
X130250000Y-95750000D01*
X131500000Y-95750000D02*
X132000000Y-95250000D01*
X132015000Y-93000000D02*
X132015000Y-91750000D01*
%TO.N,Net-(U1-~{RST})*%
X130250000Y-101000000D02*
X131050000Y-101000000D01*
X132755000Y-92000000D02*
X132755000Y-95245000D01*
X129750000Y-97000000D02*
X129750000Y-100500000D01*
X131800000Y-96200000D02*
X130550000Y-96200000D01*
X133495000Y-91750000D02*
X133005000Y-91750000D01*
X132755000Y-95245000D02*
X131800000Y-96200000D01*
X133005000Y-91750000D02*
X132755000Y-92000000D01*
X130550000Y-96200000D02*
X129750000Y-97000000D01*
X129750000Y-100500000D02*
X130250000Y-101000000D01*
%TO.N,Net-(U1-~{SUSPEND})*%
X130250000Y-99648008D02*
X130250000Y-97250000D01*
X130250000Y-97250000D02*
X130750000Y-96750000D01*
X133505000Y-93020000D02*
X133485000Y-93000000D01*
X132000000Y-96750000D02*
X133500000Y-95250000D01*
X130601992Y-100000000D02*
X130250000Y-99648008D01*
X133505000Y-94250000D02*
X133505000Y-93020000D01*
X133500000Y-94255000D02*
X133505000Y-94250000D01*
X133500000Y-95250000D02*
X133500000Y-94255000D01*
X131050000Y-100000000D02*
X130601992Y-100000000D01*
X130750000Y-96750000D02*
X132000000Y-96750000D01*
%TO.N,/IMU_SCL*%
X158750000Y-97500000D02*
X159450000Y-96800000D01*
D30*
X156500000Y-103250000D02*
X155500000Y-102250000D01*
D29*
X155250000Y-102250000D02*
X158750000Y-98750000D01*
X144750000Y-100000000D02*
X148250000Y-103500000D01*
X159450000Y-96800000D02*
X164350000Y-96800000D01*
X148250000Y-103500000D02*
X154000000Y-103500000D01*
X142912500Y-100000000D02*
X144750000Y-100000000D01*
D30*
X155500000Y-102250000D02*
X155250000Y-102250000D01*
D29*
X158750000Y-98750000D02*
X158750000Y-97500000D01*
X154000000Y-103500000D02*
X155250000Y-102250000D01*
D30*
X156500000Y-105730000D02*
X156500000Y-104750000D01*
D29*
%TO.N,/IMU_SDA*%
X158000000Y-104500000D02*
X158000000Y-105250000D01*
X160750000Y-108500000D02*
X168500000Y-108500000D01*
X148000000Y-104000000D02*
X157500000Y-104000000D01*
X157500000Y-104000000D02*
X158000000Y-104500000D01*
X170050000Y-106950000D02*
X170050000Y-105900000D01*
X144500000Y-100500000D02*
X148000000Y-104000000D01*
X168500000Y-108500000D02*
X170050000Y-106950000D01*
X158375000Y-106125000D02*
X160750000Y-108500000D01*
D30*
X157500000Y-105740000D02*
X157990000Y-105740000D01*
D29*
X158000000Y-105750000D02*
X158375000Y-106125000D01*
X158000000Y-105250000D02*
X158000000Y-105750000D01*
D30*
X157990000Y-105740000D02*
X158000000Y-105750000D01*
D29*
X142912500Y-100500000D02*
X144500000Y-100500000D01*
%TD*%
%TA.AperFunction,Conductor*%
%TO.N,/GND*%
G36*
X158422994Y-107077969D02*
G01*
X158474216Y-107108807D01*
X160252707Y-108887298D01*
X160260159Y-108895487D01*
X160264214Y-108901877D01*
X160302473Y-108937805D01*
X160313223Y-108947900D01*
X160316020Y-108950611D01*
X160335529Y-108970120D01*
X160338709Y-108972587D01*
X160347571Y-108980155D01*
X160360880Y-108992654D01*
X160373732Y-109004723D01*
X160373734Y-109004724D01*
X160379418Y-109010062D01*
X160386251Y-109013818D01*
X160386252Y-109013819D01*
X160396973Y-109019713D01*
X160413234Y-109030394D01*
X160429064Y-109042673D01*
X160469155Y-109060021D01*
X160479635Y-109065155D01*
X160517908Y-109086197D01*
X160537316Y-109091180D01*
X160555719Y-109097481D01*
X160566944Y-109102339D01*
X160566946Y-109102339D01*
X160574104Y-109105437D01*
X160617258Y-109112271D01*
X160628644Y-109114629D01*
X160670981Y-109125500D01*
X160691017Y-109125500D01*
X160710415Y-109127027D01*
X160722486Y-109128939D01*
X160722487Y-109128939D01*
X160730196Y-109130160D01*
X160768276Y-109126560D01*
X160773676Y-109126050D01*
X160785345Y-109125500D01*
X168422225Y-109125500D01*
X168433280Y-109126021D01*
X168440667Y-109127673D01*
X168507872Y-109125561D01*
X168511768Y-109125500D01*
X168535448Y-109125500D01*
X168539350Y-109125500D01*
X168543313Y-109124999D01*
X168554963Y-109124080D01*
X168598627Y-109122709D01*
X168617861Y-109117119D01*
X168636917Y-109113174D01*
X168656792Y-109110664D01*
X168697395Y-109094587D01*
X168708450Y-109090802D01*
X168750390Y-109078618D01*
X168767629Y-109068422D01*
X168785103Y-109059862D01*
X168796474Y-109055360D01*
X168796476Y-109055358D01*
X168803732Y-109052486D01*
X168839069Y-109026811D01*
X168848824Y-109020403D01*
X168886420Y-108998170D01*
X168900584Y-108984005D01*
X168915379Y-108971368D01*
X168931587Y-108959594D01*
X168959428Y-108925938D01*
X168967279Y-108917309D01*
X170312821Y-107571768D01*
X170362182Y-107541520D01*
X170419898Y-107536978D01*
X170473385Y-107559133D01*
X170510985Y-107603156D01*
X170524500Y-107659451D01*
X170524500Y-108039545D01*
X170515061Y-108086998D01*
X170488181Y-108127226D01*
X168777228Y-109838181D01*
X168737000Y-109865061D01*
X168689547Y-109874500D01*
X158810453Y-109874500D01*
X158763000Y-109865061D01*
X158722772Y-109838181D01*
X156616771Y-107732180D01*
X156586521Y-107682817D01*
X156581979Y-107625101D01*
X156604134Y-107571614D01*
X156648157Y-107534014D01*
X156704452Y-107520499D01*
X156746757Y-107520499D01*
X156749180Y-107520499D01*
X156785204Y-107517665D01*
X156939393Y-107472869D01*
X156942696Y-107470915D01*
X156997634Y-107461327D01*
X157046488Y-107476358D01*
X157046731Y-107475799D01*
X157051799Y-107477992D01*
X157052969Y-107478352D01*
X157060607Y-107482869D01*
X157214796Y-107527665D01*
X157250819Y-107530500D01*
X157749180Y-107530499D01*
X157785204Y-107527665D01*
X157939393Y-107482869D01*
X158077598Y-107401135D01*
X158191135Y-107287598D01*
X158272869Y-107149393D01*
X158273960Y-107145637D01*
X158309001Y-107099718D01*
X158363296Y-107074685D01*
X158422994Y-107077969D01*
G37*
%TD.AperFunction*%
%TA.AperFunction,Conductor*%
G36*
X142240659Y-100994081D02*
G01*
X142276287Y-101013124D01*
X142294701Y-101027253D01*
X142390963Y-101101117D01*
X142416030Y-101111500D01*
X142419779Y-101113053D01*
X142468692Y-101149578D01*
X142494250Y-101205016D01*
X142490257Y-101265931D01*
X142457683Y-101317560D01*
X142442300Y-101326174D01*
X142428788Y-101339686D01*
X142425000Y-101353826D01*
X142425000Y-101950849D01*
X142428872Y-101964133D01*
X142442552Y-101966239D01*
X142483813Y-101960807D01*
X142516185Y-101960807D01*
X142557448Y-101966239D01*
X142571126Y-101964134D01*
X142575000Y-101950847D01*
X142575000Y-101353825D01*
X142569043Y-101331593D01*
X142567201Y-101275309D01*
X142590442Y-101224013D01*
X142633974Y-101188288D01*
X142688818Y-101175500D01*
X142811182Y-101175500D01*
X142866026Y-101188288D01*
X142909558Y-101224013D01*
X142932799Y-101275309D01*
X142930957Y-101331593D01*
X142925000Y-101353825D01*
X142925000Y-101950849D01*
X142928872Y-101964133D01*
X142942553Y-101966239D01*
X142982809Y-101960939D01*
X142998376Y-101956769D01*
X143126275Y-101903791D01*
X143140231Y-101895734D01*
X143250067Y-101811453D01*
X143261453Y-101800067D01*
X143345734Y-101690231D01*
X143353791Y-101676275D01*
X143406768Y-101548377D01*
X143410940Y-101532808D01*
X143424470Y-101430031D01*
X143425000Y-101421958D01*
X143425000Y-101353826D01*
X143421211Y-101339686D01*
X143418706Y-101337181D01*
X143388456Y-101287818D01*
X143383914Y-101230102D01*
X143406069Y-101176615D01*
X143450092Y-101139015D01*
X143506387Y-101125500D01*
X144189548Y-101125500D01*
X144237001Y-101134939D01*
X144277228Y-101161818D01*
X145898940Y-102783531D01*
X147502707Y-104387298D01*
X147510159Y-104395487D01*
X147514214Y-104401877D01*
X147558359Y-104443332D01*
X147563223Y-104447900D01*
X147566019Y-104450610D01*
X147585529Y-104470120D01*
X147588709Y-104472587D01*
X147597571Y-104480155D01*
X147603111Y-104485358D01*
X147623732Y-104504723D01*
X147623734Y-104504724D01*
X147629418Y-104510062D01*
X147636251Y-104513818D01*
X147636252Y-104513819D01*
X147646973Y-104519713D01*
X147663234Y-104530394D01*
X147679064Y-104542673D01*
X147719155Y-104560021D01*
X147729635Y-104565155D01*
X147767908Y-104586197D01*
X147787316Y-104591180D01*
X147805719Y-104597481D01*
X147816944Y-104602339D01*
X147816946Y-104602339D01*
X147824104Y-104605437D01*
X147867258Y-104612271D01*
X147878644Y-104614629D01*
X147920981Y-104625500D01*
X147941017Y-104625500D01*
X147960415Y-104627027D01*
X147972486Y-104628939D01*
X147972487Y-104628939D01*
X147980196Y-104630160D01*
X148018276Y-104626560D01*
X148023676Y-104626050D01*
X148035345Y-104625500D01*
X151463609Y-104625500D01*
X151520064Y-104639097D01*
X151564139Y-104676907D01*
X151586166Y-104730636D01*
X151581315Y-104788503D01*
X151562272Y-104845969D01*
X151559456Y-104859125D01*
X151550319Y-104948555D01*
X151550000Y-104954832D01*
X151550000Y-104983674D01*
X151553450Y-104996549D01*
X151566326Y-105000000D01*
X152626000Y-105000000D01*
X152688000Y-105016613D01*
X152733387Y-105062000D01*
X152750000Y-105124000D01*
X152750000Y-106208673D01*
X152753450Y-106221548D01*
X152766326Y-106224999D01*
X152770165Y-106224999D01*
X152776447Y-106224678D01*
X152865867Y-106215544D01*
X152879036Y-106212725D01*
X153026625Y-106163819D01*
X153039633Y-106157753D01*
X153171584Y-106076364D01*
X153182831Y-106067472D01*
X153186955Y-106063348D01*
X153242544Y-106031248D01*
X153306735Y-106031244D01*
X153362327Y-106063339D01*
X153371022Y-106072034D01*
X153403915Y-106130767D01*
X153401272Y-106198032D01*
X153366334Y-106305561D01*
X153366332Y-106305569D01*
X153364326Y-106311744D01*
X153363648Y-106318194D01*
X153363646Y-106318204D01*
X153353511Y-106414641D01*
X153344540Y-106500000D01*
X153345219Y-106506460D01*
X153363646Y-106681795D01*
X153363647Y-106681803D01*
X153364326Y-106688256D01*
X153366331Y-106694428D01*
X153366333Y-106694435D01*
X153420449Y-106860985D01*
X153422821Y-106868284D01*
X153426068Y-106873908D01*
X153426069Y-106873910D01*
X153463360Y-106938500D01*
X153479973Y-107000500D01*
X153463360Y-107062500D01*
X153417973Y-107107887D01*
X153355973Y-107124500D01*
X152329019Y-107124500D01*
X140999500Y-107124500D01*
X140937500Y-107107887D01*
X140892113Y-107062500D01*
X140875500Y-107000500D01*
X140875500Y-105545165D01*
X151550001Y-105545165D01*
X151550321Y-105551447D01*
X151559455Y-105640867D01*
X151562274Y-105654036D01*
X151611180Y-105801625D01*
X151617246Y-105814633D01*
X151698632Y-105946580D01*
X151707537Y-105957842D01*
X151817157Y-106067462D01*
X151828419Y-106076367D01*
X151960366Y-106157753D01*
X151973374Y-106163819D01*
X152120969Y-106212727D01*
X152134125Y-106215543D01*
X152223555Y-106224680D01*
X152229832Y-106225000D01*
X152233674Y-106225000D01*
X152246549Y-106221549D01*
X152250000Y-106208674D01*
X152250000Y-105516326D01*
X152246549Y-105503450D01*
X152233674Y-105500000D01*
X151566327Y-105500000D01*
X151553451Y-105503450D01*
X151550001Y-105516326D01*
X151550001Y-105545165D01*
X140875500Y-105545165D01*
X140875500Y-102084184D01*
X140894920Y-102017559D01*
X140947096Y-101971802D01*
X141015685Y-101961245D01*
X141123960Y-101975500D01*
X141371987Y-101975500D01*
X141376040Y-101975500D01*
X141485728Y-101961059D01*
X141518097Y-101961059D01*
X141557447Y-101966240D01*
X141572818Y-101963874D01*
X141575733Y-101961318D01*
X141588479Y-101936503D01*
X141624029Y-101905669D01*
X141626521Y-101904230D01*
X141634037Y-101901117D01*
X141708571Y-101843925D01*
X141725514Y-101830925D01*
X141788846Y-101805898D01*
X141855844Y-101818089D01*
X141906301Y-101863821D01*
X141925000Y-101929301D01*
X141925000Y-101950849D01*
X141928872Y-101964133D01*
X141942552Y-101966239D01*
X141983813Y-101960807D01*
X142016185Y-101960807D01*
X142057448Y-101966239D01*
X142071126Y-101964134D01*
X142075000Y-101950847D01*
X142075000Y-101353826D01*
X142071549Y-101340950D01*
X142058674Y-101337500D01*
X142049500Y-101337500D01*
X141987500Y-101320887D01*
X141942113Y-101275500D01*
X141925500Y-101213500D01*
X141925500Y-101111500D01*
X141942113Y-101049500D01*
X141987500Y-101004113D01*
X142049500Y-100987500D01*
X142200801Y-100987500D01*
X142240659Y-100994081D01*
G37*
%TD.AperFunction*%
%TA.AperFunction,Conductor*%
G36*
X135870981Y-102125500D02*
G01*
X136901000Y-102125500D01*
X136963000Y-102142113D01*
X137008387Y-102187500D01*
X137016818Y-102218966D01*
X137020775Y-102217906D01*
X137028450Y-102246549D01*
X137041326Y-102250000D01*
X138101000Y-102250000D01*
X138163000Y-102266613D01*
X138208387Y-102312000D01*
X138225000Y-102374000D01*
X138225000Y-103458673D01*
X138228450Y-103471548D01*
X138241326Y-103474999D01*
X138245165Y-103474999D01*
X138251447Y-103474678D01*
X138340867Y-103465544D01*
X138354036Y-103462725D01*
X138501625Y-103413819D01*
X138514633Y-103407753D01*
X138646584Y-103326364D01*
X138657831Y-103317472D01*
X138661955Y-103313348D01*
X138717544Y-103281248D01*
X138781735Y-103281244D01*
X138837327Y-103313339D01*
X138846956Y-103322968D01*
X138991303Y-103412003D01*
X139152292Y-103465349D01*
X139251655Y-103475500D01*
X139500501Y-103475499D01*
X139562500Y-103492112D01*
X139607887Y-103537499D01*
X139624500Y-103599499D01*
X139624500Y-107000500D01*
X139607887Y-107062500D01*
X139562500Y-107107887D01*
X139500500Y-107124500D01*
X131310453Y-107124500D01*
X131263000Y-107115061D01*
X131222772Y-107088181D01*
X130911819Y-106777228D01*
X130884939Y-106737000D01*
X130875500Y-106689547D01*
X130875500Y-104560452D01*
X130884939Y-104512999D01*
X130911819Y-104472771D01*
X130972771Y-104411819D01*
X131012999Y-104384939D01*
X131060452Y-104375500D01*
X131729169Y-104375500D01*
X131785464Y-104389015D01*
X131829487Y-104426615D01*
X131851642Y-104480102D01*
X131847100Y-104537818D01*
X131841333Y-104555564D01*
X131841331Y-104555573D01*
X131839326Y-104561744D01*
X131838648Y-104568194D01*
X131838646Y-104568204D01*
X131827222Y-104676907D01*
X131819540Y-104750000D01*
X131820219Y-104756460D01*
X131838646Y-104931795D01*
X131838647Y-104931803D01*
X131839326Y-104938256D01*
X131841331Y-104944428D01*
X131841333Y-104944435D01*
X131895295Y-105110510D01*
X131897821Y-105118284D01*
X131901068Y-105123908D01*
X131901069Y-105123910D01*
X131986896Y-105272568D01*
X131992467Y-105282216D01*
X131996811Y-105287041D01*
X131996813Y-105287043D01*
X132062522Y-105360020D01*
X132119129Y-105422888D01*
X132124387Y-105426708D01*
X132124388Y-105426709D01*
X132163932Y-105455439D01*
X132272270Y-105534151D01*
X132445197Y-105611144D01*
X132630354Y-105650500D01*
X132813143Y-105650500D01*
X132819646Y-105650500D01*
X133004803Y-105611144D01*
X133177730Y-105534151D01*
X133182991Y-105530328D01*
X133188000Y-105527437D01*
X133250000Y-105510824D01*
X133312000Y-105527437D01*
X133317009Y-105530329D01*
X133322270Y-105534151D01*
X133495197Y-105611144D01*
X133680354Y-105650500D01*
X133863143Y-105650500D01*
X133869646Y-105650500D01*
X134054803Y-105611144D01*
X134227730Y-105534151D01*
X134380871Y-105422888D01*
X134507533Y-105282216D01*
X134602179Y-105118284D01*
X134660674Y-104938256D01*
X134680460Y-104750000D01*
X134660674Y-104561744D01*
X134602179Y-104381716D01*
X134507533Y-104217784D01*
X134380871Y-104077112D01*
X134375613Y-104073292D01*
X134375611Y-104073290D01*
X134232988Y-103969669D01*
X134232987Y-103969668D01*
X134227730Y-103965849D01*
X134221798Y-103963208D01*
X134221795Y-103963206D01*
X134149064Y-103930824D01*
X134110302Y-103903682D01*
X134084530Y-103863996D01*
X134075501Y-103817545D01*
X134075501Y-103461887D01*
X134089512Y-103404630D01*
X134128379Y-103360311D01*
X134183318Y-103338948D01*
X134201281Y-103336583D01*
X134216930Y-103332390D01*
X134281121Y-103332390D01*
X134283018Y-103332898D01*
X134290528Y-103336009D01*
X134400599Y-103350500D01*
X134599400Y-103350499D01*
X134709472Y-103336009D01*
X134716982Y-103332897D01*
X134717904Y-103332651D01*
X134782093Y-103332650D01*
X134783016Y-103332897D01*
X134790528Y-103336009D01*
X134900599Y-103350500D01*
X135099400Y-103350499D01*
X135209472Y-103336009D01*
X135346429Y-103279279D01*
X135464036Y-103189036D01*
X135554279Y-103071429D01*
X135611009Y-102934472D01*
X135625500Y-102824401D01*
X135625500Y-102795165D01*
X137025001Y-102795165D01*
X137025321Y-102801447D01*
X137034455Y-102890867D01*
X137037274Y-102904036D01*
X137086180Y-103051625D01*
X137092246Y-103064633D01*
X137173632Y-103196580D01*
X137182537Y-103207842D01*
X137292157Y-103317462D01*
X137303419Y-103326367D01*
X137435366Y-103407753D01*
X137448374Y-103413819D01*
X137595969Y-103462727D01*
X137609125Y-103465543D01*
X137698555Y-103474680D01*
X137704832Y-103475000D01*
X137708674Y-103475000D01*
X137721549Y-103471549D01*
X137725000Y-103458674D01*
X137725000Y-102766326D01*
X137721549Y-102753450D01*
X137708674Y-102750000D01*
X137041327Y-102750000D01*
X137028451Y-102753450D01*
X137025001Y-102766326D01*
X137025001Y-102795165D01*
X135625500Y-102795165D01*
X135625499Y-102249498D01*
X135642112Y-102187499D01*
X135687499Y-102142112D01*
X135749499Y-102125499D01*
X135870977Y-102125499D01*
X135870979Y-102125499D01*
X135870981Y-102125500D01*
G37*
%TD.AperFunction*%
%TA.AperFunction,Conductor*%
G36*
X161731088Y-103887665D02*
G01*
X161784589Y-103919179D01*
X162420848Y-104555439D01*
X163052707Y-105187298D01*
X163060159Y-105195487D01*
X163064214Y-105201877D01*
X163096509Y-105232204D01*
X163113223Y-105247900D01*
X163116019Y-105250610D01*
X163135529Y-105270120D01*
X163138709Y-105272587D01*
X163147571Y-105280155D01*
X163149765Y-105282216D01*
X163173732Y-105304723D01*
X163173734Y-105304724D01*
X163179418Y-105310062D01*
X163186251Y-105313818D01*
X163186252Y-105313819D01*
X163196973Y-105319713D01*
X163213234Y-105330394D01*
X163229064Y-105342673D01*
X163269154Y-105360021D01*
X163279631Y-105365154D01*
X163317908Y-105386197D01*
X163334957Y-105390574D01*
X163337305Y-105391177D01*
X163355720Y-105397482D01*
X163374104Y-105405438D01*
X163373421Y-105407014D01*
X163413019Y-105429432D01*
X163444843Y-105476905D01*
X163451995Y-105533608D01*
X163450353Y-105548877D01*
X163450000Y-105555482D01*
X163450000Y-105683674D01*
X163453450Y-105696549D01*
X163466326Y-105700000D01*
X165225500Y-105700000D01*
X165287500Y-105716613D01*
X165332887Y-105762000D01*
X165349500Y-105823999D01*
X165349501Y-105975999D01*
X165332888Y-106038000D01*
X165287501Y-106083387D01*
X165225501Y-106100000D01*
X165206326Y-106100000D01*
X165193450Y-106103450D01*
X165192206Y-106108093D01*
X165167421Y-106155706D01*
X165124836Y-106188382D01*
X165072431Y-106200000D01*
X163466326Y-106200000D01*
X163453450Y-106203450D01*
X163450000Y-106216326D01*
X163450000Y-106344518D01*
X163450353Y-106351114D01*
X163455573Y-106399667D01*
X163459111Y-106414641D01*
X163503547Y-106533777D01*
X163511962Y-106549189D01*
X163587498Y-106650092D01*
X163600225Y-106662819D01*
X163630475Y-106712182D01*
X163635017Y-106769898D01*
X163612862Y-106823385D01*
X163568839Y-106860985D01*
X163512544Y-106874500D01*
X161560452Y-106874500D01*
X161512999Y-106865061D01*
X161472771Y-106838181D01*
X160161819Y-105527228D01*
X160134939Y-105487000D01*
X160125500Y-105439547D01*
X160125500Y-104448687D01*
X160133736Y-104404249D01*
X160157350Y-104365715D01*
X160165497Y-104356667D01*
X160232533Y-104282216D01*
X160327179Y-104118284D01*
X160338587Y-104083171D01*
X160368838Y-104033807D01*
X160418202Y-104003557D01*
X160475919Y-103999015D01*
X160529401Y-104021168D01*
X160547270Y-104034151D01*
X160720197Y-104111144D01*
X160905354Y-104150500D01*
X161088143Y-104150500D01*
X161094646Y-104150500D01*
X161279803Y-104111144D01*
X161452730Y-104034151D01*
X161605871Y-103922888D01*
X161610222Y-103918054D01*
X161613937Y-103914711D01*
X161669015Y-103886039D01*
X161731088Y-103887665D01*
G37*
%TD.AperFunction*%
%TA.AperFunction,Conductor*%
G36*
X147412775Y-92142113D02*
G01*
X147458162Y-92187500D01*
X147474775Y-92249500D01*
X147458162Y-92311500D01*
X147413770Y-92388388D01*
X147413767Y-92388393D01*
X147410522Y-92394015D01*
X147408516Y-92400187D01*
X147408514Y-92400193D01*
X147354034Y-92567863D01*
X147354032Y-92567872D01*
X147352027Y-92574043D01*
X147351349Y-92580493D01*
X147351347Y-92580503D01*
X147336289Y-92723785D01*
X147332241Y-92762299D01*
X147332920Y-92768759D01*
X147351347Y-92944094D01*
X147351348Y-92944102D01*
X147352027Y-92950555D01*
X147354032Y-92956727D01*
X147354034Y-92956734D01*
X147408514Y-93124404D01*
X147410522Y-93130583D01*
X147413769Y-93136207D01*
X147413770Y-93136209D01*
X147496099Y-93278808D01*
X147505168Y-93294515D01*
X147509512Y-93299340D01*
X147509514Y-93299342D01*
X147580351Y-93378014D01*
X147603965Y-93416548D01*
X147612201Y-93460986D01*
X147612201Y-94659926D01*
X147611679Y-94670981D01*
X147610028Y-94678368D01*
X147610272Y-94686154D01*
X147610272Y-94686162D01*
X147612140Y-94745574D01*
X147612201Y-94749469D01*
X147612201Y-94777051D01*
X147612689Y-94780920D01*
X147612690Y-94780926D01*
X147612705Y-94781044D01*
X147613619Y-94792667D01*
X147614746Y-94828531D01*
X147614747Y-94828538D01*
X147614992Y-94836328D01*
X147617168Y-94843820D01*
X147617169Y-94843822D01*
X147620580Y-94855563D01*
X147624526Y-94874616D01*
X147627037Y-94894493D01*
X147629907Y-94901743D01*
X147629909Y-94901749D01*
X147643115Y-94935105D01*
X147646898Y-94946152D01*
X147659083Y-94988091D01*
X147663054Y-94994806D01*
X147663055Y-94994808D01*
X147669282Y-95005338D01*
X147677837Y-95022800D01*
X147682343Y-95034181D01*
X147682344Y-95034184D01*
X147685215Y-95041433D01*
X147700520Y-95062499D01*
X147710882Y-95076761D01*
X147717294Y-95086523D01*
X147735557Y-95117403D01*
X147735560Y-95117408D01*
X147739531Y-95124121D01*
X147745046Y-95129636D01*
X147753691Y-95138281D01*
X147766327Y-95153075D01*
X147773520Y-95162976D01*
X147773524Y-95162980D01*
X147778107Y-95169288D01*
X147784116Y-95174259D01*
X147784117Y-95174260D01*
X147811758Y-95197126D01*
X147820399Y-95204989D01*
X148002705Y-95387296D01*
X148010158Y-95395487D01*
X148014214Y-95401877D01*
X148019895Y-95407212D01*
X148019896Y-95407213D01*
X148063224Y-95447901D01*
X148066021Y-95450612D01*
X148085529Y-95470120D01*
X148088709Y-95472587D01*
X148097571Y-95480155D01*
X148129418Y-95510062D01*
X148131113Y-95510993D01*
X148153356Y-95532766D01*
X148170804Y-95564449D01*
X148178102Y-95584017D01*
X148178105Y-95584023D01*
X148181204Y-95592331D01*
X148186518Y-95599430D01*
X148186519Y-95599431D01*
X148250848Y-95685364D01*
X148267454Y-95707546D01*
X148382669Y-95793796D01*
X148517517Y-95844091D01*
X148577127Y-95850500D01*
X149122872Y-95850499D01*
X149182483Y-95844091D01*
X149317331Y-95793796D01*
X149425689Y-95712678D01*
X149473640Y-95690780D01*
X149526357Y-95690780D01*
X149574310Y-95712679D01*
X149627008Y-95752128D01*
X149682669Y-95793796D01*
X149817517Y-95844091D01*
X149877127Y-95850500D01*
X150422872Y-95850499D01*
X150482483Y-95844091D01*
X150617331Y-95793796D01*
X150732546Y-95707546D01*
X150752218Y-95681267D01*
X150792054Y-95646747D01*
X150842635Y-95631894D01*
X150894816Y-95639396D01*
X150939164Y-95667897D01*
X150962402Y-95691135D01*
X151100607Y-95772869D01*
X151254796Y-95817665D01*
X151290819Y-95820500D01*
X151689180Y-95820499D01*
X151725204Y-95817665D01*
X151879393Y-95772869D01*
X151936880Y-95738870D01*
X151999998Y-95721603D01*
X152063118Y-95738870D01*
X152120607Y-95772869D01*
X152274796Y-95817665D01*
X152310819Y-95820500D01*
X152709180Y-95820499D01*
X152745204Y-95817665D01*
X152899393Y-95772869D01*
X153037598Y-95691135D01*
X153151135Y-95577598D01*
X153232869Y-95439393D01*
X153277665Y-95285204D01*
X153280500Y-95249181D01*
X153280499Y-95155450D01*
X153289938Y-95107999D01*
X153316815Y-95067773D01*
X153562822Y-94821768D01*
X153612182Y-94791520D01*
X153669898Y-94786978D01*
X153723385Y-94809133D01*
X153760985Y-94853156D01*
X153774500Y-94909451D01*
X153774500Y-95394560D01*
X153774500Y-95394578D01*
X153774501Y-95397872D01*
X153774853Y-95401150D01*
X153774854Y-95401161D01*
X153780079Y-95449768D01*
X153780080Y-95449773D01*
X153780909Y-95457483D01*
X153783619Y-95464749D01*
X153783620Y-95464753D01*
X153806014Y-95524793D01*
X153831204Y-95592331D01*
X153836518Y-95599430D01*
X153836519Y-95599431D01*
X153900848Y-95685364D01*
X153917454Y-95707546D01*
X154032669Y-95793796D01*
X154167517Y-95844091D01*
X154227127Y-95850500D01*
X154772872Y-95850499D01*
X154832483Y-95844091D01*
X154967331Y-95793796D01*
X154991044Y-95776043D01*
X155044792Y-95753026D01*
X155103112Y-95757197D01*
X155153037Y-95787627D01*
X155624287Y-96258878D01*
X156088181Y-96722772D01*
X156115061Y-96763000D01*
X156124500Y-96810453D01*
X156124500Y-98189547D01*
X156115061Y-98237000D01*
X156088181Y-98277228D01*
X154862696Y-99502711D01*
X154854511Y-99510159D01*
X154848123Y-99514214D01*
X154842788Y-99519894D01*
X154842783Y-99519899D01*
X154802096Y-99563225D01*
X154799392Y-99566016D01*
X154782628Y-99582780D01*
X154782621Y-99582787D01*
X154779880Y-99585529D01*
X154777500Y-99588596D01*
X154777489Y-99588609D01*
X154777400Y-99588725D01*
X154769842Y-99597570D01*
X154745280Y-99623727D01*
X154745273Y-99623736D01*
X154739938Y-99629418D01*
X154736182Y-99636249D01*
X154736179Y-99636254D01*
X154730285Y-99646975D01*
X154719609Y-99663227D01*
X154712109Y-99672896D01*
X154712101Y-99672907D01*
X154707327Y-99679064D01*
X154704234Y-99686208D01*
X154704229Y-99686219D01*
X154689974Y-99719160D01*
X154684838Y-99729643D01*
X154670634Y-99755482D01*
X154663803Y-99767908D01*
X154661864Y-99775456D01*
X154661863Y-99775461D01*
X154658822Y-99787307D01*
X154652521Y-99805711D01*
X154647658Y-99816948D01*
X154647656Y-99816952D01*
X154644562Y-99824104D01*
X154643342Y-99831803D01*
X154643342Y-99831805D01*
X154637729Y-99867241D01*
X154635361Y-99878676D01*
X154626438Y-99913428D01*
X154626436Y-99913436D01*
X154624500Y-99920981D01*
X154624500Y-99928777D01*
X154624500Y-99941017D01*
X154622974Y-99960402D01*
X154619840Y-99980196D01*
X154620574Y-99987961D01*
X154620574Y-99987964D01*
X154623950Y-100023676D01*
X154624500Y-100035345D01*
X154624500Y-100301313D01*
X154616264Y-100345751D01*
X154592650Y-100384285D01*
X154521813Y-100462956D01*
X154521808Y-100462962D01*
X154517467Y-100467784D01*
X154514222Y-100473404D01*
X154514218Y-100473410D01*
X154426069Y-100626089D01*
X154426066Y-100626094D01*
X154422821Y-100631716D01*
X154420815Y-100637888D01*
X154420813Y-100637894D01*
X154366333Y-100805564D01*
X154366331Y-100805573D01*
X154364326Y-100811744D01*
X154363648Y-100818194D01*
X154363646Y-100818204D01*
X154352202Y-100927095D01*
X154344540Y-101000000D01*
X154345219Y-101006460D01*
X154363646Y-101181795D01*
X154363647Y-101181803D01*
X154364326Y-101188256D01*
X154366331Y-101194428D01*
X154366333Y-101194435D01*
X154418123Y-101353825D01*
X154422821Y-101368284D01*
X154426068Y-101373908D01*
X154426069Y-101373910D01*
X154513197Y-101524821D01*
X154517467Y-101532216D01*
X154521811Y-101537041D01*
X154521813Y-101537043D01*
X154639779Y-101668057D01*
X154644129Y-101672888D01*
X154699499Y-101713116D01*
X154734802Y-101752843D01*
X154750231Y-101803703D01*
X154742949Y-101856351D01*
X154714294Y-101901114D01*
X153777228Y-102838181D01*
X153737000Y-102865061D01*
X153689547Y-102874500D01*
X148560453Y-102874500D01*
X148513000Y-102865061D01*
X148472772Y-102838181D01*
X145247286Y-99612695D01*
X145239842Y-99604514D01*
X145235786Y-99598123D01*
X145186775Y-99552098D01*
X145183978Y-99549387D01*
X145167227Y-99532636D01*
X145164471Y-99529880D01*
X145161290Y-99527412D01*
X145152414Y-99519830D01*
X145126269Y-99495278D01*
X145126267Y-99495276D01*
X145120582Y-99489938D01*
X145113749Y-99486182D01*
X145113743Y-99486177D01*
X145103025Y-99480285D01*
X145086766Y-99469606D01*
X145077095Y-99462104D01*
X145077092Y-99462102D01*
X145070936Y-99457327D01*
X145063779Y-99454229D01*
X145063776Y-99454228D01*
X145030849Y-99439978D01*
X145020363Y-99434841D01*
X144988932Y-99417562D01*
X144988923Y-99417558D01*
X144982092Y-99413803D01*
X144974535Y-99411862D01*
X144974531Y-99411861D01*
X144962688Y-99408820D01*
X144944284Y-99402519D01*
X144933057Y-99397660D01*
X144933050Y-99397658D01*
X144925896Y-99394562D01*
X144918192Y-99393341D01*
X144918190Y-99393341D01*
X144882759Y-99387729D01*
X144871324Y-99385361D01*
X144836571Y-99376438D01*
X144836563Y-99376437D01*
X144829019Y-99374500D01*
X144821223Y-99374500D01*
X144808983Y-99374500D01*
X144789597Y-99372974D01*
X144769804Y-99369840D01*
X144762038Y-99370574D01*
X144762035Y-99370574D01*
X144726324Y-99373950D01*
X144714655Y-99374500D01*
X144252888Y-99374500D01*
X144194291Y-99359781D01*
X144149605Y-99319120D01*
X144129438Y-99262168D01*
X144126050Y-99226323D01*
X144125500Y-99214655D01*
X144125500Y-98327771D01*
X144126020Y-98316718D01*
X144127672Y-98309332D01*
X144125561Y-98242144D01*
X144125500Y-98238250D01*
X144125500Y-98214545D01*
X144125500Y-98210650D01*
X144124998Y-98206681D01*
X144124080Y-98195024D01*
X144122954Y-98159172D01*
X144122709Y-98151372D01*
X144117120Y-98132139D01*
X144113174Y-98113082D01*
X144111641Y-98100946D01*
X144110664Y-98093208D01*
X144094581Y-98052587D01*
X144090799Y-98041540D01*
X144089569Y-98037307D01*
X144078617Y-97999610D01*
X144070831Y-97986444D01*
X144068422Y-97982370D01*
X144059860Y-97964892D01*
X144055360Y-97953527D01*
X144055359Y-97953526D01*
X144052486Y-97946268D01*
X144026812Y-97910931D01*
X144020409Y-97901184D01*
X143998170Y-97863579D01*
X143984006Y-97849415D01*
X143971368Y-97834618D01*
X143964184Y-97824729D01*
X143964178Y-97824723D01*
X143959594Y-97818413D01*
X143952446Y-97812500D01*
X143925946Y-97790577D01*
X143917305Y-97782714D01*
X143792629Y-97658038D01*
X143760535Y-97602450D01*
X143760536Y-97538262D01*
X143792630Y-97482674D01*
X143817468Y-97457836D01*
X143826364Y-97446584D01*
X143907753Y-97314633D01*
X143913819Y-97301625D01*
X143962727Y-97154030D01*
X143965543Y-97140874D01*
X143974680Y-97051444D01*
X143975000Y-97045168D01*
X143975000Y-97016326D01*
X143971549Y-97003450D01*
X143958674Y-97000000D01*
X142899000Y-97000000D01*
X142837000Y-96983387D01*
X142791613Y-96938000D01*
X142775000Y-96876000D01*
X142775000Y-96483674D01*
X143275000Y-96483674D01*
X143278450Y-96496549D01*
X143291326Y-96500000D01*
X143958673Y-96500000D01*
X143971548Y-96496549D01*
X143974999Y-96483674D01*
X143974999Y-96454835D01*
X143974678Y-96448552D01*
X143965544Y-96359132D01*
X143962725Y-96345963D01*
X143913819Y-96198374D01*
X143907753Y-96185366D01*
X143826367Y-96053419D01*
X143817462Y-96042157D01*
X143707842Y-95932537D01*
X143696580Y-95923632D01*
X143564633Y-95842246D01*
X143551625Y-95836180D01*
X143404030Y-95787272D01*
X143390874Y-95784456D01*
X143301444Y-95775319D01*
X143295168Y-95775000D01*
X143291326Y-95775000D01*
X143278450Y-95778450D01*
X143275000Y-95791326D01*
X143275000Y-96483674D01*
X142775000Y-96483674D01*
X142775000Y-95791327D01*
X142771549Y-95778451D01*
X142758674Y-95775001D01*
X142754835Y-95775001D01*
X142748552Y-95775321D01*
X142659132Y-95784455D01*
X142645963Y-95787274D01*
X142498374Y-95836180D01*
X142485366Y-95842246D01*
X142353416Y-95923634D01*
X142342157Y-95932536D01*
X142338024Y-95936669D01*
X142282437Y-95968755D01*
X142218254Y-95968752D01*
X142162671Y-95936659D01*
X142161819Y-95935807D01*
X142134939Y-95895579D01*
X142125500Y-95848126D01*
X142125500Y-95577772D01*
X142126020Y-95566719D01*
X142127672Y-95559333D01*
X142125561Y-95492145D01*
X142125500Y-95488251D01*
X142125500Y-95464545D01*
X142125500Y-95460650D01*
X142124998Y-95456681D01*
X142124080Y-95445024D01*
X142124065Y-95444550D01*
X142122709Y-95401373D01*
X142117120Y-95382140D01*
X142113174Y-95363083D01*
X142111641Y-95350944D01*
X142110664Y-95343208D01*
X142094582Y-95302591D01*
X142090803Y-95291551D01*
X142080795Y-95257102D01*
X142080793Y-95257099D01*
X142078618Y-95249610D01*
X142074647Y-95242896D01*
X142074645Y-95242891D01*
X142068421Y-95232368D01*
X142059858Y-95214890D01*
X142052486Y-95196268D01*
X142047902Y-95189959D01*
X142047899Y-95189953D01*
X142026817Y-95160937D01*
X142020401Y-95151170D01*
X142002143Y-95120296D01*
X142002140Y-95120292D01*
X141998170Y-95113579D01*
X141984005Y-95099414D01*
X141971368Y-95084618D01*
X141964184Y-95074729D01*
X141964178Y-95074723D01*
X141959594Y-95068413D01*
X141925946Y-95040577D01*
X141917305Y-95032714D01*
X141688961Y-94804370D01*
X141664721Y-94770072D01*
X141653321Y-94729650D01*
X141648750Y-94686162D01*
X141635674Y-94561744D01*
X141577179Y-94381716D01*
X141482533Y-94217784D01*
X141452206Y-94184103D01*
X141360220Y-94081942D01*
X141360219Y-94081941D01*
X141355871Y-94077112D01*
X141350613Y-94073292D01*
X141350611Y-94073290D01*
X141207988Y-93969669D01*
X141207987Y-93969668D01*
X141202730Y-93965849D01*
X141171049Y-93951743D01*
X141124106Y-93915232D01*
X141099562Y-93861062D01*
X141103064Y-93801694D01*
X141133805Y-93750784D01*
X141445043Y-93439547D01*
X142722771Y-92161819D01*
X142763000Y-92134939D01*
X142810453Y-92125500D01*
X147350775Y-92125500D01*
X147412775Y-92142113D01*
G37*
%TD.AperFunction*%
%TA.AperFunction,Conductor*%
G36*
X139907834Y-95117904D02*
G01*
X139946331Y-95159006D01*
X140010301Y-95269804D01*
X140017467Y-95282216D01*
X140021811Y-95287041D01*
X140021813Y-95287043D01*
X140139779Y-95418057D01*
X140144129Y-95422888D01*
X140149387Y-95426708D01*
X140149388Y-95426709D01*
X140182979Y-95451114D01*
X140297270Y-95534151D01*
X140470197Y-95611144D01*
X140655354Y-95650500D01*
X140714547Y-95650500D01*
X140762000Y-95659939D01*
X140802228Y-95686819D01*
X140837898Y-95722489D01*
X140867343Y-95769458D01*
X140873379Y-95824564D01*
X140854799Y-95876793D01*
X140815317Y-95915707D01*
X140803103Y-95923240D01*
X140803100Y-95923242D01*
X140796956Y-95927032D01*
X140791849Y-95932138D01*
X140791845Y-95932142D01*
X140682142Y-96041845D01*
X140682138Y-96041849D01*
X140677032Y-96046956D01*
X140673241Y-96053101D01*
X140673237Y-96053107D01*
X140591789Y-96185154D01*
X140591786Y-96185159D01*
X140587997Y-96191303D01*
X140585726Y-96198154D01*
X140585725Y-96198158D01*
X140537624Y-96343319D01*
X140534651Y-96352292D01*
X140533963Y-96359022D01*
X140533962Y-96359029D01*
X140524819Y-96448523D01*
X140524818Y-96448541D01*
X140524500Y-96451655D01*
X140524500Y-96454802D01*
X140524500Y-96454803D01*
X140524500Y-97045194D01*
X140524500Y-97045213D01*
X140524501Y-97048344D01*
X140524820Y-97051476D01*
X140524821Y-97051477D01*
X140533962Y-97140972D01*
X140533963Y-97140980D01*
X140534651Y-97147708D01*
X140536779Y-97154131D01*
X140536780Y-97154134D01*
X140585725Y-97301841D01*
X140587997Y-97308697D01*
X140591788Y-97314843D01*
X140591789Y-97314845D01*
X140669090Y-97440169D01*
X140677032Y-97453044D01*
X140796956Y-97572968D01*
X140813830Y-97583376D01*
X140852786Y-97621470D01*
X140871651Y-97672586D01*
X140866783Y-97726856D01*
X140839121Y-97773799D01*
X140802096Y-97813225D01*
X140799392Y-97816016D01*
X140782628Y-97832780D01*
X140782621Y-97832787D01*
X140779880Y-97835529D01*
X140777500Y-97838596D01*
X140777489Y-97838609D01*
X140777400Y-97838725D01*
X140769842Y-97847570D01*
X140745280Y-97873727D01*
X140745273Y-97873736D01*
X140739938Y-97879418D01*
X140736182Y-97886249D01*
X140736179Y-97886254D01*
X140730285Y-97896975D01*
X140719609Y-97913227D01*
X140712109Y-97922896D01*
X140712101Y-97922907D01*
X140707327Y-97929064D01*
X140704234Y-97936208D01*
X140704229Y-97936219D01*
X140689974Y-97969160D01*
X140684838Y-97979643D01*
X140673648Y-97999999D01*
X140663803Y-98017908D01*
X140661864Y-98025456D01*
X140661863Y-98025461D01*
X140658822Y-98037307D01*
X140652521Y-98055711D01*
X140647658Y-98066948D01*
X140647656Y-98066952D01*
X140644562Y-98074104D01*
X140643342Y-98081803D01*
X140643342Y-98081805D01*
X140637729Y-98117241D01*
X140635360Y-98128679D01*
X140624744Y-98170025D01*
X140593707Y-98225460D01*
X140550773Y-98251328D01*
X140551760Y-98253607D01*
X140544597Y-98256706D01*
X140537110Y-98258882D01*
X140530398Y-98262851D01*
X140530396Y-98262852D01*
X140519864Y-98269080D01*
X140502404Y-98277634D01*
X140491019Y-98282142D01*
X140491013Y-98282144D01*
X140483768Y-98285014D01*
X140477463Y-98289594D01*
X140477455Y-98289599D01*
X140448432Y-98310685D01*
X140438674Y-98317095D01*
X140407796Y-98335357D01*
X140407790Y-98335361D01*
X140401080Y-98339330D01*
X140395567Y-98344841D01*
X140395560Y-98344848D01*
X140386910Y-98353498D01*
X140372127Y-98366124D01*
X140362226Y-98373317D01*
X140362216Y-98373326D01*
X140355913Y-98377906D01*
X140350944Y-98383911D01*
X140350941Y-98383915D01*
X140328072Y-98411559D01*
X140320211Y-98420197D01*
X139862696Y-98877711D01*
X139854511Y-98885159D01*
X139848123Y-98889214D01*
X139842788Y-98894894D01*
X139842783Y-98894899D01*
X139802096Y-98938225D01*
X139799392Y-98941016D01*
X139782628Y-98957780D01*
X139782621Y-98957787D01*
X139779880Y-98960529D01*
X139777500Y-98963596D01*
X139777489Y-98963609D01*
X139777400Y-98963725D01*
X139769842Y-98972570D01*
X139745280Y-98998727D01*
X139745273Y-98998736D01*
X139739938Y-99004418D01*
X139736182Y-99011249D01*
X139736179Y-99011254D01*
X139730285Y-99021975D01*
X139719609Y-99038227D01*
X139712109Y-99047896D01*
X139712101Y-99047907D01*
X139707327Y-99054064D01*
X139704234Y-99061208D01*
X139704229Y-99061219D01*
X139689974Y-99094160D01*
X139684838Y-99104643D01*
X139663803Y-99142908D01*
X139661864Y-99150456D01*
X139661863Y-99150461D01*
X139658822Y-99162307D01*
X139652521Y-99180711D01*
X139647658Y-99191948D01*
X139647656Y-99191952D01*
X139644562Y-99199104D01*
X139643342Y-99206803D01*
X139643342Y-99206805D01*
X139637729Y-99242241D01*
X139635361Y-99253676D01*
X139626438Y-99288428D01*
X139626436Y-99288436D01*
X139624500Y-99295981D01*
X139624500Y-99303777D01*
X139624500Y-99316017D01*
X139622974Y-99335402D01*
X139619840Y-99355196D01*
X139620574Y-99362961D01*
X139620574Y-99362964D01*
X139623950Y-99398676D01*
X139624500Y-99410345D01*
X139624500Y-100429151D01*
X139622304Y-100452386D01*
X139622233Y-100452753D01*
X139622232Y-100452760D01*
X139620773Y-100460412D01*
X139621262Y-100468189D01*
X139621262Y-100468195D01*
X139624255Y-100515759D01*
X139624500Y-100523545D01*
X139624500Y-101400500D01*
X139607887Y-101462500D01*
X139562500Y-101507887D01*
X139500500Y-101524500D01*
X139254805Y-101524500D01*
X139254785Y-101524500D01*
X139251656Y-101524501D01*
X139248524Y-101524820D01*
X139248522Y-101524821D01*
X139159027Y-101533962D01*
X139159017Y-101533963D01*
X139152292Y-101534651D01*
X139145870Y-101536778D01*
X139145865Y-101536780D01*
X138998158Y-101585725D01*
X138998154Y-101585726D01*
X138991303Y-101587997D01*
X138985159Y-101591786D01*
X138985154Y-101591789D01*
X138853104Y-101673239D01*
X138853099Y-101673242D01*
X138846956Y-101677032D01*
X138841855Y-101682132D01*
X138841841Y-101682144D01*
X138837317Y-101686668D01*
X138781730Y-101718755D01*
X138717547Y-101718752D01*
X138661964Y-101686659D01*
X138657834Y-101682529D01*
X138652214Y-101678085D01*
X138612199Y-101622096D01*
X138608199Y-101553395D01*
X138641445Y-101493144D01*
X139037311Y-101097278D01*
X139045481Y-101089844D01*
X139051877Y-101085786D01*
X139097918Y-101036756D01*
X139100535Y-101034054D01*
X139120120Y-101014471D01*
X139122585Y-101011292D01*
X139130167Y-101002416D01*
X139160062Y-100970582D01*
X139169713Y-100953023D01*
X139180390Y-100936770D01*
X139192673Y-100920936D01*
X139210018Y-100880852D01*
X139215151Y-100870371D01*
X139236197Y-100832092D01*
X139241179Y-100812684D01*
X139247482Y-100794276D01*
X139255437Y-100775896D01*
X139262271Y-100732744D01*
X139264633Y-100721338D01*
X139275500Y-100679019D01*
X139275500Y-100658983D01*
X139277027Y-100639585D01*
X139278939Y-100627513D01*
X139278938Y-100627513D01*
X139280160Y-100619804D01*
X139276050Y-100576324D01*
X139275500Y-100564655D01*
X139275500Y-95660452D01*
X139284939Y-95612999D01*
X139311819Y-95572771D01*
X139420045Y-95464545D01*
X139751266Y-95133322D01*
X139799085Y-95103587D01*
X139855129Y-95098067D01*
X139907834Y-95117904D01*
G37*
%TD.AperFunction*%
%TA.AperFunction,Conductor*%
G36*
X137167396Y-92392113D02*
G01*
X137212782Y-92437499D01*
X137233147Y-92472772D01*
X137262070Y-92522869D01*
X137267467Y-92532216D01*
X137271811Y-92537041D01*
X137271813Y-92537043D01*
X137340020Y-92612794D01*
X137394129Y-92672888D01*
X137399387Y-92676708D01*
X137399388Y-92676709D01*
X137443540Y-92708787D01*
X137547270Y-92784151D01*
X137720197Y-92861144D01*
X137731078Y-92863457D01*
X137789469Y-92893690D01*
X137824192Y-92949528D01*
X137825484Y-93015269D01*
X137792980Y-93072428D01*
X136862696Y-94002711D01*
X136854511Y-94010159D01*
X136848123Y-94014214D01*
X136842788Y-94019894D01*
X136842783Y-94019899D01*
X136802096Y-94063225D01*
X136799392Y-94066016D01*
X136782628Y-94082780D01*
X136782621Y-94082787D01*
X136779880Y-94085529D01*
X136777500Y-94088596D01*
X136777489Y-94088609D01*
X136777400Y-94088725D01*
X136769842Y-94097570D01*
X136745280Y-94123727D01*
X136745273Y-94123736D01*
X136739938Y-94129418D01*
X136736182Y-94136249D01*
X136736179Y-94136254D01*
X136730285Y-94146975D01*
X136719609Y-94163227D01*
X136712109Y-94172896D01*
X136712101Y-94172907D01*
X136707327Y-94179064D01*
X136704234Y-94186208D01*
X136704229Y-94186219D01*
X136689974Y-94219160D01*
X136684838Y-94229643D01*
X136677515Y-94242964D01*
X136663803Y-94267908D01*
X136661864Y-94275456D01*
X136661863Y-94275461D01*
X136658822Y-94287307D01*
X136652521Y-94305711D01*
X136647658Y-94316948D01*
X136647656Y-94316952D01*
X136644562Y-94324104D01*
X136643342Y-94331803D01*
X136643342Y-94331805D01*
X136637729Y-94367241D01*
X136635361Y-94378676D01*
X136626438Y-94413428D01*
X136626436Y-94413436D01*
X136624500Y-94420981D01*
X136624500Y-94428777D01*
X136624500Y-94441017D01*
X136622974Y-94460402D01*
X136619840Y-94480196D01*
X136620574Y-94487961D01*
X136620574Y-94487964D01*
X136623950Y-94523676D01*
X136624500Y-94535345D01*
X136624500Y-97782124D01*
X136609858Y-97840577D01*
X136569391Y-97885226D01*
X136512654Y-97905527D01*
X136453047Y-97896685D01*
X136441981Y-97892101D01*
X136441978Y-97892100D01*
X136434472Y-97888991D01*
X136426418Y-97887930D01*
X136426412Y-97887929D01*
X136328421Y-97875029D01*
X136328417Y-97875028D01*
X136324401Y-97874500D01*
X136320348Y-97874500D01*
X135749499Y-97874500D01*
X135687499Y-97857887D01*
X135642112Y-97812500D01*
X135625499Y-97750500D01*
X135625499Y-97179655D01*
X135625499Y-97175600D01*
X135611009Y-97065528D01*
X135554279Y-96928571D01*
X135464036Y-96810964D01*
X135450207Y-96800353D01*
X135396434Y-96759091D01*
X135346429Y-96720721D01*
X135338921Y-96717611D01*
X135216981Y-96667101D01*
X135216978Y-96667100D01*
X135209472Y-96663991D01*
X135201418Y-96662930D01*
X135201412Y-96662929D01*
X135103421Y-96650029D01*
X135103417Y-96650028D01*
X135099401Y-96649500D01*
X135095347Y-96649500D01*
X134904654Y-96649500D01*
X134904639Y-96649500D01*
X134900600Y-96649501D01*
X134896585Y-96650029D01*
X134896577Y-96650030D01*
X134798586Y-96662930D01*
X134798584Y-96662930D01*
X134790528Y-96663991D01*
X134783022Y-96667099D01*
X134782089Y-96667350D01*
X134717910Y-96667350D01*
X134716979Y-96667100D01*
X134709472Y-96663991D01*
X134701418Y-96662930D01*
X134701412Y-96662929D01*
X134603421Y-96650029D01*
X134603417Y-96650028D01*
X134599401Y-96649500D01*
X134595347Y-96649500D01*
X134404654Y-96649500D01*
X134404639Y-96649500D01*
X134400600Y-96649501D01*
X134396585Y-96650029D01*
X134396577Y-96650030D01*
X134298586Y-96662930D01*
X134298584Y-96662930D01*
X134290528Y-96663991D01*
X134283022Y-96667099D01*
X134282089Y-96667350D01*
X134217910Y-96667350D01*
X134216979Y-96667100D01*
X134209472Y-96663991D01*
X134201418Y-96662930D01*
X134201412Y-96662929D01*
X134103421Y-96650029D01*
X134103417Y-96650028D01*
X134099401Y-96649500D01*
X134095347Y-96649500D01*
X133904654Y-96649500D01*
X133904639Y-96649500D01*
X133900600Y-96649501D01*
X133896585Y-96650029D01*
X133896577Y-96650030D01*
X133798586Y-96662930D01*
X133798584Y-96662930D01*
X133790528Y-96663991D01*
X133783022Y-96667099D01*
X133782089Y-96667350D01*
X133717910Y-96667350D01*
X133716979Y-96667100D01*
X133709472Y-96663991D01*
X133701418Y-96662930D01*
X133701412Y-96662929D01*
X133603421Y-96650029D01*
X133603417Y-96650028D01*
X133599401Y-96649500D01*
X133595347Y-96649500D01*
X133404654Y-96649500D01*
X133404639Y-96649500D01*
X133400600Y-96649501D01*
X133396585Y-96650029D01*
X133396577Y-96650030D01*
X133290528Y-96663991D01*
X133290374Y-96662822D01*
X133234800Y-96662816D01*
X133179218Y-96630719D01*
X133147130Y-96575131D01*
X133147132Y-96510947D01*
X133179223Y-96455365D01*
X133887311Y-95747278D01*
X133895481Y-95739844D01*
X133901877Y-95735786D01*
X133947918Y-95686756D01*
X133950535Y-95684054D01*
X133970120Y-95664471D01*
X133972585Y-95661292D01*
X133980167Y-95652416D01*
X134010062Y-95620582D01*
X134019713Y-95603023D01*
X134030390Y-95586770D01*
X134042673Y-95570936D01*
X134060018Y-95530852D01*
X134065151Y-95520371D01*
X134086197Y-95482092D01*
X134091179Y-95462684D01*
X134097482Y-95444276D01*
X134105437Y-95425896D01*
X134112271Y-95382744D01*
X134114633Y-95371338D01*
X134125500Y-95329019D01*
X134125500Y-95308983D01*
X134127027Y-95289585D01*
X134128939Y-95277513D01*
X134128938Y-95277513D01*
X134130160Y-95269804D01*
X134126050Y-95226324D01*
X134125500Y-95214655D01*
X134125500Y-94364158D01*
X134127999Y-94344368D01*
X134127582Y-94344316D01*
X134128559Y-94336574D01*
X134130500Y-94329019D01*
X134130500Y-94308983D01*
X134132025Y-94289597D01*
X134135160Y-94269804D01*
X134131364Y-94229643D01*
X134131050Y-94226324D01*
X134130500Y-94214655D01*
X134130500Y-93933664D01*
X134148183Y-93869847D01*
X134196187Y-93824231D01*
X134246167Y-93813091D01*
X134252155Y-93810472D01*
X134255000Y-93798415D01*
X134755000Y-93798415D01*
X134757590Y-93809394D01*
X134768856Y-93808819D01*
X134886700Y-93774582D01*
X134900907Y-93768434D01*
X135025571Y-93694708D01*
X135037807Y-93685217D01*
X135140217Y-93582807D01*
X135149708Y-93570571D01*
X135223434Y-93445907D01*
X135229582Y-93431700D01*
X135270398Y-93291212D01*
X135272664Y-93278808D01*
X135273585Y-93267098D01*
X135270921Y-93253706D01*
X135257779Y-93250000D01*
X134771326Y-93250000D01*
X134758450Y-93253450D01*
X134755000Y-93266326D01*
X134755000Y-93798415D01*
X134255000Y-93798415D01*
X134255000Y-93260409D01*
X134255249Y-93254046D01*
X134255213Y-93254045D01*
X134255307Y-93251624D01*
X134255500Y-93249181D01*
X134255499Y-92873999D01*
X134272112Y-92812000D01*
X134317499Y-92766613D01*
X134379499Y-92750000D01*
X135257779Y-92750000D01*
X135270921Y-92746293D01*
X135273585Y-92732901D01*
X135272664Y-92721191D01*
X135270398Y-92708787D01*
X135229582Y-92568299D01*
X135221121Y-92548745D01*
X135211386Y-92488800D01*
X135231283Y-92431421D01*
X135276041Y-92390372D01*
X135334923Y-92375500D01*
X137105396Y-92375500D01*
X137167396Y-92392113D01*
G37*
%TD.AperFunction*%
%TA.AperFunction,Conductor*%
G36*
X159846685Y-92386219D02*
G01*
X159884781Y-92413895D01*
X159884950Y-92413709D01*
X159886728Y-92415310D01*
X159888398Y-92416523D01*
X159894129Y-92422888D01*
X160047270Y-92534151D01*
X160053556Y-92536950D01*
X160053855Y-92537168D01*
X160058834Y-92540043D01*
X160058521Y-92540583D01*
X160095846Y-92567900D01*
X160121575Y-92613558D01*
X160126066Y-92664879D01*
X160124500Y-92670981D01*
X160124500Y-92678784D01*
X160124500Y-92691017D01*
X160122974Y-92710402D01*
X160119840Y-92730196D01*
X160120574Y-92737961D01*
X160120574Y-92737964D01*
X160123950Y-92773676D01*
X160124500Y-92785345D01*
X160124500Y-93439547D01*
X160115061Y-93487000D01*
X160088181Y-93527228D01*
X157455472Y-96159935D01*
X157407956Y-96189569D01*
X157352249Y-96195276D01*
X157299711Y-96175893D01*
X157261059Y-96135375D01*
X157248170Y-96113579D01*
X157234005Y-96099414D01*
X157221368Y-96084618D01*
X157214184Y-96074729D01*
X157214178Y-96074723D01*
X157209594Y-96068413D01*
X157175946Y-96040577D01*
X157167305Y-96032714D01*
X155747286Y-94612695D01*
X155739842Y-94604514D01*
X155735786Y-94598123D01*
X155686775Y-94552098D01*
X155683978Y-94549387D01*
X155667227Y-94532636D01*
X155667226Y-94532635D01*
X155664471Y-94529880D01*
X155661290Y-94527412D01*
X155652414Y-94519830D01*
X155626269Y-94495278D01*
X155626267Y-94495276D01*
X155620582Y-94489938D01*
X155613749Y-94486182D01*
X155613743Y-94486177D01*
X155603025Y-94480285D01*
X155586766Y-94469606D01*
X155577095Y-94462104D01*
X155577092Y-94462102D01*
X155570936Y-94457327D01*
X155563779Y-94454229D01*
X155563776Y-94454228D01*
X155530849Y-94439978D01*
X155520363Y-94434841D01*
X155488932Y-94417562D01*
X155488923Y-94417558D01*
X155482092Y-94413803D01*
X155474535Y-94411862D01*
X155474531Y-94411861D01*
X155462688Y-94408820D01*
X155444284Y-94402519D01*
X155433057Y-94397660D01*
X155433050Y-94397658D01*
X155425896Y-94394562D01*
X155418192Y-94393341D01*
X155418190Y-94393341D01*
X155382759Y-94387729D01*
X155371324Y-94385361D01*
X155336571Y-94376438D01*
X155336563Y-94376437D01*
X155329019Y-94374500D01*
X155321223Y-94374500D01*
X155308983Y-94374500D01*
X155289597Y-94372974D01*
X155269804Y-94369840D01*
X155262038Y-94370574D01*
X155262035Y-94370574D01*
X155226324Y-94373950D01*
X155214655Y-94374500D01*
X155206035Y-94374500D01*
X155150531Y-94361384D01*
X155106769Y-94324812D01*
X155106239Y-94324104D01*
X155082546Y-94292454D01*
X155075449Y-94287141D01*
X155075447Y-94287139D01*
X155059616Y-94275288D01*
X155017746Y-94219354D01*
X155012762Y-94149663D01*
X155046244Y-94088345D01*
X155247774Y-93886815D01*
X155288001Y-93859938D01*
X155335453Y-93850499D01*
X155419561Y-93850499D01*
X155422872Y-93850499D01*
X155482483Y-93844091D01*
X155617331Y-93793796D01*
X155732546Y-93707546D01*
X155756769Y-93675187D01*
X155800531Y-93638616D01*
X155856035Y-93625500D01*
X156422225Y-93625500D01*
X156433280Y-93626021D01*
X156440667Y-93627673D01*
X156507872Y-93625561D01*
X156511768Y-93625500D01*
X156524706Y-93625500D01*
X156550486Y-93628209D01*
X156655354Y-93650500D01*
X156838143Y-93650500D01*
X156844646Y-93650500D01*
X157029803Y-93611144D01*
X157202730Y-93534151D01*
X157355871Y-93422888D01*
X157482533Y-93282216D01*
X157577179Y-93118284D01*
X157635674Y-92938256D01*
X157655460Y-92750000D01*
X157635674Y-92561744D01*
X157627900Y-92537818D01*
X157623358Y-92480102D01*
X157645513Y-92426615D01*
X157689536Y-92389015D01*
X157745831Y-92375500D01*
X159796252Y-92375500D01*
X159846685Y-92386219D01*
G37*
%TD.AperFunction*%
%TA.AperFunction,Conductor*%
G36*
X165237001Y-92884939D02*
G01*
X165277226Y-92911816D01*
X165353229Y-92987820D01*
X165383478Y-93037182D01*
X165388020Y-93094898D01*
X165365865Y-93148385D01*
X165321842Y-93185985D01*
X165265547Y-93199500D01*
X165005439Y-93199500D01*
X165005420Y-93199500D01*
X165002128Y-93199501D01*
X164998850Y-93199853D01*
X164998838Y-93199854D01*
X164950231Y-93205079D01*
X164950225Y-93205080D01*
X164942517Y-93205909D01*
X164935250Y-93208619D01*
X164935247Y-93208620D01*
X164892616Y-93224520D01*
X164849285Y-93232337D01*
X164805953Y-93224519D01*
X164764645Y-93209112D01*
X164749667Y-93205573D01*
X164701114Y-93200353D01*
X164694518Y-93200000D01*
X164566326Y-93200000D01*
X164553450Y-93203450D01*
X164550000Y-93216326D01*
X164550000Y-93642804D01*
X164549833Y-93649028D01*
X164549500Y-93652127D01*
X164549500Y-93655449D01*
X164549500Y-94176000D01*
X164532887Y-94238000D01*
X164487500Y-94283387D01*
X164425500Y-94300000D01*
X163466326Y-94300000D01*
X163453450Y-94303450D01*
X163450000Y-94316326D01*
X163450000Y-94444518D01*
X163450353Y-94451116D01*
X163454264Y-94487492D01*
X163447723Y-94542527D01*
X163417859Y-94589216D01*
X163370638Y-94618231D01*
X163329019Y-94622416D01*
X163329019Y-94624500D01*
X163308983Y-94624500D01*
X163289597Y-94622974D01*
X163269804Y-94619840D01*
X163262038Y-94620574D01*
X163262035Y-94620574D01*
X163226324Y-94623950D01*
X163214655Y-94624500D01*
X161809257Y-94624500D01*
X161754354Y-94611683D01*
X161710801Y-94575882D01*
X161687601Y-94524498D01*
X161689550Y-94468153D01*
X161716245Y-94418495D01*
X161717354Y-94417235D01*
X161720120Y-94414471D01*
X161722585Y-94411292D01*
X161730167Y-94402416D01*
X161760062Y-94370582D01*
X161769713Y-94353023D01*
X161780390Y-94336770D01*
X161792673Y-94320936D01*
X161810018Y-94280852D01*
X161815151Y-94270371D01*
X161836197Y-94232092D01*
X161841179Y-94212684D01*
X161847482Y-94194276D01*
X161855437Y-94175896D01*
X161862271Y-94132744D01*
X161864633Y-94121338D01*
X161875500Y-94079019D01*
X161875500Y-94058983D01*
X161877027Y-94039585D01*
X161878939Y-94027513D01*
X161878938Y-94027513D01*
X161880160Y-94019804D01*
X161876050Y-93976324D01*
X161875500Y-93964655D01*
X161875500Y-93783674D01*
X163450000Y-93783674D01*
X163453450Y-93796549D01*
X163466326Y-93800000D01*
X164033674Y-93800000D01*
X164046549Y-93796549D01*
X164050000Y-93783674D01*
X164050000Y-93216326D01*
X164046549Y-93203450D01*
X164033674Y-93200000D01*
X163905482Y-93200000D01*
X163898885Y-93200353D01*
X163850332Y-93205573D01*
X163835358Y-93209111D01*
X163716222Y-93253547D01*
X163700810Y-93261962D01*
X163599907Y-93337498D01*
X163587498Y-93349907D01*
X163511962Y-93450810D01*
X163503547Y-93466222D01*
X163459111Y-93585358D01*
X163455573Y-93600332D01*
X163450353Y-93648885D01*
X163450000Y-93655482D01*
X163450000Y-93783674D01*
X161875500Y-93783674D01*
X161875500Y-93310452D01*
X161884939Y-93262999D01*
X161911819Y-93222771D01*
X162222772Y-92911819D01*
X162263000Y-92884939D01*
X162310453Y-92875500D01*
X165189548Y-92875500D01*
X165237001Y-92884939D01*
G37*
%TD.AperFunction*%
%TA.AperFunction,Conductor*%
G36*
X185937500Y-80017113D02*
G01*
X185982887Y-80062500D01*
X185999500Y-80124500D01*
X185999500Y-85269175D01*
X185982395Y-85332020D01*
X185739641Y-85744924D01*
X185739612Y-85744973D01*
X185739086Y-85745870D01*
X185738594Y-85746778D01*
X185738567Y-85746827D01*
X185250532Y-86648675D01*
X185250505Y-86648725D01*
X185250018Y-86649627D01*
X185249548Y-86650573D01*
X185249531Y-86650607D01*
X185021420Y-87110336D01*
X184793271Y-87570141D01*
X184792833Y-87571108D01*
X184792827Y-87571121D01*
X184369858Y-88505283D01*
X184369837Y-88505330D01*
X184369418Y-88506257D01*
X184369026Y-88507210D01*
X184369005Y-88507260D01*
X183979411Y-89455775D01*
X183979399Y-89455804D01*
X183978991Y-89456799D01*
X183978614Y-89457816D01*
X183978607Y-89457836D01*
X183715532Y-90169020D01*
X183689131Y-90211408D01*
X183648149Y-90239944D01*
X183599234Y-90250000D01*
X174750000Y-90250000D01*
X174750000Y-90266326D01*
X174750000Y-93078314D01*
X174731105Y-93144108D01*
X174680180Y-93189851D01*
X174612743Y-93201603D01*
X174601127Y-93200354D01*
X174594518Y-93200000D01*
X174466326Y-93200000D01*
X174453450Y-93203450D01*
X174450000Y-93216326D01*
X174450000Y-94822431D01*
X174438382Y-94874836D01*
X174405706Y-94917421D01*
X174358093Y-94942206D01*
X174353450Y-94943450D01*
X174350000Y-94956326D01*
X174350000Y-105043674D01*
X174353450Y-105056549D01*
X174358093Y-105057794D01*
X174405706Y-105082579D01*
X174438382Y-105125164D01*
X174450000Y-105177569D01*
X174450000Y-106783674D01*
X174453450Y-106796549D01*
X174466326Y-106800000D01*
X174594518Y-106800000D01*
X174601127Y-106799645D01*
X174612743Y-106798397D01*
X174680180Y-106810149D01*
X174731105Y-106855892D01*
X174750000Y-106921686D01*
X174750000Y-109250000D01*
X174750000Y-109750000D01*
X183599234Y-109750000D01*
X183648149Y-109760056D01*
X183689131Y-109788592D01*
X183715532Y-109830980D01*
X183811568Y-110090598D01*
X183978991Y-110543201D01*
X183979407Y-110544214D01*
X183979411Y-110544224D01*
X184369005Y-111492739D01*
X184369017Y-111492768D01*
X184369418Y-111493743D01*
X184369846Y-111494690D01*
X184369858Y-111494716D01*
X184690969Y-112203916D01*
X184793271Y-112429859D01*
X185250018Y-113350373D01*
X185250517Y-113351296D01*
X185250532Y-113351324D01*
X185738567Y-114253172D01*
X185738581Y-114253196D01*
X185739086Y-114254130D01*
X185739627Y-114255050D01*
X185739641Y-114255075D01*
X185982395Y-114667980D01*
X185999500Y-114730825D01*
X185999500Y-119875500D01*
X185982887Y-119937500D01*
X185937500Y-119982887D01*
X185875500Y-119999500D01*
X182000099Y-119999500D01*
X118000099Y-119999500D01*
X114124500Y-119999500D01*
X114062500Y-119982887D01*
X114017113Y-119937500D01*
X114000500Y-119875500D01*
X114000500Y-117500000D01*
X115194532Y-117500000D01*
X115214365Y-117726692D01*
X115215762Y-117731907D01*
X115215764Y-117731916D01*
X115271858Y-117941263D01*
X115271861Y-117941271D01*
X115273261Y-117946496D01*
X115369432Y-118152734D01*
X115499953Y-118339139D01*
X115660861Y-118500047D01*
X115847266Y-118630568D01*
X116053504Y-118726739D01*
X116273308Y-118785635D01*
X116500000Y-118805468D01*
X116726692Y-118785635D01*
X116946496Y-118726739D01*
X117152734Y-118630568D01*
X117339139Y-118500047D01*
X117500047Y-118339139D01*
X117630568Y-118152734D01*
X117726739Y-117946496D01*
X117785635Y-117726692D01*
X117805468Y-117500000D01*
X182194532Y-117500000D01*
X182214365Y-117726692D01*
X182215762Y-117731907D01*
X182215764Y-117731916D01*
X182271858Y-117941263D01*
X182271861Y-117941271D01*
X182273261Y-117946496D01*
X182369432Y-118152734D01*
X182499953Y-118339139D01*
X182660861Y-118500047D01*
X182847266Y-118630568D01*
X183053504Y-118726739D01*
X183273308Y-118785635D01*
X183500000Y-118805468D01*
X183726692Y-118785635D01*
X183946496Y-118726739D01*
X184152734Y-118630568D01*
X184339139Y-118500047D01*
X184500047Y-118339139D01*
X184630568Y-118152734D01*
X184726739Y-117946496D01*
X184785635Y-117726692D01*
X184805468Y-117500000D01*
X184785635Y-117273308D01*
X184726739Y-117053504D01*
X184630568Y-116847266D01*
X184500047Y-116660861D01*
X184339139Y-116499953D01*
X184152734Y-116369432D01*
X184088145Y-116339313D01*
X183951405Y-116275550D01*
X183951403Y-116275549D01*
X183946496Y-116273261D01*
X183941271Y-116271861D01*
X183941263Y-116271858D01*
X183731916Y-116215764D01*
X183731907Y-116215762D01*
X183726692Y-116214365D01*
X183721304Y-116213893D01*
X183721301Y-116213893D01*
X183505395Y-116195004D01*
X183500000Y-116194532D01*
X183494605Y-116195004D01*
X183278698Y-116213893D01*
X183278693Y-116213893D01*
X183273308Y-116214365D01*
X183268094Y-116215762D01*
X183268083Y-116215764D01*
X183058736Y-116271858D01*
X183058724Y-116271862D01*
X183053504Y-116273261D01*
X183048599Y-116275547D01*
X183048594Y-116275550D01*
X182852176Y-116367142D01*
X182852172Y-116367144D01*
X182847266Y-116369432D01*
X182842833Y-116372535D01*
X182842826Y-116372540D01*
X182665296Y-116496847D01*
X182665291Y-116496850D01*
X182660861Y-116499953D01*
X182657037Y-116503776D01*
X182657031Y-116503782D01*
X182503782Y-116657031D01*
X182503776Y-116657037D01*
X182499953Y-116660861D01*
X182496850Y-116665291D01*
X182496847Y-116665296D01*
X182372540Y-116842826D01*
X182372535Y-116842833D01*
X182369432Y-116847266D01*
X182367144Y-116852172D01*
X182367142Y-116852176D01*
X182275550Y-117048594D01*
X182275547Y-117048599D01*
X182273261Y-117053504D01*
X182271862Y-117058724D01*
X182271858Y-117058736D01*
X182215764Y-117268083D01*
X182215762Y-117268094D01*
X182214365Y-117273308D01*
X182194532Y-117500000D01*
X117805468Y-117500000D01*
X117785635Y-117273308D01*
X117726739Y-117053504D01*
X117630568Y-116847266D01*
X117500047Y-116660861D01*
X117339139Y-116499953D01*
X117152734Y-116369432D01*
X117088145Y-116339313D01*
X116951405Y-116275550D01*
X116951403Y-116275549D01*
X116946496Y-116273261D01*
X116941271Y-116271861D01*
X116941263Y-116271858D01*
X116731916Y-116215764D01*
X116731907Y-116215762D01*
X116726692Y-116214365D01*
X116721304Y-116213893D01*
X116721301Y-116213893D01*
X116505395Y-116195004D01*
X116500000Y-116194532D01*
X116494605Y-116195004D01*
X116278698Y-116213893D01*
X116278693Y-116213893D01*
X116273308Y-116214365D01*
X116268094Y-116215762D01*
X116268083Y-116215764D01*
X116058736Y-116271858D01*
X116058724Y-116271862D01*
X116053504Y-116273261D01*
X116048599Y-116275547D01*
X116048594Y-116275550D01*
X115852176Y-116367142D01*
X115852172Y-116367144D01*
X115847266Y-116369432D01*
X115842833Y-116372535D01*
X115842826Y-116372540D01*
X115665296Y-116496847D01*
X115665291Y-116496850D01*
X115660861Y-116499953D01*
X115657037Y-116503776D01*
X115657031Y-116503782D01*
X115503782Y-116657031D01*
X115503776Y-116657037D01*
X115499953Y-116660861D01*
X115496850Y-116665291D01*
X115496847Y-116665296D01*
X115372540Y-116842826D01*
X115372535Y-116842833D01*
X115369432Y-116847266D01*
X115367144Y-116852172D01*
X115367142Y-116852176D01*
X115275550Y-117048594D01*
X115275547Y-117048599D01*
X115273261Y-117053504D01*
X115271862Y-117058724D01*
X115271858Y-117058736D01*
X115215764Y-117268083D01*
X115215762Y-117268094D01*
X115214365Y-117273308D01*
X115194532Y-117500000D01*
X114000500Y-117500000D01*
X114000500Y-115000000D01*
X124945000Y-115000000D01*
X124962963Y-115193856D01*
X124964531Y-115199367D01*
X124964533Y-115199377D01*
X125014671Y-115375591D01*
X125014673Y-115375597D01*
X125016242Y-115381110D01*
X125103021Y-115555386D01*
X125106473Y-115559957D01*
X125216888Y-115706171D01*
X125216892Y-115706176D01*
X125220346Y-115710749D01*
X125224582Y-115714610D01*
X125224586Y-115714615D01*
X125291473Y-115775590D01*
X125364220Y-115841908D01*
X125529746Y-115944397D01*
X125711286Y-116014726D01*
X125902657Y-116050500D01*
X125999901Y-116050500D01*
X126000000Y-116050500D01*
X126000500Y-116050500D01*
X145999500Y-116050500D01*
X146000099Y-116050500D01*
X146091614Y-116050500D01*
X146097343Y-116050500D01*
X146288714Y-116014726D01*
X146470254Y-115944397D01*
X146635780Y-115841908D01*
X146779654Y-115710749D01*
X146896979Y-115555386D01*
X146983758Y-115381110D01*
X147037037Y-115193856D01*
X147055000Y-115000000D01*
X161945000Y-115000000D01*
X161962963Y-115193856D01*
X161964531Y-115199367D01*
X161964533Y-115199377D01*
X162014671Y-115375591D01*
X162014673Y-115375597D01*
X162016242Y-115381110D01*
X162103021Y-115555386D01*
X162106473Y-115559957D01*
X162216888Y-115706171D01*
X162216892Y-115706176D01*
X162220346Y-115710749D01*
X162224582Y-115714610D01*
X162224586Y-115714615D01*
X162291473Y-115775590D01*
X162364220Y-115841908D01*
X162529746Y-115944397D01*
X162711286Y-116014726D01*
X162902657Y-116050500D01*
X162999901Y-116050500D01*
X163000000Y-116050500D01*
X163000500Y-116050500D01*
X179999500Y-116050500D01*
X180000099Y-116050500D01*
X180091614Y-116050500D01*
X180097343Y-116050500D01*
X180288714Y-116014726D01*
X180470254Y-115944397D01*
X180635780Y-115841908D01*
X180779654Y-115710749D01*
X180896979Y-115555386D01*
X180983758Y-115381110D01*
X181037037Y-115193856D01*
X181055000Y-115000000D01*
X181037037Y-114806144D01*
X181010475Y-114712791D01*
X180985328Y-114624408D01*
X180983758Y-114618890D01*
X180896979Y-114444614D01*
X180850975Y-114383696D01*
X180783111Y-114293828D01*
X180783107Y-114293824D01*
X180779654Y-114289251D01*
X180775417Y-114285388D01*
X180775413Y-114285384D01*
X180640014Y-114161952D01*
X180640015Y-114161952D01*
X180635780Y-114158092D01*
X180630910Y-114155077D01*
X180630908Y-114155075D01*
X180475128Y-114058621D01*
X180475129Y-114058621D01*
X180470254Y-114055603D01*
X180464911Y-114053533D01*
X180294061Y-113987345D01*
X180294056Y-113987343D01*
X180288714Y-113985274D01*
X180283076Y-113984220D01*
X180102972Y-113950552D01*
X180102969Y-113950551D01*
X180097343Y-113949500D01*
X180000099Y-113949500D01*
X163000500Y-113949500D01*
X163000000Y-113949500D01*
X162902657Y-113949500D01*
X162897031Y-113950551D01*
X162897027Y-113950552D01*
X162716923Y-113984220D01*
X162716920Y-113984220D01*
X162711286Y-113985274D01*
X162705946Y-113987342D01*
X162705938Y-113987345D01*
X162535088Y-114053533D01*
X162535083Y-114053535D01*
X162529746Y-114055603D01*
X162524874Y-114058619D01*
X162524871Y-114058621D01*
X162369091Y-114155075D01*
X162369083Y-114155080D01*
X162364220Y-114158092D01*
X162359989Y-114161948D01*
X162359985Y-114161952D01*
X162224586Y-114285384D01*
X162224576Y-114285394D01*
X162220346Y-114289251D01*
X162216897Y-114293817D01*
X162216888Y-114293828D01*
X162106473Y-114440042D01*
X162106470Y-114440046D01*
X162103021Y-114444614D01*
X162016242Y-114618890D01*
X162014674Y-114624398D01*
X162014671Y-114624408D01*
X161964533Y-114800622D01*
X161964530Y-114800633D01*
X161962963Y-114806144D01*
X161945000Y-115000000D01*
X147055000Y-115000000D01*
X147037037Y-114806144D01*
X147010475Y-114712791D01*
X146985328Y-114624408D01*
X146983758Y-114618890D01*
X146896979Y-114444614D01*
X146850975Y-114383696D01*
X146783111Y-114293828D01*
X146783107Y-114293824D01*
X146779654Y-114289251D01*
X146775417Y-114285388D01*
X146775413Y-114285384D01*
X146640014Y-114161952D01*
X146640015Y-114161952D01*
X146635780Y-114158092D01*
X146630910Y-114155077D01*
X146630908Y-114155075D01*
X146475128Y-114058621D01*
X146475129Y-114058621D01*
X146470254Y-114055603D01*
X146464911Y-114053533D01*
X146294061Y-113987345D01*
X146294056Y-113987343D01*
X146288714Y-113985274D01*
X146283076Y-113984220D01*
X146102972Y-113950552D01*
X146102969Y-113950551D01*
X146097343Y-113949500D01*
X146000099Y-113949500D01*
X126000500Y-113949500D01*
X126000000Y-113949500D01*
X125902657Y-113949500D01*
X125897031Y-113950551D01*
X125897027Y-113950552D01*
X125716923Y-113984220D01*
X125716920Y-113984220D01*
X125711286Y-113985274D01*
X125705946Y-113987342D01*
X125705938Y-113987345D01*
X125535088Y-114053533D01*
X125535083Y-114053535D01*
X125529746Y-114055603D01*
X125524874Y-114058619D01*
X125524871Y-114058621D01*
X125369091Y-114155075D01*
X125369083Y-114155080D01*
X125364220Y-114158092D01*
X125359989Y-114161948D01*
X125359985Y-114161952D01*
X125224586Y-114285384D01*
X125224576Y-114285394D01*
X125220346Y-114289251D01*
X125216897Y-114293817D01*
X125216888Y-114293828D01*
X125106473Y-114440042D01*
X125106470Y-114440046D01*
X125103021Y-114444614D01*
X125016242Y-114618890D01*
X125014674Y-114624398D01*
X125014671Y-114624408D01*
X124964533Y-114800622D01*
X124964530Y-114800633D01*
X124962963Y-114806144D01*
X124945000Y-115000000D01*
X114000500Y-115000000D01*
X114000500Y-114730824D01*
X114017606Y-114667978D01*
X114049487Y-114613752D01*
X114260842Y-114254258D01*
X114749919Y-113350495D01*
X115206674Y-112429973D01*
X115630536Y-111493850D01*
X116020971Y-110543300D01*
X116377489Y-109579516D01*
X116699643Y-108603708D01*
X116987029Y-107617101D01*
X117239286Y-106620932D01*
X117456097Y-105616453D01*
X117473038Y-105521829D01*
X126050001Y-105521829D01*
X126050321Y-105528111D01*
X126059805Y-105620959D01*
X126062623Y-105634122D01*
X126113370Y-105787267D01*
X126119432Y-105800266D01*
X126203890Y-105937194D01*
X126212794Y-105948455D01*
X126326544Y-106062205D01*
X126337805Y-106071109D01*
X126474733Y-106155567D01*
X126487732Y-106161629D01*
X126640874Y-106212375D01*
X126654041Y-106215194D01*
X126746890Y-106224680D01*
X126753168Y-106225000D01*
X126783674Y-106225000D01*
X126796549Y-106221549D01*
X126800000Y-106208674D01*
X126800000Y-106208673D01*
X127300000Y-106208673D01*
X127303450Y-106221548D01*
X127316326Y-106224999D01*
X127346829Y-106224999D01*
X127353111Y-106224678D01*
X127445959Y-106215194D01*
X127459122Y-106212376D01*
X127612267Y-106161629D01*
X127625266Y-106155567D01*
X127762194Y-106071109D01*
X127773455Y-106062205D01*
X127887205Y-105948455D01*
X127900590Y-105931529D01*
X127902119Y-105932738D01*
X127939253Y-105897174D01*
X127999689Y-105881440D01*
X128060129Y-105897157D01*
X128097564Y-105932990D01*
X128099016Y-105931843D01*
X128103498Y-105937511D01*
X128107288Y-105943656D01*
X128231344Y-106067712D01*
X128237485Y-106071500D01*
X128237488Y-106071502D01*
X128238351Y-106072034D01*
X128380666Y-106159814D01*
X128547203Y-106214999D01*
X128649991Y-106225500D01*
X129250008Y-106225499D01*
X129352797Y-106214999D01*
X129433122Y-106188382D01*
X129461496Y-106178980D01*
X129519363Y-106174129D01*
X129573093Y-106196156D01*
X129610903Y-106240231D01*
X129624500Y-106296686D01*
X129624500Y-106922225D01*
X129623978Y-106933280D01*
X129622327Y-106940667D01*
X129622571Y-106948453D01*
X129622571Y-106948461D01*
X129624439Y-107007873D01*
X129624500Y-107011768D01*
X129624500Y-107039350D01*
X129624988Y-107043219D01*
X129624989Y-107043225D01*
X129625004Y-107043343D01*
X129625918Y-107054966D01*
X129627045Y-107090830D01*
X129627046Y-107090837D01*
X129627291Y-107098627D01*
X129629467Y-107106119D01*
X129629468Y-107106121D01*
X129632879Y-107117862D01*
X129636825Y-107136915D01*
X129639336Y-107156792D01*
X129642206Y-107164042D01*
X129642208Y-107164048D01*
X129655414Y-107197404D01*
X129659197Y-107208451D01*
X129671382Y-107250390D01*
X129675353Y-107257105D01*
X129675354Y-107257107D01*
X129681581Y-107267637D01*
X129690136Y-107285099D01*
X129694642Y-107296480D01*
X129694643Y-107296483D01*
X129697514Y-107303732D01*
X129719440Y-107333912D01*
X129723181Y-107339060D01*
X129729593Y-107348822D01*
X129747856Y-107379702D01*
X129747859Y-107379707D01*
X129751830Y-107386420D01*
X129757344Y-107391934D01*
X129757345Y-107391935D01*
X129765990Y-107400580D01*
X129778626Y-107415374D01*
X129785819Y-107425275D01*
X129785823Y-107425279D01*
X129790406Y-107431587D01*
X129796415Y-107436558D01*
X129796416Y-107436559D01*
X129824058Y-107459426D01*
X129832699Y-107467289D01*
X130502707Y-108137298D01*
X130510159Y-108145487D01*
X130514214Y-108151877D01*
X130522039Y-108159225D01*
X130563223Y-108197900D01*
X130566019Y-108200610D01*
X130585529Y-108220120D01*
X130588709Y-108222587D01*
X130597571Y-108230155D01*
X130611020Y-108242785D01*
X130623732Y-108254723D01*
X130623734Y-108254724D01*
X130629418Y-108260062D01*
X130636251Y-108263818D01*
X130636252Y-108263819D01*
X130646973Y-108269713D01*
X130663234Y-108280394D01*
X130679064Y-108292673D01*
X130719155Y-108310021D01*
X130729635Y-108315155D01*
X130767908Y-108336197D01*
X130787316Y-108341180D01*
X130805719Y-108347481D01*
X130816944Y-108352339D01*
X130816946Y-108352339D01*
X130824104Y-108355437D01*
X130867258Y-108362271D01*
X130878644Y-108364629D01*
X130920981Y-108375500D01*
X130941017Y-108375500D01*
X130960415Y-108377027D01*
X130972486Y-108378939D01*
X130972487Y-108378939D01*
X130980196Y-108380160D01*
X131018276Y-108376560D01*
X131023676Y-108376050D01*
X131035345Y-108375500D01*
X140170981Y-108375500D01*
X140179151Y-108375500D01*
X140202386Y-108377696D01*
X140210412Y-108379227D01*
X140265758Y-108375745D01*
X140273545Y-108375500D01*
X140289350Y-108375500D01*
X140420981Y-108375500D01*
X140539350Y-108375500D01*
X152170981Y-108375500D01*
X152289350Y-108375500D01*
X154170981Y-108375500D01*
X154179151Y-108375500D01*
X154202386Y-108377696D01*
X154210412Y-108379227D01*
X154265758Y-108375745D01*
X154273545Y-108375500D01*
X154289350Y-108375500D01*
X155420981Y-108375500D01*
X155439548Y-108375500D01*
X155487001Y-108384939D01*
X155527229Y-108411819D01*
X158002707Y-110887298D01*
X158010159Y-110895487D01*
X158014214Y-110901877D01*
X158063223Y-110947900D01*
X158066019Y-110950610D01*
X158085529Y-110970120D01*
X158088709Y-110972587D01*
X158097571Y-110980155D01*
X158110880Y-110992654D01*
X158123732Y-111004723D01*
X158123734Y-111004724D01*
X158129418Y-111010062D01*
X158136251Y-111013818D01*
X158136252Y-111013819D01*
X158146973Y-111019713D01*
X158163234Y-111030394D01*
X158179064Y-111042673D01*
X158219155Y-111060021D01*
X158229635Y-111065155D01*
X158267908Y-111086197D01*
X158287316Y-111091180D01*
X158305719Y-111097481D01*
X158316944Y-111102339D01*
X158316946Y-111102339D01*
X158324104Y-111105437D01*
X158367258Y-111112271D01*
X158378644Y-111114629D01*
X158420981Y-111125500D01*
X158441017Y-111125500D01*
X158460415Y-111127027D01*
X158472486Y-111128939D01*
X158472487Y-111128939D01*
X158480196Y-111130160D01*
X158518276Y-111126560D01*
X158523676Y-111126050D01*
X158535345Y-111125500D01*
X168922225Y-111125500D01*
X168933280Y-111126021D01*
X168940667Y-111127673D01*
X169007872Y-111125561D01*
X169011768Y-111125500D01*
X169035448Y-111125500D01*
X169039350Y-111125500D01*
X169043313Y-111124999D01*
X169054963Y-111124080D01*
X169098627Y-111122709D01*
X169117861Y-111117119D01*
X169136917Y-111113174D01*
X169156792Y-111110664D01*
X169197395Y-111094587D01*
X169208450Y-111090802D01*
X169250390Y-111078618D01*
X169267629Y-111068422D01*
X169285103Y-111059862D01*
X169296474Y-111055360D01*
X169296476Y-111055358D01*
X169303732Y-111052486D01*
X169339069Y-111026811D01*
X169348824Y-111020403D01*
X169386420Y-110998170D01*
X169400584Y-110984005D01*
X169415379Y-110971368D01*
X169431587Y-110959594D01*
X169459428Y-110925938D01*
X169467279Y-110917309D01*
X170342671Y-110041917D01*
X170396515Y-110010307D01*
X170458943Y-110008944D01*
X170514120Y-110038179D01*
X170548053Y-110090598D01*
X170588370Y-110212267D01*
X170594432Y-110225266D01*
X170678890Y-110362194D01*
X170687794Y-110373455D01*
X170801544Y-110487205D01*
X170812805Y-110496109D01*
X170949733Y-110580567D01*
X170962732Y-110586629D01*
X171115874Y-110637375D01*
X171129041Y-110640194D01*
X171221890Y-110649680D01*
X171228168Y-110650000D01*
X171483674Y-110650000D01*
X171496549Y-110646549D01*
X171500000Y-110633674D01*
X171500000Y-110633673D01*
X172000000Y-110633673D01*
X172003450Y-110646548D01*
X172016326Y-110649999D01*
X172271829Y-110649999D01*
X172278111Y-110649678D01*
X172370959Y-110640194D01*
X172384122Y-110637376D01*
X172537267Y-110586629D01*
X172550266Y-110580567D01*
X172687194Y-110496109D01*
X172698455Y-110487205D01*
X172812205Y-110373455D01*
X172821109Y-110362194D01*
X172905567Y-110225266D01*
X172911629Y-110212267D01*
X172962375Y-110059125D01*
X172965194Y-110045958D01*
X172974680Y-109953109D01*
X172975000Y-109946832D01*
X172975000Y-109916326D01*
X172971549Y-109903450D01*
X172958674Y-109900000D01*
X172016326Y-109900000D01*
X172003450Y-109903450D01*
X172000000Y-109916326D01*
X172000000Y-110633673D01*
X171500000Y-110633673D01*
X171500000Y-109524000D01*
X171516613Y-109462000D01*
X171562000Y-109416613D01*
X171624000Y-109400000D01*
X172958673Y-109400000D01*
X172971548Y-109396549D01*
X172974999Y-109383674D01*
X172974999Y-109353171D01*
X172974678Y-109346888D01*
X172965194Y-109254040D01*
X172962376Y-109240877D01*
X172911629Y-109087732D01*
X172905567Y-109074733D01*
X172821109Y-108937805D01*
X172812205Y-108926544D01*
X172698455Y-108812794D01*
X172681529Y-108799410D01*
X172682735Y-108797883D01*
X172647160Y-108760720D01*
X172631440Y-108700282D01*
X172647171Y-108639846D01*
X172682992Y-108602438D01*
X172681843Y-108600984D01*
X172687509Y-108596503D01*
X172693656Y-108592712D01*
X172817712Y-108468656D01*
X172909814Y-108319334D01*
X172964999Y-108152797D01*
X172975500Y-108050009D01*
X172975499Y-107449992D01*
X172964999Y-107347203D01*
X172909814Y-107180666D01*
X172852769Y-107088181D01*
X172821502Y-107037488D01*
X172821500Y-107037485D01*
X172817712Y-107031344D01*
X172767304Y-106980935D01*
X172734621Y-106923062D01*
X172736519Y-106856625D01*
X172772452Y-106800711D01*
X172832098Y-106771385D01*
X172898319Y-106777073D01*
X172935361Y-106790889D01*
X172950330Y-106794426D01*
X172998885Y-106799646D01*
X173005482Y-106800000D01*
X173033674Y-106800000D01*
X173046549Y-106796549D01*
X173050000Y-106783674D01*
X173450000Y-106783674D01*
X173453450Y-106796549D01*
X173466326Y-106800000D01*
X173494518Y-106800000D01*
X173501114Y-106799646D01*
X173549669Y-106794426D01*
X173564642Y-106790888D01*
X173606665Y-106775214D01*
X173650000Y-106767395D01*
X173693335Y-106775214D01*
X173735357Y-106790888D01*
X173750330Y-106794426D01*
X173798885Y-106799646D01*
X173805482Y-106800000D01*
X173933674Y-106800000D01*
X173946549Y-106796549D01*
X173950000Y-106783674D01*
X173950000Y-106216326D01*
X173946549Y-106203450D01*
X173933674Y-106200000D01*
X173466326Y-106200000D01*
X173453450Y-106203450D01*
X173450000Y-106216326D01*
X173450000Y-106783674D01*
X173050000Y-106783674D01*
X173050000Y-106116326D01*
X173046549Y-106103450D01*
X173033674Y-106100000D01*
X172474500Y-106100000D01*
X172412500Y-106083387D01*
X172367113Y-106038000D01*
X172350500Y-105976000D01*
X172350499Y-105683674D01*
X172650000Y-105683674D01*
X172653450Y-105696549D01*
X172666326Y-105700000D01*
X173933674Y-105700000D01*
X173946549Y-105696549D01*
X173950000Y-105683674D01*
X173950000Y-105016326D01*
X173946549Y-105003450D01*
X173933674Y-105000000D01*
X173005482Y-105000000D01*
X172998885Y-105000353D01*
X172950334Y-105005573D01*
X172935361Y-105009111D01*
X172893332Y-105024787D01*
X172850000Y-105032604D01*
X172806668Y-105024787D01*
X172764638Y-105009111D01*
X172749665Y-105005573D01*
X172701114Y-105000353D01*
X172694518Y-105000000D01*
X172666326Y-105000000D01*
X172653450Y-105003450D01*
X172650000Y-105016326D01*
X172650000Y-105683674D01*
X172350499Y-105683674D01*
X172350499Y-105455439D01*
X172350499Y-105452128D01*
X172344091Y-105392517D01*
X172293796Y-105257669D01*
X172274733Y-105232204D01*
X172256346Y-105197052D01*
X172250000Y-105157893D01*
X172250000Y-105016326D01*
X172246549Y-105003450D01*
X172233674Y-105000000D01*
X172205482Y-105000000D01*
X172198885Y-105000353D01*
X172150332Y-105005573D01*
X172135358Y-105009111D01*
X172094045Y-105024520D01*
X172050714Y-105032337D01*
X172007382Y-105024520D01*
X171985412Y-105016326D01*
X171957483Y-105005909D01*
X171949770Y-105005079D01*
X171949767Y-105005079D01*
X171901180Y-104999855D01*
X171901169Y-104999854D01*
X171897873Y-104999500D01*
X171894550Y-104999500D01*
X171405439Y-104999500D01*
X171405420Y-104999500D01*
X171402128Y-104999501D01*
X171398850Y-104999853D01*
X171398838Y-104999854D01*
X171350226Y-105005080D01*
X171350223Y-105005080D01*
X171342517Y-105005909D01*
X171335249Y-105008620D01*
X171293331Y-105024254D01*
X171250000Y-105032071D01*
X171206669Y-105024254D01*
X171186182Y-105016613D01*
X171157483Y-105005909D01*
X171149766Y-105005079D01*
X171149765Y-105005079D01*
X171101180Y-104999855D01*
X171101169Y-104999854D01*
X171097873Y-104999500D01*
X171094550Y-104999500D01*
X170605439Y-104999500D01*
X170605420Y-104999500D01*
X170602128Y-104999501D01*
X170598850Y-104999853D01*
X170598838Y-104999854D01*
X170550226Y-105005080D01*
X170550223Y-105005080D01*
X170542517Y-105005909D01*
X170535249Y-105008620D01*
X170493331Y-105024254D01*
X170450000Y-105032071D01*
X170406669Y-105024254D01*
X170386182Y-105016613D01*
X170357483Y-105005909D01*
X170349766Y-105005079D01*
X170349765Y-105005079D01*
X170301180Y-104999855D01*
X170301169Y-104999854D01*
X170297873Y-104999500D01*
X170294550Y-104999500D01*
X169805439Y-104999500D01*
X169805420Y-104999500D01*
X169802128Y-104999501D01*
X169798850Y-104999853D01*
X169798838Y-104999854D01*
X169750226Y-105005080D01*
X169750223Y-105005080D01*
X169742517Y-105005909D01*
X169735249Y-105008620D01*
X169693331Y-105024254D01*
X169650000Y-105032071D01*
X169606669Y-105024254D01*
X169586182Y-105016613D01*
X169557483Y-105005909D01*
X169549766Y-105005079D01*
X169549765Y-105005079D01*
X169501180Y-104999855D01*
X169501169Y-104999854D01*
X169497873Y-104999500D01*
X169494550Y-104999500D01*
X169005439Y-104999500D01*
X169005420Y-104999500D01*
X169002128Y-104999501D01*
X168998850Y-104999853D01*
X168998838Y-104999854D01*
X168950226Y-105005080D01*
X168950223Y-105005080D01*
X168942517Y-105005909D01*
X168935249Y-105008620D01*
X168893331Y-105024254D01*
X168850000Y-105032071D01*
X168806669Y-105024254D01*
X168786182Y-105016613D01*
X168757483Y-105005909D01*
X168749766Y-105005079D01*
X168749765Y-105005079D01*
X168701180Y-104999855D01*
X168701169Y-104999854D01*
X168697873Y-104999500D01*
X168694550Y-104999500D01*
X168205439Y-104999500D01*
X168205420Y-104999500D01*
X168202128Y-104999501D01*
X168198850Y-104999853D01*
X168198838Y-104999854D01*
X168150226Y-105005080D01*
X168150223Y-105005080D01*
X168142517Y-105005909D01*
X168135249Y-105008620D01*
X168093331Y-105024254D01*
X168050000Y-105032071D01*
X168006669Y-105024254D01*
X167986182Y-105016613D01*
X167957483Y-105005909D01*
X167949766Y-105005079D01*
X167949765Y-105005079D01*
X167901180Y-104999855D01*
X167901169Y-104999854D01*
X167897873Y-104999500D01*
X167894550Y-104999500D01*
X167405439Y-104999500D01*
X167405420Y-104999500D01*
X167402128Y-104999501D01*
X167398850Y-104999853D01*
X167398838Y-104999854D01*
X167350226Y-105005080D01*
X167350223Y-105005080D01*
X167342517Y-105005909D01*
X167335249Y-105008620D01*
X167293331Y-105024254D01*
X167250000Y-105032071D01*
X167206669Y-105024254D01*
X167186182Y-105016613D01*
X167157483Y-105005909D01*
X167149766Y-105005079D01*
X167149765Y-105005079D01*
X167101180Y-104999855D01*
X167101169Y-104999854D01*
X167097873Y-104999500D01*
X167094550Y-104999500D01*
X166605439Y-104999500D01*
X166605420Y-104999500D01*
X166602128Y-104999501D01*
X166598850Y-104999853D01*
X166598838Y-104999854D01*
X166550226Y-105005080D01*
X166550223Y-105005080D01*
X166542517Y-105005909D01*
X166535249Y-105008620D01*
X166493331Y-105024254D01*
X166450000Y-105032071D01*
X166406669Y-105024254D01*
X166386182Y-105016613D01*
X166357483Y-105005909D01*
X166349766Y-105005079D01*
X166349765Y-105005079D01*
X166301180Y-104999855D01*
X166301169Y-104999854D01*
X166297873Y-104999500D01*
X166294550Y-104999500D01*
X165805439Y-104999500D01*
X165805420Y-104999500D01*
X165802128Y-104999501D01*
X165798850Y-104999853D01*
X165798838Y-104999854D01*
X165750231Y-105005079D01*
X165750225Y-105005080D01*
X165742517Y-105005909D01*
X165735250Y-105008619D01*
X165735247Y-105008620D01*
X165692616Y-105024520D01*
X165649285Y-105032337D01*
X165605953Y-105024519D01*
X165564645Y-105009112D01*
X165549667Y-105005573D01*
X165501114Y-105000353D01*
X165494518Y-105000000D01*
X165374500Y-105000000D01*
X165312500Y-104983387D01*
X165267113Y-104938000D01*
X165250500Y-104876000D01*
X165250499Y-104583674D01*
X173250000Y-104583674D01*
X173253450Y-104596549D01*
X173266326Y-104600000D01*
X173933674Y-104600000D01*
X173946549Y-104596549D01*
X173950000Y-104583674D01*
X173950000Y-104216326D01*
X173946549Y-104203450D01*
X173933674Y-104200000D01*
X173266326Y-104200000D01*
X173253450Y-104203450D01*
X173250000Y-104216326D01*
X173250000Y-104244518D01*
X173250353Y-104251114D01*
X173255573Y-104299665D01*
X173259113Y-104314645D01*
X173274786Y-104356667D01*
X173282604Y-104399998D01*
X173274787Y-104443330D01*
X173259112Y-104485358D01*
X173255573Y-104500334D01*
X173250353Y-104548885D01*
X173250000Y-104555482D01*
X173250000Y-104583674D01*
X165250499Y-104583674D01*
X165250499Y-104555439D01*
X165250499Y-104552128D01*
X165244091Y-104492517D01*
X165225745Y-104443331D01*
X165217928Y-104399998D01*
X165225746Y-104356666D01*
X165244091Y-104307483D01*
X165250500Y-104247873D01*
X165250499Y-103783674D01*
X173250000Y-103783674D01*
X173253450Y-103796549D01*
X173266326Y-103800000D01*
X173933674Y-103800000D01*
X173946549Y-103796549D01*
X173950000Y-103783674D01*
X173950000Y-103416326D01*
X173946549Y-103403450D01*
X173933674Y-103400000D01*
X173266326Y-103400000D01*
X173253450Y-103403450D01*
X173250000Y-103416326D01*
X173250000Y-103444518D01*
X173250353Y-103451114D01*
X173255573Y-103499665D01*
X173259111Y-103514638D01*
X173274787Y-103556668D01*
X173282604Y-103600000D01*
X173274787Y-103643332D01*
X173259111Y-103685361D01*
X173255573Y-103700334D01*
X173250353Y-103748885D01*
X173250000Y-103755482D01*
X173250000Y-103783674D01*
X165250499Y-103783674D01*
X165250499Y-103752128D01*
X165244091Y-103692517D01*
X165225478Y-103642614D01*
X165217661Y-103599282D01*
X165225480Y-103555947D01*
X165240888Y-103514636D01*
X165244426Y-103499668D01*
X165249646Y-103451114D01*
X165250000Y-103444518D01*
X165250000Y-103416326D01*
X165246549Y-103403450D01*
X165233674Y-103400000D01*
X165092107Y-103400000D01*
X165052948Y-103393654D01*
X165017796Y-103375267D01*
X164999431Y-103361519D01*
X164999430Y-103361518D01*
X164992331Y-103356204D01*
X164885025Y-103316181D01*
X164835815Y-103282533D01*
X164807995Y-103229808D01*
X164807995Y-103170192D01*
X164835815Y-103117467D01*
X164885026Y-103083818D01*
X164896354Y-103079593D01*
X164992331Y-103043796D01*
X165017795Y-103024733D01*
X165052948Y-103006346D01*
X165092107Y-103000000D01*
X165233674Y-103000000D01*
X165246549Y-102996549D01*
X165250000Y-102983674D01*
X165250000Y-102955482D01*
X165249646Y-102948885D01*
X165244426Y-102900330D01*
X165240889Y-102885360D01*
X165225480Y-102844050D01*
X165217661Y-102800714D01*
X165225478Y-102757385D01*
X165230277Y-102744518D01*
X166050000Y-102744518D01*
X166050353Y-102751114D01*
X166055573Y-102799667D01*
X166059111Y-102814641D01*
X166103547Y-102933777D01*
X166111962Y-102949189D01*
X166187498Y-103050092D01*
X166199907Y-103062501D01*
X166300810Y-103138037D01*
X166316222Y-103146452D01*
X166435358Y-103190888D01*
X166450332Y-103194426D01*
X166498885Y-103199646D01*
X166505482Y-103200000D01*
X167008674Y-103200000D01*
X167021549Y-103196549D01*
X167025000Y-103183674D01*
X167525000Y-103183674D01*
X167528450Y-103196549D01*
X167541326Y-103200000D01*
X168044518Y-103200000D01*
X168051114Y-103199646D01*
X168099667Y-103194426D01*
X168114638Y-103190888D01*
X168219166Y-103151902D01*
X168262500Y-103144084D01*
X168305834Y-103151902D01*
X168410361Y-103190888D01*
X168425332Y-103194426D01*
X168473885Y-103199646D01*
X168480482Y-103200000D01*
X168983674Y-103200000D01*
X168996549Y-103196549D01*
X169000000Y-103183674D01*
X169500000Y-103183674D01*
X169503450Y-103196549D01*
X169516326Y-103200000D01*
X169938675Y-103200000D01*
X169951550Y-103196549D01*
X169954282Y-103186355D01*
X170371421Y-103186355D01*
X170381419Y-103192127D01*
X170426209Y-103204128D01*
X170442186Y-103206232D01*
X170486416Y-103206234D01*
X170516091Y-103210142D01*
X171333908Y-103210142D01*
X171363586Y-103206235D01*
X171407785Y-103206235D01*
X171423767Y-103204131D01*
X171539323Y-103173178D01*
X171545137Y-103171205D01*
X171550650Y-103168486D01*
X171654351Y-103108605D01*
X171667146Y-103098784D01*
X171698318Y-103067597D01*
X171722111Y-103049336D01*
X171787772Y-102983674D01*
X173250000Y-102983674D01*
X173253450Y-102996549D01*
X173266326Y-103000000D01*
X173933674Y-103000000D01*
X173946549Y-102996549D01*
X173950000Y-102983674D01*
X173950000Y-102616326D01*
X173946549Y-102603450D01*
X173933674Y-102600000D01*
X173266326Y-102600000D01*
X173253450Y-102603450D01*
X173250000Y-102616326D01*
X173250000Y-102644518D01*
X173250353Y-102651114D01*
X173255573Y-102699665D01*
X173259113Y-102714645D01*
X173274786Y-102756667D01*
X173282604Y-102799998D01*
X173274787Y-102843330D01*
X173259112Y-102885358D01*
X173255573Y-102900334D01*
X173250353Y-102948885D01*
X173250000Y-102955482D01*
X173250000Y-102983674D01*
X171787772Y-102983674D01*
X171822403Y-102949043D01*
X171829068Y-102937499D01*
X171822404Y-102925957D01*
X171236542Y-102340095D01*
X171224999Y-102333431D01*
X171213457Y-102340095D01*
X170377193Y-103176358D01*
X170371421Y-103186355D01*
X169954282Y-103186355D01*
X169955000Y-103183674D01*
X169955000Y-102942808D01*
X169964439Y-102895355D01*
X169991319Y-102855127D01*
X170871448Y-101974999D01*
X171583431Y-101974999D01*
X171590095Y-101986542D01*
X172175957Y-102572404D01*
X172187499Y-102579068D01*
X172199043Y-102572403D01*
X172299336Y-102472111D01*
X172317597Y-102448318D01*
X172348784Y-102417146D01*
X172358605Y-102404351D01*
X172418486Y-102300650D01*
X172421205Y-102295137D01*
X172423178Y-102289323D01*
X172451477Y-102183674D01*
X173250000Y-102183674D01*
X173253450Y-102196549D01*
X173266326Y-102200000D01*
X173933674Y-102200000D01*
X173946549Y-102196549D01*
X173950000Y-102183674D01*
X173950000Y-101816326D01*
X173946549Y-101803450D01*
X173933674Y-101800000D01*
X173266326Y-101800000D01*
X173253450Y-101803450D01*
X173250000Y-101816326D01*
X173250000Y-101844518D01*
X173250353Y-101851114D01*
X173255573Y-101899667D01*
X173259111Y-101914641D01*
X173274786Y-101956666D01*
X173282604Y-101999998D01*
X173274787Y-102043330D01*
X173259112Y-102085358D01*
X173255573Y-102100334D01*
X173250353Y-102148885D01*
X173250000Y-102155482D01*
X173250000Y-102183674D01*
X172451477Y-102183674D01*
X172454131Y-102173767D01*
X172456235Y-102157785D01*
X172456235Y-102113586D01*
X172460142Y-102083908D01*
X172460142Y-101383674D01*
X173250000Y-101383674D01*
X173253450Y-101396549D01*
X173266326Y-101400000D01*
X173933674Y-101400000D01*
X173946549Y-101396549D01*
X173950000Y-101383674D01*
X173950000Y-101016326D01*
X173946549Y-101003450D01*
X173933674Y-101000000D01*
X173266326Y-101000000D01*
X173253450Y-101003450D01*
X173250000Y-101016326D01*
X173250000Y-101044518D01*
X173250353Y-101051114D01*
X173255573Y-101099667D01*
X173259111Y-101114641D01*
X173274786Y-101156666D01*
X173282604Y-101199998D01*
X173274787Y-101243330D01*
X173259112Y-101285358D01*
X173255573Y-101300334D01*
X173250353Y-101348885D01*
X173250000Y-101355482D01*
X173250000Y-101383674D01*
X172460142Y-101383674D01*
X172460142Y-101266091D01*
X172456234Y-101236416D01*
X172456232Y-101192186D01*
X172454128Y-101176209D01*
X172442127Y-101131419D01*
X172436355Y-101121421D01*
X172426358Y-101127193D01*
X171590095Y-101963457D01*
X171583431Y-101974999D01*
X170871448Y-101974999D01*
X171225000Y-101621447D01*
X172105128Y-100741319D01*
X172145356Y-100714439D01*
X172192809Y-100705000D01*
X172433674Y-100705000D01*
X172446549Y-100701549D01*
X172450000Y-100688674D01*
X172450000Y-100583674D01*
X173250000Y-100583674D01*
X173253450Y-100596549D01*
X173266326Y-100600000D01*
X173933674Y-100600000D01*
X173946549Y-100596549D01*
X173950000Y-100583674D01*
X173950000Y-100216326D01*
X173946549Y-100203450D01*
X173933674Y-100200000D01*
X173266326Y-100200000D01*
X173253450Y-100203450D01*
X173250000Y-100216326D01*
X173250000Y-100244518D01*
X173250353Y-100251114D01*
X173255573Y-100299665D01*
X173259111Y-100314638D01*
X173274787Y-100356668D01*
X173282604Y-100400000D01*
X173274787Y-100443332D01*
X173259111Y-100485361D01*
X173255573Y-100500334D01*
X173250353Y-100548885D01*
X173250000Y-100555482D01*
X173250000Y-100583674D01*
X172450000Y-100583674D01*
X172450000Y-100266326D01*
X172446549Y-100253450D01*
X172433674Y-100250000D01*
X169516326Y-100250000D01*
X169503450Y-100253450D01*
X169500000Y-100266326D01*
X169500000Y-103183674D01*
X169000000Y-103183674D01*
X169000000Y-102241326D01*
X168996549Y-102228450D01*
X168983674Y-102225000D01*
X167541326Y-102225000D01*
X167528450Y-102228450D01*
X167525000Y-102241326D01*
X167525000Y-103183674D01*
X167025000Y-103183674D01*
X167025000Y-102241326D01*
X167021549Y-102228450D01*
X167008674Y-102225000D01*
X166066326Y-102225000D01*
X166053450Y-102228450D01*
X166050000Y-102241326D01*
X166050000Y-102744518D01*
X165230277Y-102744518D01*
X165244091Y-102707483D01*
X165250500Y-102647873D01*
X165250499Y-102152128D01*
X165244091Y-102092517D01*
X165225745Y-102043331D01*
X165217928Y-101999998D01*
X165225746Y-101956666D01*
X165244091Y-101907483D01*
X165250500Y-101847873D01*
X165250500Y-101708674D01*
X166050000Y-101708674D01*
X166053450Y-101721549D01*
X166066326Y-101725000D01*
X167008674Y-101725000D01*
X167021549Y-101721549D01*
X167025000Y-101708674D01*
X167525000Y-101708674D01*
X167528450Y-101721549D01*
X167541326Y-101725000D01*
X168983674Y-101725000D01*
X168996549Y-101721549D01*
X169000000Y-101708674D01*
X169000000Y-100266326D01*
X168996549Y-100253450D01*
X168983674Y-100250000D01*
X167541326Y-100250000D01*
X167528450Y-100253450D01*
X167525000Y-100266326D01*
X167525000Y-101708674D01*
X167025000Y-101708674D01*
X167025000Y-100266326D01*
X167021549Y-100253450D01*
X167008674Y-100250000D01*
X166066326Y-100250000D01*
X166053450Y-100253450D01*
X166050000Y-100266326D01*
X166050000Y-100769518D01*
X166050353Y-100776114D01*
X166055573Y-100824667D01*
X166059112Y-100839641D01*
X166098097Y-100944166D01*
X166105915Y-100987499D01*
X166098097Y-101030831D01*
X166059112Y-101135355D01*
X166055573Y-101150332D01*
X166050353Y-101198885D01*
X166050000Y-101205482D01*
X166050000Y-101708674D01*
X165250500Y-101708674D01*
X165250499Y-101352128D01*
X165244091Y-101292517D01*
X165225745Y-101243330D01*
X165217928Y-101200000D01*
X165225745Y-101156669D01*
X165244091Y-101107483D01*
X165250500Y-101047873D01*
X165250499Y-100552128D01*
X165244091Y-100492517D01*
X165225746Y-100443332D01*
X165217928Y-100399998D01*
X165225747Y-100356664D01*
X165228639Y-100348912D01*
X165244091Y-100307483D01*
X165250500Y-100247873D01*
X165250499Y-99783674D01*
X173250000Y-99783674D01*
X173253450Y-99796549D01*
X173266326Y-99800000D01*
X173933674Y-99800000D01*
X173946549Y-99796549D01*
X173950000Y-99783674D01*
X173950000Y-99416326D01*
X173946549Y-99403450D01*
X173933674Y-99400000D01*
X173266326Y-99400000D01*
X173253450Y-99403450D01*
X173250000Y-99416326D01*
X173250000Y-99444518D01*
X173250353Y-99451114D01*
X173255573Y-99499665D01*
X173259113Y-99514645D01*
X173274786Y-99556667D01*
X173282604Y-99599998D01*
X173274787Y-99643330D01*
X173259112Y-99685358D01*
X173255573Y-99700334D01*
X173250353Y-99748885D01*
X173250000Y-99755482D01*
X173250000Y-99783674D01*
X165250499Y-99783674D01*
X165250499Y-99752128D01*
X165248515Y-99733674D01*
X166050000Y-99733674D01*
X166053450Y-99746549D01*
X166066326Y-99750000D01*
X167008674Y-99750000D01*
X167021549Y-99746549D01*
X167025000Y-99733674D01*
X167525000Y-99733674D01*
X167528450Y-99746549D01*
X167541326Y-99750000D01*
X168983674Y-99750000D01*
X168996549Y-99746549D01*
X169000000Y-99733674D01*
X169500000Y-99733674D01*
X169503450Y-99746549D01*
X169516326Y-99750000D01*
X170958674Y-99750000D01*
X170971549Y-99746549D01*
X170975000Y-99733674D01*
X171475000Y-99733674D01*
X171478450Y-99746549D01*
X171491326Y-99750000D01*
X172433674Y-99750000D01*
X172446549Y-99746549D01*
X172450000Y-99733674D01*
X172450000Y-99230482D01*
X172449646Y-99223885D01*
X172444426Y-99175332D01*
X172440888Y-99160361D01*
X172401902Y-99055834D01*
X172394084Y-99012500D01*
X172399285Y-98983674D01*
X173250000Y-98983674D01*
X173253450Y-98996549D01*
X173266326Y-99000000D01*
X173933674Y-99000000D01*
X173946549Y-98996549D01*
X173950000Y-98983674D01*
X173950000Y-98616326D01*
X173946549Y-98603450D01*
X173933674Y-98600000D01*
X173266326Y-98600000D01*
X173253450Y-98603450D01*
X173250000Y-98616326D01*
X173250000Y-98644518D01*
X173250353Y-98651114D01*
X173255573Y-98699667D01*
X173259111Y-98714641D01*
X173274786Y-98756666D01*
X173282604Y-98799998D01*
X173274787Y-98843330D01*
X173259112Y-98885358D01*
X173255573Y-98900334D01*
X173250353Y-98948885D01*
X173250000Y-98955482D01*
X173250000Y-98983674D01*
X172399285Y-98983674D01*
X172401902Y-98969166D01*
X172440888Y-98864638D01*
X172444426Y-98849667D01*
X172449646Y-98801114D01*
X172450000Y-98794518D01*
X172450000Y-98291326D01*
X172446549Y-98278450D01*
X172433674Y-98275000D01*
X171491326Y-98275000D01*
X171478450Y-98278450D01*
X171475000Y-98291326D01*
X171475000Y-99733674D01*
X170975000Y-99733674D01*
X170975000Y-98291326D01*
X170971549Y-98278450D01*
X170958674Y-98275000D01*
X169516326Y-98275000D01*
X169503450Y-98278450D01*
X169500000Y-98291326D01*
X169500000Y-99733674D01*
X169000000Y-99733674D01*
X169000000Y-98291326D01*
X168996549Y-98278450D01*
X168983674Y-98275000D01*
X167541326Y-98275000D01*
X167528450Y-98278450D01*
X167525000Y-98291326D01*
X167525000Y-99733674D01*
X167025000Y-99733674D01*
X167025000Y-98291326D01*
X167021549Y-98278450D01*
X167008674Y-98275000D01*
X166066326Y-98275000D01*
X166053450Y-98278450D01*
X166050000Y-98291326D01*
X166050000Y-98794518D01*
X166050353Y-98801114D01*
X166055573Y-98849667D01*
X166059112Y-98864642D01*
X166098097Y-98969167D01*
X166105915Y-99012500D01*
X166098097Y-99055833D01*
X166059112Y-99160357D01*
X166055573Y-99175332D01*
X166050353Y-99223885D01*
X166050000Y-99230482D01*
X166050000Y-99733674D01*
X165248515Y-99733674D01*
X165244091Y-99692517D01*
X165225745Y-99643330D01*
X165217928Y-99600000D01*
X165225746Y-99556667D01*
X165244091Y-99507483D01*
X165250500Y-99447873D01*
X165250499Y-98952128D01*
X165244091Y-98892517D01*
X165225745Y-98843331D01*
X165217928Y-98799998D01*
X165225746Y-98756666D01*
X165244091Y-98707483D01*
X165250500Y-98647873D01*
X165250499Y-98183674D01*
X173250000Y-98183674D01*
X173253450Y-98196549D01*
X173266326Y-98200000D01*
X173933674Y-98200000D01*
X173946549Y-98196549D01*
X173950000Y-98183674D01*
X173950000Y-97816326D01*
X173946549Y-97803450D01*
X173933674Y-97800000D01*
X173266326Y-97800000D01*
X173253450Y-97803450D01*
X173250000Y-97816326D01*
X173250000Y-97844518D01*
X173250353Y-97851114D01*
X173255573Y-97899667D01*
X173259111Y-97914641D01*
X173274786Y-97956666D01*
X173282604Y-97999998D01*
X173274787Y-98043330D01*
X173259112Y-98085358D01*
X173255573Y-98100334D01*
X173250353Y-98148885D01*
X173250000Y-98155482D01*
X173250000Y-98183674D01*
X165250499Y-98183674D01*
X165250499Y-98152128D01*
X165244091Y-98092517D01*
X165225745Y-98043331D01*
X165217928Y-97999998D01*
X165225746Y-97956666D01*
X165244091Y-97907483D01*
X165250500Y-97847873D01*
X165250500Y-97758674D01*
X166050000Y-97758674D01*
X166053450Y-97771549D01*
X166066326Y-97775000D01*
X167008674Y-97775000D01*
X167021549Y-97771549D01*
X167025000Y-97758674D01*
X167525000Y-97758674D01*
X167528450Y-97771549D01*
X167541326Y-97775000D01*
X168983674Y-97775000D01*
X168996549Y-97771549D01*
X169000000Y-97758674D01*
X169500000Y-97758674D01*
X169503450Y-97771549D01*
X169516326Y-97775000D01*
X170958674Y-97775000D01*
X170971549Y-97771549D01*
X170975000Y-97758674D01*
X171475000Y-97758674D01*
X171478450Y-97771549D01*
X171491326Y-97775000D01*
X172433674Y-97775000D01*
X172446549Y-97771549D01*
X172450000Y-97758674D01*
X172450000Y-97383674D01*
X173250000Y-97383674D01*
X173253450Y-97396549D01*
X173266326Y-97400000D01*
X173933674Y-97400000D01*
X173946549Y-97396549D01*
X173950000Y-97383674D01*
X173950000Y-97016326D01*
X173946549Y-97003450D01*
X173933674Y-97000000D01*
X173266326Y-97000000D01*
X173253450Y-97003450D01*
X173250000Y-97016326D01*
X173250000Y-97044518D01*
X173250353Y-97051114D01*
X173255573Y-97099667D01*
X173259111Y-97114641D01*
X173274786Y-97156666D01*
X173282604Y-97199998D01*
X173274787Y-97243330D01*
X173259112Y-97285358D01*
X173255573Y-97300334D01*
X173250353Y-97348885D01*
X173250000Y-97355482D01*
X173250000Y-97383674D01*
X172450000Y-97383674D01*
X172450000Y-97255482D01*
X172449646Y-97248885D01*
X172444426Y-97200332D01*
X172440888Y-97185358D01*
X172396452Y-97066222D01*
X172388037Y-97050810D01*
X172312501Y-96949907D01*
X172300092Y-96937498D01*
X172199189Y-96861962D01*
X172183777Y-96853547D01*
X172064641Y-96809111D01*
X172049667Y-96805573D01*
X172001114Y-96800353D01*
X171994518Y-96800000D01*
X171491326Y-96800000D01*
X171478450Y-96803450D01*
X171475000Y-96816326D01*
X171475000Y-97758674D01*
X170975000Y-97758674D01*
X170975000Y-96816326D01*
X170971549Y-96803450D01*
X170958674Y-96800000D01*
X170455482Y-96800000D01*
X170448885Y-96800353D01*
X170400332Y-96805573D01*
X170385355Y-96809112D01*
X170280831Y-96848097D01*
X170237499Y-96855915D01*
X170194166Y-96848097D01*
X170089641Y-96809112D01*
X170074667Y-96805573D01*
X170026114Y-96800353D01*
X170019518Y-96800000D01*
X169516326Y-96800000D01*
X169503450Y-96803450D01*
X169500000Y-96816326D01*
X169500000Y-97758674D01*
X169000000Y-97758674D01*
X169000000Y-96816326D01*
X168996549Y-96803450D01*
X168983674Y-96800000D01*
X168480482Y-96800000D01*
X168473885Y-96800353D01*
X168425332Y-96805573D01*
X168410355Y-96809112D01*
X168305831Y-96848097D01*
X168262499Y-96855915D01*
X168219166Y-96848097D01*
X168114641Y-96809112D01*
X168099667Y-96805573D01*
X168051114Y-96800353D01*
X168044518Y-96800000D01*
X167541326Y-96800000D01*
X167528450Y-96803450D01*
X167525000Y-96816326D01*
X167525000Y-97758674D01*
X167025000Y-97758674D01*
X167025000Y-96816326D01*
X167021549Y-96803450D01*
X167008674Y-96800000D01*
X166505482Y-96800000D01*
X166498885Y-96800353D01*
X166450332Y-96805573D01*
X166435358Y-96809111D01*
X166316222Y-96853547D01*
X166300810Y-96861962D01*
X166199907Y-96937498D01*
X166187498Y-96949907D01*
X166111962Y-97050810D01*
X166103547Y-97066222D01*
X166059111Y-97185358D01*
X166055573Y-97200332D01*
X166050353Y-97248885D01*
X166050000Y-97255482D01*
X166050000Y-97758674D01*
X165250500Y-97758674D01*
X165250499Y-97352128D01*
X165244091Y-97292517D01*
X165225745Y-97243330D01*
X165217928Y-97200000D01*
X165225745Y-97156669D01*
X165244091Y-97107483D01*
X165250500Y-97047873D01*
X165250499Y-96583674D01*
X173250000Y-96583674D01*
X173253450Y-96596549D01*
X173266326Y-96600000D01*
X173933674Y-96600000D01*
X173946549Y-96596549D01*
X173950000Y-96583674D01*
X173950000Y-96216326D01*
X173946549Y-96203450D01*
X173933674Y-96200000D01*
X173266326Y-96200000D01*
X173253450Y-96203450D01*
X173250000Y-96216326D01*
X173250000Y-96244518D01*
X173250353Y-96251114D01*
X173255573Y-96299665D01*
X173259111Y-96314638D01*
X173274787Y-96356668D01*
X173282604Y-96400000D01*
X173274787Y-96443332D01*
X173259111Y-96485361D01*
X173255573Y-96500334D01*
X173250353Y-96548885D01*
X173250000Y-96555482D01*
X173250000Y-96583674D01*
X165250499Y-96583674D01*
X165250499Y-96552128D01*
X165244091Y-96492517D01*
X165225746Y-96443332D01*
X165217928Y-96399998D01*
X165225747Y-96356664D01*
X165229739Y-96345963D01*
X165244091Y-96307483D01*
X165250500Y-96247873D01*
X165250499Y-95783674D01*
X173250000Y-95783674D01*
X173253450Y-95796549D01*
X173266326Y-95800000D01*
X173933674Y-95800000D01*
X173946549Y-95796549D01*
X173950000Y-95783674D01*
X173950000Y-95416326D01*
X173946549Y-95403450D01*
X173933674Y-95400000D01*
X173266326Y-95400000D01*
X173253450Y-95403450D01*
X173250000Y-95416326D01*
X173250000Y-95444518D01*
X173250353Y-95451114D01*
X173255573Y-95499665D01*
X173259111Y-95514638D01*
X173274787Y-95556668D01*
X173282604Y-95600000D01*
X173274787Y-95643332D01*
X173259111Y-95685361D01*
X173255573Y-95700334D01*
X173250353Y-95748885D01*
X173250000Y-95755482D01*
X173250000Y-95783674D01*
X165250499Y-95783674D01*
X165250499Y-95752128D01*
X165244091Y-95692517D01*
X165225745Y-95643330D01*
X165217928Y-95600000D01*
X165225746Y-95556668D01*
X165244091Y-95507483D01*
X165250500Y-95447873D01*
X165250499Y-95124497D01*
X165267112Y-95062499D01*
X165312499Y-95017112D01*
X165374499Y-95000499D01*
X165494561Y-95000499D01*
X165497872Y-95000499D01*
X165557483Y-94994091D01*
X165606669Y-94975745D01*
X165650000Y-94967928D01*
X165693330Y-94975745D01*
X165742517Y-94994091D01*
X165802127Y-95000500D01*
X166297872Y-95000499D01*
X166357483Y-94994091D01*
X166406669Y-94975745D01*
X166450000Y-94967928D01*
X166493330Y-94975745D01*
X166542517Y-94994091D01*
X166602127Y-95000500D01*
X167097872Y-95000499D01*
X167157483Y-94994091D01*
X167206669Y-94975745D01*
X167250000Y-94967928D01*
X167293330Y-94975745D01*
X167342517Y-94994091D01*
X167402127Y-95000500D01*
X167897872Y-95000499D01*
X167957483Y-94994091D01*
X168006669Y-94975745D01*
X168050000Y-94967928D01*
X168093330Y-94975745D01*
X168142517Y-94994091D01*
X168202127Y-95000500D01*
X168697872Y-95000499D01*
X168757483Y-94994091D01*
X168806669Y-94975745D01*
X168850000Y-94967928D01*
X168893330Y-94975745D01*
X168942517Y-94994091D01*
X169002127Y-95000500D01*
X169497872Y-95000499D01*
X169557483Y-94994091D01*
X169606669Y-94975745D01*
X169650000Y-94967928D01*
X169693330Y-94975745D01*
X169742517Y-94994091D01*
X169802127Y-95000500D01*
X170297872Y-95000499D01*
X170357483Y-94994091D01*
X170406669Y-94975745D01*
X170450000Y-94967928D01*
X170493330Y-94975745D01*
X170542517Y-94994091D01*
X170602127Y-95000500D01*
X171097872Y-95000499D01*
X171157483Y-94994091D01*
X171206669Y-94975745D01*
X171250000Y-94967928D01*
X171293330Y-94975745D01*
X171342517Y-94994091D01*
X171402127Y-95000500D01*
X171897872Y-95000499D01*
X171957483Y-94994091D01*
X172006669Y-94975745D01*
X172050000Y-94967928D01*
X172093330Y-94975745D01*
X172142517Y-94994091D01*
X172202127Y-95000500D01*
X172697872Y-95000499D01*
X172757483Y-94994091D01*
X172806669Y-94975745D01*
X172850000Y-94967928D01*
X172893330Y-94975745D01*
X172942517Y-94994091D01*
X173002127Y-95000500D01*
X173497872Y-95000499D01*
X173500959Y-95000167D01*
X173507186Y-95000000D01*
X173933674Y-95000000D01*
X173946549Y-94996549D01*
X173950000Y-94983674D01*
X173950000Y-94557196D01*
X173950166Y-94550971D01*
X173950500Y-94547873D01*
X173950499Y-93652128D01*
X173950167Y-93649040D01*
X173950000Y-93642814D01*
X173950000Y-93216326D01*
X173946549Y-93203450D01*
X173933674Y-93200000D01*
X173805482Y-93200000D01*
X173798885Y-93200353D01*
X173750332Y-93205573D01*
X173735358Y-93209111D01*
X173694045Y-93224520D01*
X173650714Y-93232337D01*
X173607382Y-93224520D01*
X173585412Y-93216326D01*
X173557483Y-93205909D01*
X173549770Y-93205079D01*
X173549767Y-93205079D01*
X173501180Y-93199855D01*
X173501169Y-93199854D01*
X173497873Y-93199500D01*
X173494550Y-93199500D01*
X173005439Y-93199500D01*
X173005420Y-93199500D01*
X173002128Y-93199501D01*
X172998850Y-93199853D01*
X172998838Y-93199854D01*
X172950226Y-93205080D01*
X172950223Y-93205080D01*
X172942517Y-93205909D01*
X172935249Y-93208620D01*
X172893331Y-93224254D01*
X172850000Y-93232071D01*
X172806669Y-93224254D01*
X172802693Y-93222771D01*
X172757483Y-93205909D01*
X172749766Y-93205079D01*
X172749765Y-93205079D01*
X172701180Y-93199855D01*
X172701169Y-93199854D01*
X172697873Y-93199500D01*
X172694550Y-93199500D01*
X172205439Y-93199500D01*
X172205420Y-93199500D01*
X172202128Y-93199501D01*
X172198850Y-93199853D01*
X172198838Y-93199854D01*
X172150226Y-93205080D01*
X172150223Y-93205080D01*
X172142517Y-93205909D01*
X172135249Y-93208620D01*
X172093331Y-93224254D01*
X172050000Y-93232071D01*
X172006669Y-93224254D01*
X172002693Y-93222771D01*
X171957483Y-93205909D01*
X171949766Y-93205079D01*
X171949765Y-93205079D01*
X171901180Y-93199855D01*
X171901169Y-93199854D01*
X171897873Y-93199500D01*
X171894550Y-93199500D01*
X171405439Y-93199500D01*
X171405420Y-93199500D01*
X171402128Y-93199501D01*
X171398850Y-93199853D01*
X171398838Y-93199854D01*
X171350226Y-93205080D01*
X171350223Y-93205080D01*
X171342517Y-93205909D01*
X171335249Y-93208620D01*
X171293331Y-93224254D01*
X171250000Y-93232071D01*
X171206669Y-93224254D01*
X171202693Y-93222771D01*
X171157483Y-93205909D01*
X171149766Y-93205079D01*
X171149765Y-93205079D01*
X171101180Y-93199855D01*
X171101169Y-93199854D01*
X171097873Y-93199500D01*
X171094550Y-93199500D01*
X171086849Y-93199500D01*
X170799498Y-93199500D01*
X170737500Y-93182888D01*
X170692113Y-93137501D01*
X170675500Y-93075501D01*
X170675500Y-92127775D01*
X170676021Y-92116719D01*
X170677673Y-92109333D01*
X170675561Y-92042127D01*
X170675500Y-92038232D01*
X170675500Y-92014541D01*
X170675500Y-92010650D01*
X170674998Y-92006677D01*
X170674080Y-91995018D01*
X170672954Y-91959173D01*
X170672709Y-91951373D01*
X170667120Y-91932140D01*
X170663174Y-91913083D01*
X170661641Y-91900944D01*
X170660664Y-91893208D01*
X170644582Y-91852591D01*
X170640803Y-91841551D01*
X170630795Y-91807102D01*
X170630793Y-91807099D01*
X170628618Y-91799610D01*
X170618417Y-91782360D01*
X170609863Y-91764901D01*
X170602486Y-91746268D01*
X170576808Y-91710925D01*
X170570401Y-91701171D01*
X170552142Y-91670296D01*
X170552141Y-91670294D01*
X170548170Y-91663580D01*
X170534004Y-91649414D01*
X170521370Y-91634622D01*
X170509594Y-91618413D01*
X170503583Y-91613440D01*
X170503581Y-91613438D01*
X170475941Y-91590573D01*
X170467300Y-91582710D01*
X168997286Y-90112695D01*
X168989842Y-90104514D01*
X168985786Y-90098123D01*
X168936775Y-90052098D01*
X168933978Y-90049387D01*
X168917227Y-90032636D01*
X168914471Y-90029880D01*
X168911290Y-90027412D01*
X168902414Y-90019830D01*
X168876269Y-89995278D01*
X168876267Y-89995276D01*
X168870582Y-89989938D01*
X168863749Y-89986182D01*
X168863743Y-89986177D01*
X168853025Y-89980285D01*
X168836766Y-89969606D01*
X168827095Y-89962104D01*
X168827092Y-89962102D01*
X168820936Y-89957327D01*
X168813779Y-89954229D01*
X168813776Y-89954228D01*
X168780849Y-89939978D01*
X168770363Y-89934841D01*
X168738932Y-89917562D01*
X168738923Y-89917558D01*
X168732092Y-89913803D01*
X168724535Y-89911862D01*
X168724531Y-89911861D01*
X168712688Y-89908820D01*
X168694284Y-89902519D01*
X168683057Y-89897660D01*
X168683050Y-89897658D01*
X168675896Y-89894562D01*
X168668192Y-89893341D01*
X168668190Y-89893341D01*
X168632759Y-89887729D01*
X168621324Y-89885361D01*
X168586571Y-89876438D01*
X168586563Y-89876437D01*
X168579019Y-89874500D01*
X168571223Y-89874500D01*
X168558983Y-89874500D01*
X168539597Y-89872974D01*
X168519804Y-89869840D01*
X168512038Y-89870574D01*
X168512035Y-89870574D01*
X168476324Y-89873950D01*
X168464655Y-89874500D01*
X168278781Y-89874500D01*
X168216781Y-89857887D01*
X168171394Y-89812500D01*
X168155230Y-89752179D01*
X168155460Y-89750000D01*
X168135674Y-89561744D01*
X168077179Y-89381716D01*
X167982533Y-89217784D01*
X167950940Y-89182697D01*
X167860220Y-89081942D01*
X167860219Y-89081941D01*
X167855871Y-89077112D01*
X167850613Y-89073292D01*
X167850611Y-89073290D01*
X167707988Y-88969669D01*
X167707987Y-88969668D01*
X167702730Y-88965849D01*
X167696792Y-88963205D01*
X167535745Y-88891501D01*
X167535740Y-88891499D01*
X167529803Y-88888856D01*
X167523444Y-88887504D01*
X167523440Y-88887503D01*
X167351008Y-88850852D01*
X167351005Y-88850851D01*
X167344646Y-88849500D01*
X167155354Y-88849500D01*
X167148995Y-88850851D01*
X167148991Y-88850852D01*
X166976559Y-88887503D01*
X166976552Y-88887505D01*
X166970197Y-88888856D01*
X166964262Y-88891498D01*
X166964254Y-88891501D01*
X166803207Y-88963205D01*
X166803202Y-88963207D01*
X166797270Y-88965849D01*
X166792016Y-88969665D01*
X166792011Y-88969669D01*
X166649388Y-89073290D01*
X166649381Y-89073295D01*
X166644129Y-89077112D01*
X166639780Y-89081941D01*
X166639781Y-89081941D01*
X166638399Y-89083476D01*
X166636728Y-89084689D01*
X166634950Y-89086291D01*
X166634781Y-89086104D01*
X166596685Y-89113781D01*
X166546252Y-89124500D01*
X158310453Y-89124500D01*
X158263000Y-89115061D01*
X158222772Y-89088181D01*
X158026236Y-88891645D01*
X158013600Y-88876851D01*
X158001805Y-88860617D01*
X157995406Y-88850875D01*
X157973170Y-88813274D01*
X157959006Y-88799110D01*
X157946368Y-88784313D01*
X157939184Y-88774424D01*
X157939178Y-88774418D01*
X157934594Y-88768108D01*
X157900946Y-88740272D01*
X157892305Y-88732409D01*
X157547591Y-88387695D01*
X157540147Y-88379514D01*
X157536091Y-88373123D01*
X157487080Y-88327098D01*
X157484283Y-88324387D01*
X157467532Y-88307636D01*
X157464776Y-88304880D01*
X157461595Y-88302412D01*
X157452719Y-88294830D01*
X157426574Y-88270278D01*
X157426572Y-88270276D01*
X157420887Y-88264938D01*
X157414054Y-88261182D01*
X157414048Y-88261177D01*
X157403330Y-88255285D01*
X157387071Y-88244606D01*
X157377400Y-88237104D01*
X157377397Y-88237102D01*
X157371241Y-88232327D01*
X157364084Y-88229229D01*
X157364081Y-88229228D01*
X157331154Y-88214978D01*
X157320668Y-88209841D01*
X157289237Y-88192562D01*
X157289228Y-88192558D01*
X157282397Y-88188803D01*
X157274840Y-88186862D01*
X157274836Y-88186861D01*
X157262993Y-88183820D01*
X157244589Y-88177519D01*
X157233362Y-88172660D01*
X157233355Y-88172658D01*
X157226201Y-88169562D01*
X157218497Y-88168341D01*
X157218495Y-88168341D01*
X157183064Y-88162729D01*
X157171629Y-88160361D01*
X157136876Y-88151438D01*
X157136868Y-88151437D01*
X157129324Y-88149500D01*
X157121528Y-88149500D01*
X157109288Y-88149500D01*
X157089902Y-88147974D01*
X157070109Y-88144840D01*
X157062343Y-88145574D01*
X157062340Y-88145574D01*
X157026629Y-88148950D01*
X157014960Y-88149500D01*
X156527466Y-88149500D01*
X156516413Y-88148979D01*
X156509027Y-88147328D01*
X156501229Y-88147573D01*
X156441839Y-88149439D01*
X156437945Y-88149500D01*
X156410345Y-88149500D01*
X156406494Y-88149986D01*
X156406463Y-88149988D01*
X156406335Y-88150005D01*
X156394724Y-88150918D01*
X156358867Y-88152045D01*
X156358860Y-88152046D01*
X156351068Y-88152291D01*
X156343583Y-88154465D01*
X156343567Y-88154468D01*
X156331821Y-88157881D01*
X156312778Y-88161825D01*
X156300644Y-88163358D01*
X156300643Y-88163358D01*
X156292903Y-88164336D01*
X156285653Y-88167205D01*
X156285646Y-88167208D01*
X156252293Y-88180413D01*
X156241249Y-88184194D01*
X156206800Y-88194203D01*
X156206790Y-88194207D01*
X156199305Y-88196382D01*
X156192595Y-88200349D01*
X156192593Y-88200351D01*
X156189200Y-88202357D01*
X156182055Y-88206583D01*
X156164595Y-88215136D01*
X156145963Y-88222514D01*
X156139660Y-88227092D01*
X156139653Y-88227097D01*
X156110634Y-88248181D01*
X156100874Y-88254592D01*
X156069989Y-88272857D01*
X156069979Y-88272864D01*
X156063274Y-88276830D01*
X156057758Y-88282345D01*
X156057755Y-88282348D01*
X156049102Y-88291000D01*
X156034319Y-88303626D01*
X156024422Y-88310817D01*
X156024415Y-88310823D01*
X156018108Y-88315406D01*
X156013141Y-88321408D01*
X156013130Y-88321420D01*
X155990265Y-88349059D01*
X155982405Y-88357697D01*
X155401923Y-88938181D01*
X155361695Y-88965061D01*
X155314242Y-88974500D01*
X141662089Y-88974500D01*
X141651033Y-88973978D01*
X141643647Y-88972327D01*
X141635859Y-88972571D01*
X141635852Y-88972571D01*
X141576441Y-88974439D01*
X141572546Y-88974500D01*
X141544964Y-88974500D01*
X141541119Y-88974985D01*
X141541094Y-88974987D01*
X141540967Y-88975004D01*
X141529348Y-88975918D01*
X141493486Y-88977045D01*
X141493479Y-88977046D01*
X141485687Y-88977291D01*
X141478202Y-88979465D01*
X141478186Y-88979468D01*
X141466440Y-88982881D01*
X141447397Y-88986825D01*
X141435263Y-88988358D01*
X141435262Y-88988358D01*
X141427522Y-88989336D01*
X141420272Y-88992205D01*
X141420265Y-88992208D01*
X141386912Y-89005413D01*
X141375868Y-89009194D01*
X141341415Y-89019204D01*
X141341404Y-89019208D01*
X141333924Y-89021382D01*
X141327212Y-89025351D01*
X141327210Y-89025352D01*
X141316678Y-89031580D01*
X141299218Y-89040134D01*
X141287833Y-89044642D01*
X141287827Y-89044644D01*
X141280582Y-89047514D01*
X141274277Y-89052094D01*
X141274269Y-89052099D01*
X141245246Y-89073185D01*
X141235488Y-89079595D01*
X141204610Y-89097857D01*
X141204604Y-89097861D01*
X141197894Y-89101830D01*
X141192381Y-89107341D01*
X141192374Y-89107348D01*
X141183724Y-89115998D01*
X141168941Y-89128624D01*
X141159040Y-89135817D01*
X141159030Y-89135826D01*
X141152727Y-89140406D01*
X141147758Y-89146411D01*
X141147755Y-89146415D01*
X141124886Y-89174059D01*
X141117025Y-89182697D01*
X139961542Y-90338181D01*
X139921314Y-90365061D01*
X139873861Y-90374500D01*
X130577772Y-90374500D01*
X130566719Y-90373979D01*
X130559333Y-90372328D01*
X130551535Y-90372573D01*
X130492145Y-90374439D01*
X130488251Y-90374500D01*
X130460650Y-90374500D01*
X130456799Y-90374986D01*
X130456768Y-90374988D01*
X130456640Y-90375005D01*
X130445029Y-90375918D01*
X130409172Y-90377045D01*
X130409165Y-90377046D01*
X130401373Y-90377291D01*
X130393888Y-90379465D01*
X130393872Y-90379468D01*
X130382126Y-90382881D01*
X130363083Y-90386825D01*
X130350949Y-90388358D01*
X130350948Y-90388358D01*
X130343208Y-90389336D01*
X130335958Y-90392205D01*
X130335951Y-90392208D01*
X130302598Y-90405413D01*
X130291554Y-90409194D01*
X130257105Y-90419203D01*
X130257095Y-90419207D01*
X130249610Y-90421382D01*
X130242900Y-90425349D01*
X130242898Y-90425351D01*
X130239505Y-90427357D01*
X130232360Y-90431583D01*
X130214900Y-90440136D01*
X130196268Y-90447514D01*
X130189965Y-90452092D01*
X130189958Y-90452097D01*
X130160939Y-90473181D01*
X130151179Y-90479592D01*
X130120294Y-90497857D01*
X130120284Y-90497864D01*
X130113579Y-90501830D01*
X130108063Y-90507345D01*
X130108060Y-90507348D01*
X130099407Y-90516000D01*
X130084624Y-90528626D01*
X130074727Y-90535817D01*
X130074720Y-90535823D01*
X130068413Y-90540406D01*
X130063446Y-90546408D01*
X130063435Y-90546420D01*
X130040570Y-90574059D01*
X130032710Y-90582697D01*
X129802225Y-90813183D01*
X129762000Y-90840061D01*
X129714547Y-90849500D01*
X129655354Y-90849500D01*
X129648995Y-90850851D01*
X129648991Y-90850852D01*
X129476559Y-90887503D01*
X129476552Y-90887505D01*
X129470197Y-90888856D01*
X129464262Y-90891498D01*
X129464254Y-90891501D01*
X129303207Y-90963205D01*
X129303202Y-90963207D01*
X129297270Y-90965849D01*
X129292016Y-90969665D01*
X129292011Y-90969669D01*
X129149388Y-91073290D01*
X129149381Y-91073295D01*
X129144129Y-91077112D01*
X129139784Y-91081937D01*
X129139779Y-91081942D01*
X129021813Y-91212956D01*
X129021808Y-91212962D01*
X129017467Y-91217784D01*
X129014222Y-91223404D01*
X129014218Y-91223410D01*
X128926069Y-91376089D01*
X128926066Y-91376094D01*
X128922821Y-91381716D01*
X128920815Y-91387888D01*
X128920813Y-91387894D01*
X128866333Y-91555564D01*
X128866331Y-91555573D01*
X128864326Y-91561744D01*
X128863648Y-91568194D01*
X128863646Y-91568204D01*
X128852917Y-91670296D01*
X128844540Y-91750000D01*
X128845219Y-91756460D01*
X128863646Y-91931795D01*
X128863647Y-91931803D01*
X128864326Y-91938256D01*
X128866331Y-91944428D01*
X128866333Y-91944435D01*
X128920813Y-92112105D01*
X128922821Y-92118284D01*
X128926068Y-92123908D01*
X128926069Y-92123910D01*
X128995332Y-92243878D01*
X129017467Y-92282216D01*
X129021811Y-92287041D01*
X129021813Y-92287043D01*
X129131924Y-92409333D01*
X129144129Y-92422888D01*
X129297270Y-92534151D01*
X129470197Y-92611144D01*
X129655354Y-92650500D01*
X129838143Y-92650500D01*
X129844646Y-92650500D01*
X130029803Y-92611144D01*
X130053076Y-92600781D01*
X130115664Y-92590657D01*
X130175076Y-92612794D01*
X130215779Y-92661407D01*
X130227131Y-92723785D01*
X130226414Y-92732899D01*
X130229078Y-92746293D01*
X130242221Y-92750000D01*
X131120500Y-92750000D01*
X131182500Y-92766613D01*
X131227887Y-92812000D01*
X131244500Y-92874000D01*
X131244500Y-93246756D01*
X131244500Y-93246781D01*
X131244501Y-93249180D01*
X131244690Y-93251588D01*
X131244787Y-93254038D01*
X131244750Y-93254039D01*
X131245000Y-93260392D01*
X131245000Y-93798415D01*
X131247590Y-93809394D01*
X131249172Y-93809314D01*
X131313810Y-93823717D01*
X131361816Y-93869333D01*
X131379500Y-93933152D01*
X131379500Y-94140842D01*
X131377000Y-94160631D01*
X131377418Y-94160684D01*
X131376440Y-94168425D01*
X131374500Y-94175981D01*
X131374500Y-94183782D01*
X131374500Y-94196017D01*
X131372974Y-94215402D01*
X131369840Y-94235196D01*
X131370574Y-94242961D01*
X131370574Y-94242964D01*
X131373950Y-94278676D01*
X131374500Y-94290345D01*
X131374500Y-94939547D01*
X131365061Y-94987000D01*
X131338181Y-95027229D01*
X131277227Y-95088182D01*
X131236998Y-95115061D01*
X131189546Y-95124500D01*
X130327775Y-95124500D01*
X130316719Y-95123978D01*
X130309333Y-95122327D01*
X130301545Y-95122571D01*
X130301538Y-95122571D01*
X130242113Y-95124439D01*
X130238219Y-95124500D01*
X130210650Y-95124500D01*
X130206794Y-95124986D01*
X130206791Y-95124987D01*
X130206735Y-95124994D01*
X130206662Y-95125003D01*
X130195044Y-95125917D01*
X130159165Y-95127045D01*
X130159164Y-95127045D01*
X130151373Y-95127290D01*
X130143888Y-95129464D01*
X130143884Y-95129465D01*
X130132125Y-95132881D01*
X130113087Y-95136823D01*
X130100949Y-95138357D01*
X130100941Y-95138358D01*
X130093208Y-95139336D01*
X130085960Y-95142205D01*
X130085954Y-95142207D01*
X130052597Y-95155413D01*
X130041554Y-95159194D01*
X130007100Y-95169205D01*
X130007094Y-95169207D01*
X129999610Y-95171382D01*
X129992898Y-95175351D01*
X129992896Y-95175352D01*
X129982364Y-95181580D01*
X129964904Y-95190134D01*
X129953519Y-95194642D01*
X129953513Y-95194644D01*
X129946268Y-95197514D01*
X129939963Y-95202094D01*
X129939955Y-95202099D01*
X129910932Y-95223185D01*
X129901174Y-95229595D01*
X129870296Y-95247857D01*
X129870290Y-95247861D01*
X129863580Y-95251830D01*
X129858067Y-95257341D01*
X129858060Y-95257348D01*
X129849410Y-95265998D01*
X129834627Y-95278624D01*
X129824726Y-95285817D01*
X129824716Y-95285826D01*
X129818413Y-95290406D01*
X129813444Y-95296411D01*
X129813441Y-95296415D01*
X129790572Y-95324059D01*
X129782711Y-95332697D01*
X128862696Y-96252711D01*
X128854511Y-96260159D01*
X128848123Y-96264214D01*
X128842788Y-96269894D01*
X128842783Y-96269899D01*
X128802096Y-96313225D01*
X128799392Y-96316016D01*
X128782628Y-96332780D01*
X128782621Y-96332787D01*
X128779880Y-96335529D01*
X128777500Y-96338596D01*
X128777489Y-96338609D01*
X128777400Y-96338725D01*
X128769842Y-96347570D01*
X128745280Y-96373727D01*
X128745273Y-96373736D01*
X128739938Y-96379418D01*
X128736182Y-96386249D01*
X128736179Y-96386254D01*
X128730285Y-96396975D01*
X128719609Y-96413227D01*
X128712109Y-96422896D01*
X128712101Y-96422907D01*
X128707327Y-96429064D01*
X128704234Y-96436208D01*
X128704229Y-96436219D01*
X128689974Y-96469160D01*
X128684838Y-96479643D01*
X128667560Y-96511073D01*
X128663803Y-96517908D01*
X128661864Y-96525456D01*
X128661863Y-96525461D01*
X128658822Y-96537307D01*
X128652521Y-96555711D01*
X128647658Y-96566948D01*
X128647656Y-96566952D01*
X128644562Y-96574104D01*
X128643342Y-96581803D01*
X128643342Y-96581805D01*
X128637729Y-96617241D01*
X128635361Y-96628676D01*
X128626438Y-96663428D01*
X128626436Y-96663436D01*
X128624500Y-96670981D01*
X128624500Y-96678777D01*
X128624500Y-96691017D01*
X128622974Y-96710402D01*
X128619840Y-96730196D01*
X128620574Y-96737961D01*
X128620574Y-96737964D01*
X128623950Y-96773676D01*
X128624500Y-96785345D01*
X128624500Y-100672225D01*
X128623978Y-100683280D01*
X128622327Y-100690667D01*
X128622571Y-100698453D01*
X128622571Y-100698461D01*
X128624439Y-100757873D01*
X128624500Y-100761768D01*
X128624500Y-100789350D01*
X128624988Y-100793219D01*
X128624989Y-100793225D01*
X128625004Y-100793343D01*
X128625918Y-100804966D01*
X128627045Y-100840830D01*
X128627046Y-100840837D01*
X128627291Y-100848627D01*
X128629467Y-100856119D01*
X128629468Y-100856121D01*
X128632879Y-100867862D01*
X128636825Y-100886915D01*
X128639336Y-100906792D01*
X128642206Y-100914042D01*
X128642208Y-100914048D01*
X128655414Y-100947404D01*
X128659197Y-100958451D01*
X128671382Y-101000390D01*
X128675353Y-101007105D01*
X128675354Y-101007107D01*
X128681581Y-101017637D01*
X128690136Y-101035099D01*
X128694642Y-101046480D01*
X128694643Y-101046483D01*
X128697514Y-101053732D01*
X128716666Y-101080093D01*
X128723181Y-101089060D01*
X128729593Y-101098822D01*
X128747856Y-101129702D01*
X128747859Y-101129707D01*
X128751830Y-101136420D01*
X128757345Y-101141935D01*
X128765990Y-101150580D01*
X128778626Y-101165374D01*
X128785819Y-101175275D01*
X128785823Y-101175279D01*
X128790406Y-101181587D01*
X128796415Y-101186558D01*
X128796416Y-101186559D01*
X128824058Y-101209426D01*
X128832699Y-101217289D01*
X129178228Y-101562819D01*
X129208478Y-101612182D01*
X129213020Y-101669898D01*
X129190865Y-101723385D01*
X129146842Y-101760985D01*
X129090547Y-101774500D01*
X128653141Y-101774500D01*
X128653121Y-101774500D01*
X128649992Y-101774501D01*
X128646860Y-101774820D01*
X128646858Y-101774821D01*
X128553938Y-101784312D01*
X128553928Y-101784313D01*
X128547203Y-101785001D01*
X128540781Y-101787128D01*
X128540776Y-101787130D01*
X128387521Y-101837914D01*
X128387517Y-101837915D01*
X128380666Y-101840186D01*
X128374522Y-101843975D01*
X128374519Y-101843977D01*
X128237488Y-101928497D01*
X128237480Y-101928503D01*
X128231344Y-101932288D01*
X128226242Y-101937389D01*
X128226238Y-101937393D01*
X128112393Y-102051238D01*
X128112389Y-102051242D01*
X128107288Y-102056344D01*
X128103499Y-102062486D01*
X128099016Y-102068157D01*
X128097566Y-102067010D01*
X128060122Y-102102845D01*
X127999689Y-102118559D01*
X127939262Y-102102829D01*
X127902117Y-102067263D01*
X127900590Y-102068471D01*
X127887205Y-102051544D01*
X127773455Y-101937794D01*
X127762194Y-101928890D01*
X127625266Y-101844432D01*
X127612267Y-101838370D01*
X127459125Y-101787624D01*
X127445958Y-101784805D01*
X127353109Y-101775319D01*
X127346832Y-101775000D01*
X127316326Y-101775000D01*
X127303450Y-101778450D01*
X127300000Y-101791326D01*
X127300000Y-106208673D01*
X126800000Y-106208673D01*
X126800000Y-105266326D01*
X126796549Y-105253450D01*
X126783674Y-105250000D01*
X126066327Y-105250000D01*
X126053451Y-105253450D01*
X126050001Y-105266326D01*
X126050001Y-105521829D01*
X117473038Y-105521829D01*
X117614141Y-104733674D01*
X126050000Y-104733674D01*
X126053450Y-104746549D01*
X126066326Y-104750000D01*
X126783674Y-104750000D01*
X126796549Y-104746549D01*
X126800000Y-104733674D01*
X126800000Y-103266326D01*
X126796549Y-103253450D01*
X126783674Y-103250000D01*
X126066327Y-103250000D01*
X126053451Y-103253450D01*
X126050001Y-103266326D01*
X126050001Y-103521829D01*
X126050321Y-103528111D01*
X126059805Y-103620959D01*
X126062623Y-103634122D01*
X126113370Y-103787267D01*
X126119432Y-103800266D01*
X126202476Y-103934902D01*
X126220937Y-103999999D01*
X126202476Y-104065095D01*
X126119434Y-104199728D01*
X126113370Y-104212732D01*
X126062624Y-104365874D01*
X126059805Y-104379041D01*
X126050319Y-104471890D01*
X126050000Y-104478168D01*
X126050000Y-104733674D01*
X117614141Y-104733674D01*
X117637191Y-104604925D01*
X117782339Y-103587616D01*
X117883444Y-102640001D01*
X123702089Y-102640001D01*
X123703150Y-102648060D01*
X123717448Y-102756667D01*
X123722047Y-102791594D01*
X123725158Y-102799105D01*
X123725159Y-102799108D01*
X123777447Y-102925345D01*
X123777448Y-102925346D01*
X123780559Y-102932856D01*
X123785504Y-102939300D01*
X123785505Y-102939302D01*
X123868528Y-103047499D01*
X123873640Y-103054161D01*
X123994945Y-103147242D01*
X124002453Y-103150351D01*
X124002455Y-103150353D01*
X124046233Y-103168486D01*
X124136207Y-103205754D01*
X124249738Y-103220701D01*
X124321809Y-103220701D01*
X124325862Y-103220701D01*
X124439393Y-103205754D01*
X124580655Y-103147242D01*
X124701960Y-103054161D01*
X124795041Y-102932857D01*
X124853553Y-102791594D01*
X124861178Y-102733674D01*
X126050000Y-102733674D01*
X126053450Y-102746549D01*
X126066326Y-102750000D01*
X126783674Y-102750000D01*
X126796549Y-102746549D01*
X126800000Y-102733674D01*
X126800000Y-101791327D01*
X126796549Y-101778451D01*
X126783674Y-101775001D01*
X126753171Y-101775001D01*
X126746888Y-101775321D01*
X126654040Y-101784805D01*
X126640877Y-101787623D01*
X126487732Y-101838370D01*
X126474733Y-101844432D01*
X126337805Y-101928890D01*
X126326544Y-101937794D01*
X126212794Y-102051544D01*
X126203890Y-102062805D01*
X126119432Y-102199733D01*
X126113370Y-102212732D01*
X126062624Y-102365874D01*
X126059805Y-102379041D01*
X126050319Y-102471890D01*
X126050000Y-102478168D01*
X126050000Y-102733674D01*
X124861178Y-102733674D01*
X124873511Y-102640001D01*
X124853553Y-102488408D01*
X124805420Y-102372203D01*
X124798152Y-102354656D01*
X124798150Y-102354654D01*
X124795041Y-102347146D01*
X124701960Y-102225841D01*
X124670440Y-102201655D01*
X124587101Y-102137706D01*
X124587099Y-102137705D01*
X124580655Y-102132760D01*
X124573149Y-102129651D01*
X124573144Y-102129648D01*
X124446907Y-102077360D01*
X124446904Y-102077359D01*
X124439393Y-102074248D01*
X124431333Y-102073186D01*
X124431330Y-102073186D01*
X124329881Y-102059830D01*
X124329879Y-102059829D01*
X124325862Y-102059301D01*
X124249738Y-102059301D01*
X124245721Y-102059829D01*
X124245718Y-102059830D01*
X124144269Y-102073186D01*
X124144264Y-102073187D01*
X124136207Y-102074248D01*
X124128697Y-102077358D01*
X124128692Y-102077360D01*
X124002455Y-102129648D01*
X124002447Y-102129652D01*
X123994945Y-102132760D01*
X123988503Y-102137703D01*
X123988498Y-102137706D01*
X123880083Y-102220896D01*
X123880078Y-102220900D01*
X123873640Y-102225841D01*
X123868696Y-102232283D01*
X123868693Y-102232287D01*
X123785507Y-102340695D01*
X123785505Y-102340699D01*
X123780559Y-102347145D01*
X123777449Y-102354653D01*
X123777448Y-102354655D01*
X123725159Y-102480893D01*
X123725157Y-102480898D01*
X123722047Y-102488408D01*
X123720986Y-102496465D01*
X123720985Y-102496470D01*
X123710111Y-102579068D01*
X123702089Y-102640001D01*
X117883444Y-102640001D01*
X117891360Y-102565804D01*
X117964117Y-101540772D01*
X117965562Y-101500000D01*
X119594540Y-101500000D01*
X119595219Y-101506460D01*
X119613646Y-101681795D01*
X119613647Y-101681803D01*
X119614326Y-101688256D01*
X119616331Y-101694428D01*
X119616333Y-101694435D01*
X119670813Y-101862105D01*
X119672821Y-101868284D01*
X119676068Y-101873908D01*
X119676069Y-101873910D01*
X119748866Y-101999999D01*
X119767467Y-102032216D01*
X119771811Y-102037041D01*
X119771813Y-102037043D01*
X119880530Y-102157785D01*
X119894129Y-102172888D01*
X119899387Y-102176708D01*
X119899388Y-102176709D01*
X119939244Y-102205666D01*
X120047270Y-102284151D01*
X120220197Y-102361144D01*
X120405354Y-102400500D01*
X120588143Y-102400500D01*
X120594646Y-102400500D01*
X120779803Y-102361144D01*
X120952730Y-102284151D01*
X121074239Y-102195869D01*
X121122619Y-102174635D01*
X121175453Y-102175470D01*
X121211494Y-102192669D01*
X121212402Y-102191135D01*
X121350607Y-102272869D01*
X121504796Y-102317665D01*
X121540819Y-102320500D01*
X121939180Y-102320499D01*
X121975204Y-102317665D01*
X122129393Y-102272869D01*
X122187370Y-102238581D01*
X122250490Y-102221313D01*
X122313612Y-102238581D01*
X122364092Y-102268434D01*
X122378299Y-102274582D01*
X122496143Y-102308819D01*
X122507409Y-102309394D01*
X122510000Y-102298415D01*
X123010000Y-102298415D01*
X123012590Y-102309394D01*
X123023856Y-102308819D01*
X123141700Y-102274582D01*
X123155907Y-102268434D01*
X123280571Y-102194708D01*
X123292807Y-102185217D01*
X123395217Y-102082807D01*
X123404708Y-102070571D01*
X123478434Y-101945907D01*
X123484582Y-101931700D01*
X123525398Y-101791212D01*
X123527664Y-101778808D01*
X123528585Y-101767098D01*
X123525921Y-101753706D01*
X123512779Y-101750000D01*
X123026326Y-101750000D01*
X123013450Y-101753450D01*
X123010000Y-101766326D01*
X123010000Y-102298415D01*
X122510000Y-102298415D01*
X122510000Y-101760409D01*
X122510249Y-101754046D01*
X122510213Y-101754045D01*
X122510307Y-101751624D01*
X122510500Y-101749181D01*
X122510499Y-101250820D01*
X122510308Y-101248403D01*
X122510213Y-101245962D01*
X122510249Y-101245960D01*
X122510000Y-101239608D01*
X122510000Y-101233674D01*
X123010000Y-101233674D01*
X123013450Y-101246549D01*
X123026326Y-101250000D01*
X123512779Y-101250000D01*
X123525921Y-101246293D01*
X123528585Y-101232901D01*
X123527664Y-101221191D01*
X123525398Y-101208787D01*
X123484582Y-101068299D01*
X123478434Y-101054092D01*
X123404708Y-100929428D01*
X123395217Y-100917192D01*
X123292807Y-100814782D01*
X123280571Y-100805291D01*
X123155907Y-100731565D01*
X123141700Y-100725417D01*
X123023856Y-100691180D01*
X123012590Y-100690605D01*
X123010000Y-100701585D01*
X123010000Y-101233674D01*
X122510000Y-101233674D01*
X122510000Y-100701585D01*
X122507409Y-100690605D01*
X122496143Y-100691180D01*
X122378299Y-100725417D01*
X122364093Y-100731564D01*
X122313611Y-100761419D01*
X122250491Y-100778686D01*
X122187371Y-100761418D01*
X122136112Y-100731103D01*
X122136101Y-100731098D01*
X122129393Y-100727131D01*
X122121900Y-100724954D01*
X121981292Y-100684103D01*
X121981285Y-100684101D01*
X121975204Y-100682335D01*
X121968893Y-100681838D01*
X121968886Y-100681837D01*
X121941615Y-100679691D01*
X121941600Y-100679690D01*
X121939181Y-100679500D01*
X121936735Y-100679500D01*
X121543243Y-100679500D01*
X121543217Y-100679500D01*
X121540820Y-100679501D01*
X121538406Y-100679690D01*
X121538403Y-100679691D01*
X121511111Y-100681838D01*
X121511109Y-100681838D01*
X121504796Y-100682335D01*
X121498718Y-100684100D01*
X121498711Y-100684102D01*
X121358099Y-100724954D01*
X121358096Y-100724955D01*
X121350607Y-100727131D01*
X121343896Y-100731099D01*
X121343891Y-100731102D01*
X121212402Y-100808865D01*
X121211498Y-100807336D01*
X121175411Y-100824538D01*
X121122597Y-100825360D01*
X121074235Y-100804127D01*
X120973724Y-100731102D01*
X120957988Y-100719669D01*
X120957987Y-100719668D01*
X120952730Y-100715849D01*
X120946792Y-100713205D01*
X120785745Y-100641501D01*
X120785740Y-100641499D01*
X120779803Y-100638856D01*
X120773444Y-100637504D01*
X120773440Y-100637503D01*
X120601008Y-100600852D01*
X120601005Y-100600851D01*
X120594646Y-100599500D01*
X120405354Y-100599500D01*
X120398995Y-100600851D01*
X120398991Y-100600852D01*
X120226559Y-100637503D01*
X120226552Y-100637505D01*
X120220197Y-100638856D01*
X120214262Y-100641498D01*
X120214254Y-100641501D01*
X120053207Y-100713205D01*
X120053202Y-100713207D01*
X120047270Y-100715849D01*
X120042016Y-100719665D01*
X120042011Y-100719669D01*
X119899388Y-100823290D01*
X119899381Y-100823295D01*
X119894129Y-100827112D01*
X119889784Y-100831937D01*
X119889779Y-100831942D01*
X119771813Y-100962956D01*
X119771808Y-100962962D01*
X119767467Y-100967784D01*
X119764222Y-100973404D01*
X119764218Y-100973410D01*
X119676069Y-101126089D01*
X119676066Y-101126094D01*
X119672821Y-101131716D01*
X119670815Y-101137888D01*
X119670813Y-101137894D01*
X119616333Y-101305564D01*
X119616331Y-101305573D01*
X119614326Y-101311744D01*
X119613648Y-101318194D01*
X119613646Y-101318204D01*
X119604987Y-101400599D01*
X119594540Y-101500000D01*
X117965562Y-101500000D01*
X118000518Y-100513806D01*
X118000518Y-99486194D01*
X117965562Y-98500000D01*
X119594540Y-98500000D01*
X119595219Y-98506460D01*
X119613646Y-98681795D01*
X119613647Y-98681803D01*
X119614326Y-98688256D01*
X119616331Y-98694428D01*
X119616333Y-98694435D01*
X119666772Y-98849667D01*
X119672821Y-98868284D01*
X119676068Y-98873908D01*
X119676069Y-98873910D01*
X119755364Y-99011254D01*
X119767467Y-99032216D01*
X119771811Y-99037041D01*
X119771813Y-99037043D01*
X119884602Y-99162307D01*
X119894129Y-99172888D01*
X120047270Y-99284151D01*
X120220197Y-99361144D01*
X120405354Y-99400500D01*
X120588143Y-99400500D01*
X120594646Y-99400500D01*
X120779803Y-99361144D01*
X120952730Y-99284151D01*
X121074239Y-99195869D01*
X121122619Y-99174635D01*
X121175453Y-99175470D01*
X121211494Y-99192669D01*
X121212402Y-99191135D01*
X121350607Y-99272869D01*
X121504796Y-99317665D01*
X121540819Y-99320500D01*
X121939180Y-99320499D01*
X121975204Y-99317665D01*
X122129393Y-99272869D01*
X122187370Y-99238581D01*
X122250490Y-99221313D01*
X122313612Y-99238581D01*
X122364092Y-99268434D01*
X122378299Y-99274582D01*
X122496143Y-99308819D01*
X122507409Y-99309394D01*
X122510000Y-99298415D01*
X123010000Y-99298415D01*
X123012590Y-99309394D01*
X123023856Y-99308819D01*
X123141700Y-99274582D01*
X123155907Y-99268434D01*
X123280571Y-99194708D01*
X123292807Y-99185217D01*
X123395217Y-99082807D01*
X123404708Y-99070571D01*
X123478434Y-98945907D01*
X123484582Y-98931700D01*
X123525398Y-98791212D01*
X123527664Y-98778808D01*
X123528585Y-98767098D01*
X123525921Y-98753706D01*
X123512779Y-98750000D01*
X123026326Y-98750000D01*
X123013450Y-98753450D01*
X123010000Y-98766326D01*
X123010000Y-99298415D01*
X122510000Y-99298415D01*
X122510000Y-98760409D01*
X122510249Y-98754046D01*
X122510213Y-98754045D01*
X122510307Y-98751624D01*
X122510500Y-98749181D01*
X122510499Y-98250820D01*
X122510308Y-98248403D01*
X122510213Y-98245962D01*
X122510249Y-98245960D01*
X122510000Y-98239608D01*
X122510000Y-98233674D01*
X123010000Y-98233674D01*
X123013450Y-98246549D01*
X123026326Y-98250000D01*
X123512779Y-98250000D01*
X123525921Y-98246293D01*
X123528585Y-98232901D01*
X123527664Y-98221191D01*
X123525398Y-98208787D01*
X123484582Y-98068299D01*
X123478434Y-98054092D01*
X123404708Y-97929428D01*
X123395217Y-97917192D01*
X123292807Y-97814782D01*
X123280571Y-97805291D01*
X123155907Y-97731565D01*
X123141700Y-97725417D01*
X123023856Y-97691180D01*
X123012590Y-97690605D01*
X123010000Y-97701585D01*
X123010000Y-98233674D01*
X122510000Y-98233674D01*
X122510000Y-97701585D01*
X122507409Y-97690605D01*
X122496143Y-97691180D01*
X122378299Y-97725417D01*
X122364093Y-97731564D01*
X122313611Y-97761419D01*
X122250491Y-97778686D01*
X122187371Y-97761418D01*
X122136112Y-97731103D01*
X122136101Y-97731098D01*
X122129393Y-97727131D01*
X122103709Y-97719669D01*
X121981292Y-97684103D01*
X121981285Y-97684101D01*
X121975204Y-97682335D01*
X121968893Y-97681838D01*
X121968886Y-97681837D01*
X121941615Y-97679691D01*
X121941600Y-97679690D01*
X121939181Y-97679500D01*
X121936735Y-97679500D01*
X121543243Y-97679500D01*
X121543217Y-97679500D01*
X121540820Y-97679501D01*
X121538406Y-97679690D01*
X121538403Y-97679691D01*
X121511111Y-97681838D01*
X121511109Y-97681838D01*
X121504796Y-97682335D01*
X121498718Y-97684100D01*
X121498711Y-97684102D01*
X121358099Y-97724954D01*
X121358096Y-97724955D01*
X121350607Y-97727131D01*
X121343896Y-97731099D01*
X121343891Y-97731102D01*
X121212402Y-97808865D01*
X121211498Y-97807336D01*
X121175411Y-97824538D01*
X121122597Y-97825360D01*
X121074235Y-97804127D01*
X120973724Y-97731102D01*
X120957988Y-97719669D01*
X120957987Y-97719668D01*
X120952730Y-97715849D01*
X120946792Y-97713205D01*
X120785745Y-97641501D01*
X120785740Y-97641499D01*
X120779803Y-97638856D01*
X120773444Y-97637504D01*
X120773440Y-97637503D01*
X120601008Y-97600852D01*
X120601005Y-97600851D01*
X120594646Y-97599500D01*
X120405354Y-97599500D01*
X120398995Y-97600851D01*
X120398991Y-97600852D01*
X120226559Y-97637503D01*
X120226552Y-97637505D01*
X120220197Y-97638856D01*
X120214262Y-97641498D01*
X120214254Y-97641501D01*
X120053207Y-97713205D01*
X120053202Y-97713207D01*
X120047270Y-97715849D01*
X120042016Y-97719665D01*
X120042011Y-97719669D01*
X119899388Y-97823290D01*
X119899381Y-97823295D01*
X119894129Y-97827112D01*
X119889784Y-97831937D01*
X119889779Y-97831942D01*
X119771813Y-97962956D01*
X119771808Y-97962962D01*
X119767467Y-97967784D01*
X119764222Y-97973404D01*
X119764218Y-97973410D01*
X119676069Y-98126089D01*
X119676066Y-98126094D01*
X119672821Y-98131716D01*
X119670815Y-98137888D01*
X119670813Y-98137894D01*
X119616333Y-98305564D01*
X119616331Y-98305573D01*
X119614326Y-98311744D01*
X119613648Y-98318194D01*
X119613646Y-98318204D01*
X119598937Y-98458161D01*
X119594540Y-98500000D01*
X117965562Y-98500000D01*
X117964117Y-98459228D01*
X117891360Y-97434196D01*
X117830097Y-96859999D01*
X123702089Y-96859999D01*
X123703150Y-96868058D01*
X123720520Y-97000000D01*
X123722047Y-97011592D01*
X123725158Y-97019103D01*
X123725159Y-97019106D01*
X123777447Y-97145343D01*
X123777448Y-97145344D01*
X123780559Y-97152854D01*
X123785504Y-97159298D01*
X123785505Y-97159300D01*
X123868693Y-97267712D01*
X123873640Y-97274159D01*
X123994945Y-97367240D01*
X124002453Y-97370349D01*
X124002455Y-97370351D01*
X124042201Y-97386814D01*
X124136207Y-97425752D01*
X124249738Y-97440699D01*
X124321809Y-97440699D01*
X124325862Y-97440699D01*
X124439393Y-97425752D01*
X124580655Y-97367240D01*
X124701960Y-97274159D01*
X124795041Y-97152855D01*
X124853553Y-97011592D01*
X124873511Y-96859999D01*
X124853553Y-96708406D01*
X124801114Y-96581805D01*
X124798152Y-96574654D01*
X124798150Y-96574652D01*
X124795041Y-96567144D01*
X124701960Y-96445839D01*
X124689423Y-96436219D01*
X124587101Y-96357704D01*
X124587099Y-96357703D01*
X124580655Y-96352758D01*
X124573149Y-96349649D01*
X124573144Y-96349646D01*
X124446907Y-96297358D01*
X124446904Y-96297357D01*
X124439393Y-96294246D01*
X124431333Y-96293184D01*
X124431330Y-96293184D01*
X124329881Y-96279828D01*
X124329879Y-96279827D01*
X124325862Y-96279299D01*
X124249738Y-96279299D01*
X124245721Y-96279827D01*
X124245718Y-96279828D01*
X124144269Y-96293184D01*
X124144264Y-96293185D01*
X124136207Y-96294246D01*
X124128697Y-96297356D01*
X124128692Y-96297358D01*
X124002455Y-96349646D01*
X124002447Y-96349650D01*
X123994945Y-96352758D01*
X123988503Y-96357701D01*
X123988498Y-96357704D01*
X123880083Y-96440894D01*
X123880078Y-96440898D01*
X123873640Y-96445839D01*
X123868696Y-96452281D01*
X123868693Y-96452285D01*
X123785507Y-96560693D01*
X123785505Y-96560697D01*
X123780559Y-96567143D01*
X123777449Y-96574651D01*
X123777448Y-96574653D01*
X123725159Y-96700891D01*
X123725157Y-96700896D01*
X123722047Y-96708406D01*
X123720986Y-96716463D01*
X123720985Y-96716468D01*
X123708612Y-96810453D01*
X123702089Y-96859999D01*
X117830097Y-96859999D01*
X117782339Y-96412384D01*
X117637191Y-95395075D01*
X117456097Y-94383547D01*
X117239286Y-93379068D01*
X117210932Y-93267098D01*
X130226414Y-93267098D01*
X130227335Y-93278808D01*
X130229601Y-93291212D01*
X130270417Y-93431700D01*
X130276565Y-93445907D01*
X130350291Y-93570571D01*
X130359782Y-93582807D01*
X130462192Y-93685217D01*
X130474428Y-93694708D01*
X130599092Y-93768434D01*
X130613299Y-93774582D01*
X130731143Y-93808819D01*
X130742409Y-93809394D01*
X130745000Y-93798415D01*
X130745000Y-93266326D01*
X130741549Y-93253450D01*
X130728674Y-93250000D01*
X130242221Y-93250000D01*
X130229078Y-93253706D01*
X130226414Y-93267098D01*
X117210932Y-93267098D01*
X116987029Y-92382899D01*
X116699643Y-91396292D01*
X116377489Y-90420484D01*
X116020971Y-89456700D01*
X115630536Y-88506150D01*
X115206674Y-87570027D01*
X114978579Y-87110336D01*
X114750390Y-86650454D01*
X114750387Y-86650448D01*
X114749919Y-86649505D01*
X114260842Y-85745742D01*
X114017605Y-85332020D01*
X114000500Y-85269176D01*
X114000500Y-85000000D01*
X118945000Y-85000000D01*
X118962963Y-85193856D01*
X118964531Y-85199367D01*
X118964533Y-85199377D01*
X119014671Y-85375591D01*
X119014673Y-85375597D01*
X119016242Y-85381110D01*
X119103021Y-85555386D01*
X119106473Y-85559957D01*
X119216888Y-85706171D01*
X119216892Y-85706176D01*
X119220346Y-85710749D01*
X119224582Y-85714610D01*
X119224586Y-85714615D01*
X119291473Y-85775590D01*
X119364220Y-85841908D01*
X119529746Y-85944397D01*
X119711286Y-86014726D01*
X119902657Y-86050500D01*
X119999901Y-86050500D01*
X120000000Y-86050500D01*
X120000500Y-86050500D01*
X136999500Y-86050500D01*
X137000099Y-86050500D01*
X137091614Y-86050500D01*
X137097343Y-86050500D01*
X137288714Y-86014726D01*
X137470254Y-85944397D01*
X137635780Y-85841908D01*
X137779654Y-85710749D01*
X137896979Y-85555386D01*
X137983758Y-85381110D01*
X138037037Y-85193856D01*
X138055000Y-85000000D01*
X152945000Y-85000000D01*
X152962963Y-85193856D01*
X152964531Y-85199367D01*
X152964533Y-85199377D01*
X153014671Y-85375591D01*
X153014673Y-85375597D01*
X153016242Y-85381110D01*
X153103021Y-85555386D01*
X153106473Y-85559957D01*
X153216888Y-85706171D01*
X153216892Y-85706176D01*
X153220346Y-85710749D01*
X153224582Y-85714610D01*
X153224586Y-85714615D01*
X153291473Y-85775590D01*
X153364220Y-85841908D01*
X153529746Y-85944397D01*
X153711286Y-86014726D01*
X153902657Y-86050500D01*
X153999901Y-86050500D01*
X154000000Y-86050500D01*
X154000500Y-86050500D01*
X173999500Y-86050500D01*
X174000099Y-86050500D01*
X174091614Y-86050500D01*
X174097343Y-86050500D01*
X174288714Y-86014726D01*
X174470254Y-85944397D01*
X174635780Y-85841908D01*
X174779654Y-85710749D01*
X174896979Y-85555386D01*
X174983758Y-85381110D01*
X175037037Y-85193856D01*
X175055000Y-85000000D01*
X175037037Y-84806144D01*
X175010475Y-84712791D01*
X174985328Y-84624408D01*
X174983758Y-84618890D01*
X174896979Y-84444614D01*
X174850975Y-84383696D01*
X174783111Y-84293828D01*
X174783107Y-84293824D01*
X174779654Y-84289251D01*
X174775417Y-84285388D01*
X174775413Y-84285384D01*
X174640014Y-84161952D01*
X174640015Y-84161952D01*
X174635780Y-84158092D01*
X174630910Y-84155077D01*
X174630908Y-84155075D01*
X174475128Y-84058621D01*
X174475129Y-84058621D01*
X174470254Y-84055603D01*
X174464911Y-84053533D01*
X174294061Y-83987345D01*
X174294056Y-83987343D01*
X174288714Y-83985274D01*
X174283076Y-83984220D01*
X174102972Y-83950552D01*
X174102969Y-83950551D01*
X174097343Y-83949500D01*
X174000099Y-83949500D01*
X154000500Y-83949500D01*
X154000000Y-83949500D01*
X153902657Y-83949500D01*
X153897031Y-83950551D01*
X153897027Y-83950552D01*
X153716923Y-83984220D01*
X153716920Y-83984220D01*
X153711286Y-83985274D01*
X153705946Y-83987342D01*
X153705938Y-83987345D01*
X153535088Y-84053533D01*
X153535083Y-84053535D01*
X153529746Y-84055603D01*
X153524874Y-84058619D01*
X153524871Y-84058621D01*
X153369091Y-84155075D01*
X153369083Y-84155080D01*
X153364220Y-84158092D01*
X153359989Y-84161948D01*
X153359985Y-84161952D01*
X153224586Y-84285384D01*
X153224576Y-84285394D01*
X153220346Y-84289251D01*
X153216897Y-84293817D01*
X153216888Y-84293828D01*
X153106473Y-84440042D01*
X153106470Y-84440046D01*
X153103021Y-84444614D01*
X153016242Y-84618890D01*
X153014674Y-84624398D01*
X153014671Y-84624408D01*
X152964533Y-84800622D01*
X152964530Y-84800633D01*
X152962963Y-84806144D01*
X152945000Y-85000000D01*
X138055000Y-85000000D01*
X138037037Y-84806144D01*
X138010475Y-84712791D01*
X137985328Y-84624408D01*
X137983758Y-84618890D01*
X137896979Y-84444614D01*
X137850975Y-84383696D01*
X137783111Y-84293828D01*
X137783107Y-84293824D01*
X137779654Y-84289251D01*
X137775417Y-84285388D01*
X137775413Y-84285384D01*
X137640014Y-84161952D01*
X137640015Y-84161952D01*
X137635780Y-84158092D01*
X137630910Y-84155077D01*
X137630908Y-84155075D01*
X137475128Y-84058621D01*
X137475129Y-84058621D01*
X137470254Y-84055603D01*
X137464911Y-84053533D01*
X137294061Y-83987345D01*
X137294056Y-83987343D01*
X137288714Y-83985274D01*
X137283076Y-83984220D01*
X137102972Y-83950552D01*
X137102969Y-83950551D01*
X137097343Y-83949500D01*
X137000099Y-83949500D01*
X120000500Y-83949500D01*
X120000000Y-83949500D01*
X119902657Y-83949500D01*
X119897031Y-83950551D01*
X119897027Y-83950552D01*
X119716923Y-83984220D01*
X119716920Y-83984220D01*
X119711286Y-83985274D01*
X119705946Y-83987342D01*
X119705938Y-83987345D01*
X119535088Y-84053533D01*
X119535083Y-84053535D01*
X119529746Y-84055603D01*
X119524874Y-84058619D01*
X119524871Y-84058621D01*
X119369091Y-84155075D01*
X119369083Y-84155080D01*
X119364220Y-84158092D01*
X119359989Y-84161948D01*
X119359985Y-84161952D01*
X119224586Y-84285384D01*
X119224576Y-84285394D01*
X119220346Y-84289251D01*
X119216897Y-84293817D01*
X119216888Y-84293828D01*
X119106473Y-84440042D01*
X119106470Y-84440046D01*
X119103021Y-84444614D01*
X119016242Y-84618890D01*
X119014674Y-84624398D01*
X119014671Y-84624408D01*
X118964533Y-84800622D01*
X118964530Y-84800633D01*
X118962963Y-84806144D01*
X118945000Y-85000000D01*
X114000500Y-85000000D01*
X114000500Y-82500000D01*
X115194532Y-82500000D01*
X115214365Y-82726692D01*
X115215762Y-82731907D01*
X115215764Y-82731916D01*
X115271858Y-82941263D01*
X115271861Y-82941271D01*
X115273261Y-82946496D01*
X115369432Y-83152734D01*
X115499953Y-83339139D01*
X115660861Y-83500047D01*
X115847266Y-83630568D01*
X116053504Y-83726739D01*
X116273308Y-83785635D01*
X116500000Y-83805468D01*
X116726692Y-83785635D01*
X116946496Y-83726739D01*
X117152734Y-83630568D01*
X117339139Y-83500047D01*
X117500047Y-83339139D01*
X117630568Y-83152734D01*
X117726739Y-82946496D01*
X117785635Y-82726692D01*
X117805468Y-82500000D01*
X182194532Y-82500000D01*
X182214365Y-82726692D01*
X182215762Y-82731907D01*
X182215764Y-82731916D01*
X182271858Y-82941263D01*
X182271861Y-82941271D01*
X182273261Y-82946496D01*
X182369432Y-83152734D01*
X182499953Y-83339139D01*
X182660861Y-83500047D01*
X182847266Y-83630568D01*
X183053504Y-83726739D01*
X183273308Y-83785635D01*
X183500000Y-83805468D01*
X183726692Y-83785635D01*
X183946496Y-83726739D01*
X184152734Y-83630568D01*
X184339139Y-83500047D01*
X184500047Y-83339139D01*
X184630568Y-83152734D01*
X184726739Y-82946496D01*
X184785635Y-82726692D01*
X184805468Y-82500000D01*
X184785635Y-82273308D01*
X184726739Y-82053504D01*
X184630568Y-81847266D01*
X184500047Y-81660861D01*
X184339139Y-81499953D01*
X184152734Y-81369432D01*
X184088145Y-81339313D01*
X183951405Y-81275550D01*
X183951403Y-81275549D01*
X183946496Y-81273261D01*
X183941271Y-81271861D01*
X183941263Y-81271858D01*
X183731916Y-81215764D01*
X183731907Y-81215762D01*
X183726692Y-81214365D01*
X183721304Y-81213893D01*
X183721301Y-81213893D01*
X183505395Y-81195004D01*
X183500000Y-81194532D01*
X183494605Y-81195004D01*
X183278698Y-81213893D01*
X183278693Y-81213893D01*
X183273308Y-81214365D01*
X183268094Y-81215762D01*
X183268083Y-81215764D01*
X183058736Y-81271858D01*
X183058724Y-81271862D01*
X183053504Y-81273261D01*
X183048599Y-81275547D01*
X183048594Y-81275550D01*
X182852176Y-81367142D01*
X182852172Y-81367144D01*
X182847266Y-81369432D01*
X182842833Y-81372535D01*
X182842826Y-81372540D01*
X182665296Y-81496847D01*
X182665291Y-81496850D01*
X182660861Y-81499953D01*
X182657037Y-81503776D01*
X182657031Y-81503782D01*
X182503782Y-81657031D01*
X182503776Y-81657037D01*
X182499953Y-81660861D01*
X182496850Y-81665291D01*
X182496847Y-81665296D01*
X182372540Y-81842826D01*
X182372535Y-81842833D01*
X182369432Y-81847266D01*
X182367144Y-81852172D01*
X182367142Y-81852176D01*
X182275550Y-82048594D01*
X182275547Y-82048599D01*
X182273261Y-82053504D01*
X182271862Y-82058724D01*
X182271858Y-82058736D01*
X182215764Y-82268083D01*
X182215762Y-82268094D01*
X182214365Y-82273308D01*
X182194532Y-82500000D01*
X117805468Y-82500000D01*
X117785635Y-82273308D01*
X117726739Y-82053504D01*
X117630568Y-81847266D01*
X117500047Y-81660861D01*
X117339139Y-81499953D01*
X117152734Y-81369432D01*
X117088145Y-81339313D01*
X116951405Y-81275550D01*
X116951403Y-81275549D01*
X116946496Y-81273261D01*
X116941271Y-81271861D01*
X116941263Y-81271858D01*
X116731916Y-81215764D01*
X116731907Y-81215762D01*
X116726692Y-81214365D01*
X116721304Y-81213893D01*
X116721301Y-81213893D01*
X116505395Y-81195004D01*
X116500000Y-81194532D01*
X116494605Y-81195004D01*
X116278698Y-81213893D01*
X116278693Y-81213893D01*
X116273308Y-81214365D01*
X116268094Y-81215762D01*
X116268083Y-81215764D01*
X116058736Y-81271858D01*
X116058724Y-81271862D01*
X116053504Y-81273261D01*
X116048599Y-81275547D01*
X116048594Y-81275550D01*
X115852176Y-81367142D01*
X115852172Y-81367144D01*
X115847266Y-81369432D01*
X115842833Y-81372535D01*
X115842826Y-81372540D01*
X115665296Y-81496847D01*
X115665291Y-81496850D01*
X115660861Y-81499953D01*
X115657037Y-81503776D01*
X115657031Y-81503782D01*
X115503782Y-81657031D01*
X115503776Y-81657037D01*
X115499953Y-81660861D01*
X115496850Y-81665291D01*
X115496847Y-81665296D01*
X115372540Y-81842826D01*
X115372535Y-81842833D01*
X115369432Y-81847266D01*
X115367144Y-81852172D01*
X115367142Y-81852176D01*
X115275550Y-82048594D01*
X115275547Y-82048599D01*
X115273261Y-82053504D01*
X115271862Y-82058724D01*
X115271858Y-82058736D01*
X115215764Y-82268083D01*
X115215762Y-82268094D01*
X115214365Y-82273308D01*
X115194532Y-82500000D01*
X114000500Y-82500000D01*
X114000500Y-80124500D01*
X114017113Y-80062500D01*
X114062500Y-80017113D01*
X114124500Y-80000500D01*
X117999901Y-80000500D01*
X118000099Y-80000500D01*
X181999901Y-80000500D01*
X182000099Y-80000500D01*
X185875500Y-80000500D01*
X185937500Y-80017113D01*
G37*
%TD.AperFunction*%
%TD*%
M02*
