%TF.GenerationSoftware,KiCad,Pcbnew,(7.0.0)*%
%TF.CreationDate,2023-10-22T09:50:51+03:00*%
%TF.ProjectId,nanoInvaderBot-logic,6e616e6f-496e-4766-9164-6572426f742d,rev?*%
%TF.SameCoordinates,Original*%
%TF.FileFunction,Paste,Top*%
%TF.FilePolarity,Positive*%
%FSLAX46Y46*%
G04 Gerber Fmt 4.6, Leading zero omitted, Abs format (unit mm)*
G04 Created by KiCad (PCBNEW (7.0.0)) date 2023-10-22 09:50:51*
%MOMM*%
%LPD*%
G01*
G04 APERTURE LIST*
G04 Aperture macros list*
%AMRoundRect*
0 Rectangle with rounded corners*
0 $1 Rounding radius*
0 $2 $3 $4 $5 $6 $7 $8 $9 X,Y pos of 4 corners*
0 Add a 4 corners polygon primitive as box body*
4,1,4,$2,$3,$4,$5,$6,$7,$8,$9,$2,$3,0*
0 Add four circle primitives for the rounded corners*
1,1,$1+$1,$2,$3*
1,1,$1+$1,$4,$5*
1,1,$1+$1,$6,$7*
1,1,$1+$1,$8,$9*
0 Add four rect primitives between the rounded corners*
20,1,$1+$1,$2,$3,$4,$5,0*
20,1,$1+$1,$4,$5,$6,$7,0*
20,1,$1+$1,$6,$7,$8,$9,0*
20,1,$1+$1,$8,$9,$2,$3,0*%
G04 Aperture macros list end*
%ADD10RoundRect,0.250000X-0.475000X0.250000X-0.475000X-0.250000X0.475000X-0.250000X0.475000X0.250000X0*%
%ADD11R,2.006600X2.159000*%
%ADD12R,1.143000X0.609600*%
%ADD13R,1.143000X0.304800*%
%ADD14RoundRect,0.135000X-0.185000X0.135000X-0.185000X-0.135000X0.185000X-0.135000X0.185000X0.135000X0*%
%ADD15RoundRect,0.135000X0.135000X0.185000X-0.135000X0.185000X-0.135000X-0.185000X0.135000X-0.185000X0*%
%ADD16R,1.100000X0.300000*%
%ADD17R,3.100000X2.300000*%
%ADD18R,0.300000X0.475000*%
%ADD19RoundRect,0.250000X0.425000X1.425000X-0.425000X1.425000X-0.425000X-1.425000X0.425000X-1.425000X0*%
G04 APERTURE END LIST*
D10*
%TO.C,C1*%
X146750000Y-100300000D03*
X146750000Y-102200000D03*
%TD*%
D11*
%TO.C,J1*%
X124787799Y-94639999D03*
X124787799Y-104859999D03*
X120857799Y-94639999D03*
X120857799Y-104859999D03*
D12*
X125362799Y-96549998D03*
X125362799Y-97349999D03*
D13*
X125362799Y-98499999D03*
X125362799Y-99499999D03*
X125362799Y-99999999D03*
X125362799Y-100999999D03*
D12*
X125362799Y-102149999D03*
X125362799Y-102949998D03*
D13*
X125362799Y-101499998D03*
X125362799Y-100500000D03*
X125362799Y-98999998D03*
X125362799Y-98000000D03*
%TD*%
D14*
%TO.C,R10*%
X150000000Y-103240000D03*
X150000000Y-104260000D03*
%TD*%
D15*
%TO.C,R9*%
X152260000Y-103500000D03*
X151240000Y-103500000D03*
%TD*%
D16*
%TO.C,J4*%
X163312499Y-104749999D03*
X163312499Y-104249999D03*
X163312499Y-103749999D03*
X163312499Y-103249999D03*
X163312499Y-102749999D03*
X163312499Y-102249999D03*
X163312499Y-101749999D03*
X163312499Y-101249999D03*
X163312499Y-100749999D03*
X163312499Y-100249999D03*
X163312499Y-99749999D03*
X163312499Y-99249999D03*
X163312499Y-98749999D03*
X163312499Y-98249999D03*
X163312499Y-97749999D03*
X163312499Y-97249999D03*
X163312499Y-96749999D03*
X163312499Y-96249999D03*
X163312499Y-95749999D03*
X163312499Y-95249999D03*
D17*
X165012499Y-106419999D03*
X165012499Y-93579999D03*
%TD*%
D18*
%TO.C,U5*%
X149999999Y-100411999D03*
X149499999Y-100411999D03*
X148999999Y-100411999D03*
X148499999Y-100411999D03*
X148499999Y-102087999D03*
X148999999Y-102087999D03*
X149499999Y-102087999D03*
X149999999Y-102087999D03*
%TD*%
D19*
%TO.C,L1*%
X154150000Y-97500000D03*
X148350000Y-97500000D03*
%TD*%
D10*
%TO.C,C2*%
X151750000Y-100300000D03*
X151750000Y-102200000D03*
%TD*%
M02*
