%TF.GenerationSoftware,KiCad,Pcbnew,(7.0.0)*%
%TF.CreationDate,2023-10-22T09:50:51+03:00*%
%TF.ProjectId,nanoInvaderBot-logic,6e616e6f-496e-4766-9164-6572426f742d,rev?*%
%TF.SameCoordinates,Original*%
%TF.FileFunction,Legend,Top*%
%TF.FilePolarity,Positive*%
%FSLAX46Y46*%
G04 Gerber Fmt 4.6, Leading zero omitted, Abs format (unit mm)*
G04 Created by KiCad (PCBNEW (7.0.0)) date 2023-10-22 09:50:51*
%MOMM*%
%LPD*%
G01*
G04 APERTURE LIST*
%ADD10C,0.300000*%
%ADD11C,0.150000*%
%ADD12C,0.254000*%
%ADD13C,0.120000*%
%ADD14C,0.152400*%
%ADD15C,0.127000*%
%ADD16C,0.200000*%
G04 APERTURE END LIST*
D10*
X156857142Y-109493571D02*
X156857142Y-110493571D01*
X156857142Y-109636428D02*
X156928571Y-109565000D01*
X156928571Y-109565000D02*
X157071428Y-109493571D01*
X157071428Y-109493571D02*
X157285714Y-109493571D01*
X157285714Y-109493571D02*
X157428571Y-109565000D01*
X157428571Y-109565000D02*
X157500000Y-109707857D01*
X157500000Y-109707857D02*
X157500000Y-110493571D01*
X158857143Y-110493571D02*
X158857143Y-109707857D01*
X158857143Y-109707857D02*
X158785714Y-109565000D01*
X158785714Y-109565000D02*
X158642857Y-109493571D01*
X158642857Y-109493571D02*
X158357143Y-109493571D01*
X158357143Y-109493571D02*
X158214285Y-109565000D01*
X158857143Y-110422142D02*
X158714285Y-110493571D01*
X158714285Y-110493571D02*
X158357143Y-110493571D01*
X158357143Y-110493571D02*
X158214285Y-110422142D01*
X158214285Y-110422142D02*
X158142857Y-110279285D01*
X158142857Y-110279285D02*
X158142857Y-110136428D01*
X158142857Y-110136428D02*
X158214285Y-109993571D01*
X158214285Y-109993571D02*
X158357143Y-109922142D01*
X158357143Y-109922142D02*
X158714285Y-109922142D01*
X158714285Y-109922142D02*
X158857143Y-109850714D01*
X159571428Y-109493571D02*
X159571428Y-110493571D01*
X159571428Y-109636428D02*
X159642857Y-109565000D01*
X159642857Y-109565000D02*
X159785714Y-109493571D01*
X159785714Y-109493571D02*
X160000000Y-109493571D01*
X160000000Y-109493571D02*
X160142857Y-109565000D01*
X160142857Y-109565000D02*
X160214286Y-109707857D01*
X160214286Y-109707857D02*
X160214286Y-110493571D01*
X161142857Y-110493571D02*
X161000000Y-110422142D01*
X161000000Y-110422142D02*
X160928571Y-110350714D01*
X160928571Y-110350714D02*
X160857143Y-110207857D01*
X160857143Y-110207857D02*
X160857143Y-109779285D01*
X160857143Y-109779285D02*
X160928571Y-109636428D01*
X160928571Y-109636428D02*
X161000000Y-109565000D01*
X161000000Y-109565000D02*
X161142857Y-109493571D01*
X161142857Y-109493571D02*
X161357143Y-109493571D01*
X161357143Y-109493571D02*
X161500000Y-109565000D01*
X161500000Y-109565000D02*
X161571429Y-109636428D01*
X161571429Y-109636428D02*
X161642857Y-109779285D01*
X161642857Y-109779285D02*
X161642857Y-110207857D01*
X161642857Y-110207857D02*
X161571429Y-110350714D01*
X161571429Y-110350714D02*
X161500000Y-110422142D01*
X161500000Y-110422142D02*
X161357143Y-110493571D01*
X161357143Y-110493571D02*
X161142857Y-110493571D01*
X162285714Y-110493571D02*
X162285714Y-108993571D01*
X163000000Y-109493571D02*
X163000000Y-110493571D01*
X163000000Y-109636428D02*
X163071429Y-109565000D01*
X163071429Y-109565000D02*
X163214286Y-109493571D01*
X163214286Y-109493571D02*
X163428572Y-109493571D01*
X163428572Y-109493571D02*
X163571429Y-109565000D01*
X163571429Y-109565000D02*
X163642858Y-109707857D01*
X163642858Y-109707857D02*
X163642858Y-110493571D01*
X164214286Y-109493571D02*
X164571429Y-110493571D01*
X164571429Y-110493571D02*
X164928572Y-109493571D01*
X166142858Y-110493571D02*
X166142858Y-109707857D01*
X166142858Y-109707857D02*
X166071429Y-109565000D01*
X166071429Y-109565000D02*
X165928572Y-109493571D01*
X165928572Y-109493571D02*
X165642858Y-109493571D01*
X165642858Y-109493571D02*
X165500000Y-109565000D01*
X166142858Y-110422142D02*
X166000000Y-110493571D01*
X166000000Y-110493571D02*
X165642858Y-110493571D01*
X165642858Y-110493571D02*
X165500000Y-110422142D01*
X165500000Y-110422142D02*
X165428572Y-110279285D01*
X165428572Y-110279285D02*
X165428572Y-110136428D01*
X165428572Y-110136428D02*
X165500000Y-109993571D01*
X165500000Y-109993571D02*
X165642858Y-109922142D01*
X165642858Y-109922142D02*
X166000000Y-109922142D01*
X166000000Y-109922142D02*
X166142858Y-109850714D01*
X167500001Y-110493571D02*
X167500001Y-108993571D01*
X167500001Y-110422142D02*
X167357143Y-110493571D01*
X167357143Y-110493571D02*
X167071429Y-110493571D01*
X167071429Y-110493571D02*
X166928572Y-110422142D01*
X166928572Y-110422142D02*
X166857143Y-110350714D01*
X166857143Y-110350714D02*
X166785715Y-110207857D01*
X166785715Y-110207857D02*
X166785715Y-109779285D01*
X166785715Y-109779285D02*
X166857143Y-109636428D01*
X166857143Y-109636428D02*
X166928572Y-109565000D01*
X166928572Y-109565000D02*
X167071429Y-109493571D01*
X167071429Y-109493571D02*
X167357143Y-109493571D01*
X167357143Y-109493571D02*
X167500001Y-109565000D01*
X168785715Y-110422142D02*
X168642858Y-110493571D01*
X168642858Y-110493571D02*
X168357144Y-110493571D01*
X168357144Y-110493571D02*
X168214286Y-110422142D01*
X168214286Y-110422142D02*
X168142858Y-110279285D01*
X168142858Y-110279285D02*
X168142858Y-109707857D01*
X168142858Y-109707857D02*
X168214286Y-109565000D01*
X168214286Y-109565000D02*
X168357144Y-109493571D01*
X168357144Y-109493571D02*
X168642858Y-109493571D01*
X168642858Y-109493571D02*
X168785715Y-109565000D01*
X168785715Y-109565000D02*
X168857144Y-109707857D01*
X168857144Y-109707857D02*
X168857144Y-109850714D01*
X168857144Y-109850714D02*
X168142858Y-109993571D01*
X169500000Y-110493571D02*
X169500000Y-109493571D01*
X169500000Y-109779285D02*
X169571429Y-109636428D01*
X169571429Y-109636428D02*
X169642858Y-109565000D01*
X169642858Y-109565000D02*
X169785715Y-109493571D01*
X169785715Y-109493571D02*
X169928572Y-109493571D01*
X170928571Y-109707857D02*
X171142857Y-109779285D01*
X171142857Y-109779285D02*
X171214286Y-109850714D01*
X171214286Y-109850714D02*
X171285714Y-109993571D01*
X171285714Y-109993571D02*
X171285714Y-110207857D01*
X171285714Y-110207857D02*
X171214286Y-110350714D01*
X171214286Y-110350714D02*
X171142857Y-110422142D01*
X171142857Y-110422142D02*
X171000000Y-110493571D01*
X171000000Y-110493571D02*
X170428571Y-110493571D01*
X170428571Y-110493571D02*
X170428571Y-108993571D01*
X170428571Y-108993571D02*
X170928571Y-108993571D01*
X170928571Y-108993571D02*
X171071429Y-109065000D01*
X171071429Y-109065000D02*
X171142857Y-109136428D01*
X171142857Y-109136428D02*
X171214286Y-109279285D01*
X171214286Y-109279285D02*
X171214286Y-109422142D01*
X171214286Y-109422142D02*
X171142857Y-109565000D01*
X171142857Y-109565000D02*
X171071429Y-109636428D01*
X171071429Y-109636428D02*
X170928571Y-109707857D01*
X170928571Y-109707857D02*
X170428571Y-109707857D01*
X172142857Y-110493571D02*
X172000000Y-110422142D01*
X172000000Y-110422142D02*
X171928571Y-110350714D01*
X171928571Y-110350714D02*
X171857143Y-110207857D01*
X171857143Y-110207857D02*
X171857143Y-109779285D01*
X171857143Y-109779285D02*
X171928571Y-109636428D01*
X171928571Y-109636428D02*
X172000000Y-109565000D01*
X172000000Y-109565000D02*
X172142857Y-109493571D01*
X172142857Y-109493571D02*
X172357143Y-109493571D01*
X172357143Y-109493571D02*
X172500000Y-109565000D01*
X172500000Y-109565000D02*
X172571429Y-109636428D01*
X172571429Y-109636428D02*
X172642857Y-109779285D01*
X172642857Y-109779285D02*
X172642857Y-110207857D01*
X172642857Y-110207857D02*
X172571429Y-110350714D01*
X172571429Y-110350714D02*
X172500000Y-110422142D01*
X172500000Y-110422142D02*
X172357143Y-110493571D01*
X172357143Y-110493571D02*
X172142857Y-110493571D01*
X173071429Y-109493571D02*
X173642857Y-109493571D01*
X173285714Y-108993571D02*
X173285714Y-110279285D01*
X173285714Y-110279285D02*
X173357143Y-110422142D01*
X173357143Y-110422142D02*
X173500000Y-110493571D01*
X173500000Y-110493571D02*
X173642857Y-110493571D01*
X174900000Y-109493571D02*
X175257143Y-110493571D01*
X175257143Y-110493571D02*
X175614286Y-109493571D01*
X176114286Y-109136428D02*
X176185714Y-109065000D01*
X176185714Y-109065000D02*
X176328572Y-108993571D01*
X176328572Y-108993571D02*
X176685714Y-108993571D01*
X176685714Y-108993571D02*
X176828572Y-109065000D01*
X176828572Y-109065000D02*
X176900000Y-109136428D01*
X176900000Y-109136428D02*
X176971429Y-109279285D01*
X176971429Y-109279285D02*
X176971429Y-109422142D01*
X176971429Y-109422142D02*
X176900000Y-109636428D01*
X176900000Y-109636428D02*
X176042857Y-110493571D01*
X176042857Y-110493571D02*
X176971429Y-110493571D01*
X177471428Y-108993571D02*
X178400000Y-108993571D01*
X178400000Y-108993571D02*
X177900000Y-109565000D01*
X177900000Y-109565000D02*
X178114285Y-109565000D01*
X178114285Y-109565000D02*
X178257143Y-109636428D01*
X178257143Y-109636428D02*
X178328571Y-109707857D01*
X178328571Y-109707857D02*
X178400000Y-109850714D01*
X178400000Y-109850714D02*
X178400000Y-110207857D01*
X178400000Y-110207857D02*
X178328571Y-110350714D01*
X178328571Y-110350714D02*
X178257143Y-110422142D01*
X178257143Y-110422142D02*
X178114285Y-110493571D01*
X178114285Y-110493571D02*
X177685714Y-110493571D01*
X177685714Y-110493571D02*
X177542857Y-110422142D01*
X177542857Y-110422142D02*
X177471428Y-110350714D01*
X179042856Y-110350714D02*
X179114285Y-110422142D01*
X179114285Y-110422142D02*
X179042856Y-110493571D01*
X179042856Y-110493571D02*
X178971428Y-110422142D01*
X178971428Y-110422142D02*
X179042856Y-110350714D01*
X179042856Y-110350714D02*
X179042856Y-110493571D01*
X180542857Y-110493571D02*
X179685714Y-110493571D01*
X180114285Y-110493571D02*
X180114285Y-108993571D01*
X180114285Y-108993571D02*
X179971428Y-109207857D01*
X179971428Y-109207857D02*
X179828571Y-109350714D01*
X179828571Y-109350714D02*
X179685714Y-109422142D01*
X181471428Y-108993571D02*
X181614285Y-108993571D01*
X181614285Y-108993571D02*
X181757142Y-109065000D01*
X181757142Y-109065000D02*
X181828571Y-109136428D01*
X181828571Y-109136428D02*
X181899999Y-109279285D01*
X181899999Y-109279285D02*
X181971428Y-109565000D01*
X181971428Y-109565000D02*
X181971428Y-109922142D01*
X181971428Y-109922142D02*
X181899999Y-110207857D01*
X181899999Y-110207857D02*
X181828571Y-110350714D01*
X181828571Y-110350714D02*
X181757142Y-110422142D01*
X181757142Y-110422142D02*
X181614285Y-110493571D01*
X181614285Y-110493571D02*
X181471428Y-110493571D01*
X181471428Y-110493571D02*
X181328571Y-110422142D01*
X181328571Y-110422142D02*
X181257142Y-110350714D01*
X181257142Y-110350714D02*
X181185713Y-110207857D01*
X181185713Y-110207857D02*
X181114285Y-109922142D01*
X181114285Y-109922142D02*
X181114285Y-109565000D01*
X181114285Y-109565000D02*
X181185713Y-109279285D01*
X181185713Y-109279285D02*
X181257142Y-109136428D01*
X181257142Y-109136428D02*
X181328571Y-109065000D01*
X181328571Y-109065000D02*
X181471428Y-108993571D01*
X157285714Y-113495000D02*
X157214285Y-113423571D01*
X157214285Y-113423571D02*
X157071428Y-113209285D01*
X157071428Y-113209285D02*
X157000000Y-113066428D01*
X157000000Y-113066428D02*
X156928571Y-112852142D01*
X156928571Y-112852142D02*
X156857142Y-112495000D01*
X156857142Y-112495000D02*
X156857142Y-112209285D01*
X156857142Y-112209285D02*
X156928571Y-111852142D01*
X156928571Y-111852142D02*
X157000000Y-111637857D01*
X157000000Y-111637857D02*
X157071428Y-111495000D01*
X157071428Y-111495000D02*
X157214285Y-111280714D01*
X157214285Y-111280714D02*
X157285714Y-111209285D01*
X158500000Y-112852142D02*
X158357142Y-112923571D01*
X158357142Y-112923571D02*
X158071428Y-112923571D01*
X158071428Y-112923571D02*
X157928571Y-112852142D01*
X157928571Y-112852142D02*
X157857142Y-112780714D01*
X157857142Y-112780714D02*
X157785714Y-112637857D01*
X157785714Y-112637857D02*
X157785714Y-112209285D01*
X157785714Y-112209285D02*
X157857142Y-112066428D01*
X157857142Y-112066428D02*
X157928571Y-111995000D01*
X157928571Y-111995000D02*
X158071428Y-111923571D01*
X158071428Y-111923571D02*
X158357142Y-111923571D01*
X158357142Y-111923571D02*
X158500000Y-111995000D01*
X158999999Y-113495000D02*
X159071428Y-113423571D01*
X159071428Y-113423571D02*
X159214285Y-113209285D01*
X159214285Y-113209285D02*
X159285714Y-113066428D01*
X159285714Y-113066428D02*
X159357142Y-112852142D01*
X159357142Y-112852142D02*
X159428571Y-112495000D01*
X159428571Y-112495000D02*
X159428571Y-112209285D01*
X159428571Y-112209285D02*
X159357142Y-111852142D01*
X159357142Y-111852142D02*
X159285714Y-111637857D01*
X159285714Y-111637857D02*
X159214285Y-111495000D01*
X159214285Y-111495000D02*
X159071428Y-111280714D01*
X159071428Y-111280714D02*
X158999999Y-111209285D01*
X160971428Y-112852142D02*
X161185714Y-112923571D01*
X161185714Y-112923571D02*
X161542856Y-112923571D01*
X161542856Y-112923571D02*
X161685714Y-112852142D01*
X161685714Y-112852142D02*
X161757142Y-112780714D01*
X161757142Y-112780714D02*
X161828571Y-112637857D01*
X161828571Y-112637857D02*
X161828571Y-112495000D01*
X161828571Y-112495000D02*
X161757142Y-112352142D01*
X161757142Y-112352142D02*
X161685714Y-112280714D01*
X161685714Y-112280714D02*
X161542856Y-112209285D01*
X161542856Y-112209285D02*
X161257142Y-112137857D01*
X161257142Y-112137857D02*
X161114285Y-112066428D01*
X161114285Y-112066428D02*
X161042856Y-111995000D01*
X161042856Y-111995000D02*
X160971428Y-111852142D01*
X160971428Y-111852142D02*
X160971428Y-111709285D01*
X160971428Y-111709285D02*
X161042856Y-111566428D01*
X161042856Y-111566428D02*
X161114285Y-111495000D01*
X161114285Y-111495000D02*
X161257142Y-111423571D01*
X161257142Y-111423571D02*
X161614285Y-111423571D01*
X161614285Y-111423571D02*
X161828571Y-111495000D01*
X163042856Y-112852142D02*
X162899999Y-112923571D01*
X162899999Y-112923571D02*
X162614285Y-112923571D01*
X162614285Y-112923571D02*
X162471427Y-112852142D01*
X162471427Y-112852142D02*
X162399999Y-112709285D01*
X162399999Y-112709285D02*
X162399999Y-112137857D01*
X162399999Y-112137857D02*
X162471427Y-111995000D01*
X162471427Y-111995000D02*
X162614285Y-111923571D01*
X162614285Y-111923571D02*
X162899999Y-111923571D01*
X162899999Y-111923571D02*
X163042856Y-111995000D01*
X163042856Y-111995000D02*
X163114285Y-112137857D01*
X163114285Y-112137857D02*
X163114285Y-112280714D01*
X163114285Y-112280714D02*
X162399999Y-112423571D01*
X163757141Y-112923571D02*
X163757141Y-111923571D01*
X163757141Y-112066428D02*
X163828570Y-111995000D01*
X163828570Y-111995000D02*
X163971427Y-111923571D01*
X163971427Y-111923571D02*
X164185713Y-111923571D01*
X164185713Y-111923571D02*
X164328570Y-111995000D01*
X164328570Y-111995000D02*
X164399999Y-112137857D01*
X164399999Y-112137857D02*
X164399999Y-112923571D01*
X164399999Y-112137857D02*
X164471427Y-111995000D01*
X164471427Y-111995000D02*
X164614284Y-111923571D01*
X164614284Y-111923571D02*
X164828570Y-111923571D01*
X164828570Y-111923571D02*
X164971427Y-111995000D01*
X164971427Y-111995000D02*
X165042856Y-112137857D01*
X165042856Y-112137857D02*
X165042856Y-112923571D01*
X165757141Y-112923571D02*
X165757141Y-111923571D01*
X165757141Y-111423571D02*
X165685713Y-111495000D01*
X165685713Y-111495000D02*
X165757141Y-111566428D01*
X165757141Y-111566428D02*
X165828570Y-111495000D01*
X165828570Y-111495000D02*
X165757141Y-111423571D01*
X165757141Y-111423571D02*
X165757141Y-111566428D01*
X166471427Y-112923571D02*
X166471427Y-111423571D01*
X167114285Y-112923571D02*
X167114285Y-112137857D01*
X167114285Y-112137857D02*
X167042856Y-111995000D01*
X167042856Y-111995000D02*
X166899999Y-111923571D01*
X166899999Y-111923571D02*
X166685713Y-111923571D01*
X166685713Y-111923571D02*
X166542856Y-111995000D01*
X166542856Y-111995000D02*
X166471427Y-112066428D01*
X168728570Y-112923571D02*
X168728570Y-111423571D01*
X169371428Y-112852142D02*
X169514285Y-112923571D01*
X169514285Y-112923571D02*
X169799999Y-112923571D01*
X169799999Y-112923571D02*
X169942856Y-112852142D01*
X169942856Y-112852142D02*
X170014285Y-112709285D01*
X170014285Y-112709285D02*
X170014285Y-112637857D01*
X170014285Y-112637857D02*
X169942856Y-112495000D01*
X169942856Y-112495000D02*
X169799999Y-112423571D01*
X169799999Y-112423571D02*
X169585714Y-112423571D01*
X169585714Y-112423571D02*
X169442856Y-112352142D01*
X169442856Y-112352142D02*
X169371428Y-112209285D01*
X169371428Y-112209285D02*
X169371428Y-112137857D01*
X169371428Y-112137857D02*
X169442856Y-111995000D01*
X169442856Y-111995000D02*
X169585714Y-111923571D01*
X169585714Y-111923571D02*
X169799999Y-111923571D01*
X169799999Y-111923571D02*
X169942856Y-111995000D01*
X171228571Y-112852142D02*
X171085714Y-112923571D01*
X171085714Y-112923571D02*
X170800000Y-112923571D01*
X170800000Y-112923571D02*
X170657142Y-112852142D01*
X170657142Y-112852142D02*
X170585714Y-112709285D01*
X170585714Y-112709285D02*
X170585714Y-112137857D01*
X170585714Y-112137857D02*
X170657142Y-111995000D01*
X170657142Y-111995000D02*
X170800000Y-111923571D01*
X170800000Y-111923571D02*
X171085714Y-111923571D01*
X171085714Y-111923571D02*
X171228571Y-111995000D01*
X171228571Y-111995000D02*
X171300000Y-112137857D01*
X171300000Y-112137857D02*
X171300000Y-112280714D01*
X171300000Y-112280714D02*
X170585714Y-112423571D01*
X171942856Y-112923571D02*
X171942856Y-111923571D01*
X171942856Y-112209285D02*
X172014285Y-112066428D01*
X172014285Y-112066428D02*
X172085714Y-111995000D01*
X172085714Y-111995000D02*
X172228571Y-111923571D01*
X172228571Y-111923571D02*
X172371428Y-111923571D01*
X172871427Y-112923571D02*
X172871427Y-111923571D01*
X172871427Y-111423571D02*
X172799999Y-111495000D01*
X172799999Y-111495000D02*
X172871427Y-111566428D01*
X172871427Y-111566428D02*
X172942856Y-111495000D01*
X172942856Y-111495000D02*
X172871427Y-111423571D01*
X172871427Y-111423571D02*
X172871427Y-111566428D01*
D11*
%TO.C,C1*%
X147022142Y-98416666D02*
X147069761Y-98464285D01*
X147069761Y-98464285D02*
X147117380Y-98607142D01*
X147117380Y-98607142D02*
X147117380Y-98702380D01*
X147117380Y-98702380D02*
X147069761Y-98845237D01*
X147069761Y-98845237D02*
X146974523Y-98940475D01*
X146974523Y-98940475D02*
X146879285Y-98988094D01*
X146879285Y-98988094D02*
X146688809Y-99035713D01*
X146688809Y-99035713D02*
X146545952Y-99035713D01*
X146545952Y-99035713D02*
X146355476Y-98988094D01*
X146355476Y-98988094D02*
X146260238Y-98940475D01*
X146260238Y-98940475D02*
X146165000Y-98845237D01*
X146165000Y-98845237D02*
X146117380Y-98702380D01*
X146117380Y-98702380D02*
X146117380Y-98607142D01*
X146117380Y-98607142D02*
X146165000Y-98464285D01*
X146165000Y-98464285D02*
X146212619Y-98416666D01*
X147117380Y-97464285D02*
X147117380Y-98035713D01*
X147117380Y-97749999D02*
X146117380Y-97749999D01*
X146117380Y-97749999D02*
X146260238Y-97845237D01*
X146260238Y-97845237D02*
X146355476Y-97940475D01*
X146355476Y-97940475D02*
X146403095Y-98035713D01*
%TO.C,J1*%
X119382619Y-91916666D02*
X118668333Y-91916666D01*
X118668333Y-91916666D02*
X118525476Y-91869047D01*
X118525476Y-91869047D02*
X118430238Y-91773809D01*
X118430238Y-91773809D02*
X118382619Y-91630952D01*
X118382619Y-91630952D02*
X118382619Y-91535714D01*
X118382619Y-92916666D02*
X118382619Y-92345238D01*
X118382619Y-92630952D02*
X119382619Y-92630952D01*
X119382619Y-92630952D02*
X119239761Y-92535714D01*
X119239761Y-92535714D02*
X119144523Y-92440476D01*
X119144523Y-92440476D02*
X119096904Y-92345238D01*
%TO.C,R10*%
X150367380Y-107142857D02*
X149891190Y-107476190D01*
X150367380Y-107714285D02*
X149367380Y-107714285D01*
X149367380Y-107714285D02*
X149367380Y-107333333D01*
X149367380Y-107333333D02*
X149415000Y-107238095D01*
X149415000Y-107238095D02*
X149462619Y-107190476D01*
X149462619Y-107190476D02*
X149557857Y-107142857D01*
X149557857Y-107142857D02*
X149700714Y-107142857D01*
X149700714Y-107142857D02*
X149795952Y-107190476D01*
X149795952Y-107190476D02*
X149843571Y-107238095D01*
X149843571Y-107238095D02*
X149891190Y-107333333D01*
X149891190Y-107333333D02*
X149891190Y-107714285D01*
X150367380Y-106190476D02*
X150367380Y-106761904D01*
X150367380Y-106476190D02*
X149367380Y-106476190D01*
X149367380Y-106476190D02*
X149510238Y-106571428D01*
X149510238Y-106571428D02*
X149605476Y-106666666D01*
X149605476Y-106666666D02*
X149653095Y-106761904D01*
X149367380Y-105571428D02*
X149367380Y-105476190D01*
X149367380Y-105476190D02*
X149415000Y-105380952D01*
X149415000Y-105380952D02*
X149462619Y-105333333D01*
X149462619Y-105333333D02*
X149557857Y-105285714D01*
X149557857Y-105285714D02*
X149748333Y-105238095D01*
X149748333Y-105238095D02*
X149986428Y-105238095D01*
X149986428Y-105238095D02*
X150176904Y-105285714D01*
X150176904Y-105285714D02*
X150272142Y-105333333D01*
X150272142Y-105333333D02*
X150319761Y-105380952D01*
X150319761Y-105380952D02*
X150367380Y-105476190D01*
X150367380Y-105476190D02*
X150367380Y-105571428D01*
X150367380Y-105571428D02*
X150319761Y-105666666D01*
X150319761Y-105666666D02*
X150272142Y-105714285D01*
X150272142Y-105714285D02*
X150176904Y-105761904D01*
X150176904Y-105761904D02*
X149986428Y-105809523D01*
X149986428Y-105809523D02*
X149748333Y-105809523D01*
X149748333Y-105809523D02*
X149557857Y-105761904D01*
X149557857Y-105761904D02*
X149462619Y-105714285D01*
X149462619Y-105714285D02*
X149415000Y-105666666D01*
X149415000Y-105666666D02*
X149367380Y-105571428D01*
%TO.C,R9*%
X151583333Y-105037380D02*
X151250000Y-104561190D01*
X151011905Y-105037380D02*
X151011905Y-104037380D01*
X151011905Y-104037380D02*
X151392857Y-104037380D01*
X151392857Y-104037380D02*
X151488095Y-104085000D01*
X151488095Y-104085000D02*
X151535714Y-104132619D01*
X151535714Y-104132619D02*
X151583333Y-104227857D01*
X151583333Y-104227857D02*
X151583333Y-104370714D01*
X151583333Y-104370714D02*
X151535714Y-104465952D01*
X151535714Y-104465952D02*
X151488095Y-104513571D01*
X151488095Y-104513571D02*
X151392857Y-104561190D01*
X151392857Y-104561190D02*
X151011905Y-104561190D01*
X152059524Y-105037380D02*
X152250000Y-105037380D01*
X152250000Y-105037380D02*
X152345238Y-104989761D01*
X152345238Y-104989761D02*
X152392857Y-104942142D01*
X152392857Y-104942142D02*
X152488095Y-104799285D01*
X152488095Y-104799285D02*
X152535714Y-104608809D01*
X152535714Y-104608809D02*
X152535714Y-104227857D01*
X152535714Y-104227857D02*
X152488095Y-104132619D01*
X152488095Y-104132619D02*
X152440476Y-104085000D01*
X152440476Y-104085000D02*
X152345238Y-104037380D01*
X152345238Y-104037380D02*
X152154762Y-104037380D01*
X152154762Y-104037380D02*
X152059524Y-104085000D01*
X152059524Y-104085000D02*
X152011905Y-104132619D01*
X152011905Y-104132619D02*
X151964286Y-104227857D01*
X151964286Y-104227857D02*
X151964286Y-104465952D01*
X151964286Y-104465952D02*
X152011905Y-104561190D01*
X152011905Y-104561190D02*
X152059524Y-104608809D01*
X152059524Y-104608809D02*
X152154762Y-104656428D01*
X152154762Y-104656428D02*
X152345238Y-104656428D01*
X152345238Y-104656428D02*
X152440476Y-104608809D01*
X152440476Y-104608809D02*
X152488095Y-104561190D01*
X152488095Y-104561190D02*
X152535714Y-104465952D01*
%TO.C,J4*%
X160697165Y-105429252D02*
X161268864Y-105429252D01*
X161268864Y-105429252D02*
X161383204Y-105467365D01*
X161383204Y-105467365D02*
X161459430Y-105543592D01*
X161459430Y-105543592D02*
X161497543Y-105657931D01*
X161497543Y-105657931D02*
X161497543Y-105734158D01*
X160963958Y-104705100D02*
X161497543Y-104705100D01*
X160659052Y-104895666D02*
X161230751Y-105086233D01*
X161230751Y-105086233D02*
X161230751Y-104590760D01*
D12*
%TO.C,U5*%
X147446573Y-105217619D02*
X148474669Y-105217619D01*
X148474669Y-105217619D02*
X148595621Y-105157142D01*
X148595621Y-105157142D02*
X148656097Y-105096666D01*
X148656097Y-105096666D02*
X148716573Y-104975714D01*
X148716573Y-104975714D02*
X148716573Y-104733809D01*
X148716573Y-104733809D02*
X148656097Y-104612857D01*
X148656097Y-104612857D02*
X148595621Y-104552380D01*
X148595621Y-104552380D02*
X148474669Y-104491904D01*
X148474669Y-104491904D02*
X147446573Y-104491904D01*
X147446573Y-103282381D02*
X147446573Y-103887143D01*
X147446573Y-103887143D02*
X148051335Y-103947619D01*
X148051335Y-103947619D02*
X147990859Y-103887143D01*
X147990859Y-103887143D02*
X147930383Y-103766190D01*
X147930383Y-103766190D02*
X147930383Y-103463809D01*
X147930383Y-103463809D02*
X147990859Y-103342857D01*
X147990859Y-103342857D02*
X148051335Y-103282381D01*
X148051335Y-103282381D02*
X148172288Y-103221904D01*
X148172288Y-103221904D02*
X148474669Y-103221904D01*
X148474669Y-103221904D02*
X148595621Y-103282381D01*
X148595621Y-103282381D02*
X148656097Y-103342857D01*
X148656097Y-103342857D02*
X148716573Y-103463809D01*
X148716573Y-103463809D02*
X148716573Y-103766190D01*
X148716573Y-103766190D02*
X148656097Y-103887143D01*
X148656097Y-103887143D02*
X148595621Y-103947619D01*
D11*
%TO.C,L1*%
X151083333Y-95117380D02*
X150607143Y-95117380D01*
X150607143Y-95117380D02*
X150607143Y-94117380D01*
X151940476Y-95117380D02*
X151369048Y-95117380D01*
X151654762Y-95117380D02*
X151654762Y-94117380D01*
X151654762Y-94117380D02*
X151559524Y-94260238D01*
X151559524Y-94260238D02*
X151464286Y-94355476D01*
X151464286Y-94355476D02*
X151369048Y-94403095D01*
%TO.C,C2*%
X153772142Y-101166666D02*
X153819761Y-101214285D01*
X153819761Y-101214285D02*
X153867380Y-101357142D01*
X153867380Y-101357142D02*
X153867380Y-101452380D01*
X153867380Y-101452380D02*
X153819761Y-101595237D01*
X153819761Y-101595237D02*
X153724523Y-101690475D01*
X153724523Y-101690475D02*
X153629285Y-101738094D01*
X153629285Y-101738094D02*
X153438809Y-101785713D01*
X153438809Y-101785713D02*
X153295952Y-101785713D01*
X153295952Y-101785713D02*
X153105476Y-101738094D01*
X153105476Y-101738094D02*
X153010238Y-101690475D01*
X153010238Y-101690475D02*
X152915000Y-101595237D01*
X152915000Y-101595237D02*
X152867380Y-101452380D01*
X152867380Y-101452380D02*
X152867380Y-101357142D01*
X152867380Y-101357142D02*
X152915000Y-101214285D01*
X152915000Y-101214285D02*
X152962619Y-101166666D01*
X152962619Y-100785713D02*
X152915000Y-100738094D01*
X152915000Y-100738094D02*
X152867380Y-100642856D01*
X152867380Y-100642856D02*
X152867380Y-100404761D01*
X152867380Y-100404761D02*
X152915000Y-100309523D01*
X152915000Y-100309523D02*
X152962619Y-100261904D01*
X152962619Y-100261904D02*
X153057857Y-100214285D01*
X153057857Y-100214285D02*
X153153095Y-100214285D01*
X153153095Y-100214285D02*
X153295952Y-100261904D01*
X153295952Y-100261904D02*
X153867380Y-100833332D01*
X153867380Y-100833332D02*
X153867380Y-100214285D01*
D13*
%TO.C,C1*%
X147485000Y-100988748D02*
X147485000Y-101511252D01*
X146015000Y-100988748D02*
X146015000Y-101511252D01*
D14*
%TO.C,J1*%
X123451760Y-93819100D02*
X122193840Y-93819100D01*
X119521760Y-93819100D02*
X117885200Y-93819100D01*
X117885200Y-93819100D02*
X117885200Y-105680900D01*
X126114800Y-95965671D02*
X126114800Y-95796534D01*
X126114800Y-103703466D02*
X126114800Y-103534326D01*
X122193840Y-105680900D02*
X123451760Y-105680900D01*
X117885200Y-105680900D02*
X119521760Y-105680900D01*
D13*
%TO.C,R10*%
X150380000Y-103596359D02*
X150380000Y-103903641D01*
X149620000Y-103596359D02*
X149620000Y-103903641D01*
%TO.C,R9*%
X151903641Y-103880000D02*
X151596359Y-103880000D01*
X151903641Y-103120000D02*
X151596359Y-103120000D01*
D15*
%TO.C,J4*%
X166812500Y-107715000D02*
X168312500Y-107715000D01*
X168312500Y-107715000D02*
X168312500Y-92285000D01*
X168312500Y-92285000D02*
X166812500Y-92285000D01*
D16*
X162212500Y-104730000D02*
G75*
G03*
X162212500Y-104730000I-100000J0D01*
G01*
%TO.C,U5*%
X150400000Y-100175000D02*
X150400000Y-100650000D01*
X150300000Y-101000000D02*
X150300000Y-101500000D01*
X148200000Y-101000000D02*
X150300000Y-101000000D01*
X150300000Y-101500000D02*
X148200000Y-101500000D01*
X148200000Y-101500000D02*
X148200000Y-101000000D01*
D13*
%TO.C,L1*%
X153302064Y-99210000D02*
X149197936Y-99210000D01*
X153302064Y-95790000D02*
X149197936Y-95790000D01*
%TO.C,C2*%
X152485000Y-100988748D02*
X152485000Y-101511252D01*
X151015000Y-100988748D02*
X151015000Y-101511252D01*
%TD*%
M02*
