%TF.GenerationSoftware,KiCad,Pcbnew,(7.0.0)*%
%TF.CreationDate,2023-10-22T09:50:51+03:00*%
%TF.ProjectId,nanoInvaderBot-logic,6e616e6f-496e-4766-9164-6572426f742d,rev?*%
%TF.SameCoordinates,Original*%
%TF.FileFunction,Profile,NP*%
%FSLAX46Y46*%
G04 Gerber Fmt 4.6, Leading zero omitted, Abs format (unit mm)*
G04 Created by KiCad (PCBNEW (7.0.0)) date 2023-10-22 09:50:51*
%MOMM*%
%LPD*%
G01*
G04 APERTURE LIST*
%TA.AperFunction,Profile*%
%ADD10C,0.100000*%
%TD*%
G04 APERTURE END LIST*
D10*
X118000000Y-80000000D02*
X182000000Y-80000000D01*
X114000000Y-114696900D02*
X114000000Y-120000000D01*
X182000000Y-80000000D02*
X186000000Y-80000000D01*
X163000000Y-113950000D02*
G75*
G03*
X163000000Y-116050000I0J-1050000D01*
G01*
X146000000Y-113950000D02*
X126000000Y-113950000D01*
X114000004Y-114696932D02*
G75*
G03*
X114000004Y-85303068I-25000004J14696932D01*
G01*
X114000000Y-85303100D02*
X114000000Y-80000000D01*
X118000000Y-80000000D02*
X114000000Y-80000000D01*
X182000000Y-120000000D02*
X118000000Y-120000000D01*
X146000000Y-116050000D02*
G75*
G03*
X146000000Y-113950000I0J1050000D01*
G01*
X185999919Y-85303199D02*
G75*
G03*
X185999919Y-114696801I25000081J-14696801D01*
G01*
X180000000Y-113950000D02*
X163000000Y-113950000D01*
X180000000Y-116050000D02*
G75*
G03*
X180000000Y-113950000I0J1050000D01*
G01*
X174000000Y-83950000D02*
X154000000Y-83950000D01*
X126000000Y-113950000D02*
G75*
G03*
X126000000Y-116050000I0J-1050000D01*
G01*
X184800000Y-117500000D02*
G75*
G03*
X184800000Y-117500000I-1300000J0D01*
G01*
X163000000Y-116050000D02*
X180000000Y-116050000D01*
X117800000Y-82500000D02*
G75*
G03*
X117800000Y-82500000I-1300000J0D01*
G01*
X137000000Y-86050000D02*
G75*
G03*
X137000000Y-83950000I0J1050000D01*
G01*
X186000000Y-80000000D02*
X186000000Y-85303100D01*
X120000000Y-83950000D02*
G75*
G03*
X120000000Y-86050000I0J-1050000D01*
G01*
X137000000Y-83950000D02*
X120000000Y-83950000D01*
X186000000Y-120000000D02*
X186000000Y-114696900D01*
X154000000Y-86050000D02*
X174000000Y-86050000D01*
X120000000Y-86050000D02*
X137000000Y-86050000D01*
X184800000Y-82500000D02*
G75*
G03*
X184800000Y-82500000I-1300000J0D01*
G01*
X174000000Y-86050000D02*
G75*
G03*
X174000000Y-83950000I0J1050000D01*
G01*
X118000000Y-120000000D02*
X114000000Y-120000000D01*
X126000000Y-116050000D02*
X146000000Y-116050000D01*
X182000000Y-120000000D02*
X186000000Y-120000000D01*
X154000000Y-83950000D02*
G75*
G03*
X154000000Y-86050000I0J-1050000D01*
G01*
X117800000Y-117500000D02*
G75*
G03*
X117800000Y-117500000I-1300000J0D01*
G01*
M02*
