M48
; DRILL file {KiCad (7.0.0)} date Sun Oct 22 09:50:54 2023
; FORMAT={-:-/ absolute / metric / decimal}
; #@! TF.CreationDate,2023-10-22T09:50:54+03:00
; #@! TF.GenerationSoftware,Kicad,Pcbnew,(7.0.0)
; #@! TF.FileFunction,Plated,1,2,PTH
FMAT,2
METRIC
; #@! TA.AperFunction,Plated,PTH,ViaDrill
T1C0.400
%
G90
G05
T1
X120.5Y-98.5
X120.5Y-101.5
X123.0Y-100.0
X127.0Y-107.0
X127.25Y-96.5
X129.75Y-91.75
X132.725Y-104.75
X133.5Y-100.0
X133.775Y-104.75
X136.5Y-87.75
X136.5Y-93.25
X137.75Y-104.5
X138.0Y-92.0
X140.75Y-94.75
X144.25Y-94.75
X144.25Y-102.25
X146.75Y-104.5
X148.238Y-92.762
X149.5Y-91.75
X151.25Y-97.25
X153.25Y-102.25
X154.25Y-106.5
X155.25Y-101.0
X155.5Y-104.75
X156.0Y-97.25
X156.5Y-103.25
X156.5Y-104.75
X156.75Y-89.5
X156.75Y-92.75
X157.0Y-107.75
X157.25Y-99.25
X157.5Y-101.75
X158.0Y-98.0
X158.25Y-94.25
X158.5Y-101.75
X159.5Y-98.25
X159.5Y-101.75
X159.5Y-103.75
X160.25Y-102.5
X160.5Y-91.75
X160.5Y-98.25
X161.0Y-103.25
X161.012Y-95.262
X161.25Y-97.5
X162.25Y-106.0
X162.5Y-93.75
X164.5Y-109.5
X167.25Y-89.75
X167.25Y-96.0
X167.25Y-104.0
X168.25Y-109.5
X169.25Y-96.0
X169.25Y-104.0
X171.25Y-96.0
X171.25Y-104.0
X173.25Y-90.25
X173.5Y-109.75
T0
M30
