%TF.GenerationSoftware,KiCad,Pcbnew,(7.0.0)*%
%TF.CreationDate,2023-10-22T09:49:58+03:00*%
%TF.ProjectId,nanoInvaderBot-power,6e616e6f-496e-4766-9164-6572426f742d,rev?*%
%TF.SameCoordinates,Original*%
%TF.FileFunction,Legend,Top*%
%TF.FilePolarity,Positive*%
%FSLAX46Y46*%
G04 Gerber Fmt 4.6, Leading zero omitted, Abs format (unit mm)*
G04 Created by KiCad (PCBNEW (7.0.0)) date 2023-10-22 09:49:58*
%MOMM*%
%LPD*%
G01*
G04 APERTURE LIST*
%ADD10C,0.300000*%
%ADD11C,0.150000*%
%ADD12C,0.120000*%
%ADD13C,0.170000*%
%ADD14C,0.127000*%
%ADD15C,0.200000*%
G04 APERTURE END LIST*
D10*
X156857142Y-109493571D02*
X156857142Y-110493571D01*
X156857142Y-109636428D02*
X156928571Y-109565000D01*
X156928571Y-109565000D02*
X157071428Y-109493571D01*
X157071428Y-109493571D02*
X157285714Y-109493571D01*
X157285714Y-109493571D02*
X157428571Y-109565000D01*
X157428571Y-109565000D02*
X157500000Y-109707857D01*
X157500000Y-109707857D02*
X157500000Y-110493571D01*
X158857143Y-110493571D02*
X158857143Y-109707857D01*
X158857143Y-109707857D02*
X158785714Y-109565000D01*
X158785714Y-109565000D02*
X158642857Y-109493571D01*
X158642857Y-109493571D02*
X158357143Y-109493571D01*
X158357143Y-109493571D02*
X158214285Y-109565000D01*
X158857143Y-110422142D02*
X158714285Y-110493571D01*
X158714285Y-110493571D02*
X158357143Y-110493571D01*
X158357143Y-110493571D02*
X158214285Y-110422142D01*
X158214285Y-110422142D02*
X158142857Y-110279285D01*
X158142857Y-110279285D02*
X158142857Y-110136428D01*
X158142857Y-110136428D02*
X158214285Y-109993571D01*
X158214285Y-109993571D02*
X158357143Y-109922142D01*
X158357143Y-109922142D02*
X158714285Y-109922142D01*
X158714285Y-109922142D02*
X158857143Y-109850714D01*
X159571428Y-109493571D02*
X159571428Y-110493571D01*
X159571428Y-109636428D02*
X159642857Y-109565000D01*
X159642857Y-109565000D02*
X159785714Y-109493571D01*
X159785714Y-109493571D02*
X160000000Y-109493571D01*
X160000000Y-109493571D02*
X160142857Y-109565000D01*
X160142857Y-109565000D02*
X160214286Y-109707857D01*
X160214286Y-109707857D02*
X160214286Y-110493571D01*
X161142857Y-110493571D02*
X161000000Y-110422142D01*
X161000000Y-110422142D02*
X160928571Y-110350714D01*
X160928571Y-110350714D02*
X160857143Y-110207857D01*
X160857143Y-110207857D02*
X160857143Y-109779285D01*
X160857143Y-109779285D02*
X160928571Y-109636428D01*
X160928571Y-109636428D02*
X161000000Y-109565000D01*
X161000000Y-109565000D02*
X161142857Y-109493571D01*
X161142857Y-109493571D02*
X161357143Y-109493571D01*
X161357143Y-109493571D02*
X161500000Y-109565000D01*
X161500000Y-109565000D02*
X161571429Y-109636428D01*
X161571429Y-109636428D02*
X161642857Y-109779285D01*
X161642857Y-109779285D02*
X161642857Y-110207857D01*
X161642857Y-110207857D02*
X161571429Y-110350714D01*
X161571429Y-110350714D02*
X161500000Y-110422142D01*
X161500000Y-110422142D02*
X161357143Y-110493571D01*
X161357143Y-110493571D02*
X161142857Y-110493571D01*
X162285714Y-110493571D02*
X162285714Y-108993571D01*
X163000000Y-109493571D02*
X163000000Y-110493571D01*
X163000000Y-109636428D02*
X163071429Y-109565000D01*
X163071429Y-109565000D02*
X163214286Y-109493571D01*
X163214286Y-109493571D02*
X163428572Y-109493571D01*
X163428572Y-109493571D02*
X163571429Y-109565000D01*
X163571429Y-109565000D02*
X163642858Y-109707857D01*
X163642858Y-109707857D02*
X163642858Y-110493571D01*
X164214286Y-109493571D02*
X164571429Y-110493571D01*
X164571429Y-110493571D02*
X164928572Y-109493571D01*
X166142858Y-110493571D02*
X166142858Y-109707857D01*
X166142858Y-109707857D02*
X166071429Y-109565000D01*
X166071429Y-109565000D02*
X165928572Y-109493571D01*
X165928572Y-109493571D02*
X165642858Y-109493571D01*
X165642858Y-109493571D02*
X165500000Y-109565000D01*
X166142858Y-110422142D02*
X166000000Y-110493571D01*
X166000000Y-110493571D02*
X165642858Y-110493571D01*
X165642858Y-110493571D02*
X165500000Y-110422142D01*
X165500000Y-110422142D02*
X165428572Y-110279285D01*
X165428572Y-110279285D02*
X165428572Y-110136428D01*
X165428572Y-110136428D02*
X165500000Y-109993571D01*
X165500000Y-109993571D02*
X165642858Y-109922142D01*
X165642858Y-109922142D02*
X166000000Y-109922142D01*
X166000000Y-109922142D02*
X166142858Y-109850714D01*
X167500001Y-110493571D02*
X167500001Y-108993571D01*
X167500001Y-110422142D02*
X167357143Y-110493571D01*
X167357143Y-110493571D02*
X167071429Y-110493571D01*
X167071429Y-110493571D02*
X166928572Y-110422142D01*
X166928572Y-110422142D02*
X166857143Y-110350714D01*
X166857143Y-110350714D02*
X166785715Y-110207857D01*
X166785715Y-110207857D02*
X166785715Y-109779285D01*
X166785715Y-109779285D02*
X166857143Y-109636428D01*
X166857143Y-109636428D02*
X166928572Y-109565000D01*
X166928572Y-109565000D02*
X167071429Y-109493571D01*
X167071429Y-109493571D02*
X167357143Y-109493571D01*
X167357143Y-109493571D02*
X167500001Y-109565000D01*
X168785715Y-110422142D02*
X168642858Y-110493571D01*
X168642858Y-110493571D02*
X168357144Y-110493571D01*
X168357144Y-110493571D02*
X168214286Y-110422142D01*
X168214286Y-110422142D02*
X168142858Y-110279285D01*
X168142858Y-110279285D02*
X168142858Y-109707857D01*
X168142858Y-109707857D02*
X168214286Y-109565000D01*
X168214286Y-109565000D02*
X168357144Y-109493571D01*
X168357144Y-109493571D02*
X168642858Y-109493571D01*
X168642858Y-109493571D02*
X168785715Y-109565000D01*
X168785715Y-109565000D02*
X168857144Y-109707857D01*
X168857144Y-109707857D02*
X168857144Y-109850714D01*
X168857144Y-109850714D02*
X168142858Y-109993571D01*
X169500000Y-110493571D02*
X169500000Y-109493571D01*
X169500000Y-109779285D02*
X169571429Y-109636428D01*
X169571429Y-109636428D02*
X169642858Y-109565000D01*
X169642858Y-109565000D02*
X169785715Y-109493571D01*
X169785715Y-109493571D02*
X169928572Y-109493571D01*
X170928571Y-109707857D02*
X171142857Y-109779285D01*
X171142857Y-109779285D02*
X171214286Y-109850714D01*
X171214286Y-109850714D02*
X171285714Y-109993571D01*
X171285714Y-109993571D02*
X171285714Y-110207857D01*
X171285714Y-110207857D02*
X171214286Y-110350714D01*
X171214286Y-110350714D02*
X171142857Y-110422142D01*
X171142857Y-110422142D02*
X171000000Y-110493571D01*
X171000000Y-110493571D02*
X170428571Y-110493571D01*
X170428571Y-110493571D02*
X170428571Y-108993571D01*
X170428571Y-108993571D02*
X170928571Y-108993571D01*
X170928571Y-108993571D02*
X171071429Y-109065000D01*
X171071429Y-109065000D02*
X171142857Y-109136428D01*
X171142857Y-109136428D02*
X171214286Y-109279285D01*
X171214286Y-109279285D02*
X171214286Y-109422142D01*
X171214286Y-109422142D02*
X171142857Y-109565000D01*
X171142857Y-109565000D02*
X171071429Y-109636428D01*
X171071429Y-109636428D02*
X170928571Y-109707857D01*
X170928571Y-109707857D02*
X170428571Y-109707857D01*
X172142857Y-110493571D02*
X172000000Y-110422142D01*
X172000000Y-110422142D02*
X171928571Y-110350714D01*
X171928571Y-110350714D02*
X171857143Y-110207857D01*
X171857143Y-110207857D02*
X171857143Y-109779285D01*
X171857143Y-109779285D02*
X171928571Y-109636428D01*
X171928571Y-109636428D02*
X172000000Y-109565000D01*
X172000000Y-109565000D02*
X172142857Y-109493571D01*
X172142857Y-109493571D02*
X172357143Y-109493571D01*
X172357143Y-109493571D02*
X172500000Y-109565000D01*
X172500000Y-109565000D02*
X172571429Y-109636428D01*
X172571429Y-109636428D02*
X172642857Y-109779285D01*
X172642857Y-109779285D02*
X172642857Y-110207857D01*
X172642857Y-110207857D02*
X172571429Y-110350714D01*
X172571429Y-110350714D02*
X172500000Y-110422142D01*
X172500000Y-110422142D02*
X172357143Y-110493571D01*
X172357143Y-110493571D02*
X172142857Y-110493571D01*
X173071429Y-109493571D02*
X173642857Y-109493571D01*
X173285714Y-108993571D02*
X173285714Y-110279285D01*
X173285714Y-110279285D02*
X173357143Y-110422142D01*
X173357143Y-110422142D02*
X173500000Y-110493571D01*
X173500000Y-110493571D02*
X173642857Y-110493571D01*
X174900000Y-109493571D02*
X175257143Y-110493571D01*
X175257143Y-110493571D02*
X175614286Y-109493571D01*
X176114286Y-109136428D02*
X176185714Y-109065000D01*
X176185714Y-109065000D02*
X176328572Y-108993571D01*
X176328572Y-108993571D02*
X176685714Y-108993571D01*
X176685714Y-108993571D02*
X176828572Y-109065000D01*
X176828572Y-109065000D02*
X176900000Y-109136428D01*
X176900000Y-109136428D02*
X176971429Y-109279285D01*
X176971429Y-109279285D02*
X176971429Y-109422142D01*
X176971429Y-109422142D02*
X176900000Y-109636428D01*
X176900000Y-109636428D02*
X176042857Y-110493571D01*
X176042857Y-110493571D02*
X176971429Y-110493571D01*
X177471428Y-108993571D02*
X178400000Y-108993571D01*
X178400000Y-108993571D02*
X177900000Y-109565000D01*
X177900000Y-109565000D02*
X178114285Y-109565000D01*
X178114285Y-109565000D02*
X178257143Y-109636428D01*
X178257143Y-109636428D02*
X178328571Y-109707857D01*
X178328571Y-109707857D02*
X178400000Y-109850714D01*
X178400000Y-109850714D02*
X178400000Y-110207857D01*
X178400000Y-110207857D02*
X178328571Y-110350714D01*
X178328571Y-110350714D02*
X178257143Y-110422142D01*
X178257143Y-110422142D02*
X178114285Y-110493571D01*
X178114285Y-110493571D02*
X177685714Y-110493571D01*
X177685714Y-110493571D02*
X177542857Y-110422142D01*
X177542857Y-110422142D02*
X177471428Y-110350714D01*
X179042856Y-110350714D02*
X179114285Y-110422142D01*
X179114285Y-110422142D02*
X179042856Y-110493571D01*
X179042856Y-110493571D02*
X178971428Y-110422142D01*
X178971428Y-110422142D02*
X179042856Y-110350714D01*
X179042856Y-110350714D02*
X179042856Y-110493571D01*
X180542857Y-110493571D02*
X179685714Y-110493571D01*
X180114285Y-110493571D02*
X180114285Y-108993571D01*
X180114285Y-108993571D02*
X179971428Y-109207857D01*
X179971428Y-109207857D02*
X179828571Y-109350714D01*
X179828571Y-109350714D02*
X179685714Y-109422142D01*
X181471428Y-108993571D02*
X181614285Y-108993571D01*
X181614285Y-108993571D02*
X181757142Y-109065000D01*
X181757142Y-109065000D02*
X181828571Y-109136428D01*
X181828571Y-109136428D02*
X181899999Y-109279285D01*
X181899999Y-109279285D02*
X181971428Y-109565000D01*
X181971428Y-109565000D02*
X181971428Y-109922142D01*
X181971428Y-109922142D02*
X181899999Y-110207857D01*
X181899999Y-110207857D02*
X181828571Y-110350714D01*
X181828571Y-110350714D02*
X181757142Y-110422142D01*
X181757142Y-110422142D02*
X181614285Y-110493571D01*
X181614285Y-110493571D02*
X181471428Y-110493571D01*
X181471428Y-110493571D02*
X181328571Y-110422142D01*
X181328571Y-110422142D02*
X181257142Y-110350714D01*
X181257142Y-110350714D02*
X181185713Y-110207857D01*
X181185713Y-110207857D02*
X181114285Y-109922142D01*
X181114285Y-109922142D02*
X181114285Y-109565000D01*
X181114285Y-109565000D02*
X181185713Y-109279285D01*
X181185713Y-109279285D02*
X181257142Y-109136428D01*
X181257142Y-109136428D02*
X181328571Y-109065000D01*
X181328571Y-109065000D02*
X181471428Y-108993571D01*
X157285714Y-113495000D02*
X157214285Y-113423571D01*
X157214285Y-113423571D02*
X157071428Y-113209285D01*
X157071428Y-113209285D02*
X157000000Y-113066428D01*
X157000000Y-113066428D02*
X156928571Y-112852142D01*
X156928571Y-112852142D02*
X156857142Y-112495000D01*
X156857142Y-112495000D02*
X156857142Y-112209285D01*
X156857142Y-112209285D02*
X156928571Y-111852142D01*
X156928571Y-111852142D02*
X157000000Y-111637857D01*
X157000000Y-111637857D02*
X157071428Y-111495000D01*
X157071428Y-111495000D02*
X157214285Y-111280714D01*
X157214285Y-111280714D02*
X157285714Y-111209285D01*
X158500000Y-112852142D02*
X158357142Y-112923571D01*
X158357142Y-112923571D02*
X158071428Y-112923571D01*
X158071428Y-112923571D02*
X157928571Y-112852142D01*
X157928571Y-112852142D02*
X157857142Y-112780714D01*
X157857142Y-112780714D02*
X157785714Y-112637857D01*
X157785714Y-112637857D02*
X157785714Y-112209285D01*
X157785714Y-112209285D02*
X157857142Y-112066428D01*
X157857142Y-112066428D02*
X157928571Y-111995000D01*
X157928571Y-111995000D02*
X158071428Y-111923571D01*
X158071428Y-111923571D02*
X158357142Y-111923571D01*
X158357142Y-111923571D02*
X158500000Y-111995000D01*
X158999999Y-113495000D02*
X159071428Y-113423571D01*
X159071428Y-113423571D02*
X159214285Y-113209285D01*
X159214285Y-113209285D02*
X159285714Y-113066428D01*
X159285714Y-113066428D02*
X159357142Y-112852142D01*
X159357142Y-112852142D02*
X159428571Y-112495000D01*
X159428571Y-112495000D02*
X159428571Y-112209285D01*
X159428571Y-112209285D02*
X159357142Y-111852142D01*
X159357142Y-111852142D02*
X159285714Y-111637857D01*
X159285714Y-111637857D02*
X159214285Y-111495000D01*
X159214285Y-111495000D02*
X159071428Y-111280714D01*
X159071428Y-111280714D02*
X158999999Y-111209285D01*
X160971428Y-112852142D02*
X161185714Y-112923571D01*
X161185714Y-112923571D02*
X161542856Y-112923571D01*
X161542856Y-112923571D02*
X161685714Y-112852142D01*
X161685714Y-112852142D02*
X161757142Y-112780714D01*
X161757142Y-112780714D02*
X161828571Y-112637857D01*
X161828571Y-112637857D02*
X161828571Y-112495000D01*
X161828571Y-112495000D02*
X161757142Y-112352142D01*
X161757142Y-112352142D02*
X161685714Y-112280714D01*
X161685714Y-112280714D02*
X161542856Y-112209285D01*
X161542856Y-112209285D02*
X161257142Y-112137857D01*
X161257142Y-112137857D02*
X161114285Y-112066428D01*
X161114285Y-112066428D02*
X161042856Y-111995000D01*
X161042856Y-111995000D02*
X160971428Y-111852142D01*
X160971428Y-111852142D02*
X160971428Y-111709285D01*
X160971428Y-111709285D02*
X161042856Y-111566428D01*
X161042856Y-111566428D02*
X161114285Y-111495000D01*
X161114285Y-111495000D02*
X161257142Y-111423571D01*
X161257142Y-111423571D02*
X161614285Y-111423571D01*
X161614285Y-111423571D02*
X161828571Y-111495000D01*
X163042856Y-112852142D02*
X162899999Y-112923571D01*
X162899999Y-112923571D02*
X162614285Y-112923571D01*
X162614285Y-112923571D02*
X162471427Y-112852142D01*
X162471427Y-112852142D02*
X162399999Y-112709285D01*
X162399999Y-112709285D02*
X162399999Y-112137857D01*
X162399999Y-112137857D02*
X162471427Y-111995000D01*
X162471427Y-111995000D02*
X162614285Y-111923571D01*
X162614285Y-111923571D02*
X162899999Y-111923571D01*
X162899999Y-111923571D02*
X163042856Y-111995000D01*
X163042856Y-111995000D02*
X163114285Y-112137857D01*
X163114285Y-112137857D02*
X163114285Y-112280714D01*
X163114285Y-112280714D02*
X162399999Y-112423571D01*
X163757141Y-112923571D02*
X163757141Y-111923571D01*
X163757141Y-112066428D02*
X163828570Y-111995000D01*
X163828570Y-111995000D02*
X163971427Y-111923571D01*
X163971427Y-111923571D02*
X164185713Y-111923571D01*
X164185713Y-111923571D02*
X164328570Y-111995000D01*
X164328570Y-111995000D02*
X164399999Y-112137857D01*
X164399999Y-112137857D02*
X164399999Y-112923571D01*
X164399999Y-112137857D02*
X164471427Y-111995000D01*
X164471427Y-111995000D02*
X164614284Y-111923571D01*
X164614284Y-111923571D02*
X164828570Y-111923571D01*
X164828570Y-111923571D02*
X164971427Y-111995000D01*
X164971427Y-111995000D02*
X165042856Y-112137857D01*
X165042856Y-112137857D02*
X165042856Y-112923571D01*
X165757141Y-112923571D02*
X165757141Y-111923571D01*
X165757141Y-111423571D02*
X165685713Y-111495000D01*
X165685713Y-111495000D02*
X165757141Y-111566428D01*
X165757141Y-111566428D02*
X165828570Y-111495000D01*
X165828570Y-111495000D02*
X165757141Y-111423571D01*
X165757141Y-111423571D02*
X165757141Y-111566428D01*
X166471427Y-112923571D02*
X166471427Y-111423571D01*
X167114285Y-112923571D02*
X167114285Y-112137857D01*
X167114285Y-112137857D02*
X167042856Y-111995000D01*
X167042856Y-111995000D02*
X166899999Y-111923571D01*
X166899999Y-111923571D02*
X166685713Y-111923571D01*
X166685713Y-111923571D02*
X166542856Y-111995000D01*
X166542856Y-111995000D02*
X166471427Y-112066428D01*
X168728570Y-112923571D02*
X168728570Y-111423571D01*
X169371428Y-112852142D02*
X169514285Y-112923571D01*
X169514285Y-112923571D02*
X169799999Y-112923571D01*
X169799999Y-112923571D02*
X169942856Y-112852142D01*
X169942856Y-112852142D02*
X170014285Y-112709285D01*
X170014285Y-112709285D02*
X170014285Y-112637857D01*
X170014285Y-112637857D02*
X169942856Y-112495000D01*
X169942856Y-112495000D02*
X169799999Y-112423571D01*
X169799999Y-112423571D02*
X169585714Y-112423571D01*
X169585714Y-112423571D02*
X169442856Y-112352142D01*
X169442856Y-112352142D02*
X169371428Y-112209285D01*
X169371428Y-112209285D02*
X169371428Y-112137857D01*
X169371428Y-112137857D02*
X169442856Y-111995000D01*
X169442856Y-111995000D02*
X169585714Y-111923571D01*
X169585714Y-111923571D02*
X169799999Y-111923571D01*
X169799999Y-111923571D02*
X169942856Y-111995000D01*
X171228571Y-112852142D02*
X171085714Y-112923571D01*
X171085714Y-112923571D02*
X170800000Y-112923571D01*
X170800000Y-112923571D02*
X170657142Y-112852142D01*
X170657142Y-112852142D02*
X170585714Y-112709285D01*
X170585714Y-112709285D02*
X170585714Y-112137857D01*
X170585714Y-112137857D02*
X170657142Y-111995000D01*
X170657142Y-111995000D02*
X170800000Y-111923571D01*
X170800000Y-111923571D02*
X171085714Y-111923571D01*
X171085714Y-111923571D02*
X171228571Y-111995000D01*
X171228571Y-111995000D02*
X171300000Y-112137857D01*
X171300000Y-112137857D02*
X171300000Y-112280714D01*
X171300000Y-112280714D02*
X170585714Y-112423571D01*
X171942856Y-112923571D02*
X171942856Y-111923571D01*
X171942856Y-112209285D02*
X172014285Y-112066428D01*
X172014285Y-112066428D02*
X172085714Y-111995000D01*
X172085714Y-111995000D02*
X172228571Y-111923571D01*
X172228571Y-111923571D02*
X172371428Y-111923571D01*
X172871427Y-112923571D02*
X172871427Y-111923571D01*
X172871427Y-111423571D02*
X172799999Y-111495000D01*
X172799999Y-111495000D02*
X172871427Y-111566428D01*
X172871427Y-111566428D02*
X172942856Y-111495000D01*
X172942856Y-111495000D02*
X172871427Y-111423571D01*
X172871427Y-111423571D02*
X172871427Y-111566428D01*
D11*
%TO.C,R6*%
X121117380Y-95166666D02*
X120641190Y-95499999D01*
X121117380Y-95738094D02*
X120117380Y-95738094D01*
X120117380Y-95738094D02*
X120117380Y-95357142D01*
X120117380Y-95357142D02*
X120165000Y-95261904D01*
X120165000Y-95261904D02*
X120212619Y-95214285D01*
X120212619Y-95214285D02*
X120307857Y-95166666D01*
X120307857Y-95166666D02*
X120450714Y-95166666D01*
X120450714Y-95166666D02*
X120545952Y-95214285D01*
X120545952Y-95214285D02*
X120593571Y-95261904D01*
X120593571Y-95261904D02*
X120641190Y-95357142D01*
X120641190Y-95357142D02*
X120641190Y-95738094D01*
X120117380Y-94309523D02*
X120117380Y-94499999D01*
X120117380Y-94499999D02*
X120165000Y-94595237D01*
X120165000Y-94595237D02*
X120212619Y-94642856D01*
X120212619Y-94642856D02*
X120355476Y-94738094D01*
X120355476Y-94738094D02*
X120545952Y-94785713D01*
X120545952Y-94785713D02*
X120926904Y-94785713D01*
X120926904Y-94785713D02*
X121022142Y-94738094D01*
X121022142Y-94738094D02*
X121069761Y-94690475D01*
X121069761Y-94690475D02*
X121117380Y-94595237D01*
X121117380Y-94595237D02*
X121117380Y-94404761D01*
X121117380Y-94404761D02*
X121069761Y-94309523D01*
X121069761Y-94309523D02*
X121022142Y-94261904D01*
X121022142Y-94261904D02*
X120926904Y-94214285D01*
X120926904Y-94214285D02*
X120688809Y-94214285D01*
X120688809Y-94214285D02*
X120593571Y-94261904D01*
X120593571Y-94261904D02*
X120545952Y-94309523D01*
X120545952Y-94309523D02*
X120498333Y-94404761D01*
X120498333Y-94404761D02*
X120498333Y-94595237D01*
X120498333Y-94595237D02*
X120545952Y-94690475D01*
X120545952Y-94690475D02*
X120593571Y-94738094D01*
X120593571Y-94738094D02*
X120688809Y-94785713D01*
%TO.C,R1*%
X124333333Y-93617380D02*
X124000000Y-93141190D01*
X123761905Y-93617380D02*
X123761905Y-92617380D01*
X123761905Y-92617380D02*
X124142857Y-92617380D01*
X124142857Y-92617380D02*
X124238095Y-92665000D01*
X124238095Y-92665000D02*
X124285714Y-92712619D01*
X124285714Y-92712619D02*
X124333333Y-92807857D01*
X124333333Y-92807857D02*
X124333333Y-92950714D01*
X124333333Y-92950714D02*
X124285714Y-93045952D01*
X124285714Y-93045952D02*
X124238095Y-93093571D01*
X124238095Y-93093571D02*
X124142857Y-93141190D01*
X124142857Y-93141190D02*
X123761905Y-93141190D01*
X125285714Y-93617380D02*
X124714286Y-93617380D01*
X125000000Y-93617380D02*
X125000000Y-92617380D01*
X125000000Y-92617380D02*
X124904762Y-92760238D01*
X124904762Y-92760238D02*
X124809524Y-92855476D01*
X124809524Y-92855476D02*
X124714286Y-92903095D01*
%TO.C,U4*%
X123117380Y-98761904D02*
X123926904Y-98761904D01*
X123926904Y-98761904D02*
X124022142Y-98714285D01*
X124022142Y-98714285D02*
X124069761Y-98666666D01*
X124069761Y-98666666D02*
X124117380Y-98571428D01*
X124117380Y-98571428D02*
X124117380Y-98380952D01*
X124117380Y-98380952D02*
X124069761Y-98285714D01*
X124069761Y-98285714D02*
X124022142Y-98238095D01*
X124022142Y-98238095D02*
X123926904Y-98190476D01*
X123926904Y-98190476D02*
X123117380Y-98190476D01*
X123450714Y-97285714D02*
X124117380Y-97285714D01*
X123069761Y-97523809D02*
X123784047Y-97761904D01*
X123784047Y-97761904D02*
X123784047Y-97142857D01*
%TO.C,R5*%
X123617380Y-101916666D02*
X123141190Y-102249999D01*
X123617380Y-102488094D02*
X122617380Y-102488094D01*
X122617380Y-102488094D02*
X122617380Y-102107142D01*
X122617380Y-102107142D02*
X122665000Y-102011904D01*
X122665000Y-102011904D02*
X122712619Y-101964285D01*
X122712619Y-101964285D02*
X122807857Y-101916666D01*
X122807857Y-101916666D02*
X122950714Y-101916666D01*
X122950714Y-101916666D02*
X123045952Y-101964285D01*
X123045952Y-101964285D02*
X123093571Y-102011904D01*
X123093571Y-102011904D02*
X123141190Y-102107142D01*
X123141190Y-102107142D02*
X123141190Y-102488094D01*
X122617380Y-101011904D02*
X122617380Y-101488094D01*
X122617380Y-101488094D02*
X123093571Y-101535713D01*
X123093571Y-101535713D02*
X123045952Y-101488094D01*
X123045952Y-101488094D02*
X122998333Y-101392856D01*
X122998333Y-101392856D02*
X122998333Y-101154761D01*
X122998333Y-101154761D02*
X123045952Y-101059523D01*
X123045952Y-101059523D02*
X123093571Y-101011904D01*
X123093571Y-101011904D02*
X123188809Y-100964285D01*
X123188809Y-100964285D02*
X123426904Y-100964285D01*
X123426904Y-100964285D02*
X123522142Y-101011904D01*
X123522142Y-101011904D02*
X123569761Y-101059523D01*
X123569761Y-101059523D02*
X123617380Y-101154761D01*
X123617380Y-101154761D02*
X123617380Y-101392856D01*
X123617380Y-101392856D02*
X123569761Y-101488094D01*
X123569761Y-101488094D02*
X123522142Y-101535713D01*
%TO.C,C10*%
X121607142Y-87522142D02*
X121559523Y-87569761D01*
X121559523Y-87569761D02*
X121416666Y-87617380D01*
X121416666Y-87617380D02*
X121321428Y-87617380D01*
X121321428Y-87617380D02*
X121178571Y-87569761D01*
X121178571Y-87569761D02*
X121083333Y-87474523D01*
X121083333Y-87474523D02*
X121035714Y-87379285D01*
X121035714Y-87379285D02*
X120988095Y-87188809D01*
X120988095Y-87188809D02*
X120988095Y-87045952D01*
X120988095Y-87045952D02*
X121035714Y-86855476D01*
X121035714Y-86855476D02*
X121083333Y-86760238D01*
X121083333Y-86760238D02*
X121178571Y-86665000D01*
X121178571Y-86665000D02*
X121321428Y-86617380D01*
X121321428Y-86617380D02*
X121416666Y-86617380D01*
X121416666Y-86617380D02*
X121559523Y-86665000D01*
X121559523Y-86665000D02*
X121607142Y-86712619D01*
X122559523Y-87617380D02*
X121988095Y-87617380D01*
X122273809Y-87617380D02*
X122273809Y-86617380D01*
X122273809Y-86617380D02*
X122178571Y-86760238D01*
X122178571Y-86760238D02*
X122083333Y-86855476D01*
X122083333Y-86855476D02*
X121988095Y-86903095D01*
X123178571Y-86617380D02*
X123273809Y-86617380D01*
X123273809Y-86617380D02*
X123369047Y-86665000D01*
X123369047Y-86665000D02*
X123416666Y-86712619D01*
X123416666Y-86712619D02*
X123464285Y-86807857D01*
X123464285Y-86807857D02*
X123511904Y-86998333D01*
X123511904Y-86998333D02*
X123511904Y-87236428D01*
X123511904Y-87236428D02*
X123464285Y-87426904D01*
X123464285Y-87426904D02*
X123416666Y-87522142D01*
X123416666Y-87522142D02*
X123369047Y-87569761D01*
X123369047Y-87569761D02*
X123273809Y-87617380D01*
X123273809Y-87617380D02*
X123178571Y-87617380D01*
X123178571Y-87617380D02*
X123083333Y-87569761D01*
X123083333Y-87569761D02*
X123035714Y-87522142D01*
X123035714Y-87522142D02*
X122988095Y-87426904D01*
X122988095Y-87426904D02*
X122940476Y-87236428D01*
X122940476Y-87236428D02*
X122940476Y-86998333D01*
X122940476Y-86998333D02*
X122988095Y-86807857D01*
X122988095Y-86807857D02*
X123035714Y-86712619D01*
X123035714Y-86712619D02*
X123083333Y-86665000D01*
X123083333Y-86665000D02*
X123178571Y-86617380D01*
%TO.C,U3*%
X122867380Y-91124404D02*
X123676904Y-91124404D01*
X123676904Y-91124404D02*
X123772142Y-91076785D01*
X123772142Y-91076785D02*
X123819761Y-91029166D01*
X123819761Y-91029166D02*
X123867380Y-90933928D01*
X123867380Y-90933928D02*
X123867380Y-90743452D01*
X123867380Y-90743452D02*
X123819761Y-90648214D01*
X123819761Y-90648214D02*
X123772142Y-90600595D01*
X123772142Y-90600595D02*
X123676904Y-90552976D01*
X123676904Y-90552976D02*
X122867380Y-90552976D01*
X122867380Y-90172023D02*
X122867380Y-89552976D01*
X122867380Y-89552976D02*
X123248333Y-89886309D01*
X123248333Y-89886309D02*
X123248333Y-89743452D01*
X123248333Y-89743452D02*
X123295952Y-89648214D01*
X123295952Y-89648214D02*
X123343571Y-89600595D01*
X123343571Y-89600595D02*
X123438809Y-89552976D01*
X123438809Y-89552976D02*
X123676904Y-89552976D01*
X123676904Y-89552976D02*
X123772142Y-89600595D01*
X123772142Y-89600595D02*
X123819761Y-89648214D01*
X123819761Y-89648214D02*
X123867380Y-89743452D01*
X123867380Y-89743452D02*
X123867380Y-90029166D01*
X123867380Y-90029166D02*
X123819761Y-90124404D01*
X123819761Y-90124404D02*
X123772142Y-90172023D01*
%TO.C,C9*%
X118772142Y-92416666D02*
X118819761Y-92464285D01*
X118819761Y-92464285D02*
X118867380Y-92607142D01*
X118867380Y-92607142D02*
X118867380Y-92702380D01*
X118867380Y-92702380D02*
X118819761Y-92845237D01*
X118819761Y-92845237D02*
X118724523Y-92940475D01*
X118724523Y-92940475D02*
X118629285Y-92988094D01*
X118629285Y-92988094D02*
X118438809Y-93035713D01*
X118438809Y-93035713D02*
X118295952Y-93035713D01*
X118295952Y-93035713D02*
X118105476Y-92988094D01*
X118105476Y-92988094D02*
X118010238Y-92940475D01*
X118010238Y-92940475D02*
X117915000Y-92845237D01*
X117915000Y-92845237D02*
X117867380Y-92702380D01*
X117867380Y-92702380D02*
X117867380Y-92607142D01*
X117867380Y-92607142D02*
X117915000Y-92464285D01*
X117915000Y-92464285D02*
X117962619Y-92416666D01*
X118867380Y-91940475D02*
X118867380Y-91749999D01*
X118867380Y-91749999D02*
X118819761Y-91654761D01*
X118819761Y-91654761D02*
X118772142Y-91607142D01*
X118772142Y-91607142D02*
X118629285Y-91511904D01*
X118629285Y-91511904D02*
X118438809Y-91464285D01*
X118438809Y-91464285D02*
X118057857Y-91464285D01*
X118057857Y-91464285D02*
X117962619Y-91511904D01*
X117962619Y-91511904D02*
X117915000Y-91559523D01*
X117915000Y-91559523D02*
X117867380Y-91654761D01*
X117867380Y-91654761D02*
X117867380Y-91845237D01*
X117867380Y-91845237D02*
X117915000Y-91940475D01*
X117915000Y-91940475D02*
X117962619Y-91988094D01*
X117962619Y-91988094D02*
X118057857Y-92035713D01*
X118057857Y-92035713D02*
X118295952Y-92035713D01*
X118295952Y-92035713D02*
X118391190Y-91988094D01*
X118391190Y-91988094D02*
X118438809Y-91940475D01*
X118438809Y-91940475D02*
X118486428Y-91845237D01*
X118486428Y-91845237D02*
X118486428Y-91654761D01*
X118486428Y-91654761D02*
X118438809Y-91559523D01*
X118438809Y-91559523D02*
X118391190Y-91511904D01*
X118391190Y-91511904D02*
X118295952Y-91464285D01*
%TO.C,J3*%
X123367380Y-108333333D02*
X124081666Y-108333333D01*
X124081666Y-108333333D02*
X124224523Y-108380952D01*
X124224523Y-108380952D02*
X124319761Y-108476190D01*
X124319761Y-108476190D02*
X124367380Y-108619047D01*
X124367380Y-108619047D02*
X124367380Y-108714285D01*
X123367380Y-107952380D02*
X123367380Y-107333333D01*
X123367380Y-107333333D02*
X123748333Y-107666666D01*
X123748333Y-107666666D02*
X123748333Y-107523809D01*
X123748333Y-107523809D02*
X123795952Y-107428571D01*
X123795952Y-107428571D02*
X123843571Y-107380952D01*
X123843571Y-107380952D02*
X123938809Y-107333333D01*
X123938809Y-107333333D02*
X124176904Y-107333333D01*
X124176904Y-107333333D02*
X124272142Y-107380952D01*
X124272142Y-107380952D02*
X124319761Y-107428571D01*
X124319761Y-107428571D02*
X124367380Y-107523809D01*
X124367380Y-107523809D02*
X124367380Y-107809523D01*
X124367380Y-107809523D02*
X124319761Y-107904761D01*
X124319761Y-107904761D02*
X124272142Y-107952380D01*
D12*
%TO.C,R6*%
X121370000Y-95153641D02*
X121370000Y-94846359D01*
X122130000Y-95153641D02*
X122130000Y-94846359D01*
%TO.C,R1*%
X122403641Y-93630000D02*
X122096359Y-93630000D01*
X122403641Y-92870000D02*
X122096359Y-92870000D01*
D13*
%TO.C,U4*%
X122650000Y-96975000D02*
X122650000Y-97624999D01*
X120349999Y-96975000D02*
X120349999Y-97149998D01*
X122650000Y-98950000D02*
X122650000Y-99124998D01*
X120349999Y-98950000D02*
X120349999Y-99124998D01*
D12*
%TO.C,R5*%
X122130000Y-101096359D02*
X122130000Y-101403641D01*
X121370000Y-101096359D02*
X121370000Y-101403641D01*
%TO.C,C10*%
X118890580Y-87760000D02*
X118609420Y-87760000D01*
X118890580Y-86740000D02*
X118609420Y-86740000D01*
%TO.C,U3*%
X119240000Y-90362500D02*
X119240000Y-92162500D01*
X119240000Y-90362500D02*
X119240000Y-89562500D01*
X122360000Y-90362500D02*
X122360000Y-91162500D01*
X122360000Y-90362500D02*
X122360000Y-89562500D01*
%TO.C,C9*%
X117490000Y-89890580D02*
X117490000Y-89609420D01*
X118510000Y-89890580D02*
X118510000Y-89609420D01*
D14*
%TO.C,J3*%
X119050000Y-103600000D02*
X120330000Y-103600000D01*
X122750000Y-105320000D02*
X122750000Y-114280000D01*
X119050000Y-105380000D02*
X119050000Y-103600000D01*
X119050000Y-116000000D02*
X119050000Y-114220000D01*
X119050000Y-116000000D02*
X120330000Y-116000000D01*
D15*
X116850000Y-113000000D02*
G75*
G03*
X116850000Y-113000000I-100000J0D01*
G01*
%TD*%
M02*
