%TF.GenerationSoftware,KiCad,Pcbnew,(7.0.0)*%
%TF.CreationDate,2023-10-22T09:49:58+03:00*%
%TF.ProjectId,nanoInvaderBot-power,6e616e6f-496e-4766-9164-6572426f742d,rev?*%
%TF.SameCoordinates,Original*%
%TF.FileFunction,Copper,L1,Top*%
%TF.FilePolarity,Positive*%
%FSLAX46Y46*%
G04 Gerber Fmt 4.6, Leading zero omitted, Abs format (unit mm)*
G04 Created by KiCad (PCBNEW (7.0.0)) date 2023-10-22 09:49:58*
%MOMM*%
%LPD*%
G01*
G04 APERTURE LIST*
G04 Aperture macros list*
%AMRoundRect*
0 Rectangle with rounded corners*
0 $1 Rounding radius*
0 $2 $3 $4 $5 $6 $7 $8 $9 X,Y pos of 4 corners*
0 Add a 4 corners polygon primitive as box body*
4,1,4,$2,$3,$4,$5,$6,$7,$8,$9,$2,$3,0*
0 Add four circle primitives for the rounded corners*
1,1,$1+$1,$2,$3*
1,1,$1+$1,$4,$5*
1,1,$1+$1,$6,$7*
1,1,$1+$1,$8,$9*
0 Add four rect primitives between the rounded corners*
20,1,$1+$1,$2,$3,$4,$5,0*
20,1,$1+$1,$4,$5,$6,$7,0*
20,1,$1+$1,$6,$7,$8,$9,0*
20,1,$1+$1,$8,$9,$2,$3,0*%
G04 Aperture macros list end*
%TA.AperFunction,SMDPad,CuDef*%
%ADD10RoundRect,0.135000X0.185000X-0.135000X0.185000X0.135000X-0.185000X0.135000X-0.185000X-0.135000X0*%
%TD*%
%TA.AperFunction,SMDPad,CuDef*%
%ADD11RoundRect,0.135000X0.135000X0.185000X-0.135000X0.185000X-0.135000X-0.185000X0.135000X-0.185000X0*%
%TD*%
%TA.AperFunction,SMDPad,CuDef*%
%ADD12R,0.249999X0.499999*%
%TD*%
%TA.AperFunction,SMDPad,CuDef*%
%ADD13R,1.599999X0.900001*%
%TD*%
%TA.AperFunction,SMDPad,CuDef*%
%ADD14RoundRect,0.135000X-0.185000X0.135000X-0.185000X-0.135000X0.185000X-0.135000X0.185000X0.135000X0*%
%TD*%
%TA.AperFunction,SMDPad,CuDef*%
%ADD15RoundRect,0.225000X0.225000X0.250000X-0.225000X0.250000X-0.225000X-0.250000X0.225000X-0.250000X0*%
%TD*%
%TA.AperFunction,SMDPad,CuDef*%
%ADD16RoundRect,0.150000X0.150000X-0.512500X0.150000X0.512500X-0.150000X0.512500X-0.150000X-0.512500X0*%
%TD*%
%TA.AperFunction,SMDPad,CuDef*%
%ADD17RoundRect,0.225000X0.250000X-0.225000X0.250000X0.225000X-0.250000X0.225000X-0.250000X-0.225000X0*%
%TD*%
%TA.AperFunction,SMDPad,CuDef*%
%ADD18R,1.500000X1.800000*%
%TD*%
%TA.AperFunction,SMDPad,CuDef*%
%ADD19R,2.100000X1.800000*%
%TD*%
%TA.AperFunction,ViaPad*%
%ADD20C,0.800000*%
%TD*%
%TA.AperFunction,Conductor*%
%ADD21C,0.250000*%
%TD*%
G04 APERTURE END LIST*
D10*
%TO.P,R6,1*%
%TO.N,Net-(U4-ISET)*%
X121750000Y-95510000D03*
%TO.P,R6,2*%
%TO.N,/GND*%
X121750000Y-94490000D03*
%TD*%
D11*
%TO.P,R1,1*%
%TO.N,/SYS_EN*%
X122760000Y-93250000D03*
%TO.P,R1,2*%
%TO.N,/GND*%
X121740000Y-93250000D03*
%TD*%
D12*
%TO.P,U4,1,IN*%
%TO.N,/VUSB*%
X122249999Y-97099997D03*
%TO.P,U4,2,ISET*%
%TO.N,Net-(U4-ISET)*%
X121750001Y-97099997D03*
%TO.P,U4,3,TS*%
%TO.N,/TBATT*%
X121249999Y-97099997D03*
%TO.P,U4,4,GND*%
%TO.N,/GND*%
X120750000Y-97099997D03*
%TO.P,U4,5,STAT*%
%TO.N,Net-(D2-K)*%
X120750000Y-98999999D03*
%TO.P,U4,6,PG_N*%
%TO.N,Net-(D1-K)*%
X121249999Y-98999999D03*
%TO.P,U4,7,VSET*%
%TO.N,Net-(U4-VSET)*%
X121750001Y-98999999D03*
%TO.P,U4,8,OUT*%
%TO.N,/VBATT*%
X122249999Y-98999999D03*
D13*
%TO.P,U4,9,PAD*%
%TO.N,/GND*%
X121500001Y-98049998D03*
%TD*%
D14*
%TO.P,R5,1*%
%TO.N,Net-(U4-VSET)*%
X121750000Y-100740000D03*
%TO.P,R5,2*%
%TO.N,/GND*%
X121750000Y-101760000D03*
%TD*%
D15*
%TO.P,C10,1*%
%TO.N,/VSYS*%
X119525000Y-87250000D03*
%TO.P,C10,2*%
%TO.N,/GND*%
X117975000Y-87250000D03*
%TD*%
D16*
%TO.P,U3,1,Vin*%
%TO.N,/VBATT*%
X119850000Y-91500000D03*
%TO.P,U3,2,Vss*%
%TO.N,/GND*%
X120800000Y-91500000D03*
%TO.P,U3,3,CE*%
%TO.N,/SYS_EN*%
X121750000Y-91500000D03*
%TO.P,U3,4,NC*%
%TO.N,unconnected-(U3-NC-Pad4)*%
X121750000Y-89225000D03*
%TO.P,U3,5,Vout*%
%TO.N,/VSYS*%
X119850000Y-89225000D03*
%TD*%
D17*
%TO.P,C9,1*%
%TO.N,/VBATT*%
X118000000Y-90525000D03*
%TO.P,C9,2*%
%TO.N,/GND*%
X118000000Y-88975000D03*
%TD*%
D18*
%TO.P,J3,1,1*%
%TO.N,/VBATT*%
X118499999Y-112999999D03*
%TO.P,J3,2,2*%
%TO.N,/TBATT*%
X118499999Y-109799999D03*
%TO.P,J3,3,3*%
%TO.N,/GND*%
X118499999Y-106599999D03*
D19*
%TO.P,J3,SH1,SHIELD1*%
X121699999Y-104099999D03*
%TO.P,J3,SH2,SHIELD2*%
X121699999Y-115499999D03*
%TD*%
D20*
%TO.N,/VSYS*%
X172250000Y-95500000D03*
X145250000Y-102000000D03*
%TO.N,/GND*%
X126250000Y-106250000D03*
X167250000Y-97250000D03*
X151000000Y-106500000D03*
X159000000Y-106500000D03*
X150250000Y-115000000D03*
X163500000Y-91250000D03*
X175750000Y-87750000D03*
X159000000Y-115000000D03*
X136000000Y-94250000D03*
X127250000Y-112250000D03*
X138750000Y-105750000D03*
X127250000Y-89750000D03*
X146000000Y-89250000D03*
X142750000Y-109000000D03*
X178000000Y-103500000D03*
X159250000Y-93500000D03*
X178000000Y-96500000D03*
X149000000Y-93500000D03*
X116000000Y-114500000D03*
X130750000Y-97250000D03*
X132000000Y-112250000D03*
X174000000Y-109250000D03*
X163500000Y-101000000D03*
X154000000Y-106500000D03*
X134250000Y-108500000D03*
X171000000Y-89250000D03*
X134750000Y-102000000D03*
X149000000Y-90500000D03*
X140500000Y-85000000D03*
X130000000Y-102500000D03*
X143750000Y-93500000D03*
X151000000Y-109500000D03*
X123750000Y-101250000D03*
X118000000Y-93750000D03*
X150500000Y-84750000D03*
X123000000Y-98000000D03*
X168750000Y-101000000D03*
X125250000Y-93750000D03*
X156250000Y-92000000D03*
%TO.N,/3V3*%
X146250000Y-96250000D03*
X151775000Y-93025000D03*
X137000000Y-103250000D03*
X162750000Y-96750000D03*
X168750000Y-104500000D03*
X167726305Y-102726305D03*
X138500000Y-108500000D03*
%TO.N,Net-(D1-K)*%
X120000000Y-107500000D03*
%TO.N,Net-(D2-K)*%
X119500000Y-100250000D03*
%TO.N,/VBATT*%
X124500000Y-91250000D03*
X123500000Y-103000000D03*
%TO.N,/VUSB*%
X125250000Y-96500000D03*
%TO.N,/TBATT*%
X120500000Y-110000000D03*
X120750000Y-94750000D03*
%TO.N,/SYS_EN*%
X123250000Y-92500000D03*
%TO.N,/12V*%
X153750000Y-100250000D03*
X153500000Y-94250000D03*
X153500000Y-96250000D03*
X148750000Y-106250000D03*
%TD*%
D21*
%TO.N,/VSYS*%
X119850000Y-88150000D02*
X120500000Y-87500000D01*
X172250000Y-87500000D02*
X173250000Y-88500000D01*
X141000000Y-87500000D02*
X172250000Y-87500000D01*
X119525000Y-87825000D02*
X119850000Y-88150000D01*
X141000000Y-97750000D02*
X141000000Y-96250000D01*
X119850000Y-89225000D02*
X119850000Y-88150000D01*
X173250000Y-88500000D02*
X173250000Y-94500000D01*
X120500000Y-87500000D02*
X141000000Y-87500000D01*
X145250000Y-102000000D02*
X141000000Y-97750000D01*
X119525000Y-87250000D02*
X119525000Y-87825000D01*
X173250000Y-94500000D02*
X172250000Y-95500000D01*
X141000000Y-96250000D02*
X141000000Y-87500000D01*
%TO.N,/GND*%
X121740000Y-93250000D02*
X120825000Y-93250000D01*
X120800000Y-93550000D02*
X121425000Y-94175000D01*
X120800000Y-91500000D02*
X120800000Y-93225000D01*
X121750000Y-102075000D02*
X122925000Y-102075000D01*
X120750000Y-93275000D02*
X119500000Y-94525000D01*
X117975000Y-88950000D02*
X118000000Y-88975000D01*
X121750000Y-101760000D02*
X121750000Y-104050000D01*
X121175003Y-98049999D02*
X121500002Y-98049999D01*
X122950001Y-98049999D02*
X123000000Y-98000000D01*
X122925000Y-102075000D02*
X123750000Y-101250000D01*
X120750001Y-97099998D02*
X120750001Y-97624997D01*
X121500002Y-98049999D02*
X120450003Y-98049999D01*
X120450003Y-98049999D02*
X119900004Y-97500000D01*
X120750001Y-97624997D02*
X121175003Y-98049999D01*
X120800000Y-93225000D02*
X120775000Y-93250000D01*
X121740000Y-93250000D02*
X121740000Y-94480000D01*
X121425000Y-94175000D02*
X123250000Y-94175000D01*
X120800000Y-93225000D02*
X120800000Y-93550000D01*
X121500002Y-98049999D02*
X122950001Y-98049999D01*
X120775000Y-93250000D02*
X120750000Y-93250000D01*
X121750000Y-104050000D02*
X121700000Y-104100000D01*
X119500000Y-95849997D02*
X120750001Y-97099998D01*
X120750000Y-93250000D02*
X120750000Y-93275000D01*
X119500000Y-94525000D02*
X119500000Y-95849997D01*
X121740000Y-94480000D02*
X121750000Y-94490000D01*
X120825000Y-93250000D02*
X120800000Y-93225000D01*
X117975000Y-87250000D02*
X117975000Y-88950000D01*
%TO.N,/3V3*%
X152000000Y-93250000D02*
X151775000Y-93025000D01*
X147612347Y-97612347D02*
X152000000Y-97612347D01*
X162612347Y-96750000D02*
X161750000Y-97612347D01*
X152000000Y-97612347D02*
X152000000Y-93250000D01*
X137000000Y-107000000D02*
X137000000Y-103250000D01*
X146250000Y-96250000D02*
X147612347Y-97612347D01*
X161750000Y-97612347D02*
X152000000Y-97612347D01*
X138500000Y-108500000D02*
X137000000Y-107000000D01*
X162750000Y-96750000D02*
X162612347Y-96750000D01*
X168750000Y-104500000D02*
X168750000Y-103750000D01*
X168750000Y-103750000D02*
X167726305Y-102726305D01*
%TO.N,Net-(D1-K)*%
X120750000Y-100025305D02*
X120750000Y-101250000D01*
X120750000Y-101250000D02*
X120750000Y-102250000D01*
X120000000Y-103000000D02*
X120000000Y-107500000D01*
X121250000Y-99000000D02*
X121250000Y-99500000D01*
X121250000Y-99500000D02*
X121250000Y-99525305D01*
X120750000Y-102250000D02*
X120000000Y-103000000D01*
X121250000Y-99525305D02*
X120750000Y-100025305D01*
%TO.N,Net-(D2-K)*%
X120750000Y-99000000D02*
X120750001Y-99000000D01*
X119500000Y-100250000D02*
X120750000Y-99000000D01*
%TO.N,Net-(U4-VSET)*%
X121750002Y-99000000D02*
X121750002Y-100424998D01*
X121750002Y-100424998D02*
X121750000Y-100425000D01*
%TO.N,Net-(U4-ISET)*%
X121750000Y-95825000D02*
X121750000Y-97099996D01*
X121750000Y-97099996D02*
X121750002Y-97099998D01*
%TO.N,/VBATT*%
X126500000Y-97250000D02*
X124750000Y-99000000D01*
X126500000Y-93250000D02*
X126500000Y-97250000D01*
X123500000Y-90250000D02*
X120250000Y-90250000D01*
X122250000Y-99000000D02*
X124750000Y-99000000D01*
X122250000Y-110750000D02*
X121250000Y-110750000D01*
X120250000Y-90250000D02*
X119850000Y-90650000D01*
X124750000Y-104250000D02*
X124750000Y-103000000D01*
X124750000Y-104250000D02*
X124750000Y-108250000D01*
X118000000Y-90525000D02*
X119725000Y-90525000D01*
X124750000Y-103000000D02*
X124750000Y-99000000D01*
X119850000Y-91500000D02*
X119850000Y-90650000D01*
X124500000Y-91250000D02*
X123500000Y-90250000D01*
X119000000Y-113000000D02*
X118500000Y-113000000D01*
X123500000Y-103000000D02*
X124750000Y-103000000D01*
X121250000Y-110750000D02*
X119000000Y-113000000D01*
X124500000Y-91250000D02*
X126500000Y-93250000D01*
X124750000Y-108250000D02*
X122250000Y-110750000D01*
X119725000Y-90525000D02*
X119850000Y-90650000D01*
%TO.N,/VUSB*%
X125250000Y-96500000D02*
X122500000Y-96500000D01*
X122250000Y-96750000D02*
X122250000Y-97099998D01*
X122500000Y-96500000D02*
X122250000Y-96750000D01*
%TO.N,/TBATT*%
X120728769Y-96021231D02*
X121250000Y-96542462D01*
X121250000Y-96542462D02*
X121250000Y-97099998D01*
X120728769Y-94771231D02*
X120750000Y-94750000D01*
X118500000Y-109800000D02*
X120300000Y-109800000D01*
X120300000Y-109800000D02*
X120500000Y-110000000D01*
X120728769Y-95271231D02*
X120728769Y-94771231D01*
X120728769Y-95271231D02*
X120728769Y-96021231D01*
%TO.N,/SYS_EN*%
X121750000Y-91500000D02*
X122250000Y-91500000D01*
X122760000Y-92990000D02*
X123250000Y-92500000D01*
X122760000Y-93250000D02*
X122760000Y-92990000D01*
X122250000Y-91500000D02*
X123250000Y-92500000D01*
%TO.N,/12V*%
X153750000Y-101250000D02*
X153750000Y-100250000D01*
X153500000Y-94250000D02*
X153500000Y-96250000D01*
X148750000Y-106250000D02*
X153750000Y-101250000D01*
%TD*%
%TA.AperFunction,Conductor*%
%TO.N,/GND*%
G36*
X124068035Y-103794622D02*
G01*
X124109473Y-103839449D01*
X124124500Y-103898617D01*
X124124500Y-107939548D01*
X124115061Y-107987001D01*
X124088181Y-108027229D01*
X122027228Y-110088181D01*
X121987000Y-110115061D01*
X121939547Y-110124500D01*
X121528781Y-110124500D01*
X121466781Y-110107887D01*
X121421394Y-110062500D01*
X121405230Y-110002179D01*
X121405460Y-110000000D01*
X121385674Y-109811744D01*
X121327179Y-109631716D01*
X121232533Y-109467784D01*
X121105871Y-109327112D01*
X121100613Y-109323292D01*
X121100611Y-109323290D01*
X120957988Y-109219669D01*
X120957987Y-109219668D01*
X120952730Y-109215849D01*
X120946792Y-109213205D01*
X120785745Y-109141501D01*
X120785740Y-109141499D01*
X120779803Y-109138856D01*
X120773444Y-109137504D01*
X120773440Y-109137503D01*
X120601008Y-109100852D01*
X120601005Y-109100851D01*
X120594646Y-109099500D01*
X120405354Y-109099500D01*
X120398995Y-109100851D01*
X120398991Y-109100852D01*
X120226559Y-109137503D01*
X120226552Y-109137505D01*
X120220197Y-109138856D01*
X120214259Y-109141499D01*
X120214255Y-109141501D01*
X120164220Y-109163779D01*
X120113784Y-109174500D01*
X119874499Y-109174500D01*
X119812499Y-109157887D01*
X119767112Y-109112500D01*
X119750499Y-109050500D01*
X119750499Y-108855439D01*
X119750499Y-108852128D01*
X119744091Y-108792517D01*
X119693796Y-108657669D01*
X119628868Y-108570936D01*
X119622614Y-108562582D01*
X119599426Y-108507786D01*
X119604433Y-108448497D01*
X119636482Y-108398365D01*
X119688194Y-108368935D01*
X119747658Y-108366981D01*
X119905354Y-108400500D01*
X120088143Y-108400500D01*
X120094646Y-108400500D01*
X120279803Y-108361144D01*
X120452730Y-108284151D01*
X120605871Y-108172888D01*
X120732533Y-108032216D01*
X120827179Y-107868284D01*
X120883618Y-107694582D01*
X120915626Y-107643496D01*
X120967944Y-107613541D01*
X121028205Y-107611800D01*
X121158590Y-107640500D01*
X121292212Y-107640500D01*
X121295570Y-107640500D01*
X121431748Y-107625690D01*
X121604998Y-107567315D01*
X121761648Y-107473062D01*
X121894374Y-107347337D01*
X121996971Y-107196019D01*
X122064639Y-107026183D01*
X122094216Y-106845772D01*
X122084318Y-106663220D01*
X122035409Y-106487064D01*
X121949775Y-106325541D01*
X121831420Y-106186203D01*
X121685878Y-106075565D01*
X121679775Y-106072741D01*
X121679771Y-106072739D01*
X121526057Y-106001624D01*
X121526056Y-106001623D01*
X121519955Y-105998801D01*
X121495757Y-105993474D01*
X121347973Y-105960944D01*
X121347967Y-105960943D01*
X121341410Y-105959500D01*
X121204430Y-105959500D01*
X121201093Y-105959862D01*
X121201091Y-105959863D01*
X121074933Y-105973583D01*
X121074929Y-105973583D01*
X121068252Y-105974310D01*
X121061891Y-105976453D01*
X121061883Y-105976455D01*
X120901375Y-106030537D01*
X120901369Y-106030539D01*
X120895002Y-106032685D01*
X120889241Y-106036150D01*
X120889237Y-106036153D01*
X120813429Y-106081766D01*
X120751179Y-106099505D01*
X120688472Y-106083459D01*
X120642394Y-106038000D01*
X120625500Y-105975516D01*
X120625500Y-105624000D01*
X120642113Y-105562000D01*
X120687500Y-105516613D01*
X120749500Y-105500000D01*
X121433674Y-105500000D01*
X121446549Y-105496549D01*
X121450000Y-105483674D01*
X121950000Y-105483674D01*
X121953450Y-105496549D01*
X121966326Y-105500000D01*
X122794518Y-105500000D01*
X122801114Y-105499646D01*
X122849667Y-105494426D01*
X122864641Y-105490888D01*
X122983777Y-105446452D01*
X122999189Y-105438037D01*
X123100092Y-105362501D01*
X123112501Y-105350092D01*
X123188037Y-105249189D01*
X123196452Y-105233777D01*
X123240888Y-105114641D01*
X123244426Y-105099667D01*
X123249646Y-105051114D01*
X123250000Y-105044518D01*
X123250000Y-104366326D01*
X123246549Y-104353450D01*
X123233674Y-104350000D01*
X121966326Y-104350000D01*
X121953450Y-104353450D01*
X121950000Y-104366326D01*
X121950000Y-105483674D01*
X121450000Y-105483674D01*
X121450000Y-103974000D01*
X121466613Y-103912000D01*
X121512000Y-103866613D01*
X121574000Y-103850000D01*
X123168810Y-103850000D01*
X123207513Y-103858229D01*
X123208078Y-103856492D01*
X123214259Y-103858500D01*
X123220197Y-103861144D01*
X123226555Y-103862495D01*
X123226557Y-103862496D01*
X123265861Y-103870850D01*
X123405354Y-103900500D01*
X123588143Y-103900500D01*
X123594646Y-103900500D01*
X123779803Y-103861144D01*
X123950063Y-103785338D01*
X124010229Y-103774999D01*
X124068035Y-103794622D01*
G37*
%TD.AperFunction*%
%TA.AperFunction,Conductor*%
G36*
X124062500Y-99642113D02*
G01*
X124107887Y-99687500D01*
X124124500Y-99749500D01*
X124124500Y-102101383D01*
X124109473Y-102160551D01*
X124068035Y-102205378D01*
X124010229Y-102225001D01*
X123950064Y-102214662D01*
X123785745Y-102141501D01*
X123785740Y-102141499D01*
X123779803Y-102138856D01*
X123773444Y-102137504D01*
X123773440Y-102137503D01*
X123601008Y-102100852D01*
X123601005Y-102100851D01*
X123594646Y-102099500D01*
X123405354Y-102099500D01*
X123398995Y-102100851D01*
X123398991Y-102100852D01*
X123226559Y-102137503D01*
X123226552Y-102137505D01*
X123220197Y-102138856D01*
X123214262Y-102141498D01*
X123214254Y-102141501D01*
X123053207Y-102213205D01*
X123053202Y-102213207D01*
X123047270Y-102215849D01*
X123042016Y-102219665D01*
X123042011Y-102219669D01*
X122899388Y-102323290D01*
X122899381Y-102323295D01*
X122894129Y-102327112D01*
X122889784Y-102331937D01*
X122889779Y-102331942D01*
X122771813Y-102462956D01*
X122771808Y-102462962D01*
X122767467Y-102467784D01*
X122764222Y-102473404D01*
X122764218Y-102473410D01*
X122676068Y-102626091D01*
X122676066Y-102626095D01*
X122675655Y-102626806D01*
X122675653Y-102626810D01*
X122672821Y-102631716D01*
X122672391Y-102631468D01*
X122648772Y-102665200D01*
X122609086Y-102690971D01*
X122562636Y-102700000D01*
X122274529Y-102700000D01*
X122212754Y-102683517D01*
X122167403Y-102638449D01*
X122150531Y-102576779D01*
X122166626Y-102514902D01*
X122211408Y-102469268D01*
X122320571Y-102404708D01*
X122332807Y-102395217D01*
X122435217Y-102292807D01*
X122444708Y-102280571D01*
X122518434Y-102155907D01*
X122524582Y-102141700D01*
X122558819Y-102023856D01*
X122559394Y-102012590D01*
X122548415Y-102010000D01*
X121624000Y-102010000D01*
X121562000Y-101993387D01*
X121516613Y-101948000D01*
X121500000Y-101886000D01*
X121500000Y-101634500D01*
X121516613Y-101572500D01*
X121562000Y-101527113D01*
X121624000Y-101510500D01*
X121989562Y-101510499D01*
X121999180Y-101510499D01*
X122001596Y-101510308D01*
X122004038Y-101510213D01*
X122004039Y-101510249D01*
X122010392Y-101510000D01*
X122548415Y-101510000D01*
X122559394Y-101507409D01*
X122558819Y-101496143D01*
X122524582Y-101378299D01*
X122518434Y-101364092D01*
X122488581Y-101313612D01*
X122471313Y-101250490D01*
X122488581Y-101187370D01*
X122522869Y-101129393D01*
X122567665Y-100975204D01*
X122570500Y-100939181D01*
X122570499Y-100540820D01*
X122567665Y-100504796D01*
X122522869Y-100350607D01*
X122441135Y-100212402D01*
X122411821Y-100183088D01*
X122384941Y-100142860D01*
X122375502Y-100095407D01*
X122375502Y-99866491D01*
X122387645Y-99812974D01*
X122421696Y-99769939D01*
X122470986Y-99745814D01*
X122474767Y-99744920D01*
X122482483Y-99744091D01*
X122617331Y-99693796D01*
X122675523Y-99650233D01*
X122710676Y-99631846D01*
X122749835Y-99625500D01*
X124000500Y-99625500D01*
X124062500Y-99642113D01*
G37*
%TD.AperFunction*%
%TA.AperFunction,Conductor*%
G36*
X124596685Y-97136219D02*
G01*
X124634781Y-97163895D01*
X124634950Y-97163709D01*
X124636728Y-97165310D01*
X124638398Y-97166523D01*
X124644129Y-97172888D01*
X124797270Y-97284151D01*
X124970197Y-97361144D01*
X125155354Y-97400500D01*
X125161857Y-97400500D01*
X125165547Y-97400500D01*
X125221842Y-97414015D01*
X125265865Y-97451615D01*
X125288020Y-97505102D01*
X125283478Y-97562818D01*
X125253228Y-97612181D01*
X124527228Y-98338181D01*
X124487000Y-98365061D01*
X124439547Y-98374500D01*
X122910739Y-98374500D01*
X122858335Y-98362883D01*
X122815751Y-98330207D01*
X122806537Y-98312509D01*
X122797815Y-98303787D01*
X122783676Y-98299999D01*
X122623067Y-98299999D01*
X122579734Y-98292181D01*
X122489752Y-98258620D01*
X122489750Y-98258619D01*
X122482483Y-98255909D01*
X122474770Y-98255079D01*
X122474767Y-98255079D01*
X122426180Y-98249855D01*
X122426169Y-98249854D01*
X122422873Y-98249500D01*
X122419550Y-98249500D01*
X122080439Y-98249500D01*
X122080420Y-98249500D01*
X122077128Y-98249501D01*
X122073850Y-98249853D01*
X122073838Y-98249854D01*
X122017517Y-98255909D01*
X122017344Y-98254305D01*
X121982657Y-98254305D01*
X121982485Y-98255909D01*
X121926182Y-98249855D01*
X121926171Y-98249854D01*
X121922875Y-98249500D01*
X121919552Y-98249500D01*
X121580441Y-98249500D01*
X121580422Y-98249500D01*
X121577130Y-98249501D01*
X121573852Y-98249853D01*
X121573840Y-98249854D01*
X121517519Y-98255909D01*
X121517346Y-98254308D01*
X121482655Y-98254308D01*
X121482483Y-98255909D01*
X121426180Y-98249855D01*
X121426169Y-98249854D01*
X121422873Y-98249500D01*
X121419551Y-98249500D01*
X121374002Y-98249500D01*
X121312002Y-98232887D01*
X121266615Y-98187500D01*
X121250002Y-98125500D01*
X121250002Y-97974497D01*
X121266615Y-97912497D01*
X121312002Y-97867110D01*
X121374001Y-97850497D01*
X121422872Y-97850497D01*
X121482483Y-97844089D01*
X121482656Y-97845700D01*
X121517345Y-97845699D01*
X121517519Y-97844089D01*
X121577129Y-97850498D01*
X121922874Y-97850497D01*
X121982485Y-97844089D01*
X121982658Y-97845698D01*
X122017344Y-97845697D01*
X122017517Y-97844089D01*
X122077127Y-97850498D01*
X122422872Y-97850497D01*
X122482483Y-97844089D01*
X122563277Y-97813955D01*
X122579734Y-97807817D01*
X122623067Y-97799999D01*
X122783676Y-97799999D01*
X122796551Y-97796548D01*
X122800002Y-97783673D01*
X122800002Y-97655763D01*
X122814845Y-97597605D01*
X122818796Y-97592329D01*
X122869091Y-97457481D01*
X122875500Y-97397871D01*
X122875500Y-97249500D01*
X122892113Y-97187500D01*
X122937500Y-97142113D01*
X122999500Y-97125500D01*
X124546252Y-97125500D01*
X124596685Y-97136219D01*
G37*
%TD.AperFunction*%
%TA.AperFunction,Conductor*%
G36*
X185937500Y-80017113D02*
G01*
X185982887Y-80062500D01*
X185999500Y-80124500D01*
X185999500Y-85269175D01*
X185982395Y-85332020D01*
X185739641Y-85744924D01*
X185739612Y-85744973D01*
X185739086Y-85745870D01*
X185738594Y-85746778D01*
X185738567Y-85746827D01*
X185250532Y-86648675D01*
X185250505Y-86648725D01*
X185250018Y-86649627D01*
X185249548Y-86650573D01*
X185249531Y-86650607D01*
X184793809Y-87569057D01*
X184793271Y-87570141D01*
X184792833Y-87571108D01*
X184792827Y-87571121D01*
X184369858Y-88505283D01*
X184369837Y-88505330D01*
X184369418Y-88506257D01*
X184369026Y-88507210D01*
X184369005Y-88507260D01*
X183979411Y-89455775D01*
X183979399Y-89455804D01*
X183978991Y-89456799D01*
X183978614Y-89457816D01*
X183978607Y-89457836D01*
X183622856Y-90419554D01*
X183622844Y-90419588D01*
X183622479Y-90420575D01*
X183622154Y-90421559D01*
X183622137Y-90421608D01*
X183300677Y-91395323D01*
X183300661Y-91395372D01*
X183300331Y-91396374D01*
X183300039Y-91397376D01*
X183300021Y-91397435D01*
X183021940Y-92352112D01*
X183012951Y-92382973D01*
X183012685Y-92384021D01*
X183012675Y-92384060D01*
X182767860Y-93350852D01*
X182760699Y-93379132D01*
X182760471Y-93380186D01*
X182760468Y-93380201D01*
X182544126Y-94382514D01*
X182544119Y-94382547D01*
X182543892Y-94383601D01*
X182543703Y-94384659D01*
X182543692Y-94384713D01*
X182363009Y-95393961D01*
X182362802Y-95395120D01*
X182362651Y-95396177D01*
X182362644Y-95396222D01*
X182217808Y-96411357D01*
X182217804Y-96411386D01*
X182217657Y-96412419D01*
X182217547Y-96413442D01*
X182217541Y-96413497D01*
X182108755Y-97433116D01*
X182108750Y-97433165D01*
X182108638Y-97434221D01*
X182108562Y-97435293D01*
X182108560Y-97435318D01*
X182035958Y-98458176D01*
X182035955Y-98458217D01*
X182035883Y-98459243D01*
X182035846Y-98460276D01*
X182035844Y-98460321D01*
X182000297Y-99463205D01*
X181999482Y-99486199D01*
X181999482Y-100513801D01*
X181999519Y-100514865D01*
X181999520Y-100514881D01*
X182035844Y-101539678D01*
X182035845Y-101539693D01*
X182035883Y-101540757D01*
X182035956Y-101541785D01*
X182035958Y-101541823D01*
X182094330Y-102364199D01*
X182108638Y-102565779D01*
X182108751Y-102566839D01*
X182108755Y-102566883D01*
X182217541Y-103586502D01*
X182217547Y-103586550D01*
X182217657Y-103587581D01*
X182217805Y-103588620D01*
X182217808Y-103588642D01*
X182362644Y-104603777D01*
X182362649Y-104603811D01*
X182362802Y-104604880D01*
X182362998Y-104605978D01*
X182363001Y-104605993D01*
X182543692Y-105615286D01*
X182543699Y-105615326D01*
X182543892Y-105616399D01*
X182544121Y-105617463D01*
X182544126Y-105617485D01*
X182731818Y-106487064D01*
X182760699Y-106620868D01*
X182760969Y-106621934D01*
X183012346Y-107614641D01*
X183012951Y-107617027D01*
X183013266Y-107618109D01*
X183013267Y-107618112D01*
X183300021Y-108602564D01*
X183300031Y-108602597D01*
X183300331Y-108603626D01*
X183300666Y-108604642D01*
X183300677Y-108604676D01*
X183622137Y-109578391D01*
X183622148Y-109578423D01*
X183622479Y-109579425D01*
X183622850Y-109580429D01*
X183622856Y-109580445D01*
X183978607Y-110542163D01*
X183978991Y-110543201D01*
X183979407Y-110544214D01*
X183979411Y-110544224D01*
X184369005Y-111492739D01*
X184369017Y-111492768D01*
X184369418Y-111493743D01*
X184369846Y-111494690D01*
X184369858Y-111494716D01*
X184587008Y-111974310D01*
X184793271Y-112429859D01*
X184905848Y-112656743D01*
X185248511Y-113347337D01*
X185250018Y-113350373D01*
X185250517Y-113351296D01*
X185250532Y-113351324D01*
X185738567Y-114253172D01*
X185738581Y-114253196D01*
X185739086Y-114254130D01*
X185739627Y-114255050D01*
X185739641Y-114255075D01*
X185982395Y-114667980D01*
X185999500Y-114730825D01*
X185999500Y-119875500D01*
X185982887Y-119937500D01*
X185937500Y-119982887D01*
X185875500Y-119999500D01*
X182000099Y-119999500D01*
X118000099Y-119999500D01*
X114124500Y-119999500D01*
X114062500Y-119982887D01*
X114017113Y-119937500D01*
X114000500Y-119875500D01*
X114000500Y-117500000D01*
X115194532Y-117500000D01*
X115214365Y-117726692D01*
X115215762Y-117731907D01*
X115215764Y-117731916D01*
X115271858Y-117941263D01*
X115271861Y-117941271D01*
X115273261Y-117946496D01*
X115369432Y-118152734D01*
X115499953Y-118339139D01*
X115660861Y-118500047D01*
X115847266Y-118630568D01*
X116053504Y-118726739D01*
X116273308Y-118785635D01*
X116500000Y-118805468D01*
X116726692Y-118785635D01*
X116946496Y-118726739D01*
X117152734Y-118630568D01*
X117339139Y-118500047D01*
X117500047Y-118339139D01*
X117630568Y-118152734D01*
X117726739Y-117946496D01*
X117785635Y-117726692D01*
X117805468Y-117500000D01*
X182194532Y-117500000D01*
X182214365Y-117726692D01*
X182215762Y-117731907D01*
X182215764Y-117731916D01*
X182271858Y-117941263D01*
X182271861Y-117941271D01*
X182273261Y-117946496D01*
X182369432Y-118152734D01*
X182499953Y-118339139D01*
X182660861Y-118500047D01*
X182847266Y-118630568D01*
X183053504Y-118726739D01*
X183273308Y-118785635D01*
X183500000Y-118805468D01*
X183726692Y-118785635D01*
X183946496Y-118726739D01*
X184152734Y-118630568D01*
X184339139Y-118500047D01*
X184500047Y-118339139D01*
X184630568Y-118152734D01*
X184726739Y-117946496D01*
X184785635Y-117726692D01*
X184805468Y-117500000D01*
X184785635Y-117273308D01*
X184726739Y-117053504D01*
X184630568Y-116847266D01*
X184500047Y-116660861D01*
X184339139Y-116499953D01*
X184152734Y-116369432D01*
X184088145Y-116339313D01*
X183951405Y-116275550D01*
X183951403Y-116275549D01*
X183946496Y-116273261D01*
X183941271Y-116271861D01*
X183941263Y-116271858D01*
X183731916Y-116215764D01*
X183731907Y-116215762D01*
X183726692Y-116214365D01*
X183721304Y-116213893D01*
X183721301Y-116213893D01*
X183505395Y-116195004D01*
X183500000Y-116194532D01*
X183494605Y-116195004D01*
X183278698Y-116213893D01*
X183278693Y-116213893D01*
X183273308Y-116214365D01*
X183268094Y-116215762D01*
X183268083Y-116215764D01*
X183058736Y-116271858D01*
X183058724Y-116271862D01*
X183053504Y-116273261D01*
X183048599Y-116275547D01*
X183048594Y-116275550D01*
X182852176Y-116367142D01*
X182852172Y-116367144D01*
X182847266Y-116369432D01*
X182842833Y-116372535D01*
X182842826Y-116372540D01*
X182665296Y-116496847D01*
X182665291Y-116496850D01*
X182660861Y-116499953D01*
X182657037Y-116503776D01*
X182657031Y-116503782D01*
X182503782Y-116657031D01*
X182503776Y-116657037D01*
X182499953Y-116660861D01*
X182496850Y-116665291D01*
X182496847Y-116665296D01*
X182372540Y-116842826D01*
X182372535Y-116842833D01*
X182369432Y-116847266D01*
X182367144Y-116852172D01*
X182367142Y-116852176D01*
X182275550Y-117048594D01*
X182275547Y-117048599D01*
X182273261Y-117053504D01*
X182271862Y-117058724D01*
X182271858Y-117058736D01*
X182215764Y-117268083D01*
X182215762Y-117268094D01*
X182214365Y-117273308D01*
X182194532Y-117500000D01*
X117805468Y-117500000D01*
X117785635Y-117273308D01*
X117726739Y-117053504D01*
X117630568Y-116847266D01*
X117500047Y-116660861D01*
X117339139Y-116499953D01*
X117259969Y-116444518D01*
X120150000Y-116444518D01*
X120150353Y-116451114D01*
X120155573Y-116499667D01*
X120159111Y-116514641D01*
X120203547Y-116633777D01*
X120211962Y-116649189D01*
X120287498Y-116750092D01*
X120299907Y-116762501D01*
X120400810Y-116838037D01*
X120416222Y-116846452D01*
X120535358Y-116890888D01*
X120550332Y-116894426D01*
X120598885Y-116899646D01*
X120605482Y-116900000D01*
X121433674Y-116900000D01*
X121446549Y-116896549D01*
X121450000Y-116883674D01*
X121950000Y-116883674D01*
X121953450Y-116896549D01*
X121966326Y-116900000D01*
X122794518Y-116900000D01*
X122801114Y-116899646D01*
X122849667Y-116894426D01*
X122864641Y-116890888D01*
X122983777Y-116846452D01*
X122999189Y-116838037D01*
X123100092Y-116762501D01*
X123112501Y-116750092D01*
X123188037Y-116649189D01*
X123196452Y-116633777D01*
X123240888Y-116514641D01*
X123244426Y-116499667D01*
X123249646Y-116451114D01*
X123250000Y-116444518D01*
X123250000Y-115766326D01*
X123246549Y-115753450D01*
X123233674Y-115750000D01*
X121966326Y-115750000D01*
X121953450Y-115753450D01*
X121950000Y-115766326D01*
X121950000Y-116883674D01*
X121450000Y-116883674D01*
X121450000Y-115766326D01*
X121446549Y-115753450D01*
X121433674Y-115750000D01*
X120166326Y-115750000D01*
X120153450Y-115753450D01*
X120150000Y-115766326D01*
X120150000Y-116444518D01*
X117259969Y-116444518D01*
X117152734Y-116369432D01*
X117088145Y-116339313D01*
X116951405Y-116275550D01*
X116951403Y-116275549D01*
X116946496Y-116273261D01*
X116941271Y-116271861D01*
X116941263Y-116271858D01*
X116731916Y-116215764D01*
X116731907Y-116215762D01*
X116726692Y-116214365D01*
X116721304Y-116213893D01*
X116721301Y-116213893D01*
X116505395Y-116195004D01*
X116500000Y-116194532D01*
X116494605Y-116195004D01*
X116278698Y-116213893D01*
X116278693Y-116213893D01*
X116273308Y-116214365D01*
X116268094Y-116215762D01*
X116268083Y-116215764D01*
X116058736Y-116271858D01*
X116058724Y-116271862D01*
X116053504Y-116273261D01*
X116048599Y-116275547D01*
X116048594Y-116275550D01*
X115852176Y-116367142D01*
X115852172Y-116367144D01*
X115847266Y-116369432D01*
X115842833Y-116372535D01*
X115842826Y-116372540D01*
X115665296Y-116496847D01*
X115665291Y-116496850D01*
X115660861Y-116499953D01*
X115657037Y-116503776D01*
X115657031Y-116503782D01*
X115503782Y-116657031D01*
X115503776Y-116657037D01*
X115499953Y-116660861D01*
X115496850Y-116665291D01*
X115496847Y-116665296D01*
X115372540Y-116842826D01*
X115372535Y-116842833D01*
X115369432Y-116847266D01*
X115367144Y-116852172D01*
X115367142Y-116852176D01*
X115275550Y-117048594D01*
X115275547Y-117048599D01*
X115273261Y-117053504D01*
X115271862Y-117058724D01*
X115271858Y-117058736D01*
X115215764Y-117268083D01*
X115215762Y-117268094D01*
X115214365Y-117273308D01*
X115194532Y-117500000D01*
X114000500Y-117500000D01*
X114000500Y-115233674D01*
X120150000Y-115233674D01*
X120153450Y-115246549D01*
X120166326Y-115250000D01*
X121433674Y-115250000D01*
X121446549Y-115246549D01*
X121450000Y-115233674D01*
X121950000Y-115233674D01*
X121953450Y-115246549D01*
X121966326Y-115250000D01*
X123233674Y-115250000D01*
X123246549Y-115246549D01*
X123250000Y-115233674D01*
X123250000Y-115000000D01*
X124945000Y-115000000D01*
X124962963Y-115193856D01*
X124964531Y-115199367D01*
X124964533Y-115199377D01*
X125014671Y-115375591D01*
X125014673Y-115375597D01*
X125016242Y-115381110D01*
X125103021Y-115555386D01*
X125106473Y-115559957D01*
X125216888Y-115706171D01*
X125216892Y-115706176D01*
X125220346Y-115710749D01*
X125224582Y-115714610D01*
X125224586Y-115714615D01*
X125291473Y-115775590D01*
X125364220Y-115841908D01*
X125529746Y-115944397D01*
X125711286Y-116014726D01*
X125902657Y-116050500D01*
X125999901Y-116050500D01*
X126000000Y-116050500D01*
X126000500Y-116050500D01*
X145999500Y-116050500D01*
X146000099Y-116050500D01*
X146091614Y-116050500D01*
X146097343Y-116050500D01*
X146288714Y-116014726D01*
X146470254Y-115944397D01*
X146635780Y-115841908D01*
X146779654Y-115710749D01*
X146896979Y-115555386D01*
X146983758Y-115381110D01*
X147037037Y-115193856D01*
X147055000Y-115000000D01*
X161945000Y-115000000D01*
X161962963Y-115193856D01*
X161964531Y-115199367D01*
X161964533Y-115199377D01*
X162014671Y-115375591D01*
X162014673Y-115375597D01*
X162016242Y-115381110D01*
X162103021Y-115555386D01*
X162106473Y-115559957D01*
X162216888Y-115706171D01*
X162216892Y-115706176D01*
X162220346Y-115710749D01*
X162224582Y-115714610D01*
X162224586Y-115714615D01*
X162291473Y-115775590D01*
X162364220Y-115841908D01*
X162529746Y-115944397D01*
X162711286Y-116014726D01*
X162902657Y-116050500D01*
X162999901Y-116050500D01*
X163000000Y-116050500D01*
X163000500Y-116050500D01*
X179999500Y-116050500D01*
X180000099Y-116050500D01*
X180091614Y-116050500D01*
X180097343Y-116050500D01*
X180288714Y-116014726D01*
X180470254Y-115944397D01*
X180635780Y-115841908D01*
X180779654Y-115710749D01*
X180896979Y-115555386D01*
X180983758Y-115381110D01*
X181037037Y-115193856D01*
X181055000Y-115000000D01*
X181037037Y-114806144D01*
X181010475Y-114712791D01*
X180985328Y-114624408D01*
X180983758Y-114618890D01*
X180896979Y-114444614D01*
X180850975Y-114383696D01*
X180783111Y-114293828D01*
X180783107Y-114293824D01*
X180779654Y-114289251D01*
X180775417Y-114285388D01*
X180775413Y-114285384D01*
X180640014Y-114161952D01*
X180640015Y-114161952D01*
X180635780Y-114158092D01*
X180630910Y-114155077D01*
X180630908Y-114155075D01*
X180475128Y-114058621D01*
X180475129Y-114058621D01*
X180470254Y-114055603D01*
X180464911Y-114053533D01*
X180294061Y-113987345D01*
X180294056Y-113987343D01*
X180288714Y-113985274D01*
X180283076Y-113984220D01*
X180102972Y-113950552D01*
X180102969Y-113950551D01*
X180097343Y-113949500D01*
X180000099Y-113949500D01*
X163000500Y-113949500D01*
X163000000Y-113949500D01*
X162902657Y-113949500D01*
X162897031Y-113950551D01*
X162897027Y-113950552D01*
X162716923Y-113984220D01*
X162716920Y-113984220D01*
X162711286Y-113985274D01*
X162705946Y-113987342D01*
X162705938Y-113987345D01*
X162535088Y-114053533D01*
X162535083Y-114053535D01*
X162529746Y-114055603D01*
X162524874Y-114058619D01*
X162524871Y-114058621D01*
X162369091Y-114155075D01*
X162369083Y-114155080D01*
X162364220Y-114158092D01*
X162359989Y-114161948D01*
X162359985Y-114161952D01*
X162224586Y-114285384D01*
X162224576Y-114285394D01*
X162220346Y-114289251D01*
X162216897Y-114293817D01*
X162216888Y-114293828D01*
X162106473Y-114440042D01*
X162106470Y-114440046D01*
X162103021Y-114444614D01*
X162016242Y-114618890D01*
X162014674Y-114624398D01*
X162014671Y-114624408D01*
X161964533Y-114800622D01*
X161964530Y-114800633D01*
X161962963Y-114806144D01*
X161945000Y-115000000D01*
X147055000Y-115000000D01*
X147037037Y-114806144D01*
X147010475Y-114712791D01*
X146985328Y-114624408D01*
X146983758Y-114618890D01*
X146896979Y-114444614D01*
X146850975Y-114383696D01*
X146783111Y-114293828D01*
X146783107Y-114293824D01*
X146779654Y-114289251D01*
X146775417Y-114285388D01*
X146775413Y-114285384D01*
X146640014Y-114161952D01*
X146640015Y-114161952D01*
X146635780Y-114158092D01*
X146630910Y-114155077D01*
X146630908Y-114155075D01*
X146475128Y-114058621D01*
X146475129Y-114058621D01*
X146470254Y-114055603D01*
X146464911Y-114053533D01*
X146294061Y-113987345D01*
X146294056Y-113987343D01*
X146288714Y-113985274D01*
X146283076Y-113984220D01*
X146102972Y-113950552D01*
X146102969Y-113950551D01*
X146097343Y-113949500D01*
X146000099Y-113949500D01*
X126000500Y-113949500D01*
X126000000Y-113949500D01*
X125902657Y-113949500D01*
X125897031Y-113950551D01*
X125897027Y-113950552D01*
X125716923Y-113984220D01*
X125716920Y-113984220D01*
X125711286Y-113985274D01*
X125705946Y-113987342D01*
X125705938Y-113987345D01*
X125535088Y-114053533D01*
X125535083Y-114053535D01*
X125529746Y-114055603D01*
X125524874Y-114058619D01*
X125524871Y-114058621D01*
X125369091Y-114155075D01*
X125369083Y-114155080D01*
X125364220Y-114158092D01*
X125359989Y-114161948D01*
X125359985Y-114161952D01*
X125224586Y-114285384D01*
X125224576Y-114285394D01*
X125220346Y-114289251D01*
X125216897Y-114293817D01*
X125216888Y-114293828D01*
X125106473Y-114440042D01*
X125106470Y-114440046D01*
X125103021Y-114444614D01*
X125016242Y-114618890D01*
X125014674Y-114624398D01*
X125014671Y-114624408D01*
X124964533Y-114800622D01*
X124964530Y-114800633D01*
X124962963Y-114806144D01*
X124945000Y-115000000D01*
X123250000Y-115000000D01*
X123250000Y-114555482D01*
X123249646Y-114548885D01*
X123244426Y-114500332D01*
X123240888Y-114485358D01*
X123196452Y-114366222D01*
X123188037Y-114350810D01*
X123112501Y-114249907D01*
X123100092Y-114237498D01*
X122999189Y-114161962D01*
X122983777Y-114153547D01*
X122864641Y-114109111D01*
X122849667Y-114105573D01*
X122801114Y-114100353D01*
X122794518Y-114100000D01*
X121966326Y-114100000D01*
X121953450Y-114103450D01*
X121950000Y-114116326D01*
X121950000Y-115233674D01*
X121450000Y-115233674D01*
X121450000Y-114116326D01*
X121446549Y-114103450D01*
X121433674Y-114100000D01*
X120605482Y-114100000D01*
X120598885Y-114100353D01*
X120550332Y-114105573D01*
X120535358Y-114109111D01*
X120416222Y-114153547D01*
X120400810Y-114161962D01*
X120299907Y-114237498D01*
X120287498Y-114249907D01*
X120211962Y-114350810D01*
X120203547Y-114366222D01*
X120159111Y-114485358D01*
X120155573Y-114500332D01*
X120150353Y-114548885D01*
X120150000Y-114555482D01*
X120150000Y-115233674D01*
X114000500Y-115233674D01*
X114000500Y-114730824D01*
X114017606Y-114667978D01*
X114083745Y-114555482D01*
X114260842Y-114254258D01*
X114749919Y-113350495D01*
X115206674Y-112429973D01*
X115630536Y-111493850D01*
X116020971Y-110543300D01*
X116377489Y-109579516D01*
X116699643Y-108603708D01*
X116987029Y-107617101D01*
X117007225Y-107537346D01*
X117041511Y-107478377D01*
X117101799Y-107446464D01*
X117169844Y-107451265D01*
X117225053Y-107491329D01*
X117250719Y-107554530D01*
X117255571Y-107599659D01*
X117259111Y-107614641D01*
X117303547Y-107733777D01*
X117311962Y-107749189D01*
X117387498Y-107850092D01*
X117399907Y-107862501D01*
X117500810Y-107938037D01*
X117516222Y-107946452D01*
X117635358Y-107990888D01*
X117650332Y-107994426D01*
X117698885Y-107999646D01*
X117705482Y-108000000D01*
X118233674Y-108000000D01*
X118246549Y-107996549D01*
X118250000Y-107983674D01*
X118250000Y-105216326D01*
X118246549Y-105203450D01*
X118233674Y-105200000D01*
X117705482Y-105200000D01*
X117698877Y-105200353D01*
X117691749Y-105201120D01*
X117635200Y-105194026D01*
X117587798Y-105162386D01*
X117559555Y-105112884D01*
X117556438Y-105055981D01*
X117637191Y-104604925D01*
X117782339Y-103587616D01*
X117891360Y-102565804D01*
X117964117Y-101540772D01*
X118000518Y-100513806D01*
X118000518Y-99486194D01*
X117964117Y-98459228D01*
X117891360Y-97434196D01*
X117782339Y-96412384D01*
X117637191Y-95395075D01*
X117456097Y-94383547D01*
X117239286Y-93379068D01*
X116987029Y-92382899D01*
X116699643Y-91396292D01*
X116501202Y-90795213D01*
X117024500Y-90795213D01*
X117024501Y-90798344D01*
X117024820Y-90801476D01*
X117024821Y-90801477D01*
X117033962Y-90890972D01*
X117033963Y-90890980D01*
X117034651Y-90897708D01*
X117036779Y-90904131D01*
X117036780Y-90904134D01*
X117076445Y-91023836D01*
X117087997Y-91058697D01*
X117091788Y-91064843D01*
X117091789Y-91064845D01*
X117172457Y-91195628D01*
X117177032Y-91203044D01*
X117296956Y-91322968D01*
X117441303Y-91412003D01*
X117602292Y-91465349D01*
X117701655Y-91475500D01*
X118298344Y-91475499D01*
X118397708Y-91465349D01*
X118558697Y-91412003D01*
X118703044Y-91322968D01*
X118822968Y-91203044D01*
X118826451Y-91197396D01*
X118869447Y-91162891D01*
X118923479Y-91150500D01*
X118925500Y-91150500D01*
X118987500Y-91167113D01*
X119032887Y-91212500D01*
X119049500Y-91274500D01*
X119049500Y-92078194D01*
X119049690Y-92080614D01*
X119049691Y-92080628D01*
X119051904Y-92108751D01*
X119051905Y-92108758D01*
X119052402Y-92115069D01*
X119054168Y-92121150D01*
X119054170Y-92121157D01*
X119096079Y-92265405D01*
X119098256Y-92272898D01*
X119102226Y-92279611D01*
X119102227Y-92279613D01*
X119177946Y-92407648D01*
X119177948Y-92407651D01*
X119181919Y-92414365D01*
X119298135Y-92530581D01*
X119439602Y-92614244D01*
X119597431Y-92660098D01*
X119634306Y-92663000D01*
X120063249Y-92663000D01*
X120065694Y-92663000D01*
X120102569Y-92660098D01*
X120260398Y-92614244D01*
X120267117Y-92610270D01*
X120274276Y-92607173D01*
X120275301Y-92609543D01*
X120325492Y-92595810D01*
X120374804Y-92609304D01*
X120375926Y-92606712D01*
X120397294Y-92615958D01*
X120539223Y-92657192D01*
X120546293Y-92655786D01*
X120550000Y-92642644D01*
X120550000Y-92394315D01*
X120567268Y-92331194D01*
X120574950Y-92318204D01*
X120601744Y-92272898D01*
X120647598Y-92115069D01*
X120650500Y-92078194D01*
X120650500Y-91374000D01*
X120667113Y-91312000D01*
X120712500Y-91266613D01*
X120774500Y-91250000D01*
X120825500Y-91250000D01*
X120887500Y-91266613D01*
X120932887Y-91312000D01*
X120949500Y-91374000D01*
X120949500Y-92078194D01*
X120949690Y-92080614D01*
X120949691Y-92080628D01*
X120951904Y-92108751D01*
X120951905Y-92108758D01*
X120952402Y-92115069D01*
X120954168Y-92121150D01*
X120954170Y-92121157D01*
X120996079Y-92265405D01*
X120998256Y-92272898D01*
X121002226Y-92279611D01*
X121002227Y-92279613D01*
X121032732Y-92331194D01*
X121050000Y-92394315D01*
X121050000Y-92642645D01*
X121057240Y-92668318D01*
X121060855Y-92718000D01*
X121044627Y-92765095D01*
X121021566Y-92804087D01*
X121015417Y-92818299D01*
X120974601Y-92958787D01*
X120972335Y-92971191D01*
X120971414Y-92982901D01*
X120974078Y-92996293D01*
X120987221Y-93000000D01*
X121865500Y-93000000D01*
X121927500Y-93016613D01*
X121972887Y-93062000D01*
X121989500Y-93124000D01*
X121989500Y-93496756D01*
X121989500Y-93496781D01*
X121989501Y-93499180D01*
X121989690Y-93501588D01*
X121989787Y-93504038D01*
X121989750Y-93504039D01*
X121990000Y-93510392D01*
X121990000Y-93663674D01*
X121995775Y-93685226D01*
X122000000Y-93717320D01*
X122000000Y-94223674D01*
X122003450Y-94236549D01*
X122016326Y-94240000D01*
X122548415Y-94240000D01*
X122559394Y-94237409D01*
X122558083Y-94211733D01*
X122558787Y-94211697D01*
X122556769Y-94172225D01*
X122579589Y-94120049D01*
X122623325Y-94083576D01*
X122678749Y-94070499D01*
X122959180Y-94070499D01*
X122995204Y-94067665D01*
X123149393Y-94022869D01*
X123287598Y-93941135D01*
X123401135Y-93827598D01*
X123482869Y-93689393D01*
X123527665Y-93535204D01*
X123530500Y-93499181D01*
X123530499Y-93441358D01*
X123539528Y-93394909D01*
X123565301Y-93355221D01*
X123604063Y-93328080D01*
X123702730Y-93284151D01*
X123855871Y-93172888D01*
X123982533Y-93032216D01*
X124077179Y-92868284D01*
X124135674Y-92688256D01*
X124155460Y-92500000D01*
X124135674Y-92311744D01*
X124125757Y-92281225D01*
X124122397Y-92217128D01*
X124151537Y-92159936D01*
X124205369Y-92124976D01*
X124269469Y-92121617D01*
X124405354Y-92150500D01*
X124464548Y-92150500D01*
X124512001Y-92159939D01*
X124552229Y-92186819D01*
X125838181Y-93472772D01*
X125865061Y-93513000D01*
X125874500Y-93560453D01*
X125874500Y-95601383D01*
X125859473Y-95660551D01*
X125818035Y-95705378D01*
X125760229Y-95725001D01*
X125700064Y-95714662D01*
X125535745Y-95641501D01*
X125535740Y-95641499D01*
X125529803Y-95638856D01*
X125523444Y-95637504D01*
X125523440Y-95637503D01*
X125351008Y-95600852D01*
X125351005Y-95600851D01*
X125344646Y-95599500D01*
X125155354Y-95599500D01*
X125148995Y-95600851D01*
X125148991Y-95600852D01*
X124976559Y-95637503D01*
X124976552Y-95637505D01*
X124970197Y-95638856D01*
X124964262Y-95641498D01*
X124964254Y-95641501D01*
X124803207Y-95713205D01*
X124803202Y-95713207D01*
X124797270Y-95715849D01*
X124792016Y-95719665D01*
X124792011Y-95719669D01*
X124649388Y-95823290D01*
X124649381Y-95823295D01*
X124644129Y-95827112D01*
X124639780Y-95831941D01*
X124639781Y-95831941D01*
X124638399Y-95833476D01*
X124636728Y-95834689D01*
X124634950Y-95836291D01*
X124634781Y-95836104D01*
X124596685Y-95863781D01*
X124546252Y-95874500D01*
X122691632Y-95874500D01*
X122626842Y-95856228D01*
X122581147Y-95806795D01*
X122568014Y-95740772D01*
X122569975Y-95715849D01*
X122570500Y-95709181D01*
X122570499Y-95310820D01*
X122567665Y-95274796D01*
X122522869Y-95120607D01*
X122488581Y-95062629D01*
X122471313Y-94999507D01*
X122488582Y-94936385D01*
X122518433Y-94885911D01*
X122524583Y-94871697D01*
X122558819Y-94753856D01*
X122559394Y-94742590D01*
X122548415Y-94740000D01*
X122010409Y-94740000D01*
X122004046Y-94739750D01*
X122004045Y-94739787D01*
X122001615Y-94739691D01*
X121999181Y-94739500D01*
X121996736Y-94739500D01*
X121766007Y-94739500D01*
X121707792Y-94724985D01*
X121663206Y-94684840D01*
X121642686Y-94628461D01*
X121636353Y-94568204D01*
X121636352Y-94568203D01*
X121635674Y-94561744D01*
X121577179Y-94381716D01*
X121516612Y-94276811D01*
X121500000Y-94214813D01*
X121500000Y-94126326D01*
X121494225Y-94104774D01*
X121490000Y-94072680D01*
X121490000Y-93516326D01*
X121486549Y-93503450D01*
X121473674Y-93500000D01*
X120987221Y-93500000D01*
X120974078Y-93503706D01*
X120971414Y-93517098D01*
X120972335Y-93528808D01*
X120974601Y-93541212D01*
X121015417Y-93681700D01*
X121017274Y-93685992D01*
X121026278Y-93752388D01*
X120999425Y-93813774D01*
X120944556Y-93852229D01*
X120877691Y-93856523D01*
X120871483Y-93855204D01*
X120851004Y-93850851D01*
X120851000Y-93850850D01*
X120844646Y-93849500D01*
X120655354Y-93849500D01*
X120648995Y-93850851D01*
X120648991Y-93850852D01*
X120476559Y-93887503D01*
X120476552Y-93887505D01*
X120470197Y-93888856D01*
X120464262Y-93891498D01*
X120464254Y-93891501D01*
X120303207Y-93963205D01*
X120303202Y-93963207D01*
X120297270Y-93965849D01*
X120292016Y-93969665D01*
X120292011Y-93969669D01*
X120149388Y-94073290D01*
X120149381Y-94073295D01*
X120144129Y-94077112D01*
X120139784Y-94081937D01*
X120139779Y-94081942D01*
X120021813Y-94212956D01*
X120021808Y-94212962D01*
X120017467Y-94217784D01*
X120014222Y-94223404D01*
X120014218Y-94223410D01*
X119926069Y-94376089D01*
X119926066Y-94376094D01*
X119922821Y-94381716D01*
X119920815Y-94387888D01*
X119920813Y-94387894D01*
X119866333Y-94555564D01*
X119866331Y-94555573D01*
X119864326Y-94561744D01*
X119863648Y-94568194D01*
X119863646Y-94568204D01*
X119848461Y-94712689D01*
X119844540Y-94750000D01*
X119845219Y-94756460D01*
X119863646Y-94931795D01*
X119863647Y-94931803D01*
X119864326Y-94938256D01*
X119866331Y-94944428D01*
X119866333Y-94944435D01*
X119904737Y-95062629D01*
X119922821Y-95118284D01*
X120017467Y-95282216D01*
X120038490Y-95305564D01*
X120071419Y-95342136D01*
X120095033Y-95380670D01*
X120103269Y-95425108D01*
X120103269Y-95943456D01*
X120102747Y-95954511D01*
X120101096Y-95961898D01*
X120101340Y-95969684D01*
X120101340Y-95969692D01*
X120103208Y-96029104D01*
X120103269Y-96032999D01*
X120103269Y-96060581D01*
X120103757Y-96064450D01*
X120103758Y-96064456D01*
X120103773Y-96064574D01*
X120104687Y-96076197D01*
X120105814Y-96112061D01*
X120105815Y-96112068D01*
X120106060Y-96119858D01*
X120108236Y-96127350D01*
X120108237Y-96127352D01*
X120111648Y-96139093D01*
X120115594Y-96158146D01*
X120118105Y-96178023D01*
X120120975Y-96185273D01*
X120120977Y-96185279D01*
X120134183Y-96218635D01*
X120137966Y-96229682D01*
X120150151Y-96271621D01*
X120154122Y-96278336D01*
X120154123Y-96278338D01*
X120160350Y-96288868D01*
X120168905Y-96306330D01*
X120173411Y-96317711D01*
X120173412Y-96317714D01*
X120176283Y-96324963D01*
X120198209Y-96355143D01*
X120201950Y-96360291D01*
X120208362Y-96370053D01*
X120230598Y-96407651D01*
X120229387Y-96408366D01*
X120247546Y-96446671D01*
X120248003Y-96500076D01*
X120225956Y-96548720D01*
X120186963Y-96600809D01*
X120178548Y-96616220D01*
X120134112Y-96735356D01*
X120130574Y-96750330D01*
X120125354Y-96798883D01*
X120125001Y-96805480D01*
X120125001Y-97394516D01*
X120125354Y-97401112D01*
X120130574Y-97449665D01*
X120134112Y-97464639D01*
X120178549Y-97583779D01*
X120184835Y-97595291D01*
X120200002Y-97654716D01*
X120200002Y-97778400D01*
X120182119Y-97842550D01*
X120133628Y-97888197D01*
X120068515Y-97902174D01*
X120011050Y-97882344D01*
X120010744Y-97882929D01*
X120006901Y-97880912D01*
X120005562Y-97880450D01*
X120004106Y-97879445D01*
X120004105Y-97879444D01*
X119997930Y-97875182D01*
X119990915Y-97872521D01*
X119990912Y-97872520D01*
X119845888Y-97817520D01*
X119845882Y-97817518D01*
X119838872Y-97814860D01*
X119831427Y-97813956D01*
X119831423Y-97813955D01*
X119716092Y-97799951D01*
X119716080Y-97799950D01*
X119712372Y-97799500D01*
X119627628Y-97799500D01*
X119623920Y-97799950D01*
X119623907Y-97799951D01*
X119508576Y-97813955D01*
X119508570Y-97813956D01*
X119501128Y-97814860D01*
X119494119Y-97817517D01*
X119494111Y-97817520D01*
X119349087Y-97872520D01*
X119349081Y-97872523D01*
X119342070Y-97875182D01*
X119335897Y-97879442D01*
X119335893Y-97879445D01*
X119208241Y-97967557D01*
X119208235Y-97967562D01*
X119202071Y-97971817D01*
X119197099Y-97977428D01*
X119197098Y-97977430D01*
X119094241Y-98093531D01*
X119094236Y-98093537D01*
X119089266Y-98099148D01*
X119085780Y-98105788D01*
X119085779Y-98105791D01*
X119013695Y-98243133D01*
X119013692Y-98243140D01*
X119010210Y-98249775D01*
X119008416Y-98257050D01*
X119008415Y-98257055D01*
X118971294Y-98407662D01*
X118971293Y-98407668D01*
X118969500Y-98414944D01*
X118969500Y-98585056D01*
X118971293Y-98592332D01*
X118971294Y-98592337D01*
X119008415Y-98742944D01*
X119010210Y-98750225D01*
X119013693Y-98756862D01*
X119013695Y-98756866D01*
X119076129Y-98875823D01*
X119089266Y-98900852D01*
X119202071Y-99028183D01*
X119342070Y-99124818D01*
X119349088Y-99127479D01*
X119349087Y-99127479D01*
X119350123Y-99127872D01*
X119350924Y-99128443D01*
X119355725Y-99130963D01*
X119355379Y-99131620D01*
X119401442Y-99164465D01*
X119428141Y-99221560D01*
X119423324Y-99284404D01*
X119388233Y-99336762D01*
X119331936Y-99365105D01*
X119226559Y-99387503D01*
X119226552Y-99387505D01*
X119220197Y-99388856D01*
X119214262Y-99391498D01*
X119214254Y-99391501D01*
X119053207Y-99463205D01*
X119053202Y-99463207D01*
X119047270Y-99465849D01*
X119042016Y-99469665D01*
X119042011Y-99469669D01*
X118899388Y-99573290D01*
X118899381Y-99573295D01*
X118894129Y-99577112D01*
X118889784Y-99581937D01*
X118889779Y-99581942D01*
X118771813Y-99712956D01*
X118771808Y-99712962D01*
X118767467Y-99717784D01*
X118764222Y-99723404D01*
X118764218Y-99723410D01*
X118676069Y-99876089D01*
X118676066Y-99876094D01*
X118672821Y-99881716D01*
X118670815Y-99887888D01*
X118670813Y-99887894D01*
X118616333Y-100055564D01*
X118616331Y-100055573D01*
X118614326Y-100061744D01*
X118613648Y-100068194D01*
X118613646Y-100068204D01*
X118597786Y-100219119D01*
X118594540Y-100250000D01*
X118595219Y-100256460D01*
X118613646Y-100431795D01*
X118613647Y-100431803D01*
X118614326Y-100438256D01*
X118616331Y-100444428D01*
X118616333Y-100444435D01*
X118670813Y-100612105D01*
X118672821Y-100618284D01*
X118767467Y-100782216D01*
X118771811Y-100787041D01*
X118771813Y-100787043D01*
X118877346Y-100904249D01*
X118894129Y-100922888D01*
X118899387Y-100926708D01*
X118899388Y-100926709D01*
X119015635Y-101011167D01*
X119053461Y-101055636D01*
X119066746Y-101112484D01*
X119052546Y-101169111D01*
X119013695Y-101243133D01*
X119013692Y-101243140D01*
X119010210Y-101249775D01*
X119008416Y-101257050D01*
X119008415Y-101257055D01*
X118971294Y-101407662D01*
X118971293Y-101407668D01*
X118969500Y-101414944D01*
X118969500Y-101585056D01*
X118971293Y-101592332D01*
X118971294Y-101592337D01*
X119007966Y-101741121D01*
X119010210Y-101750225D01*
X119013693Y-101756862D01*
X119013695Y-101756866D01*
X119049878Y-101825805D01*
X119089266Y-101900852D01*
X119202071Y-102028183D01*
X119208240Y-102032441D01*
X119208241Y-102032442D01*
X119245626Y-102058247D01*
X119342070Y-102124818D01*
X119349088Y-102127479D01*
X119349087Y-102127479D01*
X119492307Y-102181795D01*
X119501128Y-102185140D01*
X119627628Y-102200500D01*
X119627544Y-102201183D01*
X119677778Y-102216161D01*
X119719117Y-102254591D01*
X119739140Y-102307364D01*
X119733697Y-102363544D01*
X119703916Y-102411491D01*
X119612696Y-102502711D01*
X119604511Y-102510159D01*
X119598123Y-102514214D01*
X119592788Y-102519894D01*
X119592783Y-102519899D01*
X119552096Y-102563225D01*
X119549392Y-102566016D01*
X119532628Y-102582780D01*
X119532621Y-102582787D01*
X119529880Y-102585529D01*
X119527500Y-102588596D01*
X119527489Y-102588609D01*
X119527400Y-102588725D01*
X119519842Y-102597570D01*
X119495280Y-102623727D01*
X119495273Y-102623736D01*
X119489938Y-102629418D01*
X119486182Y-102636249D01*
X119486179Y-102636254D01*
X119480285Y-102646975D01*
X119469609Y-102663227D01*
X119462109Y-102672896D01*
X119462101Y-102672907D01*
X119457327Y-102679064D01*
X119454234Y-102686208D01*
X119454229Y-102686219D01*
X119439974Y-102719160D01*
X119434838Y-102729643D01*
X119426292Y-102745189D01*
X119413803Y-102767908D01*
X119411864Y-102775456D01*
X119411863Y-102775461D01*
X119408822Y-102787307D01*
X119402521Y-102805711D01*
X119397658Y-102816948D01*
X119397656Y-102816952D01*
X119394562Y-102824104D01*
X119393342Y-102831803D01*
X119393342Y-102831805D01*
X119387729Y-102867241D01*
X119385361Y-102878676D01*
X119376438Y-102913428D01*
X119376436Y-102913436D01*
X119374500Y-102920981D01*
X119374500Y-102928777D01*
X119374500Y-102941017D01*
X119372974Y-102960402D01*
X119369840Y-102980196D01*
X119370574Y-102987961D01*
X119370574Y-102987964D01*
X119373950Y-103023676D01*
X119374500Y-103035345D01*
X119374500Y-105076000D01*
X119357887Y-105138000D01*
X119312500Y-105183387D01*
X119250500Y-105200000D01*
X118766326Y-105200000D01*
X118753450Y-105203450D01*
X118750000Y-105216326D01*
X118750000Y-107983674D01*
X118753450Y-107996549D01*
X118766326Y-108000000D01*
X119183251Y-108000000D01*
X119233686Y-108010720D01*
X119275402Y-108041028D01*
X119394129Y-108172888D01*
X119400739Y-108177691D01*
X119401441Y-108178557D01*
X119404215Y-108181055D01*
X119403818Y-108181495D01*
X119441158Y-108227626D01*
X119451164Y-108291086D01*
X119428070Y-108351036D01*
X119378076Y-108391384D01*
X119314603Y-108401298D01*
X119306731Y-108400452D01*
X119301168Y-108399854D01*
X119301163Y-108399853D01*
X119297873Y-108399500D01*
X119294550Y-108399500D01*
X117705439Y-108399500D01*
X117705420Y-108399500D01*
X117702128Y-108399501D01*
X117698850Y-108399853D01*
X117698838Y-108399854D01*
X117650231Y-108405079D01*
X117650225Y-108405080D01*
X117642517Y-108405909D01*
X117635252Y-108408618D01*
X117635246Y-108408620D01*
X117515980Y-108453104D01*
X117515978Y-108453104D01*
X117507669Y-108456204D01*
X117500572Y-108461516D01*
X117500568Y-108461519D01*
X117399550Y-108537141D01*
X117399546Y-108537144D01*
X117392454Y-108542454D01*
X117387144Y-108549546D01*
X117387141Y-108549550D01*
X117311519Y-108650568D01*
X117311516Y-108650572D01*
X117306204Y-108657669D01*
X117303104Y-108665978D01*
X117303104Y-108665980D01*
X117258620Y-108785247D01*
X117258619Y-108785250D01*
X117255909Y-108792517D01*
X117255079Y-108800227D01*
X117255079Y-108800232D01*
X117249855Y-108848819D01*
X117249854Y-108848831D01*
X117249500Y-108852127D01*
X117249500Y-108855448D01*
X117249500Y-108855449D01*
X117249500Y-110744560D01*
X117249500Y-110744578D01*
X117249501Y-110747872D01*
X117249853Y-110751150D01*
X117249854Y-110751161D01*
X117255079Y-110799768D01*
X117255080Y-110799772D01*
X117255909Y-110807483D01*
X117258619Y-110814749D01*
X117258620Y-110814753D01*
X117266085Y-110834767D01*
X117306204Y-110942331D01*
X117392454Y-111057546D01*
X117507669Y-111143796D01*
X117642517Y-111194091D01*
X117702127Y-111200500D01*
X119297872Y-111200499D01*
X119357483Y-111194091D01*
X119492331Y-111143796D01*
X119607546Y-111057546D01*
X119693796Y-110942331D01*
X119744091Y-110807483D01*
X119745488Y-110794486D01*
X119768587Y-110734679D01*
X119818474Y-110694401D01*
X119881811Y-110684427D01*
X119941659Y-110707420D01*
X120047270Y-110784151D01*
X120070491Y-110794490D01*
X120078948Y-110798255D01*
X120125891Y-110834767D01*
X120150435Y-110888938D01*
X120146933Y-110948306D01*
X120116192Y-110999215D01*
X119524552Y-111590855D01*
X119463230Y-111624340D01*
X119393540Y-111619357D01*
X119374055Y-111612090D01*
X119357483Y-111605909D01*
X119349770Y-111605079D01*
X119349767Y-111605079D01*
X119301180Y-111599855D01*
X119301169Y-111599854D01*
X119297873Y-111599500D01*
X119294550Y-111599500D01*
X117705439Y-111599500D01*
X117705420Y-111599500D01*
X117702128Y-111599501D01*
X117698850Y-111599853D01*
X117698838Y-111599854D01*
X117650231Y-111605079D01*
X117650225Y-111605080D01*
X117642517Y-111605909D01*
X117635252Y-111608618D01*
X117635246Y-111608620D01*
X117515980Y-111653104D01*
X117515978Y-111653104D01*
X117507669Y-111656204D01*
X117500572Y-111661516D01*
X117500568Y-111661519D01*
X117399550Y-111737141D01*
X117399546Y-111737144D01*
X117392454Y-111742454D01*
X117387144Y-111749546D01*
X117387141Y-111749550D01*
X117311519Y-111850568D01*
X117311516Y-111850572D01*
X117306204Y-111857669D01*
X117303104Y-111865978D01*
X117303104Y-111865980D01*
X117258620Y-111985247D01*
X117258619Y-111985250D01*
X117255909Y-111992517D01*
X117255079Y-112000227D01*
X117255079Y-112000232D01*
X117249855Y-112048819D01*
X117249854Y-112048831D01*
X117249500Y-112052127D01*
X117249500Y-112055448D01*
X117249500Y-112055449D01*
X117249500Y-113944560D01*
X117249500Y-113944578D01*
X117249501Y-113947872D01*
X117249853Y-113951150D01*
X117249854Y-113951161D01*
X117255079Y-113999768D01*
X117255080Y-113999773D01*
X117255909Y-114007483D01*
X117258619Y-114014749D01*
X117258620Y-114014753D01*
X117274982Y-114058621D01*
X117306204Y-114142331D01*
X117392454Y-114257546D01*
X117507669Y-114343796D01*
X117642517Y-114394091D01*
X117702127Y-114400500D01*
X119297872Y-114400499D01*
X119357483Y-114394091D01*
X119492331Y-114343796D01*
X119607546Y-114257546D01*
X119693796Y-114142331D01*
X119744091Y-114007483D01*
X119750500Y-113947873D01*
X119750499Y-113185450D01*
X119759938Y-113137998D01*
X119786815Y-113097773D01*
X120195163Y-112689425D01*
X120243248Y-112659599D01*
X120299582Y-112654243D01*
X120352429Y-112674474D01*
X120390784Y-112716080D01*
X120406660Y-112770394D01*
X120411107Y-112852409D01*
X120415682Y-112936780D01*
X120417479Y-112943255D01*
X120417480Y-112943256D01*
X120442239Y-113032433D01*
X120464591Y-113112936D01*
X120550225Y-113274459D01*
X120668580Y-113413797D01*
X120814122Y-113524435D01*
X120980045Y-113601199D01*
X121158590Y-113640500D01*
X121292212Y-113640500D01*
X121295570Y-113640500D01*
X121431748Y-113625690D01*
X121604998Y-113567315D01*
X121761648Y-113473062D01*
X121894374Y-113347337D01*
X121996971Y-113196019D01*
X122064639Y-113026183D01*
X122094216Y-112845772D01*
X122084318Y-112663220D01*
X122035409Y-112487064D01*
X121949775Y-112325541D01*
X121831420Y-112186203D01*
X121685878Y-112075565D01*
X121679775Y-112072741D01*
X121679771Y-112072739D01*
X121526057Y-112001624D01*
X121526056Y-112001623D01*
X121519955Y-111998801D01*
X121491407Y-111992517D01*
X121347973Y-111960944D01*
X121347967Y-111960943D01*
X121341410Y-111959500D01*
X121224451Y-111959500D01*
X121168156Y-111945985D01*
X121124133Y-111908385D01*
X121101978Y-111854898D01*
X121106520Y-111797182D01*
X121136770Y-111747819D01*
X121223071Y-111661519D01*
X121472770Y-111411819D01*
X121512999Y-111384939D01*
X121560452Y-111375500D01*
X122172225Y-111375500D01*
X122183280Y-111376021D01*
X122190667Y-111377673D01*
X122257872Y-111375561D01*
X122261768Y-111375500D01*
X122285448Y-111375500D01*
X122289350Y-111375500D01*
X122293313Y-111374999D01*
X122304963Y-111374080D01*
X122348627Y-111372709D01*
X122367861Y-111367119D01*
X122386917Y-111363174D01*
X122406792Y-111360664D01*
X122447395Y-111344587D01*
X122458450Y-111340802D01*
X122500390Y-111328618D01*
X122517629Y-111318422D01*
X122535103Y-111309862D01*
X122546474Y-111305360D01*
X122546476Y-111305358D01*
X122553732Y-111302486D01*
X122589069Y-111276811D01*
X122598824Y-111270403D01*
X122636420Y-111248170D01*
X122650584Y-111234005D01*
X122665379Y-111221368D01*
X122681587Y-111209594D01*
X122709428Y-111175938D01*
X122717279Y-111167309D01*
X125137311Y-108747278D01*
X125145481Y-108739844D01*
X125151877Y-108735786D01*
X125197918Y-108686756D01*
X125200535Y-108684054D01*
X125220120Y-108664471D01*
X125222585Y-108661292D01*
X125230167Y-108652416D01*
X125260062Y-108620582D01*
X125269713Y-108603023D01*
X125280390Y-108586770D01*
X125292673Y-108570936D01*
X125310026Y-108530832D01*
X125315158Y-108520361D01*
X125332435Y-108488935D01*
X125332435Y-108488934D01*
X125336197Y-108482092D01*
X125341177Y-108462691D01*
X125347481Y-108444281D01*
X125355438Y-108425896D01*
X125362272Y-108382741D01*
X125364638Y-108371321D01*
X125365753Y-108366981D01*
X125375500Y-108329019D01*
X125375500Y-108308983D01*
X125377025Y-108289597D01*
X125380160Y-108269804D01*
X125376050Y-108226324D01*
X125375500Y-108214655D01*
X125375500Y-103250000D01*
X136094540Y-103250000D01*
X136095219Y-103256460D01*
X136113646Y-103431795D01*
X136113647Y-103431803D01*
X136114326Y-103438256D01*
X136116331Y-103444428D01*
X136116333Y-103444435D01*
X136170813Y-103612105D01*
X136172821Y-103618284D01*
X136176068Y-103623908D01*
X136176069Y-103623910D01*
X136220499Y-103700866D01*
X136267467Y-103782216D01*
X136271811Y-103787041D01*
X136271813Y-103787043D01*
X136342650Y-103865715D01*
X136366264Y-103904249D01*
X136374500Y-103948687D01*
X136374500Y-106922225D01*
X136373978Y-106933280D01*
X136372327Y-106940667D01*
X136372571Y-106948453D01*
X136372571Y-106948461D01*
X136374439Y-107007873D01*
X136374500Y-107011768D01*
X136374500Y-107039350D01*
X136374988Y-107043219D01*
X136374989Y-107043225D01*
X136375004Y-107043343D01*
X136375918Y-107054966D01*
X136377045Y-107090830D01*
X136377046Y-107090837D01*
X136377291Y-107098627D01*
X136379467Y-107106119D01*
X136379468Y-107106121D01*
X136382879Y-107117862D01*
X136386825Y-107136915D01*
X136389336Y-107156792D01*
X136392206Y-107164042D01*
X136392208Y-107164048D01*
X136405414Y-107197404D01*
X136409197Y-107208451D01*
X136421382Y-107250390D01*
X136425353Y-107257105D01*
X136425354Y-107257107D01*
X136431581Y-107267637D01*
X136440136Y-107285099D01*
X136444642Y-107296480D01*
X136444643Y-107296483D01*
X136447514Y-107303732D01*
X136469440Y-107333912D01*
X136473181Y-107339060D01*
X136479593Y-107348822D01*
X136497856Y-107379702D01*
X136497859Y-107379707D01*
X136501830Y-107386420D01*
X136507344Y-107391934D01*
X136507345Y-107391935D01*
X136515990Y-107400580D01*
X136528626Y-107415374D01*
X136535819Y-107425275D01*
X136535823Y-107425279D01*
X136540406Y-107431587D01*
X136546415Y-107436558D01*
X136546416Y-107436559D01*
X136574058Y-107459426D01*
X136582699Y-107467289D01*
X137561038Y-108445629D01*
X137585278Y-108479927D01*
X137596678Y-108520348D01*
X137606494Y-108613741D01*
X137614326Y-108688256D01*
X137616331Y-108694428D01*
X137616333Y-108694435D01*
X137670813Y-108862105D01*
X137672821Y-108868284D01*
X137767467Y-109032216D01*
X137894129Y-109172888D01*
X138047270Y-109284151D01*
X138220197Y-109361144D01*
X138405354Y-109400500D01*
X138588143Y-109400500D01*
X138594646Y-109400500D01*
X138779803Y-109361144D01*
X138952730Y-109284151D01*
X139105871Y-109172888D01*
X139232533Y-109032216D01*
X139327179Y-108868284D01*
X139385674Y-108688256D01*
X139405460Y-108500000D01*
X139395002Y-108400500D01*
X139386353Y-108318204D01*
X139386352Y-108318203D01*
X139385674Y-108311744D01*
X139327179Y-108131716D01*
X139232533Y-107967784D01*
X139137735Y-107862501D01*
X139110220Y-107831942D01*
X139110219Y-107831941D01*
X139105871Y-107827112D01*
X139100613Y-107823292D01*
X139100611Y-107823290D01*
X138957988Y-107719669D01*
X138957987Y-107719668D01*
X138952730Y-107715849D01*
X138946792Y-107713205D01*
X138785745Y-107641501D01*
X138785740Y-107641499D01*
X138779803Y-107638856D01*
X138773444Y-107637504D01*
X138773440Y-107637503D01*
X138601008Y-107600852D01*
X138601005Y-107600851D01*
X138594646Y-107599500D01*
X138588143Y-107599500D01*
X138535453Y-107599500D01*
X138488000Y-107590061D01*
X138447772Y-107563181D01*
X137661819Y-106777228D01*
X137634939Y-106737000D01*
X137625500Y-106689547D01*
X137625500Y-106250000D01*
X147844540Y-106250000D01*
X147845219Y-106256460D01*
X147863646Y-106431795D01*
X147863647Y-106431803D01*
X147864326Y-106438256D01*
X147866331Y-106444428D01*
X147866333Y-106444435D01*
X147920813Y-106612105D01*
X147922821Y-106618284D01*
X147926068Y-106623908D01*
X147926069Y-106623910D01*
X147991361Y-106737000D01*
X148017467Y-106782216D01*
X148021811Y-106787041D01*
X148021813Y-106787043D01*
X148080669Y-106852409D01*
X148144129Y-106922888D01*
X148149387Y-106926708D01*
X148149388Y-106926709D01*
X148168600Y-106940667D01*
X148297270Y-107034151D01*
X148470197Y-107111144D01*
X148655354Y-107150500D01*
X148838143Y-107150500D01*
X148844646Y-107150500D01*
X149029803Y-107111144D01*
X149202730Y-107034151D01*
X149355871Y-106922888D01*
X149482533Y-106782216D01*
X149577179Y-106618284D01*
X149635674Y-106438256D01*
X149653321Y-106270344D01*
X149664721Y-106229925D01*
X149688958Y-106195630D01*
X153158284Y-102726305D01*
X166820845Y-102726305D01*
X166821524Y-102732765D01*
X166839951Y-102908100D01*
X166839952Y-102908108D01*
X166840631Y-102914561D01*
X166842636Y-102920733D01*
X166842638Y-102920740D01*
X166897118Y-103088410D01*
X166899126Y-103094589D01*
X166902373Y-103100213D01*
X166902374Y-103100215D01*
X166985122Y-103243540D01*
X166993772Y-103258521D01*
X166998116Y-103263346D01*
X166998118Y-103263348D01*
X167116084Y-103394362D01*
X167120434Y-103399193D01*
X167125692Y-103403013D01*
X167125693Y-103403014D01*
X167185227Y-103446268D01*
X167273575Y-103510456D01*
X167446502Y-103587449D01*
X167631659Y-103626805D01*
X167690853Y-103626805D01*
X167738306Y-103636244D01*
X167778534Y-103663124D01*
X167974244Y-103858835D01*
X168003085Y-103904106D01*
X168010091Y-103957323D01*
X167993950Y-104008516D01*
X167926069Y-104126089D01*
X167926066Y-104126094D01*
X167922821Y-104131716D01*
X167920815Y-104137888D01*
X167920813Y-104137894D01*
X167866333Y-104305564D01*
X167866331Y-104305573D01*
X167864326Y-104311744D01*
X167863648Y-104318194D01*
X167863646Y-104318204D01*
X167858589Y-104366326D01*
X167844540Y-104500000D01*
X167845219Y-104506460D01*
X167863646Y-104681795D01*
X167863647Y-104681803D01*
X167864326Y-104688256D01*
X167866331Y-104694428D01*
X167866333Y-104694435D01*
X167920813Y-104862105D01*
X167922821Y-104868284D01*
X168017467Y-105032216D01*
X168021811Y-105037041D01*
X168021813Y-105037043D01*
X168134673Y-105162386D01*
X168144129Y-105172888D01*
X168149387Y-105176708D01*
X168149388Y-105176709D01*
X168220699Y-105228519D01*
X168297270Y-105284151D01*
X168470197Y-105361144D01*
X168655354Y-105400500D01*
X168838143Y-105400500D01*
X168844646Y-105400500D01*
X169029803Y-105361144D01*
X169202730Y-105284151D01*
X169355871Y-105172888D01*
X169482533Y-105032216D01*
X169577179Y-104868284D01*
X169635674Y-104688256D01*
X169655460Y-104500000D01*
X169635674Y-104311744D01*
X169577179Y-104131716D01*
X169482533Y-103967784D01*
X169409403Y-103886565D01*
X169386501Y-103849843D01*
X169377614Y-103807487D01*
X169375561Y-103742144D01*
X169375500Y-103738250D01*
X169375500Y-103714545D01*
X169375500Y-103710650D01*
X169374998Y-103706681D01*
X169374080Y-103695024D01*
X169372954Y-103659172D01*
X169372709Y-103651372D01*
X169367120Y-103632139D01*
X169363174Y-103613082D01*
X169361641Y-103600946D01*
X169360664Y-103593208D01*
X169344581Y-103552587D01*
X169340799Y-103541540D01*
X169330793Y-103507101D01*
X169328617Y-103499610D01*
X169324644Y-103492892D01*
X169318422Y-103482370D01*
X169309860Y-103464892D01*
X169305360Y-103453527D01*
X169305359Y-103453526D01*
X169302486Y-103446268D01*
X169276812Y-103410931D01*
X169270409Y-103401184D01*
X169248170Y-103363579D01*
X169234006Y-103349415D01*
X169221368Y-103334618D01*
X169214184Y-103324729D01*
X169214178Y-103324723D01*
X169209594Y-103318413D01*
X169175946Y-103290577D01*
X169167305Y-103282714D01*
X168665266Y-102780675D01*
X168641026Y-102746377D01*
X168629626Y-102705955D01*
X168626151Y-102672896D01*
X168615012Y-102566908D01*
X168612658Y-102544509D01*
X168612657Y-102544508D01*
X168611979Y-102538049D01*
X168553484Y-102358021D01*
X168458838Y-102194089D01*
X168447768Y-102181795D01*
X168336525Y-102058247D01*
X168336524Y-102058246D01*
X168332176Y-102053417D01*
X168326918Y-102049597D01*
X168326916Y-102049595D01*
X168184293Y-101945974D01*
X168184292Y-101945973D01*
X168179035Y-101942154D01*
X168173097Y-101939510D01*
X168012050Y-101867806D01*
X168012045Y-101867804D01*
X168006108Y-101865161D01*
X167999749Y-101863809D01*
X167999745Y-101863808D01*
X167827313Y-101827157D01*
X167827310Y-101827156D01*
X167820951Y-101825805D01*
X167631659Y-101825805D01*
X167625300Y-101827156D01*
X167625296Y-101827157D01*
X167452864Y-101863808D01*
X167452857Y-101863810D01*
X167446502Y-101865161D01*
X167440567Y-101867803D01*
X167440559Y-101867806D01*
X167279512Y-101939510D01*
X167279507Y-101939512D01*
X167273575Y-101942154D01*
X167268321Y-101945970D01*
X167268316Y-101945974D01*
X167125693Y-102049595D01*
X167125686Y-102049600D01*
X167120434Y-102053417D01*
X167116089Y-102058242D01*
X167116084Y-102058247D01*
X166998118Y-102189261D01*
X166998113Y-102189267D01*
X166993772Y-102194089D01*
X166990527Y-102199709D01*
X166990523Y-102199715D01*
X166902374Y-102352394D01*
X166902371Y-102352399D01*
X166899126Y-102358021D01*
X166897120Y-102364193D01*
X166897118Y-102364199D01*
X166842638Y-102531869D01*
X166842636Y-102531878D01*
X166840631Y-102538049D01*
X166839953Y-102544499D01*
X166839951Y-102544509D01*
X166825810Y-102679064D01*
X166820845Y-102726305D01*
X153158284Y-102726305D01*
X154137311Y-101747278D01*
X154145481Y-101739844D01*
X154151877Y-101735786D01*
X154197918Y-101686756D01*
X154200535Y-101684054D01*
X154220120Y-101664471D01*
X154222585Y-101661292D01*
X154230167Y-101652416D01*
X154260062Y-101620582D01*
X154269713Y-101603023D01*
X154280390Y-101586770D01*
X154292673Y-101570936D01*
X154310026Y-101530832D01*
X154315158Y-101520361D01*
X154332435Y-101488935D01*
X154332435Y-101488934D01*
X154336197Y-101482092D01*
X154341177Y-101462691D01*
X154347481Y-101444281D01*
X154355438Y-101425896D01*
X154362272Y-101382741D01*
X154364638Y-101371321D01*
X154373560Y-101336574D01*
X154375500Y-101329019D01*
X154375500Y-101308983D01*
X154377025Y-101289597D01*
X154380160Y-101269804D01*
X154376050Y-101226324D01*
X154375500Y-101214655D01*
X154375500Y-100948687D01*
X154383736Y-100904249D01*
X154407350Y-100865715D01*
X154411680Y-100860906D01*
X154482533Y-100782216D01*
X154577179Y-100618284D01*
X154635674Y-100438256D01*
X154655460Y-100250000D01*
X154635674Y-100061744D01*
X154577179Y-99881716D01*
X154482533Y-99717784D01*
X154463724Y-99696895D01*
X154360220Y-99581942D01*
X154360219Y-99581941D01*
X154355871Y-99577112D01*
X154350613Y-99573292D01*
X154350611Y-99573290D01*
X154207988Y-99469669D01*
X154207987Y-99469668D01*
X154202730Y-99465849D01*
X154196792Y-99463205D01*
X154035745Y-99391501D01*
X154035740Y-99391499D01*
X154029803Y-99388856D01*
X154023444Y-99387504D01*
X154023440Y-99387503D01*
X153851008Y-99350852D01*
X153851005Y-99350851D01*
X153844646Y-99349500D01*
X153655354Y-99349500D01*
X153648995Y-99350851D01*
X153648991Y-99350852D01*
X153476559Y-99387503D01*
X153476552Y-99387505D01*
X153470197Y-99388856D01*
X153464262Y-99391498D01*
X153464254Y-99391501D01*
X153303207Y-99463205D01*
X153303202Y-99463207D01*
X153297270Y-99465849D01*
X153292016Y-99469665D01*
X153292011Y-99469669D01*
X153149388Y-99573290D01*
X153149381Y-99573295D01*
X153144129Y-99577112D01*
X153139784Y-99581937D01*
X153139779Y-99581942D01*
X153021813Y-99712956D01*
X153021808Y-99712962D01*
X153017467Y-99717784D01*
X153014222Y-99723404D01*
X153014218Y-99723410D01*
X152926069Y-99876089D01*
X152926066Y-99876094D01*
X152922821Y-99881716D01*
X152920815Y-99887888D01*
X152920813Y-99887894D01*
X152866333Y-100055564D01*
X152866331Y-100055573D01*
X152864326Y-100061744D01*
X152863648Y-100068194D01*
X152863646Y-100068204D01*
X152847786Y-100219119D01*
X152844540Y-100250000D01*
X152845219Y-100256460D01*
X152863646Y-100431795D01*
X152863647Y-100431803D01*
X152864326Y-100438256D01*
X152866331Y-100444428D01*
X152866333Y-100444435D01*
X152920813Y-100612105D01*
X152922821Y-100618284D01*
X153017467Y-100782216D01*
X153021813Y-100787043D01*
X153021814Y-100787044D01*
X153088319Y-100860906D01*
X153116991Y-100915985D01*
X153115365Y-100978057D01*
X153083850Y-101031559D01*
X148802228Y-105313181D01*
X148762000Y-105340061D01*
X148714547Y-105349500D01*
X148655354Y-105349500D01*
X148648995Y-105350851D01*
X148648991Y-105350852D01*
X148476559Y-105387503D01*
X148476552Y-105387505D01*
X148470197Y-105388856D01*
X148464262Y-105391498D01*
X148464254Y-105391501D01*
X148303207Y-105463205D01*
X148303202Y-105463207D01*
X148297270Y-105465849D01*
X148292016Y-105469665D01*
X148292011Y-105469669D01*
X148149388Y-105573290D01*
X148149381Y-105573295D01*
X148144129Y-105577112D01*
X148139784Y-105581937D01*
X148139779Y-105581942D01*
X148021813Y-105712956D01*
X148021808Y-105712962D01*
X148017467Y-105717784D01*
X148014222Y-105723404D01*
X148014218Y-105723410D01*
X147926069Y-105876089D01*
X147926066Y-105876094D01*
X147922821Y-105881716D01*
X147920815Y-105887888D01*
X147920813Y-105887894D01*
X147866333Y-106055564D01*
X147866331Y-106055573D01*
X147864326Y-106061744D01*
X147863648Y-106068194D01*
X147863646Y-106068204D01*
X147846650Y-106229925D01*
X147844540Y-106250000D01*
X137625500Y-106250000D01*
X137625500Y-103948687D01*
X137633736Y-103904249D01*
X137657350Y-103865715D01*
X137671641Y-103849843D01*
X137732533Y-103782216D01*
X137827179Y-103618284D01*
X137885674Y-103438256D01*
X137905460Y-103250000D01*
X137885674Y-103061744D01*
X137827179Y-102881716D01*
X137732533Y-102717784D01*
X137708390Y-102690971D01*
X137610220Y-102581942D01*
X137610219Y-102581941D01*
X137605871Y-102577112D01*
X137600613Y-102573292D01*
X137600611Y-102573290D01*
X137457988Y-102469669D01*
X137457987Y-102469668D01*
X137452730Y-102465849D01*
X137446792Y-102463205D01*
X137285745Y-102391501D01*
X137285740Y-102391499D01*
X137279803Y-102388856D01*
X137273444Y-102387504D01*
X137273440Y-102387503D01*
X137101008Y-102350852D01*
X137101005Y-102350851D01*
X137094646Y-102349500D01*
X136905354Y-102349500D01*
X136898995Y-102350851D01*
X136898991Y-102350852D01*
X136726559Y-102387503D01*
X136726552Y-102387505D01*
X136720197Y-102388856D01*
X136714262Y-102391498D01*
X136714254Y-102391501D01*
X136553207Y-102463205D01*
X136553202Y-102463207D01*
X136547270Y-102465849D01*
X136542016Y-102469665D01*
X136542011Y-102469669D01*
X136399388Y-102573290D01*
X136399381Y-102573295D01*
X136394129Y-102577112D01*
X136389784Y-102581937D01*
X136389779Y-102581942D01*
X136271813Y-102712956D01*
X136271808Y-102712962D01*
X136267467Y-102717784D01*
X136264222Y-102723404D01*
X136264218Y-102723410D01*
X136176069Y-102876089D01*
X136176066Y-102876094D01*
X136172821Y-102881716D01*
X136170815Y-102887888D01*
X136170813Y-102887894D01*
X136116333Y-103055564D01*
X136116331Y-103055573D01*
X136114326Y-103061744D01*
X136113648Y-103068194D01*
X136113646Y-103068204D01*
X136101029Y-103188256D01*
X136094540Y-103250000D01*
X125375500Y-103250000D01*
X125375500Y-103070849D01*
X125377696Y-103047614D01*
X125377766Y-103047246D01*
X125379227Y-103039588D01*
X125375745Y-102984241D01*
X125375500Y-102976455D01*
X125375500Y-99310452D01*
X125384939Y-99262999D01*
X125411819Y-99222771D01*
X125740382Y-98894208D01*
X126887306Y-97747282D01*
X126895482Y-97739843D01*
X126901877Y-97735786D01*
X126947933Y-97686740D01*
X126950550Y-97684038D01*
X126970120Y-97664470D01*
X126972565Y-97661316D01*
X126980155Y-97652428D01*
X127010062Y-97620582D01*
X127014681Y-97612181D01*
X127019710Y-97603032D01*
X127030393Y-97586766D01*
X127042674Y-97570936D01*
X127060018Y-97530851D01*
X127065160Y-97520356D01*
X127073546Y-97505102D01*
X127086197Y-97482092D01*
X127091179Y-97462689D01*
X127097480Y-97444283D01*
X127105438Y-97425895D01*
X127112269Y-97382756D01*
X127114639Y-97371315D01*
X127123560Y-97336574D01*
X127123559Y-97336574D01*
X127125500Y-97329019D01*
X127125500Y-97308983D01*
X127127025Y-97289597D01*
X127130160Y-97269804D01*
X127126050Y-97226324D01*
X127125500Y-97214655D01*
X127125500Y-93327772D01*
X127126020Y-93316719D01*
X127127672Y-93309333D01*
X127125561Y-93242145D01*
X127125500Y-93238251D01*
X127125500Y-93214545D01*
X127125500Y-93210650D01*
X127124998Y-93206681D01*
X127124080Y-93195024D01*
X127122954Y-93159173D01*
X127122709Y-93151373D01*
X127117120Y-93132140D01*
X127113174Y-93113083D01*
X127111641Y-93100944D01*
X127110664Y-93093208D01*
X127094582Y-93052591D01*
X127090803Y-93041551D01*
X127080795Y-93007102D01*
X127080793Y-93007099D01*
X127078618Y-92999610D01*
X127074647Y-92992896D01*
X127074645Y-92992891D01*
X127068421Y-92982368D01*
X127059858Y-92964890D01*
X127052486Y-92946268D01*
X127047902Y-92939959D01*
X127047899Y-92939953D01*
X127026817Y-92910937D01*
X127020401Y-92901170D01*
X127002143Y-92870296D01*
X127002140Y-92870292D01*
X126998170Y-92863579D01*
X126984006Y-92849415D01*
X126971368Y-92834618D01*
X126964184Y-92824729D01*
X126964178Y-92824723D01*
X126959594Y-92818413D01*
X126925946Y-92790577D01*
X126917305Y-92782714D01*
X125438961Y-91304370D01*
X125414721Y-91270072D01*
X125403321Y-91229650D01*
X125386353Y-91068204D01*
X125386352Y-91068203D01*
X125385674Y-91061744D01*
X125327179Y-90881716D01*
X125232533Y-90717784D01*
X125105871Y-90577112D01*
X125100613Y-90573292D01*
X125100611Y-90573290D01*
X124957988Y-90469669D01*
X124957987Y-90469668D01*
X124952730Y-90465849D01*
X124946792Y-90463205D01*
X124785745Y-90391501D01*
X124785740Y-90391499D01*
X124779803Y-90388856D01*
X124773444Y-90387504D01*
X124773440Y-90387503D01*
X124601008Y-90350852D01*
X124601005Y-90350851D01*
X124594646Y-90349500D01*
X124588143Y-90349500D01*
X124535452Y-90349500D01*
X124487999Y-90340061D01*
X124447771Y-90313181D01*
X123997286Y-89862695D01*
X123989842Y-89854514D01*
X123985786Y-89848123D01*
X123936775Y-89802098D01*
X123933978Y-89799387D01*
X123917227Y-89782636D01*
X123914471Y-89779880D01*
X123911290Y-89777412D01*
X123902414Y-89769830D01*
X123876269Y-89745278D01*
X123876267Y-89745276D01*
X123870582Y-89739938D01*
X123863749Y-89736182D01*
X123863743Y-89736177D01*
X123853025Y-89730285D01*
X123836766Y-89719606D01*
X123827095Y-89712104D01*
X123827092Y-89712102D01*
X123820936Y-89707327D01*
X123813779Y-89704229D01*
X123813776Y-89704228D01*
X123780849Y-89689978D01*
X123770363Y-89684841D01*
X123738932Y-89667562D01*
X123738923Y-89667558D01*
X123732092Y-89663803D01*
X123724535Y-89661862D01*
X123724531Y-89661861D01*
X123712688Y-89658820D01*
X123694284Y-89652519D01*
X123683057Y-89647660D01*
X123683050Y-89647658D01*
X123675896Y-89644562D01*
X123668192Y-89643341D01*
X123668190Y-89643341D01*
X123632759Y-89637729D01*
X123621324Y-89635361D01*
X123586571Y-89626438D01*
X123586563Y-89626437D01*
X123579019Y-89624500D01*
X123571223Y-89624500D01*
X123558983Y-89624500D01*
X123539597Y-89622974D01*
X123519804Y-89619840D01*
X123512038Y-89620574D01*
X123512035Y-89620574D01*
X123476324Y-89623950D01*
X123464655Y-89624500D01*
X122674500Y-89624500D01*
X122612500Y-89607887D01*
X122567113Y-89562500D01*
X122550500Y-89500500D01*
X122550500Y-88649251D01*
X122550500Y-88646806D01*
X122547598Y-88609931D01*
X122501744Y-88452102D01*
X122460363Y-88382130D01*
X122419256Y-88312621D01*
X122401992Y-88250473D01*
X122418278Y-88188063D01*
X122463707Y-88142275D01*
X122525988Y-88125500D01*
X140250500Y-88125500D01*
X140312500Y-88142113D01*
X140357887Y-88187500D01*
X140374500Y-88249500D01*
X140374500Y-97672225D01*
X140373978Y-97683280D01*
X140372327Y-97690667D01*
X140372571Y-97698453D01*
X140372571Y-97698461D01*
X140374439Y-97757873D01*
X140374500Y-97761768D01*
X140374500Y-97789350D01*
X140374988Y-97793219D01*
X140374989Y-97793225D01*
X140375004Y-97793343D01*
X140375918Y-97804966D01*
X140377045Y-97840830D01*
X140377046Y-97840837D01*
X140377291Y-97848627D01*
X140379467Y-97856119D01*
X140379468Y-97856121D01*
X140382879Y-97867862D01*
X140386825Y-97886915D01*
X140389336Y-97906792D01*
X140392206Y-97914042D01*
X140392208Y-97914048D01*
X140405414Y-97947404D01*
X140409197Y-97958451D01*
X140421382Y-98000390D01*
X140425353Y-98007105D01*
X140425354Y-98007107D01*
X140431581Y-98017637D01*
X140440136Y-98035099D01*
X140444642Y-98046480D01*
X140444643Y-98046483D01*
X140447514Y-98053732D01*
X140466385Y-98079706D01*
X140473181Y-98089060D01*
X140479593Y-98098822D01*
X140497856Y-98129702D01*
X140497859Y-98129707D01*
X140501830Y-98136420D01*
X140507345Y-98141935D01*
X140515990Y-98150580D01*
X140528626Y-98165374D01*
X140535819Y-98175275D01*
X140535823Y-98175279D01*
X140540406Y-98181587D01*
X140546415Y-98186558D01*
X140546416Y-98186559D01*
X140574058Y-98209426D01*
X140582699Y-98217289D01*
X144311038Y-101945628D01*
X144335278Y-101979926D01*
X144346678Y-102020347D01*
X144357938Y-102127479D01*
X144364326Y-102188256D01*
X144366331Y-102194428D01*
X144366333Y-102194435D01*
X144417157Y-102350852D01*
X144422821Y-102368284D01*
X144426068Y-102373908D01*
X144426069Y-102373910D01*
X144513582Y-102525488D01*
X144517467Y-102532216D01*
X144521811Y-102537041D01*
X144521813Y-102537043D01*
X144613120Y-102638449D01*
X144644129Y-102672888D01*
X144649387Y-102676708D01*
X144649388Y-102676709D01*
X144669018Y-102690971D01*
X144797270Y-102784151D01*
X144970197Y-102861144D01*
X145155354Y-102900500D01*
X145338143Y-102900500D01*
X145344646Y-102900500D01*
X145529803Y-102861144D01*
X145702730Y-102784151D01*
X145855871Y-102672888D01*
X145982533Y-102532216D01*
X146077179Y-102368284D01*
X146135674Y-102188256D01*
X146155460Y-102000000D01*
X146135674Y-101811744D01*
X146077179Y-101631716D01*
X145982533Y-101467784D01*
X145969437Y-101453240D01*
X145860220Y-101331942D01*
X145860219Y-101331941D01*
X145855871Y-101327112D01*
X145850613Y-101323292D01*
X145850611Y-101323290D01*
X145707988Y-101219669D01*
X145707987Y-101219668D01*
X145702730Y-101215849D01*
X145696792Y-101213205D01*
X145535745Y-101141501D01*
X145535740Y-101141499D01*
X145529803Y-101138856D01*
X145523444Y-101137504D01*
X145523440Y-101137503D01*
X145351008Y-101100852D01*
X145351005Y-101100851D01*
X145344646Y-101099500D01*
X145338143Y-101099500D01*
X145285452Y-101099500D01*
X145237999Y-101090061D01*
X145197771Y-101063181D01*
X141661819Y-97527228D01*
X141634939Y-97487000D01*
X141625500Y-97439547D01*
X141625500Y-96250000D01*
X145344540Y-96250000D01*
X145345219Y-96256460D01*
X145363646Y-96431795D01*
X145363647Y-96431803D01*
X145364326Y-96438256D01*
X145366331Y-96444428D01*
X145366333Y-96444435D01*
X145417143Y-96600809D01*
X145422821Y-96618284D01*
X145426068Y-96623908D01*
X145426069Y-96623910D01*
X145499057Y-96750330D01*
X145517467Y-96782216D01*
X145521811Y-96787041D01*
X145521813Y-96787043D01*
X145639779Y-96918057D01*
X145644129Y-96922888D01*
X145797270Y-97034151D01*
X145970197Y-97111144D01*
X146155354Y-97150500D01*
X146214548Y-97150500D01*
X146262001Y-97159939D01*
X146302229Y-97186819D01*
X147115054Y-97999644D01*
X147122503Y-98007830D01*
X147126561Y-98014224D01*
X147132246Y-98019562D01*
X147132248Y-98019565D01*
X147175586Y-98060262D01*
X147178383Y-98062973D01*
X147197877Y-98082467D01*
X147200962Y-98084860D01*
X147201048Y-98084927D01*
X147209920Y-98092505D01*
X147223227Y-98105001D01*
X147241765Y-98122409D01*
X147248595Y-98126164D01*
X147248598Y-98126166D01*
X147259318Y-98132059D01*
X147275569Y-98142733D01*
X147291411Y-98155021D01*
X147298568Y-98158118D01*
X147298570Y-98158119D01*
X147331502Y-98172369D01*
X147341997Y-98177511D01*
X147380255Y-98198544D01*
X147399659Y-98203526D01*
X147418061Y-98209827D01*
X147429288Y-98214685D01*
X147436452Y-98217785D01*
X147474044Y-98223738D01*
X147479586Y-98224616D01*
X147491029Y-98226986D01*
X147525772Y-98235907D01*
X147525773Y-98235907D01*
X147533328Y-98237847D01*
X147553364Y-98237847D01*
X147572749Y-98239372D01*
X147592543Y-98242507D01*
X147630623Y-98238907D01*
X147636023Y-98238397D01*
X147647692Y-98237847D01*
X151920981Y-98237847D01*
X151929151Y-98237847D01*
X151952386Y-98240043D01*
X151960412Y-98241574D01*
X152015758Y-98238092D01*
X152023545Y-98237847D01*
X152039350Y-98237847D01*
X161672225Y-98237847D01*
X161683280Y-98238368D01*
X161690667Y-98240020D01*
X161757872Y-98237908D01*
X161761768Y-98237847D01*
X161785448Y-98237847D01*
X161789350Y-98237847D01*
X161793313Y-98237346D01*
X161804963Y-98236427D01*
X161848627Y-98235056D01*
X161867861Y-98229466D01*
X161886917Y-98225521D01*
X161906792Y-98223011D01*
X161947395Y-98206934D01*
X161958450Y-98203149D01*
X162000390Y-98190965D01*
X162017629Y-98180769D01*
X162035103Y-98172209D01*
X162046474Y-98167707D01*
X162046476Y-98167705D01*
X162053732Y-98164833D01*
X162089069Y-98139158D01*
X162098824Y-98132750D01*
X162136420Y-98110517D01*
X162150584Y-98096352D01*
X162165379Y-98083715D01*
X162181587Y-98071941D01*
X162209428Y-98038285D01*
X162217279Y-98029656D01*
X162560838Y-97686098D01*
X162607128Y-97656892D01*
X162655354Y-97651186D01*
X162655354Y-97650500D01*
X162661156Y-97650500D01*
X162838143Y-97650500D01*
X162844646Y-97650500D01*
X163029803Y-97611144D01*
X163202730Y-97534151D01*
X163355871Y-97422888D01*
X163482533Y-97282216D01*
X163577179Y-97118284D01*
X163635674Y-96938256D01*
X163655460Y-96750000D01*
X163635674Y-96561744D01*
X163577179Y-96381716D01*
X163482533Y-96217784D01*
X163476109Y-96210650D01*
X163360220Y-96081942D01*
X163360219Y-96081941D01*
X163355871Y-96077112D01*
X163350613Y-96073292D01*
X163350611Y-96073290D01*
X163207988Y-95969669D01*
X163207987Y-95969668D01*
X163202730Y-95965849D01*
X163172023Y-95952177D01*
X163035745Y-95891501D01*
X163035740Y-95891499D01*
X163029803Y-95888856D01*
X163023444Y-95887504D01*
X163023440Y-95887503D01*
X162851008Y-95850852D01*
X162851005Y-95850851D01*
X162844646Y-95849500D01*
X162655354Y-95849500D01*
X162648995Y-95850851D01*
X162648991Y-95850852D01*
X162476559Y-95887503D01*
X162476552Y-95887505D01*
X162470197Y-95888856D01*
X162464262Y-95891498D01*
X162464254Y-95891501D01*
X162303207Y-95963205D01*
X162303202Y-95963207D01*
X162297270Y-95965849D01*
X162292016Y-95969665D01*
X162292011Y-95969669D01*
X162149388Y-96073290D01*
X162149381Y-96073295D01*
X162144129Y-96077112D01*
X162139784Y-96081937D01*
X162139779Y-96081942D01*
X162021813Y-96212956D01*
X162021808Y-96212962D01*
X162017467Y-96217784D01*
X162014222Y-96223404D01*
X162014218Y-96223410D01*
X161926069Y-96376089D01*
X161926066Y-96376094D01*
X161922821Y-96381716D01*
X161920815Y-96387888D01*
X161920813Y-96387894D01*
X161866334Y-96555561D01*
X161866332Y-96555569D01*
X161864326Y-96561744D01*
X161863647Y-96568196D01*
X161863644Y-96568214D01*
X161862844Y-96575833D01*
X161851444Y-96616253D01*
X161827205Y-96650549D01*
X161527225Y-96950530D01*
X161487000Y-96977408D01*
X161439547Y-96986847D01*
X154326384Y-96986847D01*
X154261594Y-96968575D01*
X154215899Y-96919142D01*
X154202766Y-96853119D01*
X154226065Y-96789962D01*
X154228181Y-96787049D01*
X154232533Y-96782216D01*
X154327179Y-96618284D01*
X154385674Y-96438256D01*
X154405460Y-96250000D01*
X154385674Y-96061744D01*
X154327179Y-95881716D01*
X154232533Y-95717784D01*
X154222584Y-95706735D01*
X154157350Y-95634285D01*
X154133736Y-95595751D01*
X154125500Y-95551313D01*
X154125500Y-94948687D01*
X154133736Y-94904249D01*
X154157350Y-94865715D01*
X154168770Y-94853032D01*
X154232533Y-94782216D01*
X154327179Y-94618284D01*
X154385674Y-94438256D01*
X154405460Y-94250000D01*
X154385674Y-94061744D01*
X154327179Y-93881716D01*
X154232533Y-93717784D01*
X154105871Y-93577112D01*
X154100613Y-93573292D01*
X154100611Y-93573290D01*
X153957988Y-93469669D01*
X153957987Y-93469668D01*
X153952730Y-93465849D01*
X153897730Y-93441361D01*
X153785745Y-93391501D01*
X153785740Y-93391499D01*
X153779803Y-93388856D01*
X153773444Y-93387504D01*
X153773440Y-93387503D01*
X153601008Y-93350852D01*
X153601005Y-93350851D01*
X153594646Y-93349500D01*
X153405354Y-93349500D01*
X153398995Y-93350851D01*
X153398991Y-93350852D01*
X153226559Y-93387503D01*
X153226552Y-93387505D01*
X153220197Y-93388856D01*
X153214262Y-93391498D01*
X153214254Y-93391501D01*
X153053207Y-93463205D01*
X153053202Y-93463207D01*
X153047270Y-93465849D01*
X153042016Y-93469665D01*
X153042011Y-93469669D01*
X152899388Y-93573290D01*
X152899381Y-93573295D01*
X152894129Y-93577112D01*
X152889784Y-93581937D01*
X152889779Y-93581942D01*
X152841650Y-93635396D01*
X152792723Y-93668647D01*
X152733959Y-93675446D01*
X152678732Y-93654247D01*
X152639611Y-93609873D01*
X152625500Y-93552424D01*
X152625500Y-93341150D01*
X152631569Y-93302832D01*
X152651918Y-93240204D01*
X152660674Y-93213256D01*
X152680460Y-93025000D01*
X152663494Y-92863579D01*
X152661353Y-92843204D01*
X152661352Y-92843203D01*
X152660674Y-92836744D01*
X152602179Y-92656716D01*
X152507533Y-92492784D01*
X152501861Y-92486485D01*
X152385220Y-92356942D01*
X152385219Y-92356941D01*
X152380871Y-92352112D01*
X152375613Y-92348292D01*
X152375611Y-92348290D01*
X152232988Y-92244669D01*
X152232987Y-92244668D01*
X152227730Y-92240849D01*
X152221792Y-92238205D01*
X152060745Y-92166501D01*
X152060740Y-92166499D01*
X152054803Y-92163856D01*
X152048444Y-92162504D01*
X152048440Y-92162503D01*
X151876008Y-92125852D01*
X151876005Y-92125851D01*
X151869646Y-92124500D01*
X151680354Y-92124500D01*
X151673995Y-92125851D01*
X151673991Y-92125852D01*
X151501559Y-92162503D01*
X151501552Y-92162505D01*
X151495197Y-92163856D01*
X151489262Y-92166498D01*
X151489254Y-92166501D01*
X151328207Y-92238205D01*
X151328202Y-92238207D01*
X151322270Y-92240849D01*
X151317016Y-92244665D01*
X151317011Y-92244669D01*
X151174388Y-92348290D01*
X151174381Y-92348295D01*
X151169129Y-92352112D01*
X151164784Y-92356937D01*
X151164779Y-92356942D01*
X151046813Y-92487956D01*
X151046808Y-92487962D01*
X151042467Y-92492784D01*
X151039222Y-92498404D01*
X151039218Y-92498410D01*
X150951069Y-92651089D01*
X150951066Y-92651094D01*
X150947821Y-92656716D01*
X150945815Y-92662888D01*
X150945813Y-92662894D01*
X150891333Y-92830564D01*
X150891331Y-92830573D01*
X150889326Y-92836744D01*
X150888648Y-92843194D01*
X150888646Y-92843204D01*
X150872081Y-93000819D01*
X150869540Y-93025000D01*
X150870219Y-93031460D01*
X150888646Y-93206795D01*
X150888647Y-93206803D01*
X150889326Y-93213256D01*
X150891331Y-93219428D01*
X150891333Y-93219435D01*
X150943549Y-93380137D01*
X150947821Y-93393284D01*
X150951068Y-93398908D01*
X150951069Y-93398910D01*
X151026110Y-93528886D01*
X151042467Y-93557216D01*
X151046811Y-93562041D01*
X151046813Y-93562043D01*
X151112861Y-93635396D01*
X151169129Y-93697888D01*
X151174387Y-93701708D01*
X151174388Y-93701709D01*
X151322270Y-93809151D01*
X151320864Y-93811085D01*
X151357892Y-93848122D01*
X151374500Y-93910113D01*
X151374500Y-96862847D01*
X151357887Y-96924847D01*
X151312500Y-96970234D01*
X151250500Y-96986847D01*
X147922799Y-96986847D01*
X147875346Y-96977408D01*
X147835118Y-96950528D01*
X147188961Y-96304370D01*
X147164721Y-96270072D01*
X147153321Y-96229650D01*
X147152734Y-96224068D01*
X147135674Y-96061744D01*
X147077179Y-95881716D01*
X146982533Y-95717784D01*
X146972584Y-95706735D01*
X146860220Y-95581942D01*
X146860219Y-95581941D01*
X146855871Y-95577112D01*
X146850613Y-95573292D01*
X146850611Y-95573290D01*
X146707988Y-95469669D01*
X146707987Y-95469668D01*
X146702730Y-95465849D01*
X146696792Y-95463205D01*
X146535745Y-95391501D01*
X146535740Y-95391499D01*
X146529803Y-95388856D01*
X146523444Y-95387504D01*
X146523440Y-95387503D01*
X146351008Y-95350852D01*
X146351005Y-95350851D01*
X146344646Y-95349500D01*
X146155354Y-95349500D01*
X146148995Y-95350851D01*
X146148991Y-95350852D01*
X145976559Y-95387503D01*
X145976552Y-95387505D01*
X145970197Y-95388856D01*
X145964262Y-95391498D01*
X145964254Y-95391501D01*
X145803207Y-95463205D01*
X145803202Y-95463207D01*
X145797270Y-95465849D01*
X145792016Y-95469665D01*
X145792011Y-95469669D01*
X145649388Y-95573290D01*
X145649381Y-95573295D01*
X145644129Y-95577112D01*
X145639784Y-95581937D01*
X145639779Y-95581942D01*
X145521813Y-95712956D01*
X145521808Y-95712962D01*
X145517467Y-95717784D01*
X145514222Y-95723404D01*
X145514218Y-95723410D01*
X145426069Y-95876089D01*
X145426066Y-95876094D01*
X145422821Y-95881716D01*
X145420815Y-95887888D01*
X145420813Y-95887894D01*
X145366333Y-96055564D01*
X145366331Y-96055573D01*
X145364326Y-96061744D01*
X145363648Y-96068194D01*
X145363646Y-96068204D01*
X145347335Y-96223410D01*
X145344540Y-96250000D01*
X141625500Y-96250000D01*
X141625500Y-88249500D01*
X141642113Y-88187500D01*
X141687500Y-88142113D01*
X141749500Y-88125500D01*
X171939548Y-88125500D01*
X171987001Y-88134939D01*
X172027229Y-88161819D01*
X172588181Y-88722771D01*
X172615061Y-88762999D01*
X172624500Y-88810452D01*
X172624500Y-94189548D01*
X172615061Y-94237001D01*
X172588181Y-94277229D01*
X172302228Y-94563181D01*
X172262000Y-94590061D01*
X172214547Y-94599500D01*
X172155354Y-94599500D01*
X172148995Y-94600851D01*
X172148991Y-94600852D01*
X171976559Y-94637503D01*
X171976552Y-94637505D01*
X171970197Y-94638856D01*
X171964262Y-94641498D01*
X171964254Y-94641501D01*
X171803207Y-94713205D01*
X171803202Y-94713207D01*
X171797270Y-94715849D01*
X171792016Y-94719665D01*
X171792011Y-94719669D01*
X171649388Y-94823290D01*
X171649381Y-94823295D01*
X171644129Y-94827112D01*
X171639784Y-94831937D01*
X171639779Y-94831942D01*
X171521813Y-94962956D01*
X171521808Y-94962962D01*
X171517467Y-94967784D01*
X171514222Y-94973404D01*
X171514218Y-94973410D01*
X171426069Y-95126089D01*
X171426066Y-95126094D01*
X171422821Y-95131716D01*
X171420815Y-95137888D01*
X171420813Y-95137894D01*
X171366333Y-95305564D01*
X171366331Y-95305573D01*
X171364326Y-95311744D01*
X171363648Y-95318194D01*
X171363646Y-95318204D01*
X171348407Y-95463205D01*
X171344540Y-95500000D01*
X171345219Y-95506460D01*
X171363646Y-95681795D01*
X171363647Y-95681803D01*
X171364326Y-95688256D01*
X171366331Y-95694428D01*
X171366333Y-95694435D01*
X171420813Y-95862105D01*
X171422821Y-95868284D01*
X171426068Y-95873908D01*
X171426069Y-95873910D01*
X171481355Y-95969669D01*
X171517467Y-96032216D01*
X171521811Y-96037041D01*
X171521813Y-96037043D01*
X171589360Y-96112061D01*
X171644129Y-96172888D01*
X171649387Y-96176708D01*
X171649388Y-96176709D01*
X171720699Y-96228519D01*
X171797270Y-96284151D01*
X171970197Y-96361144D01*
X172155354Y-96400500D01*
X172338143Y-96400500D01*
X172344646Y-96400500D01*
X172529803Y-96361144D01*
X172702730Y-96284151D01*
X172855871Y-96172888D01*
X172982533Y-96032216D01*
X173077179Y-95868284D01*
X173135674Y-95688256D01*
X173153321Y-95520344D01*
X173164721Y-95479925D01*
X173188958Y-95445630D01*
X173637306Y-94997282D01*
X173645482Y-94989843D01*
X173651877Y-94985786D01*
X173697933Y-94936740D01*
X173700550Y-94934038D01*
X173720120Y-94914470D01*
X173722565Y-94911316D01*
X173730155Y-94902428D01*
X173760062Y-94870582D01*
X173769709Y-94853032D01*
X173780393Y-94836766D01*
X173792674Y-94820936D01*
X173810018Y-94780851D01*
X173815160Y-94770356D01*
X173822800Y-94756460D01*
X173836197Y-94732092D01*
X173839387Y-94719669D01*
X173841179Y-94712689D01*
X173847480Y-94694283D01*
X173855438Y-94675895D01*
X173862269Y-94632756D01*
X173864639Y-94621315D01*
X173873560Y-94586574D01*
X173873559Y-94586574D01*
X173875500Y-94579019D01*
X173875500Y-94558983D01*
X173877025Y-94539597D01*
X173880160Y-94519804D01*
X173876050Y-94476324D01*
X173875500Y-94464655D01*
X173875500Y-88577775D01*
X173876021Y-88566719D01*
X173877673Y-88559333D01*
X173875561Y-88492113D01*
X173875500Y-88488219D01*
X173875500Y-88464542D01*
X173875500Y-88460650D01*
X173874998Y-88456683D01*
X173874081Y-88445026D01*
X173872710Y-88401373D01*
X173867118Y-88382128D01*
X173863174Y-88363083D01*
X173860664Y-88343208D01*
X173844579Y-88302583D01*
X173840806Y-88291562D01*
X173828618Y-88249610D01*
X173818417Y-88232360D01*
X173809863Y-88214901D01*
X173802486Y-88196268D01*
X173776808Y-88160925D01*
X173770401Y-88151171D01*
X173752142Y-88120296D01*
X173752141Y-88120294D01*
X173748170Y-88113580D01*
X173734005Y-88099415D01*
X173721370Y-88084622D01*
X173709594Y-88068413D01*
X173703583Y-88063440D01*
X173703581Y-88063438D01*
X173675941Y-88040573D01*
X173667300Y-88032710D01*
X172747286Y-87112695D01*
X172739842Y-87104514D01*
X172735786Y-87098123D01*
X172686775Y-87052098D01*
X172683978Y-87049387D01*
X172667227Y-87032636D01*
X172667226Y-87032635D01*
X172664471Y-87029880D01*
X172661290Y-87027412D01*
X172652414Y-87019830D01*
X172626269Y-86995278D01*
X172626267Y-86995276D01*
X172620582Y-86989938D01*
X172613749Y-86986182D01*
X172613743Y-86986177D01*
X172603025Y-86980285D01*
X172586766Y-86969606D01*
X172577095Y-86962104D01*
X172577092Y-86962102D01*
X172570936Y-86957327D01*
X172563779Y-86954229D01*
X172563776Y-86954228D01*
X172530849Y-86939978D01*
X172520363Y-86934841D01*
X172488932Y-86917562D01*
X172488923Y-86917558D01*
X172482092Y-86913803D01*
X172474535Y-86911862D01*
X172474531Y-86911861D01*
X172462688Y-86908820D01*
X172444284Y-86902519D01*
X172433057Y-86897660D01*
X172433050Y-86897658D01*
X172425896Y-86894562D01*
X172418192Y-86893341D01*
X172418190Y-86893341D01*
X172382759Y-86887729D01*
X172371324Y-86885361D01*
X172336571Y-86876438D01*
X172336563Y-86876437D01*
X172329019Y-86874500D01*
X172321223Y-86874500D01*
X172308983Y-86874500D01*
X172289597Y-86872974D01*
X172269804Y-86869840D01*
X172262038Y-86870574D01*
X172262035Y-86870574D01*
X172226324Y-86873950D01*
X172214655Y-86874500D01*
X141079019Y-86874500D01*
X141070849Y-86874500D01*
X141047614Y-86872304D01*
X141047246Y-86872233D01*
X141047239Y-86872232D01*
X141039588Y-86870773D01*
X141031809Y-86871262D01*
X141031804Y-86871262D01*
X140984241Y-86874255D01*
X140976455Y-86874500D01*
X120577775Y-86874500D01*
X120566720Y-86873978D01*
X120559333Y-86872327D01*
X120551539Y-86872571D01*
X120550071Y-86872433D01*
X120504507Y-86858982D01*
X120467346Y-86829386D01*
X120444041Y-86787988D01*
X120414346Y-86698374D01*
X120412003Y-86691303D01*
X120322968Y-86546956D01*
X120203044Y-86427032D01*
X120196894Y-86423238D01*
X120196892Y-86423237D01*
X120064845Y-86341789D01*
X120064843Y-86341788D01*
X120058697Y-86337997D01*
X120051842Y-86335725D01*
X120051841Y-86335725D01*
X119920508Y-86292206D01*
X119863601Y-86253095D01*
X119853817Y-86230231D01*
X119821442Y-86259745D01*
X119762778Y-86274500D01*
X119254805Y-86274500D01*
X119254785Y-86274500D01*
X119251656Y-86274501D01*
X119248524Y-86274820D01*
X119248522Y-86274821D01*
X119159027Y-86283962D01*
X119159017Y-86283963D01*
X119152292Y-86284651D01*
X119145870Y-86286778D01*
X119145865Y-86286780D01*
X118998158Y-86335725D01*
X118998154Y-86335726D01*
X118991303Y-86337997D01*
X118985159Y-86341786D01*
X118985154Y-86341789D01*
X118853104Y-86423239D01*
X118853099Y-86423242D01*
X118846956Y-86427032D01*
X118841855Y-86432132D01*
X118841841Y-86432144D01*
X118837317Y-86436668D01*
X118781730Y-86468755D01*
X118717547Y-86468752D01*
X118661964Y-86436659D01*
X118657842Y-86432537D01*
X118646580Y-86423632D01*
X118514633Y-86342246D01*
X118501625Y-86336180D01*
X118354030Y-86287272D01*
X118340874Y-86284456D01*
X118251444Y-86275319D01*
X118245168Y-86275000D01*
X118241326Y-86275000D01*
X118228450Y-86278450D01*
X118225000Y-86291326D01*
X118225000Y-87968674D01*
X118232144Y-87995338D01*
X118240561Y-88007934D01*
X118250000Y-88055387D01*
X118250000Y-89101000D01*
X118233387Y-89163000D01*
X118188000Y-89208387D01*
X118126000Y-89225000D01*
X117041327Y-89225000D01*
X117028451Y-89228450D01*
X117025001Y-89241326D01*
X117025001Y-89245165D01*
X117025321Y-89251447D01*
X117034455Y-89340867D01*
X117037274Y-89354036D01*
X117086180Y-89501625D01*
X117092246Y-89514633D01*
X117173632Y-89646580D01*
X117182537Y-89657842D01*
X117186659Y-89661964D01*
X117218752Y-89717547D01*
X117218755Y-89781730D01*
X117186668Y-89837317D01*
X117182144Y-89841841D01*
X117182132Y-89841855D01*
X117177032Y-89846956D01*
X117173242Y-89853099D01*
X117173239Y-89853104D01*
X117091789Y-89985154D01*
X117091786Y-89985159D01*
X117087997Y-89991303D01*
X117034651Y-90152292D01*
X117033963Y-90159022D01*
X117033962Y-90159029D01*
X117024819Y-90248523D01*
X117024818Y-90248541D01*
X117024500Y-90251655D01*
X117024500Y-90254802D01*
X117024500Y-90254803D01*
X117024500Y-90795194D01*
X117024500Y-90795213D01*
X116501202Y-90795213D01*
X116377489Y-90420484D01*
X116020971Y-89456700D01*
X115713722Y-88708674D01*
X117025000Y-88708674D01*
X117028450Y-88721549D01*
X117041326Y-88725000D01*
X117733674Y-88725000D01*
X117746549Y-88721549D01*
X117750000Y-88708674D01*
X117750000Y-88281326D01*
X117742855Y-88254661D01*
X117734439Y-88242066D01*
X117725000Y-88194613D01*
X117725000Y-87516326D01*
X117721549Y-87503450D01*
X117708674Y-87500000D01*
X117041327Y-87500000D01*
X117028451Y-87503450D01*
X117025001Y-87516326D01*
X117025001Y-87545165D01*
X117025321Y-87551447D01*
X117034455Y-87640867D01*
X117037274Y-87654036D01*
X117086180Y-87801625D01*
X117092246Y-87814633D01*
X117173632Y-87946580D01*
X117182537Y-87957842D01*
X117262014Y-88037319D01*
X117294108Y-88092906D01*
X117294108Y-88157094D01*
X117262014Y-88212681D01*
X117182537Y-88292157D01*
X117173632Y-88303419D01*
X117092246Y-88435366D01*
X117086180Y-88448374D01*
X117037272Y-88595969D01*
X117034456Y-88609125D01*
X117025319Y-88698555D01*
X117025000Y-88704832D01*
X117025000Y-88708674D01*
X115713722Y-88708674D01*
X115630536Y-88506150D01*
X115206674Y-87570027D01*
X115171927Y-87500000D01*
X114915731Y-86983674D01*
X117025000Y-86983674D01*
X117028450Y-86996549D01*
X117041326Y-87000000D01*
X117708674Y-87000000D01*
X117721549Y-86996549D01*
X117725000Y-86983674D01*
X117725000Y-86291327D01*
X117721549Y-86278451D01*
X117708674Y-86275001D01*
X117704835Y-86275001D01*
X117698552Y-86275321D01*
X117609132Y-86284455D01*
X117595963Y-86287274D01*
X117448374Y-86336180D01*
X117435366Y-86342246D01*
X117303419Y-86423632D01*
X117292157Y-86432537D01*
X117182537Y-86542157D01*
X117173632Y-86553419D01*
X117092246Y-86685366D01*
X117086180Y-86698374D01*
X117037272Y-86845969D01*
X117034456Y-86859125D01*
X117025319Y-86948555D01*
X117025000Y-86954832D01*
X117025000Y-86983674D01*
X114915731Y-86983674D01*
X114750390Y-86650454D01*
X114750387Y-86650448D01*
X114749919Y-86649505D01*
X114260842Y-85745742D01*
X114017605Y-85332020D01*
X114000500Y-85269176D01*
X114000500Y-85000000D01*
X118945000Y-85000000D01*
X118962963Y-85193856D01*
X118964531Y-85199367D01*
X118964533Y-85199377D01*
X119014671Y-85375591D01*
X119014673Y-85375597D01*
X119016242Y-85381110D01*
X119103021Y-85555386D01*
X119106473Y-85559957D01*
X119216888Y-85706171D01*
X119216892Y-85706176D01*
X119220346Y-85710749D01*
X119224582Y-85714610D01*
X119224586Y-85714615D01*
X119291473Y-85775590D01*
X119364220Y-85841908D01*
X119529746Y-85944397D01*
X119711286Y-86014726D01*
X119785120Y-86028528D01*
X119785563Y-86028611D01*
X119840517Y-86053894D01*
X119871223Y-86094556D01*
X119893191Y-86069726D01*
X119959512Y-86050500D01*
X137091614Y-86050500D01*
X137097343Y-86050500D01*
X137288714Y-86014726D01*
X137470254Y-85944397D01*
X137635780Y-85841908D01*
X137779654Y-85710749D01*
X137896979Y-85555386D01*
X137983758Y-85381110D01*
X138037037Y-85193856D01*
X138055000Y-85000000D01*
X152945000Y-85000000D01*
X152962963Y-85193856D01*
X152964531Y-85199367D01*
X152964533Y-85199377D01*
X153014671Y-85375591D01*
X153014673Y-85375597D01*
X153016242Y-85381110D01*
X153103021Y-85555386D01*
X153106473Y-85559957D01*
X153216888Y-85706171D01*
X153216892Y-85706176D01*
X153220346Y-85710749D01*
X153224582Y-85714610D01*
X153224586Y-85714615D01*
X153291473Y-85775590D01*
X153364220Y-85841908D01*
X153529746Y-85944397D01*
X153711286Y-86014726D01*
X153902657Y-86050500D01*
X153999901Y-86050500D01*
X154000000Y-86050500D01*
X154000500Y-86050500D01*
X173999500Y-86050500D01*
X174000099Y-86050500D01*
X174091614Y-86050500D01*
X174097343Y-86050500D01*
X174288714Y-86014726D01*
X174470254Y-85944397D01*
X174635780Y-85841908D01*
X174779654Y-85710749D01*
X174896979Y-85555386D01*
X174983758Y-85381110D01*
X175037037Y-85193856D01*
X175055000Y-85000000D01*
X175037037Y-84806144D01*
X175010475Y-84712791D01*
X174985328Y-84624408D01*
X174983758Y-84618890D01*
X174896979Y-84444614D01*
X174850975Y-84383696D01*
X174783111Y-84293828D01*
X174783107Y-84293824D01*
X174779654Y-84289251D01*
X174775417Y-84285388D01*
X174775413Y-84285384D01*
X174640014Y-84161952D01*
X174640015Y-84161952D01*
X174635780Y-84158092D01*
X174630910Y-84155077D01*
X174630908Y-84155075D01*
X174475128Y-84058621D01*
X174475129Y-84058621D01*
X174470254Y-84055603D01*
X174464911Y-84053533D01*
X174294061Y-83987345D01*
X174294056Y-83987343D01*
X174288714Y-83985274D01*
X174283076Y-83984220D01*
X174102972Y-83950552D01*
X174102969Y-83950551D01*
X174097343Y-83949500D01*
X174000099Y-83949500D01*
X154000500Y-83949500D01*
X154000000Y-83949500D01*
X153902657Y-83949500D01*
X153897031Y-83950551D01*
X153897027Y-83950552D01*
X153716923Y-83984220D01*
X153716920Y-83984220D01*
X153711286Y-83985274D01*
X153705946Y-83987342D01*
X153705938Y-83987345D01*
X153535088Y-84053533D01*
X153535083Y-84053535D01*
X153529746Y-84055603D01*
X153524874Y-84058619D01*
X153524871Y-84058621D01*
X153369091Y-84155075D01*
X153369083Y-84155080D01*
X153364220Y-84158092D01*
X153359989Y-84161948D01*
X153359985Y-84161952D01*
X153224586Y-84285384D01*
X153224576Y-84285394D01*
X153220346Y-84289251D01*
X153216897Y-84293817D01*
X153216888Y-84293828D01*
X153106473Y-84440042D01*
X153106470Y-84440046D01*
X153103021Y-84444614D01*
X153016242Y-84618890D01*
X153014674Y-84624398D01*
X153014671Y-84624408D01*
X152964533Y-84800622D01*
X152964530Y-84800633D01*
X152962963Y-84806144D01*
X152945000Y-85000000D01*
X138055000Y-85000000D01*
X138037037Y-84806144D01*
X138010475Y-84712791D01*
X137985328Y-84624408D01*
X137983758Y-84618890D01*
X137896979Y-84444614D01*
X137850975Y-84383696D01*
X137783111Y-84293828D01*
X137783107Y-84293824D01*
X137779654Y-84289251D01*
X137775417Y-84285388D01*
X137775413Y-84285384D01*
X137640014Y-84161952D01*
X137640015Y-84161952D01*
X137635780Y-84158092D01*
X137630910Y-84155077D01*
X137630908Y-84155075D01*
X137475128Y-84058621D01*
X137475129Y-84058621D01*
X137470254Y-84055603D01*
X137464911Y-84053533D01*
X137294061Y-83987345D01*
X137294056Y-83987343D01*
X137288714Y-83985274D01*
X137283076Y-83984220D01*
X137102972Y-83950552D01*
X137102969Y-83950551D01*
X137097343Y-83949500D01*
X137000099Y-83949500D01*
X120000500Y-83949500D01*
X120000000Y-83949500D01*
X119902657Y-83949500D01*
X119897031Y-83950551D01*
X119897027Y-83950552D01*
X119716923Y-83984220D01*
X119716920Y-83984220D01*
X119711286Y-83985274D01*
X119705946Y-83987342D01*
X119705938Y-83987345D01*
X119535088Y-84053533D01*
X119535083Y-84053535D01*
X119529746Y-84055603D01*
X119524874Y-84058619D01*
X119524871Y-84058621D01*
X119369091Y-84155075D01*
X119369083Y-84155080D01*
X119364220Y-84158092D01*
X119359989Y-84161948D01*
X119359985Y-84161952D01*
X119224586Y-84285384D01*
X119224576Y-84285394D01*
X119220346Y-84289251D01*
X119216897Y-84293817D01*
X119216888Y-84293828D01*
X119106473Y-84440042D01*
X119106470Y-84440046D01*
X119103021Y-84444614D01*
X119016242Y-84618890D01*
X119014674Y-84624398D01*
X119014671Y-84624408D01*
X118964533Y-84800622D01*
X118964530Y-84800633D01*
X118962963Y-84806144D01*
X118945000Y-85000000D01*
X114000500Y-85000000D01*
X114000500Y-82500000D01*
X115194532Y-82500000D01*
X115214365Y-82726692D01*
X115215762Y-82731907D01*
X115215764Y-82731916D01*
X115271858Y-82941263D01*
X115271861Y-82941271D01*
X115273261Y-82946496D01*
X115369432Y-83152734D01*
X115499953Y-83339139D01*
X115660861Y-83500047D01*
X115847266Y-83630568D01*
X116053504Y-83726739D01*
X116273308Y-83785635D01*
X116500000Y-83805468D01*
X116726692Y-83785635D01*
X116946496Y-83726739D01*
X117152734Y-83630568D01*
X117339139Y-83500047D01*
X117500047Y-83339139D01*
X117630568Y-83152734D01*
X117726739Y-82946496D01*
X117785635Y-82726692D01*
X117805468Y-82500000D01*
X182194532Y-82500000D01*
X182214365Y-82726692D01*
X182215762Y-82731907D01*
X182215764Y-82731916D01*
X182271858Y-82941263D01*
X182271861Y-82941271D01*
X182273261Y-82946496D01*
X182369432Y-83152734D01*
X182499953Y-83339139D01*
X182660861Y-83500047D01*
X182847266Y-83630568D01*
X183053504Y-83726739D01*
X183273308Y-83785635D01*
X183500000Y-83805468D01*
X183726692Y-83785635D01*
X183946496Y-83726739D01*
X184152734Y-83630568D01*
X184339139Y-83500047D01*
X184500047Y-83339139D01*
X184630568Y-83152734D01*
X184726739Y-82946496D01*
X184785635Y-82726692D01*
X184805468Y-82500000D01*
X184785635Y-82273308D01*
X184726739Y-82053504D01*
X184630568Y-81847266D01*
X184500047Y-81660861D01*
X184339139Y-81499953D01*
X184152734Y-81369432D01*
X184088145Y-81339313D01*
X183951405Y-81275550D01*
X183951403Y-81275549D01*
X183946496Y-81273261D01*
X183941271Y-81271861D01*
X183941263Y-81271858D01*
X183731916Y-81215764D01*
X183731907Y-81215762D01*
X183726692Y-81214365D01*
X183721304Y-81213893D01*
X183721301Y-81213893D01*
X183505395Y-81195004D01*
X183500000Y-81194532D01*
X183494605Y-81195004D01*
X183278698Y-81213893D01*
X183278693Y-81213893D01*
X183273308Y-81214365D01*
X183268094Y-81215762D01*
X183268083Y-81215764D01*
X183058736Y-81271858D01*
X183058724Y-81271862D01*
X183053504Y-81273261D01*
X183048599Y-81275547D01*
X183048594Y-81275550D01*
X182852176Y-81367142D01*
X182852172Y-81367144D01*
X182847266Y-81369432D01*
X182842833Y-81372535D01*
X182842826Y-81372540D01*
X182665296Y-81496847D01*
X182665291Y-81496850D01*
X182660861Y-81499953D01*
X182657037Y-81503776D01*
X182657031Y-81503782D01*
X182503782Y-81657031D01*
X182503776Y-81657037D01*
X182499953Y-81660861D01*
X182496850Y-81665291D01*
X182496847Y-81665296D01*
X182372540Y-81842826D01*
X182372535Y-81842833D01*
X182369432Y-81847266D01*
X182367144Y-81852172D01*
X182367142Y-81852176D01*
X182275550Y-82048594D01*
X182275547Y-82048599D01*
X182273261Y-82053504D01*
X182271862Y-82058724D01*
X182271858Y-82058736D01*
X182215764Y-82268083D01*
X182215762Y-82268094D01*
X182214365Y-82273308D01*
X182194532Y-82500000D01*
X117805468Y-82500000D01*
X117785635Y-82273308D01*
X117726739Y-82053504D01*
X117630568Y-81847266D01*
X117500047Y-81660861D01*
X117339139Y-81499953D01*
X117152734Y-81369432D01*
X117088145Y-81339313D01*
X116951405Y-81275550D01*
X116951403Y-81275549D01*
X116946496Y-81273261D01*
X116941271Y-81271861D01*
X116941263Y-81271858D01*
X116731916Y-81215764D01*
X116731907Y-81215762D01*
X116726692Y-81214365D01*
X116721304Y-81213893D01*
X116721301Y-81213893D01*
X116505395Y-81195004D01*
X116500000Y-81194532D01*
X116494605Y-81195004D01*
X116278698Y-81213893D01*
X116278693Y-81213893D01*
X116273308Y-81214365D01*
X116268094Y-81215762D01*
X116268083Y-81215764D01*
X116058736Y-81271858D01*
X116058724Y-81271862D01*
X116053504Y-81273261D01*
X116048599Y-81275547D01*
X116048594Y-81275550D01*
X115852176Y-81367142D01*
X115852172Y-81367144D01*
X115847266Y-81369432D01*
X115842833Y-81372535D01*
X115842826Y-81372540D01*
X115665296Y-81496847D01*
X115665291Y-81496850D01*
X115660861Y-81499953D01*
X115657037Y-81503776D01*
X115657031Y-81503782D01*
X115503782Y-81657031D01*
X115503776Y-81657037D01*
X115499953Y-81660861D01*
X115496850Y-81665291D01*
X115496847Y-81665296D01*
X115372540Y-81842826D01*
X115372535Y-81842833D01*
X115369432Y-81847266D01*
X115367144Y-81852172D01*
X115367142Y-81852176D01*
X115275550Y-82048594D01*
X115275547Y-82048599D01*
X115273261Y-82053504D01*
X115271862Y-82058724D01*
X115271858Y-82058736D01*
X115215764Y-82268083D01*
X115215762Y-82268094D01*
X115214365Y-82273308D01*
X115194532Y-82500000D01*
X114000500Y-82500000D01*
X114000500Y-80124500D01*
X114017113Y-80062500D01*
X114062500Y-80017113D01*
X114124500Y-80000500D01*
X117999901Y-80000500D01*
X118000099Y-80000500D01*
X181999901Y-80000500D01*
X182000099Y-80000500D01*
X185875500Y-80000500D01*
X185937500Y-80017113D01*
G37*
%TD.AperFunction*%
%TD*%
M02*
