%TF.GenerationSoftware,KiCad,Pcbnew,(7.0.0)*%
%TF.CreationDate,2023-10-22T09:49:58+03:00*%
%TF.ProjectId,nanoInvaderBot-power,6e616e6f-496e-4766-9164-6572426f742d,rev?*%
%TF.SameCoordinates,Original*%
%TF.FileFunction,Copper,L2,Bot*%
%TF.FilePolarity,Positive*%
%FSLAX46Y46*%
G04 Gerber Fmt 4.6, Leading zero omitted, Abs format (unit mm)*
G04 Created by KiCad (PCBNEW (7.0.0)) date 2023-10-22 09:49:58*
%MOMM*%
%LPD*%
G01*
G04 APERTURE LIST*
G04 Aperture macros list*
%AMRoundRect*
0 Rectangle with rounded corners*
0 $1 Rounding radius*
0 $2 $3 $4 $5 $6 $7 $8 $9 X,Y pos of 4 corners*
0 Add a 4 corners polygon primitive as box body*
4,1,4,$2,$3,$4,$5,$6,$7,$8,$9,$2,$3,0*
0 Add four circle primitives for the rounded corners*
1,1,$1+$1,$2,$3*
1,1,$1+$1,$4,$5*
1,1,$1+$1,$6,$7*
1,1,$1+$1,$8,$9*
0 Add four rect primitives between the rounded corners*
20,1,$1+$1,$2,$3,$4,$5,0*
20,1,$1+$1,$4,$5,$6,$7,0*
20,1,$1+$1,$6,$7,$8,$9,0*
20,1,$1+$1,$8,$9,$2,$3,0*%
G04 Aperture macros list end*
%TA.AperFunction,SMDPad,CuDef*%
%ADD10R,0.558800X0.977900*%
%TD*%
%TA.AperFunction,SMDPad,CuDef*%
%ADD11RoundRect,0.135000X-0.135000X-0.185000X0.135000X-0.185000X0.135000X0.185000X-0.135000X0.185000X0*%
%TD*%
%TA.AperFunction,SMDPad,CuDef*%
%ADD12R,4.191000X1.447800*%
%TD*%
%TA.AperFunction,SMDPad,CuDef*%
%ADD13R,0.700000X2.500000*%
%TD*%
%TA.AperFunction,SMDPad,CuDef*%
%ADD14R,1.100000X1.900000*%
%TD*%
%TA.AperFunction,SMDPad,CuDef*%
%ADD15RoundRect,0.147500X-0.147500X-0.172500X0.147500X-0.172500X0.147500X0.172500X-0.147500X0.172500X0*%
%TD*%
%TA.AperFunction,SMDPad,CuDef*%
%ADD16RoundRect,0.250000X-0.325000X-1.100000X0.325000X-1.100000X0.325000X1.100000X-0.325000X1.100000X0*%
%TD*%
%TA.AperFunction,SMDPad,CuDef*%
%ADD17RoundRect,0.225000X0.225000X0.250000X-0.225000X0.250000X-0.225000X-0.250000X0.225000X-0.250000X0*%
%TD*%
%TA.AperFunction,SMDPad,CuDef*%
%ADD18RoundRect,0.225000X0.250000X-0.225000X0.250000X0.225000X-0.250000X0.225000X-0.250000X-0.225000X0*%
%TD*%
%TA.AperFunction,SMDPad,CuDef*%
%ADD19R,1.100000X0.300000*%
%TD*%
%TA.AperFunction,SMDPad,CuDef*%
%ADD20R,3.100000X2.300000*%
%TD*%
%TA.AperFunction,SMDPad,CuDef*%
%ADD21RoundRect,0.135000X0.135000X0.185000X-0.135000X0.185000X-0.135000X-0.185000X0.135000X-0.185000X0*%
%TD*%
%TA.AperFunction,SMDPad,CuDef*%
%ADD22R,0.500000X0.250000*%
%TD*%
%TA.AperFunction,SMDPad,CuDef*%
%ADD23R,0.900000X1.600000*%
%TD*%
%TA.AperFunction,SMDPad,CuDef*%
%ADD24R,0.800000X1.000000*%
%TD*%
%TA.AperFunction,SMDPad,CuDef*%
%ADD25R,1.500000X0.700000*%
%TD*%
%TA.AperFunction,SMDPad,CuDef*%
%ADD26R,1.701800X1.651000*%
%TD*%
%TA.AperFunction,SMDPad,CuDef*%
%ADD27RoundRect,0.250000X0.325000X1.100000X-0.325000X1.100000X-0.325000X-1.100000X0.325000X-1.100000X0*%
%TD*%
%TA.AperFunction,SMDPad,CuDef*%
%ADD28RoundRect,0.250000X1.100000X-0.325000X1.100000X0.325000X-1.100000X0.325000X-1.100000X-0.325000X0*%
%TD*%
%TA.AperFunction,ViaPad*%
%ADD29C,0.800000*%
%TD*%
%TA.AperFunction,Conductor*%
%ADD30C,0.250000*%
%TD*%
G04 APERTURE END LIST*
D10*
%TO.P,U5,1,SW*%
%TO.N,Net-(D3-A)*%
X149299998Y-101384749D03*
%TO.P,U5,2,GND*%
%TO.N,/GND*%
X150249999Y-101384749D03*
%TO.P,U5,3,FB*%
%TO.N,Net-(U5-FB)*%
X151200000Y-101384749D03*
%TO.P,U5,4,EN*%
%TO.N,/VSYS*%
X151200000Y-104115249D03*
%TO.P,U5,5,VIN*%
X150249999Y-104115249D03*
%TO.P,U5,6,FREQ*%
%TO.N,unconnected-(U5-FREQ-Pad6)*%
X149299998Y-104115249D03*
%TD*%
D11*
%TO.P,R10,1*%
%TO.N,/12V*%
X154990000Y-100250000D03*
%TO.P,R10,2*%
%TO.N,Net-(U5-FB)*%
X156010000Y-100250000D03*
%TD*%
D12*
%TO.P,L1,1,1*%
%TO.N,Net-(D3-A)*%
X145249999Y-99870399D03*
%TO.P,L1,2,2*%
%TO.N,/VSYS*%
X145249999Y-103629599D03*
%TD*%
D13*
%TO.P,J2,1,1*%
%TO.N,/MOTOR2_A*%
X162749999Y-108149999D03*
%TO.P,J2,2,2*%
%TO.N,/GND*%
X164249999Y-108149999D03*
%TO.P,J2,3,3*%
%TO.N,/MOTOR2_ENC1*%
X165749999Y-108149999D03*
%TO.P,J2,4,4*%
%TO.N,/MOTOR2_ENC2*%
X167249999Y-108149999D03*
%TO.P,J2,5,5*%
%TO.N,/3V3*%
X168749999Y-108149999D03*
%TO.P,J2,6,6*%
%TO.N,/MOTOR2_B*%
X170249999Y-108149999D03*
D14*
%TO.P,J2,SH1,SHIELD*%
%TO.N,/GND*%
X160799999Y-104549999D03*
%TO.P,J2,SH2,SHIELD*%
X172199999Y-104549999D03*
%TD*%
D15*
%TO.P,D1,1,K*%
%TO.N,Net-(D1-K)*%
X118765000Y-108750000D03*
%TO.P,D1,2,A*%
%TO.N,Net-(D1-A)*%
X119735000Y-108750000D03*
%TD*%
D13*
%TO.P,J1,1,1*%
%TO.N,/MOTOR1_A*%
X137249999Y-91849999D03*
%TO.P,J1,2,2*%
%TO.N,/GND*%
X135749999Y-91849999D03*
%TO.P,J1,3,3*%
%TO.N,/MOTOR1_ENC1*%
X134249999Y-91849999D03*
%TO.P,J1,4,4*%
%TO.N,/MOTOR1_ENC2*%
X132749999Y-91849999D03*
%TO.P,J1,5,5*%
%TO.N,/3V3*%
X131249999Y-91849999D03*
%TO.P,J1,6,6*%
%TO.N,/MOTOR1_B*%
X129749999Y-91849999D03*
D14*
%TO.P,J1,SH1,SHIELD*%
%TO.N,/GND*%
X139199999Y-95449999D03*
%TO.P,J1,SH2,SHIELD*%
X127799999Y-95449999D03*
%TD*%
D16*
%TO.P,C2,1*%
%TO.N,/12V*%
X156025000Y-98000000D03*
%TO.P,C2,2*%
%TO.N,/GND*%
X158975000Y-98000000D03*
%TD*%
D11*
%TO.P,R9,1*%
%TO.N,Net-(U5-FB)*%
X157240000Y-100250000D03*
%TO.P,R9,2*%
%TO.N,/GND*%
X158260000Y-100250000D03*
%TD*%
D17*
%TO.P,C6,1*%
%TO.N,/3V3*%
X147525000Y-108750000D03*
%TO.P,C6,2*%
%TO.N,/GND*%
X145975000Y-108750000D03*
%TD*%
D18*
%TO.P,C4,1*%
%TO.N,/3V3*%
X153000000Y-93025000D03*
%TO.P,C4,2*%
%TO.N,/GND*%
X153000000Y-91475000D03*
%TD*%
%TO.P,C8,1*%
%TO.N,/VBATT*%
X124750000Y-104525000D03*
%TO.P,C8,2*%
%TO.N,/GND*%
X124750000Y-102975000D03*
%TD*%
D19*
%TO.P,J4,1,Pin_1*%
%TO.N,/VSYS*%
X174062499Y-95249999D03*
%TO.P,J4,2,Pin_2*%
X174062499Y-95749999D03*
%TO.P,J4,3,Pin_3*%
%TO.N,/GND*%
X174062499Y-96249999D03*
%TO.P,J4,4,Pin_4*%
X174062499Y-96749999D03*
%TO.P,J4,5,Pin_5*%
%TO.N,/MOTOR1_B_MCU*%
X174062499Y-97249999D03*
%TO.P,J4,6,Pin_6*%
%TO.N,/MOTOR1_A_MCU*%
X174062499Y-97749999D03*
%TO.P,J4,7,Pin_7*%
%TO.N,/MOTOR1_EN_MCU*%
X174062499Y-98249999D03*
%TO.P,J4,8,Pin_8*%
%TO.N,/MOTOR1_ENC1*%
X174062499Y-98749999D03*
%TO.P,J4,9,Pin_9*%
%TO.N,/MOTOR1_ENC2*%
X174062499Y-99249999D03*
%TO.P,J4,10,Pin_10*%
%TO.N,/3V3*%
X174062499Y-99749999D03*
%TO.P,J4,11,Pin_11*%
X174062499Y-100249999D03*
%TO.P,J4,12,Pin_12*%
%TO.N,/MOTOR2_ENC1*%
X174062499Y-100749999D03*
%TO.P,J4,13,Pin_13*%
%TO.N,/MOTOR2_ENC2*%
X174062499Y-101249999D03*
%TO.P,J4,14,Pin_14*%
%TO.N,/MOTOR2_B_MCU*%
X174062499Y-101749999D03*
%TO.P,J4,15,Pin_15*%
%TO.N,/MOTOR2_A_MCU*%
X174062499Y-102249999D03*
%TO.P,J4,16,Pin_16*%
%TO.N,/MOTOR2_EN_MCU*%
X174062499Y-102749999D03*
%TO.P,J4,17,Pin_17*%
%TO.N,/GND*%
X174062499Y-103249999D03*
%TO.P,J4,18,Pin_18*%
X174062499Y-103749999D03*
%TO.P,J4,19,Pin_19*%
%TO.N,/VUSB*%
X174062499Y-104249999D03*
%TO.P,J4,20,Pin_20*%
X174062499Y-104749999D03*
D20*
%TO.P,J4,S1*%
%TO.N,N/C*%
X175762499Y-93579999D03*
%TO.P,J4,S2*%
X175762499Y-106419999D03*
%TD*%
D21*
%TO.P,R7,1*%
%TO.N,/VBATT*%
X123260000Y-108750000D03*
%TO.P,R7,2*%
%TO.N,Net-(D1-A)*%
X122240000Y-108750000D03*
%TD*%
D22*
%TO.P,U2,1,VM*%
%TO.N,/12V*%
X151949999Y-107099999D03*
%TO.P,U2,2,OUT1*%
%TO.N,/MOTOR2_A*%
X151949999Y-107599999D03*
%TO.P,U2,3,OUT2*%
%TO.N,/MOTOR2_B*%
X151949999Y-108099999D03*
%TO.P,U2,4,GND*%
%TO.N,/GND*%
X151949999Y-108599999D03*
%TO.P,U2,5,IN2*%
%TO.N,/MOTOR2_B_MCU*%
X150049999Y-108599999D03*
%TO.P,U2,6,IN1*%
%TO.N,/MOTOR2_A_MCU*%
X150049999Y-108099999D03*
%TO.P,U2,7,nSLEEP*%
%TO.N,/MOTOR2_EN_MCU*%
X150049999Y-107599999D03*
%TO.P,U2,8,VCC*%
%TO.N,/3V3*%
X150049999Y-107099999D03*
D23*
%TO.P,U2,9,Thermal*%
%TO.N,/GND*%
X150999999Y-107849999D03*
%TD*%
D24*
%TO.P,SW1,*%
%TO.N,*%
X118569999Y-103649999D03*
X120779999Y-103649999D03*
X118569999Y-96349999D03*
X120779999Y-96349999D03*
D25*
%TO.P,SW1,1,A*%
%TO.N,/VBATT*%
X121429999Y-102249999D03*
%TO.P,SW1,2,B*%
%TO.N,/SYS_EN*%
X121429999Y-99249999D03*
%TO.P,SW1,3,C*%
%TO.N,/GND*%
X121429999Y-97749999D03*
%TD*%
D26*
%TO.P,D3,1,K*%
%TO.N,/12V*%
X153646299Y-97999999D03*
%TO.P,D3,2,A*%
%TO.N,Net-(D3-A)*%
X149353699Y-97999999D03*
%TD*%
D17*
%TO.P,C7,1*%
%TO.N,/VUSB*%
X126275000Y-100750000D03*
%TO.P,C7,2*%
%TO.N,/GND*%
X124725000Y-100750000D03*
%TD*%
D16*
%TO.P,C3,1*%
%TO.N,/12V*%
X154775000Y-93250000D03*
%TO.P,C3,2*%
%TO.N,/GND*%
X157725000Y-93250000D03*
%TD*%
D22*
%TO.P,U1,1,VM*%
%TO.N,/12V*%
X148049999Y-92749999D03*
%TO.P,U1,2,OUT1*%
%TO.N,/MOTOR1_A*%
X148049999Y-92249999D03*
%TO.P,U1,3,OUT2*%
%TO.N,/MOTOR1_B*%
X148049999Y-91749999D03*
%TO.P,U1,4,GND*%
%TO.N,/GND*%
X148049999Y-91249999D03*
%TO.P,U1,5,IN2*%
%TO.N,/MOTOR1_B_MCU*%
X149949999Y-91249999D03*
%TO.P,U1,6,IN1*%
%TO.N,/MOTOR1_A_MCU*%
X149949999Y-91749999D03*
%TO.P,U1,7,nSLEEP*%
%TO.N,/MOTOR1_EN_MCU*%
X149949999Y-92249999D03*
%TO.P,U1,8,VCC*%
%TO.N,/3V3*%
X149949999Y-92749999D03*
D23*
%TO.P,U1,9,Thermal*%
%TO.N,/GND*%
X148999999Y-91999999D03*
%TD*%
D27*
%TO.P,C5,1*%
%TO.N,/12V*%
X146975000Y-106250000D03*
%TO.P,C5,2*%
%TO.N,/GND*%
X144025000Y-106250000D03*
%TD*%
D21*
%TO.P,R8,1*%
%TO.N,/VBATT*%
X123260000Y-91250000D03*
%TO.P,R8,2*%
%TO.N,Net-(D2-A)*%
X122240000Y-91250000D03*
%TD*%
D28*
%TO.P,C1,1*%
%TO.N,/VSYS*%
X140500000Y-103725000D03*
%TO.P,C1,2*%
%TO.N,/GND*%
X140500000Y-100775000D03*
%TD*%
D15*
%TO.P,D2,1,K*%
%TO.N,Net-(D2-K)*%
X118765000Y-91250000D03*
%TO.P,D2,2,A*%
%TO.N,Net-(D2-A)*%
X119735000Y-91250000D03*
%TD*%
D29*
%TO.N,/VSYS*%
X172250000Y-95500000D03*
X145250000Y-102000000D03*
%TO.N,/GND*%
X126250000Y-106250000D03*
X167250000Y-97250000D03*
X151000000Y-106500000D03*
X159000000Y-106500000D03*
X150250000Y-115000000D03*
X163500000Y-91250000D03*
X175750000Y-87750000D03*
X159000000Y-115000000D03*
X136000000Y-94250000D03*
X127250000Y-112250000D03*
X138750000Y-105750000D03*
X127250000Y-89750000D03*
X146000000Y-89250000D03*
X142750000Y-109000000D03*
X178000000Y-103500000D03*
X159250000Y-93500000D03*
X178000000Y-96500000D03*
X149000000Y-93500000D03*
X116000000Y-114500000D03*
X130750000Y-97250000D03*
X132000000Y-112250000D03*
X174000000Y-109250000D03*
X163500000Y-101000000D03*
X154000000Y-106500000D03*
X134250000Y-108500000D03*
X171000000Y-89250000D03*
X134750000Y-102000000D03*
X149000000Y-90500000D03*
X140500000Y-85000000D03*
X130000000Y-102500000D03*
X143750000Y-93500000D03*
X151000000Y-109500000D03*
X123750000Y-101250000D03*
X118000000Y-93750000D03*
X150500000Y-84750000D03*
X123000000Y-98000000D03*
X168750000Y-101000000D03*
X125250000Y-93750000D03*
X156250000Y-92000000D03*
%TO.N,/3V3*%
X146250000Y-96250000D03*
X151775000Y-93025000D03*
X137000000Y-103250000D03*
X162750000Y-96750000D03*
X168750000Y-104500000D03*
X167726305Y-102726305D03*
X138500000Y-108500000D03*
%TO.N,Net-(D1-K)*%
X120000000Y-107500000D03*
%TO.N,Net-(D2-K)*%
X119500000Y-100250000D03*
%TO.N,/VBATT*%
X124500000Y-91250000D03*
X123500000Y-103000000D03*
%TO.N,/VUSB*%
X125250000Y-96500000D03*
%TO.N,/TBATT*%
X120500000Y-110000000D03*
X120750000Y-94750000D03*
%TO.N,/SYS_EN*%
X123250000Y-92500000D03*
%TO.N,/12V*%
X153750000Y-100250000D03*
X153500000Y-94250000D03*
X153500000Y-96250000D03*
X148750000Y-106250000D03*
%TD*%
D30*
%TO.N,/3V3*%
X172250000Y-100250000D02*
X170000000Y-100250000D01*
X174062500Y-100250000D02*
X172250000Y-100250000D01*
X172750000Y-99750000D02*
X172250000Y-100250000D01*
X174062500Y-99750000D02*
X172750000Y-99750000D01*
%TO.N,/VSYS*%
X151200001Y-104115250D02*
X151200001Y-105049999D01*
X174062500Y-95250000D02*
X172500000Y-95250000D01*
X148750000Y-105250000D02*
X149250000Y-105250000D01*
X150250000Y-105000000D02*
X150000000Y-105250000D01*
X172500000Y-95750000D02*
X172250000Y-95500000D01*
X145250000Y-103629600D02*
X145250000Y-102000000D01*
X150250000Y-104115250D02*
X150250000Y-105000000D01*
X150000000Y-105250000D02*
X150250000Y-105250000D01*
X150000000Y-105250000D02*
X149250000Y-105250000D01*
X174062500Y-95750000D02*
X172500000Y-95750000D01*
X172500000Y-95250000D02*
X172250000Y-95500000D01*
X145250000Y-103629600D02*
X147129600Y-103629600D01*
X151000000Y-105250000D02*
X150250000Y-105250000D01*
X151200001Y-105049999D02*
X151000000Y-105250000D01*
X145250000Y-103629600D02*
X140595400Y-103629600D01*
X150750000Y-104115250D02*
X151200001Y-104115250D01*
X150250000Y-104115250D02*
X150750000Y-104115250D01*
X147129600Y-103629600D02*
X148750000Y-105250000D01*
X140595400Y-103629600D02*
X140500000Y-103725000D01*
%TO.N,/MOTOR1_A*%
X142500000Y-89750000D02*
X138000000Y-89750000D01*
X148050000Y-92250000D02*
X145000000Y-92250000D01*
X137250000Y-90500000D02*
X137250000Y-91850000D01*
X145000000Y-92250000D02*
X142500000Y-89750000D01*
X138000000Y-89750000D02*
X137250000Y-90500000D01*
%TO.N,/MOTOR1_B*%
X131400000Y-89300000D02*
X142750000Y-89300000D01*
X129750000Y-91850000D02*
X129750000Y-90950000D01*
X129750000Y-90950000D02*
X131400000Y-89300000D01*
X148050000Y-91750000D02*
X145200000Y-91750000D01*
X145200000Y-91750000D02*
X142750000Y-89300000D01*
%TO.N,/GND*%
X153000000Y-91475000D02*
X156250000Y-91475000D01*
X135750000Y-94000000D02*
X136000000Y-94250000D01*
X144025000Y-106250000D02*
X144025000Y-108275000D01*
X150750000Y-102750000D02*
X157750000Y-102750000D01*
X176250000Y-96250000D02*
X176250000Y-96750000D01*
X150250000Y-102250000D02*
X150750000Y-102750000D01*
X158250000Y-102250000D02*
X158250000Y-100260000D01*
X173000000Y-103750000D02*
X172200000Y-104550000D01*
X144025000Y-108275000D02*
X144500000Y-108750000D01*
X144500000Y-108750000D02*
X145975000Y-108750000D01*
X159000000Y-93250000D02*
X159250000Y-93500000D01*
X156250000Y-91475000D02*
X157475000Y-91475000D01*
X149000000Y-91675000D02*
X149000000Y-92000000D01*
X157750000Y-102750000D02*
X158250000Y-102250000D01*
X151950000Y-108600000D02*
X151600000Y-108600000D01*
X149000000Y-92000000D02*
X149000000Y-90500000D01*
X121430000Y-97750000D02*
X122750000Y-97750000D01*
X174062500Y-103250000D02*
X176250000Y-103250000D01*
X151000000Y-108000000D02*
X151000000Y-106500000D01*
X151000000Y-108000000D02*
X151000000Y-109500000D01*
X157475000Y-91475000D02*
X157750000Y-91750000D01*
X150250000Y-101384750D02*
X150250000Y-102250000D01*
X148050000Y-91250000D02*
X148575000Y-91250000D01*
X148575000Y-91250000D02*
X149000000Y-91675000D01*
X158250000Y-100260000D02*
X158260000Y-100250000D01*
X123750000Y-98750000D02*
X123750000Y-101250000D01*
X158462500Y-100047500D02*
X158260000Y-100250000D01*
X176250000Y-96750000D02*
X174062500Y-96750000D01*
X157750000Y-91750000D02*
X157725000Y-91775000D01*
X156250000Y-91475000D02*
X156250000Y-92000000D01*
X157725000Y-91775000D02*
X157725000Y-93250000D01*
X123000000Y-98000000D02*
X123750000Y-98750000D01*
X149000000Y-92000000D02*
X149000000Y-93500000D01*
X158462500Y-98000000D02*
X158462500Y-100047500D01*
X176250000Y-103250000D02*
X176250000Y-96750000D01*
X157725000Y-93250000D02*
X159000000Y-93250000D01*
X174062500Y-103750000D02*
X173000000Y-103750000D01*
X176250000Y-103750000D02*
X174062500Y-103750000D01*
X176250000Y-103250000D02*
X176250000Y-103750000D01*
X174062500Y-96250000D02*
X176250000Y-96250000D01*
X122750000Y-97750000D02*
X123000000Y-98000000D01*
X135750000Y-91850000D02*
X135750000Y-94000000D01*
X151600000Y-108600000D02*
X151000000Y-108000000D01*
%TO.N,/MOTOR1_B_MCU*%
X168500000Y-93500000D02*
X172250000Y-97250000D01*
X158600000Y-89600000D02*
X162500000Y-93500000D01*
X150338604Y-91250000D02*
X151988604Y-89600000D01*
X162500000Y-93500000D02*
X168500000Y-93500000D01*
X149950000Y-91250000D02*
X150338604Y-91250000D01*
X172250000Y-97250000D02*
X174062500Y-97250000D01*
X151988604Y-89600000D02*
X158600000Y-89600000D01*
%TO.N,/MOTOR1_A_MCU*%
X158300000Y-90050000D02*
X162250000Y-94000000D01*
X162250000Y-94000000D02*
X168363604Y-94000000D01*
X150475000Y-91750000D02*
X152175000Y-90050000D01*
X152175000Y-90050000D02*
X158300000Y-90050000D01*
X149950000Y-91750000D02*
X150475000Y-91750000D01*
X172113604Y-97750000D02*
X174062500Y-97750000D01*
X168363604Y-94000000D02*
X172113604Y-97750000D01*
%TO.N,/MOTOR1_EN_MCU*%
X158000000Y-90500000D02*
X162000000Y-94500000D01*
X149950000Y-92250000D02*
X150611396Y-92250000D01*
X162000000Y-94500000D02*
X168227208Y-94500000D01*
X168227208Y-94500000D02*
X171977208Y-98250000D01*
X152361396Y-90500000D02*
X158000000Y-90500000D01*
X171977208Y-98250000D02*
X174062500Y-98250000D01*
X150611396Y-92250000D02*
X152361396Y-90500000D01*
%TO.N,/3V3*%
X137000000Y-103250000D02*
X137000000Y-99250000D01*
X146750000Y-111500000D02*
X147525000Y-110725000D01*
X153000000Y-93025000D02*
X151775000Y-93025000D01*
X149950000Y-92750000D02*
X151500000Y-92750000D01*
X169750000Y-100000000D02*
X170000000Y-100250000D01*
X151775000Y-93025000D02*
X151500000Y-92750000D01*
X150050000Y-107100000D02*
X148900000Y-107100000D01*
X131250000Y-93175000D02*
X131250000Y-91850000D01*
X136075000Y-98000000D02*
X135787500Y-97712500D01*
X147525000Y-110725000D02*
X147525000Y-108750000D01*
X143500000Y-96250000D02*
X141750000Y-98000000D01*
X167750000Y-100000000D02*
X169750000Y-100000000D01*
X148250000Y-107750000D02*
X147750000Y-108250000D01*
X168750000Y-108150000D02*
X168750000Y-104500000D01*
X163750000Y-96750000D02*
X164500000Y-96750000D01*
X164500000Y-96750000D02*
X167750000Y-100000000D01*
X137000000Y-99250000D02*
X137000000Y-98000000D01*
X135787500Y-97712500D02*
X131250000Y-93175000D01*
X141500000Y-111500000D02*
X146750000Y-111500000D01*
X147525000Y-108750000D02*
X147525000Y-108475000D01*
X167726305Y-100023695D02*
X167750000Y-100000000D01*
X148900000Y-107100000D02*
X148250000Y-107750000D01*
X137000000Y-98000000D02*
X136075000Y-98000000D01*
X138250000Y-98000000D02*
X137000000Y-98000000D01*
X138500000Y-108500000D02*
X141500000Y-111500000D01*
X167726305Y-102726305D02*
X167726305Y-100023695D01*
X146250000Y-96250000D02*
X143500000Y-96250000D01*
X163750000Y-96750000D02*
X162750000Y-96750000D01*
X141750000Y-98000000D02*
X138250000Y-98000000D01*
X147525000Y-108475000D02*
X148900000Y-107100000D01*
%TO.N,/MOTOR2_A*%
X162500000Y-109750000D02*
X155036396Y-109750000D01*
X162750000Y-109500000D02*
X162500000Y-109750000D01*
X152886396Y-107600000D02*
X151950000Y-107600000D01*
X162750000Y-108150000D02*
X162750000Y-109500000D01*
X155036396Y-109750000D02*
X152886396Y-107600000D01*
%TO.N,/MOTOR2_B*%
X170250000Y-108150000D02*
X170250000Y-109750000D01*
X154850000Y-110200000D02*
X152750000Y-108100000D01*
X169800000Y-110200000D02*
X154850000Y-110200000D01*
X152750000Y-108100000D02*
X151950000Y-108100000D01*
X170250000Y-109750000D02*
X169800000Y-110200000D01*
%TO.N,/MOTOR2_B_MCU*%
X174062500Y-101750000D02*
X171000000Y-101750000D01*
X171000000Y-101750000D02*
X170225000Y-102525000D01*
X149650000Y-108600000D02*
X150050000Y-108600000D01*
X149250000Y-110363604D02*
X149250000Y-109000000D01*
X149536396Y-110650000D02*
X149250000Y-110363604D01*
X170225000Y-102525000D02*
X170225000Y-105975000D01*
X170225000Y-105975000D02*
X171250000Y-107000000D01*
X149250000Y-109000000D02*
X149650000Y-108600000D01*
X170450000Y-110650000D02*
X149536396Y-110650000D01*
X171250000Y-107000000D02*
X171250000Y-109850000D01*
X171250000Y-109850000D02*
X170450000Y-110650000D01*
%TO.N,/MOTOR2_A_MCU*%
X171250000Y-102250000D02*
X170675000Y-102825000D01*
X148750000Y-110500000D02*
X148750000Y-108750000D01*
X171700000Y-110036396D02*
X170636396Y-111100000D01*
X148750000Y-108750000D02*
X149400000Y-108100000D01*
X170675000Y-102825000D02*
X170675000Y-105788604D01*
X149350000Y-111100000D02*
X148750000Y-110500000D01*
X170675000Y-105788604D02*
X171700000Y-106813604D01*
X174062500Y-102250000D02*
X171250000Y-102250000D01*
X149400000Y-108100000D02*
X150050000Y-108100000D01*
X170636396Y-111100000D02*
X149350000Y-111100000D01*
X171700000Y-106813604D02*
X171700000Y-110036396D01*
%TO.N,/MOTOR2_EN_MCU*%
X149263604Y-107600000D02*
X148300000Y-108563604D01*
X170822792Y-111550000D02*
X172150000Y-110222792D01*
X171500000Y-102750000D02*
X171125000Y-103125000D01*
X150050000Y-107600000D02*
X149263604Y-107600000D01*
X148300000Y-108563604D02*
X148300000Y-110686396D01*
X149163604Y-111550000D02*
X170822792Y-111550000D01*
X172150000Y-110222792D02*
X172150000Y-106627208D01*
X171125000Y-105602208D02*
X171125000Y-103125000D01*
X172150000Y-106627208D02*
X171125000Y-105602208D01*
X148300000Y-110686396D02*
X149163604Y-111550000D01*
X174062500Y-102750000D02*
X171500000Y-102750000D01*
%TO.N,Net-(D1-K)*%
X118740000Y-107760000D02*
X119000000Y-107500000D01*
X120000000Y-107500000D02*
X119000000Y-107500000D01*
X118740000Y-108750000D02*
X118740000Y-107760000D01*
%TO.N,Net-(D1-A)*%
X120037500Y-108750000D02*
X121925000Y-108750000D01*
%TO.N,Net-(D2-K)*%
X119000000Y-100250000D02*
X119500000Y-100250000D01*
X118395000Y-97968604D02*
X118395000Y-99645000D01*
X119295000Y-97068604D02*
X118395000Y-97968604D01*
X119295000Y-92295000D02*
X119295000Y-97068604D01*
X118740000Y-91740000D02*
X119295000Y-92295000D01*
X118395000Y-99645000D02*
X119000000Y-100250000D01*
X118740000Y-91250000D02*
X118740000Y-91740000D01*
%TO.N,Net-(D2-A)*%
X120037500Y-91250000D02*
X121925000Y-91250000D01*
%TO.N,/MOTOR1_ENC1*%
X143250000Y-95000000D02*
X141250000Y-97000000D01*
X141250000Y-97000000D02*
X136500000Y-97000000D01*
X174062500Y-98750000D02*
X171840812Y-98750000D01*
X168090812Y-95000000D02*
X143250000Y-95000000D01*
X171840812Y-98750000D02*
X168090812Y-95000000D01*
X134250000Y-94750000D02*
X134250000Y-91850000D01*
X136500000Y-97000000D02*
X134250000Y-94750000D01*
%TO.N,/MOTOR1_ENC2*%
X136250000Y-97500000D02*
X132750000Y-94000000D01*
X143500000Y-95500000D02*
X141500000Y-97500000D01*
X141500000Y-97500000D02*
X136250000Y-97500000D01*
X174062500Y-99250000D02*
X171500000Y-99250000D01*
X167750000Y-95500000D02*
X143500000Y-95500000D01*
X132750000Y-94000000D02*
X132750000Y-91850000D01*
X171500000Y-99250000D02*
X167750000Y-95500000D01*
%TO.N,/MOTOR2_ENC1*%
X165750000Y-105727208D02*
X170727208Y-100750000D01*
X165750000Y-108150000D02*
X165750000Y-105727208D01*
X170727208Y-100750000D02*
X174062500Y-100750000D01*
%TO.N,/MOTOR2_ENC2*%
X167250000Y-108150000D02*
X167250000Y-104863604D01*
X170863604Y-101250000D02*
X174062500Y-101250000D01*
X167250000Y-104863604D02*
X170863604Y-101250000D01*
%TO.N,/VBATT*%
X123575000Y-107000000D02*
X123575000Y-108435000D01*
X123575000Y-107000000D02*
X123575000Y-104500000D01*
X124750000Y-104525000D02*
X123600000Y-104525000D01*
X121430000Y-102250000D02*
X123500000Y-102250000D01*
X123575000Y-108435000D02*
X123260000Y-108750000D01*
X123500000Y-102250000D02*
X123500000Y-103000000D01*
X124500000Y-91250000D02*
X123575000Y-91250000D01*
X123575000Y-104500000D02*
X123575000Y-103750000D01*
X123575000Y-103750000D02*
X123575000Y-102325000D01*
X123575000Y-103750000D02*
X123575000Y-103325000D01*
X123575000Y-102325000D02*
X123500000Y-102250000D01*
X123600000Y-104525000D02*
X123575000Y-104500000D01*
%TO.N,/VUSB*%
X133525000Y-108000000D02*
X126275000Y-100750000D01*
X175000000Y-104750000D02*
X175250000Y-104500000D01*
X173500000Y-112000000D02*
X136724695Y-112000000D01*
X177750000Y-107750000D02*
X173500000Y-112000000D01*
X126275000Y-99161396D02*
X125250000Y-98136396D01*
X136724695Y-112000000D02*
X133525000Y-108800305D01*
X125250000Y-98136396D02*
X125250000Y-96500000D01*
X175250000Y-104500000D02*
X175000000Y-104250000D01*
X175250000Y-104500000D02*
X177250000Y-104500000D01*
X133525000Y-108800305D02*
X133525000Y-108000000D01*
X177750000Y-105000000D02*
X177750000Y-107750000D01*
X126275000Y-100750000D02*
X126275000Y-99161396D01*
X175000000Y-104250000D02*
X174062500Y-104250000D01*
X177250000Y-104500000D02*
X177750000Y-105000000D01*
X174062500Y-104750000D02*
X175000000Y-104750000D01*
%TO.N,/TBATT*%
X126000000Y-105250000D02*
X125500000Y-105750000D01*
X124800000Y-97550000D02*
X124800000Y-98322792D01*
X123250000Y-94750000D02*
X124000000Y-95500000D01*
X125500000Y-99022792D02*
X125500000Y-101500000D01*
X124800000Y-98322792D02*
X125500000Y-99022792D01*
X125500000Y-101500000D02*
X126000000Y-102000000D01*
X124000000Y-96750000D02*
X124800000Y-97550000D01*
X125500000Y-105750000D02*
X125500000Y-109250000D01*
X120750000Y-94750000D02*
X123250000Y-94750000D01*
X124000000Y-95500000D02*
X124000000Y-96750000D01*
X124750000Y-110000000D02*
X120500000Y-110000000D01*
X125500000Y-109250000D02*
X124750000Y-110000000D01*
X126000000Y-102000000D02*
X126000000Y-105250000D01*
%TO.N,/SYS_EN*%
X118845000Y-98155000D02*
X119625000Y-97375000D01*
X121430000Y-99250000D02*
X121355000Y-99325000D01*
X119625000Y-97375000D02*
X119750000Y-97250000D01*
X118845000Y-98895000D02*
X118845000Y-98155000D01*
X119750000Y-97250000D02*
X119750000Y-93000000D01*
X119275000Y-99325000D02*
X118845000Y-98895000D01*
X120250000Y-92500000D02*
X121500000Y-92500000D01*
X119750000Y-93000000D02*
X120250000Y-92500000D01*
X123250000Y-92500000D02*
X121500000Y-92500000D01*
X121355000Y-99325000D02*
X119275000Y-99325000D01*
%TO.N,/12V*%
X151300305Y-105775000D02*
X151950000Y-106424695D01*
X151950000Y-106424695D02*
X151950000Y-107100000D01*
X146975000Y-106250000D02*
X149250000Y-106250000D01*
X153775000Y-94250000D02*
X154775000Y-93250000D01*
X154990000Y-100250000D02*
X154990000Y-98010000D01*
X149725000Y-105775000D02*
X151300305Y-105775000D01*
X154990000Y-98010000D02*
X155000000Y-98000000D01*
X153500000Y-97646300D02*
X153146300Y-98000000D01*
X153146300Y-99646300D02*
X153750000Y-100250000D01*
X148050000Y-92750000D02*
X147250000Y-92750000D01*
X153500000Y-94250000D02*
X147250000Y-94250000D01*
X147000000Y-94000000D02*
X147000000Y-93000000D01*
X153500000Y-94250000D02*
X153775000Y-94250000D01*
X147250000Y-94250000D02*
X147000000Y-94000000D01*
X153146300Y-98000000D02*
X155000000Y-98000000D01*
X155000000Y-98000000D02*
X155537500Y-98000000D01*
X153500000Y-96250000D02*
X153500000Y-97646300D01*
X147250000Y-92750000D02*
X147000000Y-93000000D01*
X153146300Y-98000000D02*
X153146300Y-99646300D01*
X149250000Y-106250000D02*
X149725000Y-105775000D01*
%TO.N,Net-(D3-A)*%
X149299999Y-100049999D02*
X148853700Y-99603700D01*
X149299999Y-100500000D02*
X149299999Y-100049999D01*
X149170399Y-100370400D02*
X149299999Y-100500000D01*
X149299999Y-101384750D02*
X149299999Y-100500000D01*
X148853700Y-99603700D02*
X148853700Y-98000000D01*
X145250000Y-100370400D02*
X149170399Y-100370400D01*
%TO.N,Net-(U5-FB)*%
X155365250Y-101384750D02*
X151200001Y-101384750D01*
X156010000Y-100250000D02*
X156010000Y-100740000D01*
X156010000Y-100740000D02*
X155365250Y-101384750D01*
X156010000Y-100250000D02*
X157240000Y-100250000D01*
%TD*%
%TA.AperFunction,Conductor*%
%TO.N,/GND*%
G36*
X185937500Y-80017113D02*
G01*
X185982887Y-80062500D01*
X185999500Y-80124500D01*
X185999500Y-85269175D01*
X185982395Y-85332020D01*
X185739641Y-85744924D01*
X185739612Y-85744973D01*
X185739086Y-85745870D01*
X185738594Y-85746778D01*
X185738567Y-85746827D01*
X185250532Y-86648675D01*
X185250505Y-86648725D01*
X185250018Y-86649627D01*
X185249548Y-86650573D01*
X185249531Y-86650607D01*
X185021420Y-87110336D01*
X184793271Y-87570141D01*
X184792833Y-87571108D01*
X184792827Y-87571121D01*
X184369858Y-88505283D01*
X184369837Y-88505330D01*
X184369418Y-88506257D01*
X184369026Y-88507210D01*
X184369005Y-88507260D01*
X183979411Y-89455775D01*
X183979399Y-89455804D01*
X183978991Y-89456799D01*
X183978614Y-89457816D01*
X183978607Y-89457836D01*
X183622856Y-90419554D01*
X183622844Y-90419588D01*
X183622479Y-90420575D01*
X183622154Y-90421559D01*
X183622137Y-90421608D01*
X183300677Y-91395323D01*
X183300661Y-91395372D01*
X183300331Y-91396374D01*
X183300039Y-91397376D01*
X183300021Y-91397435D01*
X183019212Y-92361478D01*
X183012951Y-92382973D01*
X183012685Y-92384021D01*
X183012675Y-92384060D01*
X182761619Y-93375499D01*
X182760699Y-93379132D01*
X182760471Y-93380186D01*
X182760468Y-93380201D01*
X182544126Y-94382514D01*
X182544119Y-94382547D01*
X182543892Y-94383601D01*
X182543703Y-94384659D01*
X182543692Y-94384713D01*
X182461333Y-94844752D01*
X182362802Y-95395120D01*
X182362650Y-95396181D01*
X182362644Y-95396222D01*
X182217808Y-96411357D01*
X182217804Y-96411386D01*
X182217657Y-96412419D01*
X182217547Y-96413442D01*
X182217541Y-96413497D01*
X182108755Y-97433116D01*
X182108750Y-97433165D01*
X182108638Y-97434221D01*
X182108560Y-97435310D01*
X182108560Y-97435318D01*
X182035958Y-98458176D01*
X182035955Y-98458217D01*
X182035883Y-98459243D01*
X182035846Y-98460276D01*
X182035844Y-98460321D01*
X181999520Y-99485118D01*
X181999482Y-99486199D01*
X181999482Y-100513801D01*
X181999519Y-100514865D01*
X181999520Y-100514881D01*
X182035844Y-101539678D01*
X182035845Y-101539693D01*
X182035883Y-101540757D01*
X182035956Y-101541785D01*
X182035958Y-101541823D01*
X182099157Y-102432208D01*
X182108638Y-102565779D01*
X182108751Y-102566839D01*
X182108755Y-102566883D01*
X182217541Y-103586502D01*
X182217547Y-103586550D01*
X182217657Y-103587581D01*
X182217805Y-103588620D01*
X182217808Y-103588642D01*
X182362644Y-104603777D01*
X182362649Y-104603811D01*
X182362802Y-104604880D01*
X182362998Y-104605978D01*
X182363001Y-104605993D01*
X182543692Y-105615286D01*
X182543699Y-105615326D01*
X182543892Y-105616399D01*
X182544121Y-105617463D01*
X182544126Y-105617485D01*
X182752741Y-106584000D01*
X182760699Y-106620868D01*
X182773123Y-106669930D01*
X183012077Y-107613579D01*
X183012951Y-107617027D01*
X183013266Y-107618109D01*
X183013267Y-107618112D01*
X183300021Y-108602564D01*
X183300031Y-108602597D01*
X183300331Y-108603626D01*
X183300666Y-108604642D01*
X183300677Y-108604676D01*
X183622137Y-109578391D01*
X183622148Y-109578423D01*
X183622479Y-109579425D01*
X183622850Y-109580429D01*
X183622856Y-109580445D01*
X183976538Y-110536571D01*
X183978991Y-110543201D01*
X183979407Y-110544214D01*
X183979411Y-110544224D01*
X184369005Y-111492739D01*
X184369017Y-111492768D01*
X184369418Y-111493743D01*
X184369846Y-111494690D01*
X184369858Y-111494716D01*
X184597443Y-111997356D01*
X184793271Y-112429859D01*
X184890619Y-112626051D01*
X185248511Y-113347337D01*
X185250018Y-113350373D01*
X185250517Y-113351296D01*
X185250532Y-113351324D01*
X185738567Y-114253172D01*
X185738581Y-114253196D01*
X185739086Y-114254130D01*
X185739627Y-114255050D01*
X185739641Y-114255075D01*
X185982395Y-114667980D01*
X185999500Y-114730825D01*
X185999500Y-119875500D01*
X185982887Y-119937500D01*
X185937500Y-119982887D01*
X185875500Y-119999500D01*
X182000099Y-119999500D01*
X118000099Y-119999500D01*
X114124500Y-119999500D01*
X114062500Y-119982887D01*
X114017113Y-119937500D01*
X114000500Y-119875500D01*
X114000500Y-117500000D01*
X115194532Y-117500000D01*
X115214365Y-117726692D01*
X115215762Y-117731907D01*
X115215764Y-117731916D01*
X115271858Y-117941263D01*
X115271861Y-117941271D01*
X115273261Y-117946496D01*
X115369432Y-118152734D01*
X115499953Y-118339139D01*
X115660861Y-118500047D01*
X115847266Y-118630568D01*
X116053504Y-118726739D01*
X116273308Y-118785635D01*
X116500000Y-118805468D01*
X116726692Y-118785635D01*
X116946496Y-118726739D01*
X117152734Y-118630568D01*
X117339139Y-118500047D01*
X117500047Y-118339139D01*
X117630568Y-118152734D01*
X117726739Y-117946496D01*
X117785635Y-117726692D01*
X117805468Y-117500000D01*
X182194532Y-117500000D01*
X182214365Y-117726692D01*
X182215762Y-117731907D01*
X182215764Y-117731916D01*
X182271858Y-117941263D01*
X182271861Y-117941271D01*
X182273261Y-117946496D01*
X182369432Y-118152734D01*
X182499953Y-118339139D01*
X182660861Y-118500047D01*
X182847266Y-118630568D01*
X183053504Y-118726739D01*
X183273308Y-118785635D01*
X183500000Y-118805468D01*
X183726692Y-118785635D01*
X183946496Y-118726739D01*
X184152734Y-118630568D01*
X184339139Y-118500047D01*
X184500047Y-118339139D01*
X184630568Y-118152734D01*
X184726739Y-117946496D01*
X184785635Y-117726692D01*
X184805468Y-117500000D01*
X184785635Y-117273308D01*
X184726739Y-117053504D01*
X184630568Y-116847266D01*
X184500047Y-116660861D01*
X184339139Y-116499953D01*
X184152734Y-116369432D01*
X184088145Y-116339313D01*
X183951405Y-116275550D01*
X183951403Y-116275549D01*
X183946496Y-116273261D01*
X183941271Y-116271861D01*
X183941263Y-116271858D01*
X183731916Y-116215764D01*
X183731907Y-116215762D01*
X183726692Y-116214365D01*
X183721304Y-116213893D01*
X183721301Y-116213893D01*
X183505395Y-116195004D01*
X183500000Y-116194532D01*
X183494605Y-116195004D01*
X183278698Y-116213893D01*
X183278693Y-116213893D01*
X183273308Y-116214365D01*
X183268094Y-116215762D01*
X183268083Y-116215764D01*
X183058736Y-116271858D01*
X183058724Y-116271862D01*
X183053504Y-116273261D01*
X183048599Y-116275547D01*
X183048594Y-116275550D01*
X182852176Y-116367142D01*
X182852172Y-116367144D01*
X182847266Y-116369432D01*
X182842833Y-116372535D01*
X182842826Y-116372540D01*
X182665296Y-116496847D01*
X182665291Y-116496850D01*
X182660861Y-116499953D01*
X182657037Y-116503776D01*
X182657031Y-116503782D01*
X182503782Y-116657031D01*
X182503776Y-116657037D01*
X182499953Y-116660861D01*
X182496850Y-116665291D01*
X182496847Y-116665296D01*
X182372540Y-116842826D01*
X182372535Y-116842833D01*
X182369432Y-116847266D01*
X182367144Y-116852172D01*
X182367142Y-116852176D01*
X182275550Y-117048594D01*
X182275547Y-117048599D01*
X182273261Y-117053504D01*
X182271862Y-117058724D01*
X182271858Y-117058736D01*
X182215764Y-117268083D01*
X182215762Y-117268094D01*
X182214365Y-117273308D01*
X182194532Y-117500000D01*
X117805468Y-117500000D01*
X117785635Y-117273308D01*
X117726739Y-117053504D01*
X117630568Y-116847266D01*
X117500047Y-116660861D01*
X117339139Y-116499953D01*
X117152734Y-116369432D01*
X117088145Y-116339313D01*
X116951405Y-116275550D01*
X116951403Y-116275549D01*
X116946496Y-116273261D01*
X116941271Y-116271861D01*
X116941263Y-116271858D01*
X116731916Y-116215764D01*
X116731907Y-116215762D01*
X116726692Y-116214365D01*
X116721304Y-116213893D01*
X116721301Y-116213893D01*
X116505395Y-116195004D01*
X116500000Y-116194532D01*
X116494605Y-116195004D01*
X116278698Y-116213893D01*
X116278693Y-116213893D01*
X116273308Y-116214365D01*
X116268094Y-116215762D01*
X116268083Y-116215764D01*
X116058736Y-116271858D01*
X116058724Y-116271862D01*
X116053504Y-116273261D01*
X116048599Y-116275547D01*
X116048594Y-116275550D01*
X115852176Y-116367142D01*
X115852172Y-116367144D01*
X115847266Y-116369432D01*
X115842833Y-116372535D01*
X115842826Y-116372540D01*
X115665296Y-116496847D01*
X115665291Y-116496850D01*
X115660861Y-116499953D01*
X115657037Y-116503776D01*
X115657031Y-116503782D01*
X115503782Y-116657031D01*
X115503776Y-116657037D01*
X115499953Y-116660861D01*
X115496850Y-116665291D01*
X115496847Y-116665296D01*
X115372540Y-116842826D01*
X115372535Y-116842833D01*
X115369432Y-116847266D01*
X115367144Y-116852172D01*
X115367142Y-116852176D01*
X115275550Y-117048594D01*
X115275547Y-117048599D01*
X115273261Y-117053504D01*
X115271862Y-117058724D01*
X115271858Y-117058736D01*
X115215764Y-117268083D01*
X115215762Y-117268094D01*
X115214365Y-117273308D01*
X115194532Y-117500000D01*
X114000500Y-117500000D01*
X114000500Y-115000000D01*
X124945000Y-115000000D01*
X124962963Y-115193856D01*
X124964531Y-115199367D01*
X124964533Y-115199377D01*
X125014671Y-115375591D01*
X125014673Y-115375597D01*
X125016242Y-115381110D01*
X125103021Y-115555386D01*
X125106473Y-115559957D01*
X125216888Y-115706171D01*
X125216892Y-115706176D01*
X125220346Y-115710749D01*
X125224582Y-115714610D01*
X125224586Y-115714615D01*
X125291473Y-115775590D01*
X125364220Y-115841908D01*
X125529746Y-115944397D01*
X125711286Y-116014726D01*
X125902657Y-116050500D01*
X125999901Y-116050500D01*
X126000000Y-116050500D01*
X126000500Y-116050500D01*
X145999500Y-116050500D01*
X146000099Y-116050500D01*
X146091614Y-116050500D01*
X146097343Y-116050500D01*
X146288714Y-116014726D01*
X146470254Y-115944397D01*
X146635780Y-115841908D01*
X146779654Y-115710749D01*
X146896979Y-115555386D01*
X146983758Y-115381110D01*
X147037037Y-115193856D01*
X147055000Y-115000000D01*
X161945000Y-115000000D01*
X161962963Y-115193856D01*
X161964531Y-115199367D01*
X161964533Y-115199377D01*
X162014671Y-115375591D01*
X162014673Y-115375597D01*
X162016242Y-115381110D01*
X162103021Y-115555386D01*
X162106473Y-115559957D01*
X162216888Y-115706171D01*
X162216892Y-115706176D01*
X162220346Y-115710749D01*
X162224582Y-115714610D01*
X162224586Y-115714615D01*
X162291473Y-115775590D01*
X162364220Y-115841908D01*
X162529746Y-115944397D01*
X162711286Y-116014726D01*
X162902657Y-116050500D01*
X162999901Y-116050500D01*
X163000000Y-116050500D01*
X163000500Y-116050500D01*
X179999500Y-116050500D01*
X180000099Y-116050500D01*
X180091614Y-116050500D01*
X180097343Y-116050500D01*
X180288714Y-116014726D01*
X180470254Y-115944397D01*
X180635780Y-115841908D01*
X180779654Y-115710749D01*
X180896979Y-115555386D01*
X180983758Y-115381110D01*
X181037037Y-115193856D01*
X181055000Y-115000000D01*
X181037037Y-114806144D01*
X181010475Y-114712791D01*
X180985328Y-114624408D01*
X180983758Y-114618890D01*
X180896979Y-114444614D01*
X180850975Y-114383696D01*
X180783111Y-114293828D01*
X180783107Y-114293824D01*
X180779654Y-114289251D01*
X180775417Y-114285388D01*
X180775413Y-114285384D01*
X180640014Y-114161952D01*
X180640015Y-114161952D01*
X180635780Y-114158092D01*
X180630910Y-114155077D01*
X180630908Y-114155075D01*
X180475128Y-114058621D01*
X180475129Y-114058621D01*
X180470254Y-114055603D01*
X180464911Y-114053533D01*
X180294061Y-113987345D01*
X180294056Y-113987343D01*
X180288714Y-113985274D01*
X180283076Y-113984220D01*
X180102972Y-113950552D01*
X180102969Y-113950551D01*
X180097343Y-113949500D01*
X180000099Y-113949500D01*
X163000500Y-113949500D01*
X163000000Y-113949500D01*
X162902657Y-113949500D01*
X162897031Y-113950551D01*
X162897027Y-113950552D01*
X162716923Y-113984220D01*
X162716920Y-113984220D01*
X162711286Y-113985274D01*
X162705946Y-113987342D01*
X162705938Y-113987345D01*
X162535088Y-114053533D01*
X162535083Y-114053535D01*
X162529746Y-114055603D01*
X162524874Y-114058619D01*
X162524871Y-114058621D01*
X162369091Y-114155075D01*
X162369083Y-114155080D01*
X162364220Y-114158092D01*
X162359989Y-114161948D01*
X162359985Y-114161952D01*
X162224586Y-114285384D01*
X162224576Y-114285394D01*
X162220346Y-114289251D01*
X162216897Y-114293817D01*
X162216888Y-114293828D01*
X162106473Y-114440042D01*
X162106470Y-114440046D01*
X162103021Y-114444614D01*
X162016242Y-114618890D01*
X162014674Y-114624398D01*
X162014671Y-114624408D01*
X161964533Y-114800622D01*
X161964530Y-114800633D01*
X161962963Y-114806144D01*
X161945000Y-115000000D01*
X147055000Y-115000000D01*
X147037037Y-114806144D01*
X147010475Y-114712791D01*
X146985328Y-114624408D01*
X146983758Y-114618890D01*
X146896979Y-114444614D01*
X146850975Y-114383696D01*
X146783111Y-114293828D01*
X146783107Y-114293824D01*
X146779654Y-114289251D01*
X146775417Y-114285388D01*
X146775413Y-114285384D01*
X146640014Y-114161952D01*
X146640015Y-114161952D01*
X146635780Y-114158092D01*
X146630910Y-114155077D01*
X146630908Y-114155075D01*
X146475128Y-114058621D01*
X146475129Y-114058621D01*
X146470254Y-114055603D01*
X146464911Y-114053533D01*
X146294061Y-113987345D01*
X146294056Y-113987343D01*
X146288714Y-113985274D01*
X146283076Y-113984220D01*
X146102972Y-113950552D01*
X146102969Y-113950551D01*
X146097343Y-113949500D01*
X146000099Y-113949500D01*
X126000500Y-113949500D01*
X126000000Y-113949500D01*
X125902657Y-113949500D01*
X125897031Y-113950551D01*
X125897027Y-113950552D01*
X125716923Y-113984220D01*
X125716920Y-113984220D01*
X125711286Y-113985274D01*
X125705946Y-113987342D01*
X125705938Y-113987345D01*
X125535088Y-114053533D01*
X125535083Y-114053535D01*
X125529746Y-114055603D01*
X125524874Y-114058619D01*
X125524871Y-114058621D01*
X125369091Y-114155075D01*
X125369083Y-114155080D01*
X125364220Y-114158092D01*
X125359989Y-114161948D01*
X125359985Y-114161952D01*
X125224586Y-114285384D01*
X125224576Y-114285394D01*
X125220346Y-114289251D01*
X125216897Y-114293817D01*
X125216888Y-114293828D01*
X125106473Y-114440042D01*
X125106470Y-114440046D01*
X125103021Y-114444614D01*
X125016242Y-114618890D01*
X125014674Y-114624398D01*
X125014671Y-114624408D01*
X124964533Y-114800622D01*
X124964530Y-114800633D01*
X124962963Y-114806144D01*
X124945000Y-115000000D01*
X114000500Y-115000000D01*
X114000500Y-114730824D01*
X114017606Y-114667978D01*
X114049487Y-114613752D01*
X114260842Y-114254258D01*
X114749919Y-113350495D01*
X115045781Y-112754228D01*
X120405784Y-112754228D01*
X120406147Y-112760941D01*
X120406148Y-112760941D01*
X120410747Y-112845772D01*
X120415682Y-112936780D01*
X120417479Y-112943255D01*
X120417480Y-112943256D01*
X120442239Y-113032433D01*
X120464591Y-113112936D01*
X120550225Y-113274459D01*
X120668580Y-113413797D01*
X120814122Y-113524435D01*
X120980045Y-113601199D01*
X121158590Y-113640500D01*
X121292212Y-113640500D01*
X121295570Y-113640500D01*
X121431748Y-113625690D01*
X121604998Y-113567315D01*
X121761648Y-113473062D01*
X121894374Y-113347337D01*
X121996971Y-113196019D01*
X122064639Y-113026183D01*
X122094216Y-112845772D01*
X122084318Y-112663220D01*
X122035409Y-112487064D01*
X122031749Y-112480161D01*
X121988410Y-112398415D01*
X121949775Y-112325541D01*
X121831420Y-112186203D01*
X121685878Y-112075565D01*
X121679775Y-112072741D01*
X121679771Y-112072739D01*
X121526057Y-112001624D01*
X121526056Y-112001623D01*
X121519955Y-111998801D01*
X121495757Y-111993474D01*
X121347973Y-111960944D01*
X121347967Y-111960943D01*
X121341410Y-111959500D01*
X121204430Y-111959500D01*
X121201093Y-111959862D01*
X121201091Y-111959863D01*
X121074933Y-111973583D01*
X121074929Y-111973583D01*
X121068252Y-111974310D01*
X121061891Y-111976453D01*
X121061883Y-111976455D01*
X120901375Y-112030537D01*
X120901369Y-112030539D01*
X120895002Y-112032685D01*
X120889241Y-112036150D01*
X120889237Y-112036153D01*
X120744111Y-112123472D01*
X120744105Y-112123476D01*
X120738352Y-112126938D01*
X120733473Y-112131558D01*
X120733471Y-112131561D01*
X120670375Y-112191329D01*
X120605626Y-112252663D01*
X120601858Y-112258220D01*
X120601854Y-112258225D01*
X120506802Y-112398415D01*
X120506798Y-112398420D01*
X120503029Y-112403981D01*
X120500543Y-112410220D01*
X120500539Y-112410228D01*
X120437851Y-112567566D01*
X120437849Y-112567570D01*
X120435361Y-112573817D01*
X120434272Y-112580455D01*
X120434272Y-112580458D01*
X120426324Y-112628939D01*
X120405784Y-112754228D01*
X115045781Y-112754228D01*
X115206674Y-112429973D01*
X115630536Y-111493850D01*
X116020971Y-110543300D01*
X116377489Y-109579516D01*
X116699643Y-108603708D01*
X116987029Y-107617101D01*
X117239286Y-106620932D01*
X117456097Y-105616453D01*
X117637191Y-104604925D01*
X117637355Y-104603777D01*
X117637417Y-104603392D01*
X117662871Y-104545785D01*
X117713341Y-104508112D01*
X117775808Y-104500093D01*
X117834158Y-104523794D01*
X117872006Y-104552127D01*
X117927669Y-104593796D01*
X118062517Y-104644091D01*
X118122127Y-104650500D01*
X119017872Y-104650499D01*
X119077483Y-104644091D01*
X119212331Y-104593796D01*
X119327546Y-104507546D01*
X119413796Y-104392331D01*
X119464091Y-104257483D01*
X119470500Y-104197873D01*
X119470499Y-103102128D01*
X119464091Y-103042517D01*
X119413796Y-102907669D01*
X119327546Y-102792454D01*
X119320447Y-102787140D01*
X119219431Y-102711519D01*
X119219430Y-102711518D01*
X119212331Y-102706204D01*
X119110764Y-102668322D01*
X119084752Y-102658620D01*
X119084750Y-102658619D01*
X119077483Y-102655909D01*
X119069770Y-102655079D01*
X119069767Y-102655079D01*
X119021180Y-102649855D01*
X119021169Y-102649854D01*
X119017873Y-102649500D01*
X119014550Y-102649500D01*
X118125439Y-102649500D01*
X118125420Y-102649500D01*
X118122128Y-102649501D01*
X118118850Y-102649853D01*
X118118838Y-102649854D01*
X118070231Y-102655079D01*
X118070225Y-102655080D01*
X118062517Y-102655909D01*
X118055248Y-102658619D01*
X118047700Y-102660404D01*
X118047137Y-102658022D01*
X117999814Y-102663099D01*
X117943176Y-102639637D01*
X117904699Y-102591910D01*
X117893788Y-102531587D01*
X117964117Y-101540772D01*
X118000518Y-100513806D01*
X118000518Y-100434470D01*
X118014033Y-100378175D01*
X118051633Y-100334152D01*
X118105120Y-100311997D01*
X118162836Y-100316539D01*
X118212197Y-100346788D01*
X118361958Y-100496549D01*
X118502707Y-100637298D01*
X118510159Y-100645487D01*
X118514214Y-100651877D01*
X118524760Y-100661780D01*
X118563223Y-100697900D01*
X118566020Y-100700611D01*
X118585529Y-100720120D01*
X118588709Y-100722587D01*
X118597571Y-100730155D01*
X118611020Y-100742785D01*
X118623732Y-100754723D01*
X118623734Y-100754724D01*
X118629418Y-100760062D01*
X118636251Y-100763818D01*
X118636252Y-100763819D01*
X118646973Y-100769713D01*
X118663234Y-100780394D01*
X118679064Y-100792673D01*
X118719155Y-100810021D01*
X118729635Y-100815155D01*
X118767908Y-100836197D01*
X118787316Y-100841180D01*
X118805710Y-100847477D01*
X118814515Y-100851287D01*
X118857418Y-100882116D01*
X118894129Y-100922888D01*
X118899387Y-100926708D01*
X118899388Y-100926709D01*
X119015635Y-101011167D01*
X119053461Y-101055636D01*
X119066746Y-101112484D01*
X119052546Y-101169111D01*
X119013695Y-101243133D01*
X119013692Y-101243140D01*
X119010210Y-101249775D01*
X119008416Y-101257050D01*
X119008415Y-101257055D01*
X118971294Y-101407662D01*
X118971293Y-101407668D01*
X118969500Y-101414944D01*
X118969500Y-101585056D01*
X118971293Y-101592332D01*
X118971294Y-101592337D01*
X119008404Y-101742899D01*
X119010210Y-101750225D01*
X119013693Y-101756862D01*
X119013695Y-101756866D01*
X119063276Y-101851333D01*
X119089266Y-101900852D01*
X119094239Y-101906466D01*
X119094241Y-101906468D01*
X119127980Y-101944551D01*
X119202071Y-102028183D01*
X119342070Y-102124818D01*
X119350719Y-102128098D01*
X119492307Y-102181795D01*
X119501128Y-102185140D01*
X119627628Y-102200500D01*
X119708623Y-102200500D01*
X119712372Y-102200500D01*
X119838872Y-102185140D01*
X119997930Y-102124818D01*
X120000113Y-102123310D01*
X120059241Y-102109678D01*
X120119648Y-102127504D01*
X120163505Y-102172705D01*
X120179500Y-102233622D01*
X120179500Y-102612818D01*
X120166384Y-102668322D01*
X120129812Y-102712084D01*
X120029551Y-102787140D01*
X120029546Y-102787144D01*
X120022454Y-102792454D01*
X120017144Y-102799546D01*
X120017141Y-102799550D01*
X119941519Y-102900568D01*
X119941516Y-102900572D01*
X119936204Y-102907669D01*
X119933104Y-102915978D01*
X119933104Y-102915980D01*
X119888620Y-103035247D01*
X119888619Y-103035250D01*
X119885909Y-103042517D01*
X119885079Y-103050227D01*
X119885079Y-103050232D01*
X119879855Y-103098819D01*
X119879854Y-103098831D01*
X119879500Y-103102127D01*
X119879500Y-103105448D01*
X119879500Y-103105449D01*
X119879500Y-104194560D01*
X119879500Y-104194578D01*
X119879501Y-104197872D01*
X119879853Y-104201150D01*
X119879854Y-104201161D01*
X119885079Y-104249768D01*
X119885080Y-104249773D01*
X119885909Y-104257483D01*
X119888619Y-104264749D01*
X119888620Y-104264753D01*
X119916722Y-104340098D01*
X119936204Y-104392331D01*
X119941518Y-104399430D01*
X119941519Y-104399431D01*
X120016874Y-104500093D01*
X120022454Y-104507546D01*
X120137669Y-104593796D01*
X120272517Y-104644091D01*
X120332127Y-104650500D01*
X121227872Y-104650499D01*
X121287483Y-104644091D01*
X121422331Y-104593796D01*
X121537546Y-104507546D01*
X121623796Y-104392331D01*
X121674091Y-104257483D01*
X121680500Y-104197873D01*
X121680499Y-103224498D01*
X121697112Y-103162499D01*
X121742499Y-103117112D01*
X121804499Y-103100499D01*
X122224561Y-103100499D01*
X122227872Y-103100499D01*
X122287483Y-103094091D01*
X122422331Y-103043796D01*
X122427480Y-103039940D01*
X122484496Y-103025134D01*
X122543134Y-103039322D01*
X122588137Y-103079504D01*
X122608851Y-103136167D01*
X122613396Y-103179404D01*
X122614326Y-103188256D01*
X122616331Y-103194428D01*
X122616333Y-103194435D01*
X122666877Y-103349991D01*
X122672821Y-103368284D01*
X122676068Y-103373908D01*
X122676069Y-103373910D01*
X122740413Y-103485358D01*
X122767467Y-103532216D01*
X122771811Y-103537041D01*
X122771813Y-103537043D01*
X122881462Y-103658820D01*
X122894129Y-103672888D01*
X122899388Y-103676708D01*
X122904215Y-103681055D01*
X122903447Y-103681907D01*
X122935984Y-103720002D01*
X122949500Y-103776298D01*
X122949500Y-104422225D01*
X122948978Y-104433280D01*
X122947327Y-104440667D01*
X122947571Y-104448453D01*
X122947571Y-104448461D01*
X122949439Y-104507873D01*
X122949500Y-104511768D01*
X122949500Y-107862604D01*
X122940308Y-107909457D01*
X122914094Y-107949363D01*
X122875946Y-107975579D01*
X122870607Y-107977131D01*
X122851806Y-107988250D01*
X122813120Y-108011128D01*
X122750000Y-108028395D01*
X122686880Y-108011128D01*
X122636106Y-107981101D01*
X122636105Y-107981100D01*
X122629393Y-107977131D01*
X122620451Y-107974533D01*
X122481292Y-107934103D01*
X122481285Y-107934101D01*
X122475204Y-107932335D01*
X122468893Y-107931838D01*
X122468886Y-107931837D01*
X122441615Y-107929691D01*
X122441600Y-107929690D01*
X122439181Y-107929500D01*
X122436735Y-107929500D01*
X122043243Y-107929500D01*
X122043217Y-107929500D01*
X122040820Y-107929501D01*
X122038406Y-107929690D01*
X122038403Y-107929691D01*
X122011111Y-107931838D01*
X122011109Y-107931838D01*
X122004796Y-107932335D01*
X121998718Y-107934100D01*
X121998711Y-107934102D01*
X121858099Y-107974954D01*
X121858096Y-107974955D01*
X121850607Y-107977131D01*
X121843896Y-107981099D01*
X121843891Y-107981102D01*
X121719119Y-108054892D01*
X121719115Y-108054894D01*
X121712402Y-108058865D01*
X121706887Y-108064379D01*
X121706883Y-108064383D01*
X121683086Y-108088181D01*
X121642858Y-108115061D01*
X121595405Y-108124500D01*
X120894027Y-108124500D01*
X120832027Y-108107887D01*
X120786640Y-108062500D01*
X120770027Y-108000500D01*
X120786640Y-107938500D01*
X120795224Y-107923632D01*
X120827179Y-107868284D01*
X120883618Y-107694582D01*
X120915626Y-107643496D01*
X120967944Y-107613541D01*
X121028205Y-107611800D01*
X121158590Y-107640500D01*
X121292212Y-107640500D01*
X121295570Y-107640500D01*
X121431748Y-107625690D01*
X121604998Y-107567315D01*
X121761648Y-107473062D01*
X121894374Y-107347337D01*
X121996971Y-107196019D01*
X122064639Y-107026183D01*
X122094216Y-106845772D01*
X122084318Y-106663220D01*
X122035409Y-106487064D01*
X121949775Y-106325541D01*
X121943855Y-106318572D01*
X121835774Y-106191329D01*
X121831420Y-106186203D01*
X121685878Y-106075565D01*
X121679775Y-106072741D01*
X121679771Y-106072739D01*
X121526057Y-106001624D01*
X121526056Y-106001623D01*
X121519955Y-105998801D01*
X121484006Y-105990888D01*
X121347973Y-105960944D01*
X121347967Y-105960943D01*
X121341410Y-105959500D01*
X121204430Y-105959500D01*
X121201093Y-105959862D01*
X121201091Y-105959863D01*
X121074933Y-105973583D01*
X121074929Y-105973583D01*
X121068252Y-105974310D01*
X121061891Y-105976453D01*
X121061883Y-105976455D01*
X120901375Y-106030537D01*
X120901369Y-106030539D01*
X120895002Y-106032685D01*
X120889241Y-106036150D01*
X120889237Y-106036153D01*
X120744111Y-106123472D01*
X120744105Y-106123476D01*
X120738352Y-106126938D01*
X120733473Y-106131558D01*
X120733471Y-106131561D01*
X120618162Y-106240788D01*
X120605626Y-106252663D01*
X120601858Y-106258220D01*
X120601854Y-106258225D01*
X120506802Y-106398415D01*
X120506798Y-106398420D01*
X120503029Y-106403981D01*
X120500543Y-106410220D01*
X120500539Y-106410228D01*
X120437342Y-106568844D01*
X120401054Y-106618603D01*
X120345302Y-106644766D01*
X120284435Y-106640918D01*
X120279803Y-106638856D01*
X120273447Y-106637505D01*
X120273444Y-106637504D01*
X120101008Y-106600852D01*
X120101005Y-106600851D01*
X120094646Y-106599500D01*
X119905354Y-106599500D01*
X119898995Y-106600851D01*
X119898991Y-106600852D01*
X119726559Y-106637503D01*
X119726552Y-106637505D01*
X119720197Y-106638856D01*
X119714262Y-106641498D01*
X119714254Y-106641501D01*
X119553207Y-106713205D01*
X119553202Y-106713207D01*
X119547270Y-106715849D01*
X119542016Y-106719665D01*
X119542011Y-106719669D01*
X119399388Y-106823290D01*
X119399381Y-106823295D01*
X119394129Y-106827112D01*
X119389780Y-106831941D01*
X119389781Y-106831941D01*
X119388399Y-106833476D01*
X119386728Y-106834689D01*
X119384950Y-106836291D01*
X119384781Y-106836104D01*
X119346685Y-106863781D01*
X119296252Y-106874500D01*
X119077775Y-106874500D01*
X119066719Y-106873978D01*
X119059333Y-106872327D01*
X119051545Y-106872571D01*
X119051538Y-106872571D01*
X118992113Y-106874439D01*
X118988219Y-106874500D01*
X118960650Y-106874500D01*
X118956794Y-106874986D01*
X118956791Y-106874987D01*
X118956735Y-106874994D01*
X118956662Y-106875003D01*
X118945044Y-106875917D01*
X118909165Y-106877045D01*
X118909164Y-106877045D01*
X118901373Y-106877290D01*
X118893888Y-106879464D01*
X118893884Y-106879465D01*
X118882125Y-106882881D01*
X118863087Y-106886823D01*
X118850949Y-106888357D01*
X118850941Y-106888358D01*
X118843208Y-106889336D01*
X118835960Y-106892205D01*
X118835954Y-106892207D01*
X118802597Y-106905413D01*
X118791554Y-106909194D01*
X118757100Y-106919205D01*
X118757094Y-106919207D01*
X118749610Y-106921382D01*
X118742898Y-106925351D01*
X118742896Y-106925352D01*
X118732364Y-106931580D01*
X118714904Y-106940134D01*
X118703519Y-106944642D01*
X118703513Y-106944644D01*
X118696268Y-106947514D01*
X118689963Y-106952094D01*
X118689955Y-106952099D01*
X118660932Y-106973185D01*
X118651174Y-106979595D01*
X118620296Y-106997857D01*
X118620290Y-106997861D01*
X118613580Y-107001830D01*
X118608067Y-107007341D01*
X118608060Y-107007348D01*
X118599410Y-107015998D01*
X118584627Y-107028624D01*
X118574726Y-107035817D01*
X118574716Y-107035826D01*
X118568413Y-107040406D01*
X118563441Y-107046415D01*
X118563442Y-107046415D01*
X118540573Y-107074058D01*
X118532712Y-107082696D01*
X118352698Y-107262709D01*
X118344511Y-107270158D01*
X118338123Y-107274214D01*
X118332789Y-107279893D01*
X118332784Y-107279898D01*
X118292095Y-107323226D01*
X118289391Y-107326017D01*
X118272628Y-107342780D01*
X118272621Y-107342787D01*
X118269880Y-107345529D01*
X118267500Y-107348596D01*
X118267489Y-107348609D01*
X118267400Y-107348725D01*
X118259842Y-107357570D01*
X118235280Y-107383727D01*
X118235273Y-107383736D01*
X118229938Y-107389418D01*
X118226182Y-107396249D01*
X118226179Y-107396254D01*
X118220285Y-107406975D01*
X118209609Y-107423227D01*
X118202109Y-107432896D01*
X118202101Y-107432907D01*
X118197327Y-107439064D01*
X118194234Y-107446208D01*
X118194229Y-107446219D01*
X118179974Y-107479160D01*
X118174838Y-107489643D01*
X118157560Y-107521073D01*
X118153803Y-107527908D01*
X118151864Y-107535456D01*
X118151863Y-107535461D01*
X118148822Y-107547307D01*
X118142521Y-107565711D01*
X118137658Y-107576948D01*
X118137656Y-107576952D01*
X118134562Y-107584104D01*
X118133342Y-107591803D01*
X118133342Y-107591805D01*
X118127729Y-107627241D01*
X118125361Y-107638676D01*
X118116438Y-107673428D01*
X118116436Y-107673436D01*
X118114500Y-107680981D01*
X118114500Y-107688777D01*
X118114500Y-107701017D01*
X118112974Y-107720402D01*
X118109840Y-107740196D01*
X118110574Y-107747961D01*
X118110574Y-107747964D01*
X118113950Y-107783676D01*
X118114500Y-107795345D01*
X118114500Y-108121124D01*
X118097232Y-108184244D01*
X118093058Y-108191303D01*
X118022040Y-108311387D01*
X118022037Y-108311392D01*
X118018069Y-108318103D01*
X118015893Y-108325592D01*
X118015892Y-108325595D01*
X117974159Y-108469236D01*
X117974157Y-108469245D01*
X117972391Y-108475325D01*
X117971894Y-108481633D01*
X117971893Y-108481642D01*
X117969691Y-108509625D01*
X117969690Y-108509640D01*
X117969500Y-108512060D01*
X117969500Y-108987940D01*
X117969690Y-108990360D01*
X117969691Y-108990374D01*
X117971893Y-109018357D01*
X117971894Y-109018364D01*
X117972391Y-109024675D01*
X117974157Y-109030755D01*
X117974159Y-109030763D01*
X118013209Y-109165168D01*
X118018069Y-109181897D01*
X118022039Y-109188610D01*
X118022040Y-109188612D01*
X118097437Y-109316103D01*
X118097439Y-109316106D01*
X118101410Y-109322820D01*
X118217180Y-109438590D01*
X118223894Y-109442561D01*
X118223896Y-109442562D01*
X118257931Y-109462690D01*
X118358103Y-109521931D01*
X118515325Y-109567609D01*
X118552060Y-109570500D01*
X118975495Y-109570500D01*
X118977940Y-109570500D01*
X119014675Y-109567609D01*
X119171897Y-109521931D01*
X119186874Y-109513073D01*
X119249998Y-109495802D01*
X119313121Y-109513071D01*
X119328103Y-109521931D01*
X119485325Y-109567609D01*
X119522060Y-109570500D01*
X119524511Y-109570500D01*
X119526902Y-109570594D01*
X119581560Y-109585718D01*
X119623768Y-109623595D01*
X119644698Y-109676303D01*
X119639971Y-109732817D01*
X119616333Y-109805564D01*
X119616331Y-109805573D01*
X119614326Y-109811744D01*
X119613648Y-109818194D01*
X119613646Y-109818204D01*
X119598481Y-109962500D01*
X119594540Y-110000000D01*
X119595219Y-110006460D01*
X119613646Y-110181795D01*
X119613647Y-110181803D01*
X119614326Y-110188256D01*
X119616331Y-110194428D01*
X119616333Y-110194435D01*
X119668685Y-110355556D01*
X119672821Y-110368284D01*
X119676068Y-110373908D01*
X119676069Y-110373910D01*
X119750971Y-110503645D01*
X119767467Y-110532216D01*
X119771811Y-110537041D01*
X119771813Y-110537043D01*
X119859221Y-110634119D01*
X119894129Y-110672888D01*
X120047270Y-110784151D01*
X120220197Y-110861144D01*
X120405354Y-110900500D01*
X120588143Y-110900500D01*
X120594646Y-110900500D01*
X120779803Y-110861144D01*
X120952730Y-110784151D01*
X121105871Y-110672888D01*
X121111601Y-110666523D01*
X121113271Y-110665310D01*
X121115050Y-110663709D01*
X121115218Y-110663895D01*
X121153315Y-110636219D01*
X121203748Y-110625500D01*
X124672225Y-110625500D01*
X124683280Y-110626021D01*
X124690667Y-110627673D01*
X124757872Y-110625561D01*
X124761768Y-110625500D01*
X124785448Y-110625500D01*
X124789350Y-110625500D01*
X124793313Y-110624999D01*
X124804963Y-110624080D01*
X124848627Y-110622709D01*
X124867861Y-110617119D01*
X124886917Y-110613174D01*
X124906792Y-110610664D01*
X124947395Y-110594587D01*
X124958450Y-110590802D01*
X125000390Y-110578618D01*
X125017629Y-110568422D01*
X125035103Y-110559862D01*
X125046474Y-110555360D01*
X125046476Y-110555358D01*
X125053732Y-110552486D01*
X125089069Y-110526811D01*
X125098824Y-110520403D01*
X125136420Y-110498170D01*
X125150584Y-110484005D01*
X125165379Y-110471368D01*
X125181587Y-110459594D01*
X125209428Y-110425938D01*
X125217279Y-110417309D01*
X125887311Y-109747278D01*
X125895481Y-109739844D01*
X125901877Y-109735786D01*
X125947918Y-109686756D01*
X125950535Y-109684054D01*
X125970120Y-109664471D01*
X125972585Y-109661292D01*
X125980167Y-109652416D01*
X126010062Y-109620582D01*
X126019713Y-109603023D01*
X126030390Y-109586770D01*
X126042673Y-109570936D01*
X126060018Y-109530852D01*
X126065151Y-109520371D01*
X126086197Y-109482092D01*
X126091179Y-109462684D01*
X126097482Y-109444276D01*
X126105437Y-109425896D01*
X126112271Y-109382744D01*
X126114633Y-109371338D01*
X126125500Y-109329019D01*
X126125500Y-109308983D01*
X126127027Y-109289585D01*
X126128939Y-109277513D01*
X126128938Y-109277513D01*
X126130160Y-109269804D01*
X126126050Y-109226324D01*
X126125500Y-109214655D01*
X126125500Y-106060452D01*
X126134939Y-106013000D01*
X126161816Y-105972773D01*
X126387316Y-105747272D01*
X126395481Y-105739843D01*
X126401877Y-105735786D01*
X126447933Y-105686740D01*
X126450550Y-105684038D01*
X126470120Y-105664470D01*
X126472565Y-105661316D01*
X126480155Y-105652428D01*
X126510062Y-105620582D01*
X126519713Y-105603023D01*
X126530390Y-105586770D01*
X126542673Y-105570936D01*
X126560022Y-105530841D01*
X126565157Y-105520362D01*
X126566506Y-105517908D01*
X126586197Y-105482092D01*
X126591178Y-105462687D01*
X126597483Y-105444277D01*
X126602339Y-105433056D01*
X126602339Y-105433055D01*
X126605438Y-105425895D01*
X126612269Y-105382756D01*
X126614639Y-105371315D01*
X126615802Y-105366788D01*
X126625500Y-105329019D01*
X126625500Y-105308983D01*
X126627025Y-105289597D01*
X126630160Y-105269804D01*
X126626050Y-105226324D01*
X126625500Y-105214655D01*
X126625500Y-102284452D01*
X126639015Y-102228157D01*
X126676615Y-102184134D01*
X126730102Y-102161979D01*
X126787818Y-102166521D01*
X126837180Y-102196770D01*
X129855064Y-105214655D01*
X132863181Y-108222772D01*
X132890061Y-108263000D01*
X132899500Y-108310453D01*
X132899500Y-108722530D01*
X132898978Y-108733585D01*
X132897327Y-108740972D01*
X132897571Y-108748758D01*
X132897571Y-108748766D01*
X132899439Y-108808178D01*
X132899500Y-108812073D01*
X132899500Y-108839655D01*
X132899988Y-108843524D01*
X132899989Y-108843530D01*
X132900004Y-108843648D01*
X132900918Y-108855271D01*
X132902045Y-108891135D01*
X132902046Y-108891142D01*
X132902291Y-108898932D01*
X132904467Y-108906424D01*
X132904468Y-108906426D01*
X132907879Y-108918167D01*
X132911825Y-108937220D01*
X132914336Y-108957097D01*
X132917206Y-108964347D01*
X132917208Y-108964353D01*
X132930414Y-108997709D01*
X132934197Y-109008756D01*
X132946382Y-109050695D01*
X132950353Y-109057410D01*
X132950354Y-109057412D01*
X132956581Y-109067942D01*
X132965136Y-109085404D01*
X132969642Y-109096785D01*
X132969643Y-109096788D01*
X132972514Y-109104037D01*
X132987381Y-109124500D01*
X132998181Y-109139365D01*
X133004593Y-109149127D01*
X133022856Y-109180007D01*
X133022859Y-109180012D01*
X133026830Y-109186725D01*
X133032345Y-109192240D01*
X133040990Y-109200885D01*
X133053626Y-109215679D01*
X133060819Y-109225580D01*
X133060823Y-109225584D01*
X133065406Y-109231892D01*
X133071415Y-109236863D01*
X133071416Y-109236864D01*
X133099058Y-109259731D01*
X133107699Y-109267594D01*
X136227402Y-112387298D01*
X136234854Y-112395487D01*
X136238909Y-112401877D01*
X136268828Y-112429973D01*
X136287918Y-112447900D01*
X136290715Y-112450611D01*
X136310224Y-112470120D01*
X136313404Y-112472587D01*
X136322266Y-112480155D01*
X136335575Y-112492654D01*
X136348427Y-112504723D01*
X136348429Y-112504724D01*
X136354113Y-112510062D01*
X136360946Y-112513818D01*
X136360947Y-112513819D01*
X136371668Y-112519713D01*
X136387929Y-112530394D01*
X136403759Y-112542673D01*
X136443849Y-112560021D01*
X136454326Y-112565154D01*
X136492603Y-112586197D01*
X136509652Y-112590574D01*
X136512000Y-112591177D01*
X136530414Y-112597481D01*
X136548799Y-112605438D01*
X136591960Y-112612273D01*
X136603359Y-112614634D01*
X136645676Y-112625500D01*
X136665712Y-112625500D01*
X136685097Y-112627025D01*
X136704891Y-112630160D01*
X136742971Y-112626560D01*
X136748371Y-112626050D01*
X136760040Y-112625500D01*
X173422225Y-112625500D01*
X173433280Y-112626021D01*
X173440667Y-112627673D01*
X173507872Y-112625561D01*
X173511768Y-112625500D01*
X173535448Y-112625500D01*
X173539350Y-112625500D01*
X173543313Y-112624999D01*
X173554963Y-112624080D01*
X173598627Y-112622709D01*
X173617861Y-112617119D01*
X173636917Y-112613174D01*
X173656792Y-112610664D01*
X173697395Y-112594587D01*
X173708450Y-112590802D01*
X173750390Y-112578618D01*
X173767629Y-112568422D01*
X173785103Y-112559862D01*
X173796474Y-112555360D01*
X173796476Y-112555358D01*
X173803732Y-112552486D01*
X173839069Y-112526811D01*
X173848824Y-112520403D01*
X173886420Y-112498170D01*
X173900584Y-112484005D01*
X173915379Y-112471368D01*
X173931587Y-112459594D01*
X173959428Y-112425938D01*
X173967279Y-112417309D01*
X178137306Y-108247282D01*
X178145482Y-108239843D01*
X178151877Y-108235786D01*
X178197933Y-108186740D01*
X178200550Y-108184038D01*
X178220120Y-108164470D01*
X178222565Y-108161316D01*
X178230155Y-108152428D01*
X178260062Y-108120582D01*
X178265814Y-108110120D01*
X178269710Y-108103032D01*
X178280393Y-108086766D01*
X178292674Y-108070936D01*
X178310018Y-108030851D01*
X178315160Y-108020356D01*
X178317063Y-108016895D01*
X178336197Y-107982092D01*
X178341179Y-107962689D01*
X178347480Y-107944283D01*
X178355438Y-107925895D01*
X178362269Y-107882756D01*
X178364639Y-107871315D01*
X178369870Y-107850946D01*
X178375500Y-107829019D01*
X178375500Y-107808983D01*
X178377025Y-107789597D01*
X178380160Y-107769804D01*
X178376050Y-107726324D01*
X178375500Y-107714655D01*
X178375500Y-105077775D01*
X178376021Y-105066719D01*
X178377673Y-105059333D01*
X178375561Y-104992127D01*
X178375500Y-104988232D01*
X178375500Y-104964541D01*
X178375500Y-104960650D01*
X178374998Y-104956677D01*
X178374080Y-104945018D01*
X178372954Y-104909173D01*
X178372709Y-104901373D01*
X178367120Y-104882140D01*
X178363174Y-104863083D01*
X178361641Y-104850944D01*
X178360664Y-104843208D01*
X178344582Y-104802591D01*
X178340803Y-104791551D01*
X178330795Y-104757102D01*
X178330793Y-104757099D01*
X178328618Y-104749610D01*
X178318417Y-104732360D01*
X178309863Y-104714901D01*
X178302486Y-104696268D01*
X178276808Y-104660925D01*
X178270401Y-104651171D01*
X178252142Y-104620296D01*
X178252141Y-104620294D01*
X178248170Y-104613580D01*
X178234005Y-104599415D01*
X178221370Y-104584622D01*
X178209594Y-104568413D01*
X178203583Y-104563440D01*
X178203581Y-104563438D01*
X178175941Y-104540573D01*
X178167300Y-104532710D01*
X177747291Y-104112701D01*
X177739841Y-104104514D01*
X177735786Y-104098123D01*
X177686775Y-104052098D01*
X177683978Y-104049387D01*
X177667227Y-104032636D01*
X177667226Y-104032635D01*
X177664471Y-104029880D01*
X177661290Y-104027412D01*
X177652414Y-104019830D01*
X177626269Y-103995278D01*
X177626267Y-103995276D01*
X177620582Y-103989938D01*
X177613749Y-103986182D01*
X177613743Y-103986177D01*
X177603025Y-103980285D01*
X177586766Y-103969606D01*
X177577095Y-103962104D01*
X177577092Y-103962102D01*
X177570936Y-103957327D01*
X177563779Y-103954229D01*
X177563776Y-103954228D01*
X177530849Y-103939978D01*
X177520363Y-103934841D01*
X177488932Y-103917562D01*
X177488923Y-103917558D01*
X177482092Y-103913803D01*
X177474535Y-103911862D01*
X177474531Y-103911861D01*
X177462688Y-103908820D01*
X177444284Y-103902519D01*
X177433057Y-103897660D01*
X177433050Y-103897658D01*
X177425896Y-103894562D01*
X177418192Y-103893341D01*
X177418190Y-103893341D01*
X177382759Y-103887729D01*
X177371324Y-103885361D01*
X177336571Y-103876438D01*
X177336563Y-103876437D01*
X177329019Y-103874500D01*
X177321223Y-103874500D01*
X177308983Y-103874500D01*
X177289597Y-103872974D01*
X177269804Y-103869840D01*
X177262038Y-103870574D01*
X177262035Y-103870574D01*
X177226324Y-103873950D01*
X177214655Y-103874500D01*
X175562970Y-103874500D01*
X175517322Y-103865792D01*
X175478086Y-103840892D01*
X175436775Y-103802098D01*
X175433978Y-103799387D01*
X175417227Y-103782636D01*
X175417226Y-103782635D01*
X175414471Y-103779880D01*
X175411290Y-103777412D01*
X175402414Y-103769830D01*
X175376269Y-103745278D01*
X175376267Y-103745276D01*
X175370582Y-103739938D01*
X175363749Y-103736182D01*
X175363743Y-103736177D01*
X175353025Y-103730285D01*
X175336766Y-103719606D01*
X175327095Y-103712104D01*
X175327092Y-103712102D01*
X175320936Y-103707327D01*
X175313779Y-103704229D01*
X175313776Y-103704228D01*
X175280849Y-103689978D01*
X175270363Y-103684841D01*
X175238932Y-103667562D01*
X175238923Y-103667558D01*
X175232092Y-103663803D01*
X175224535Y-103661862D01*
X175224531Y-103661861D01*
X175212688Y-103658820D01*
X175194282Y-103652518D01*
X175186141Y-103648995D01*
X175135540Y-103608722D01*
X175112099Y-103548450D01*
X175108315Y-103513255D01*
X175108315Y-103486740D01*
X175112144Y-103451128D01*
X175112500Y-103444506D01*
X175112500Y-103416326D01*
X175109049Y-103403450D01*
X175080406Y-103395775D01*
X175081526Y-103391594D01*
X175045961Y-103381495D01*
X175000244Y-103331504D01*
X174987622Y-103264948D01*
X175011861Y-103201689D01*
X175056296Y-103142331D01*
X175057249Y-103143044D01*
X175081583Y-103114275D01*
X175102940Y-103103584D01*
X175108711Y-103097813D01*
X175112500Y-103083674D01*
X175112500Y-103055496D01*
X175112144Y-103048865D01*
X175108568Y-103015602D01*
X175108568Y-102989095D01*
X175113000Y-102947873D01*
X175112999Y-102552128D01*
X175108820Y-102513254D01*
X175108820Y-102486747D01*
X175113000Y-102447873D01*
X175112999Y-102052128D01*
X175109821Y-102022569D01*
X175108820Y-102013254D01*
X175108820Y-101986747D01*
X175113000Y-101947873D01*
X175112999Y-101552128D01*
X175108820Y-101513254D01*
X175108820Y-101486747D01*
X175113000Y-101447873D01*
X175112999Y-101052128D01*
X175111824Y-101041195D01*
X175108820Y-101013254D01*
X175108820Y-100986747D01*
X175113000Y-100947873D01*
X175112999Y-100552128D01*
X175111825Y-100541212D01*
X175108820Y-100513254D01*
X175108820Y-100486747D01*
X175113000Y-100447873D01*
X175112999Y-100052128D01*
X175108820Y-100013254D01*
X175108820Y-99986747D01*
X175113000Y-99947873D01*
X175112999Y-99552128D01*
X175110182Y-99525925D01*
X175108820Y-99513254D01*
X175108820Y-99486747D01*
X175113000Y-99447873D01*
X175112999Y-99052128D01*
X175108820Y-99013254D01*
X175108820Y-98986747D01*
X175113000Y-98947873D01*
X175112999Y-98552128D01*
X175110754Y-98531243D01*
X175108820Y-98513254D01*
X175108820Y-98486747D01*
X175113000Y-98447873D01*
X175112999Y-98052128D01*
X175108820Y-98013254D01*
X175108820Y-97986747D01*
X175113000Y-97947873D01*
X175112999Y-97552128D01*
X175108820Y-97513254D01*
X175108820Y-97486747D01*
X175113000Y-97447873D01*
X175112999Y-97052128D01*
X175108567Y-97010898D01*
X175108568Y-96984393D01*
X175112144Y-96951132D01*
X175112500Y-96944506D01*
X175112500Y-96916326D01*
X175108711Y-96902186D01*
X175102939Y-96896414D01*
X175081585Y-96885725D01*
X175057249Y-96856955D01*
X175056296Y-96857669D01*
X175011861Y-96798311D01*
X174987622Y-96735052D01*
X175000244Y-96668496D01*
X175045961Y-96618505D01*
X175081526Y-96608405D01*
X175080406Y-96604225D01*
X175109049Y-96596549D01*
X175112500Y-96583674D01*
X175112500Y-96555494D01*
X175112144Y-96548871D01*
X175108315Y-96513259D01*
X175108315Y-96486741D01*
X175112144Y-96451128D01*
X175112500Y-96444506D01*
X175112500Y-96416326D01*
X175109049Y-96403450D01*
X175080406Y-96395775D01*
X175081526Y-96391594D01*
X175045961Y-96381495D01*
X175000244Y-96331504D01*
X174987622Y-96264948D01*
X175011861Y-96201689D01*
X175056296Y-96142331D01*
X175057249Y-96143044D01*
X175081583Y-96114275D01*
X175102940Y-96103584D01*
X175108711Y-96097813D01*
X175112500Y-96083674D01*
X175112500Y-96055496D01*
X175112144Y-96048865D01*
X175108568Y-96015602D01*
X175108568Y-95989095D01*
X175113000Y-95947873D01*
X175112999Y-95552128D01*
X175108820Y-95513254D01*
X175108820Y-95486747D01*
X175113000Y-95447873D01*
X175113000Y-95354499D01*
X175129613Y-95292499D01*
X175175000Y-95247112D01*
X175237000Y-95230499D01*
X177357061Y-95230499D01*
X177360372Y-95230499D01*
X177419983Y-95224091D01*
X177554831Y-95173796D01*
X177670046Y-95087546D01*
X177756296Y-94972331D01*
X177806591Y-94837483D01*
X177813000Y-94777873D01*
X177812999Y-92382128D01*
X177806591Y-92322517D01*
X177756296Y-92187669D01*
X177670046Y-92072454D01*
X177640107Y-92050042D01*
X177561931Y-91991519D01*
X177561930Y-91991518D01*
X177554831Y-91986204D01*
X177419983Y-91935909D01*
X177412270Y-91935079D01*
X177412267Y-91935079D01*
X177363680Y-91929855D01*
X177363669Y-91929854D01*
X177360373Y-91929500D01*
X177357050Y-91929500D01*
X174167939Y-91929500D01*
X174167920Y-91929500D01*
X174164628Y-91929501D01*
X174161350Y-91929853D01*
X174161338Y-91929854D01*
X174112731Y-91935079D01*
X174112725Y-91935080D01*
X174105017Y-91935909D01*
X174097752Y-91938618D01*
X174097746Y-91938620D01*
X173978480Y-91983104D01*
X173978478Y-91983104D01*
X173970169Y-91986204D01*
X173963072Y-91991516D01*
X173963068Y-91991519D01*
X173862050Y-92067141D01*
X173862046Y-92067144D01*
X173854954Y-92072454D01*
X173849644Y-92079546D01*
X173849641Y-92079550D01*
X173774019Y-92180568D01*
X173774016Y-92180572D01*
X173768704Y-92187669D01*
X173765604Y-92195978D01*
X173765604Y-92195980D01*
X173721120Y-92315247D01*
X173721119Y-92315250D01*
X173718409Y-92322517D01*
X173717579Y-92330227D01*
X173717579Y-92330232D01*
X173712355Y-92378819D01*
X173712354Y-92378831D01*
X173712000Y-92382127D01*
X173712000Y-92385449D01*
X173712000Y-94475501D01*
X173695387Y-94537501D01*
X173650000Y-94582888D01*
X173588001Y-94599500D01*
X173464628Y-94599501D01*
X173461350Y-94599853D01*
X173461338Y-94599854D01*
X173412731Y-94605079D01*
X173412725Y-94605080D01*
X173405017Y-94605909D01*
X173397752Y-94608618D01*
X173397746Y-94608620D01*
X173376133Y-94616682D01*
X173332800Y-94624500D01*
X172577771Y-94624500D01*
X172566718Y-94623979D01*
X172559332Y-94622328D01*
X172551534Y-94622573D01*
X172492144Y-94624439D01*
X172488250Y-94624500D01*
X172475294Y-94624500D01*
X172449513Y-94621790D01*
X172351008Y-94600852D01*
X172351005Y-94600851D01*
X172344646Y-94599500D01*
X172155354Y-94599500D01*
X172148995Y-94600851D01*
X172148991Y-94600852D01*
X171976559Y-94637503D01*
X171976552Y-94637505D01*
X171970197Y-94638856D01*
X171964262Y-94641498D01*
X171964254Y-94641501D01*
X171803207Y-94713205D01*
X171803202Y-94713207D01*
X171797270Y-94715849D01*
X171792016Y-94719665D01*
X171792011Y-94719669D01*
X171649388Y-94823290D01*
X171649381Y-94823295D01*
X171644129Y-94827112D01*
X171639784Y-94831937D01*
X171639779Y-94831942D01*
X171521813Y-94962956D01*
X171521808Y-94962962D01*
X171517467Y-94967784D01*
X171514222Y-94973404D01*
X171514218Y-94973410D01*
X171426069Y-95126089D01*
X171426066Y-95126094D01*
X171422821Y-95131716D01*
X171420815Y-95137889D01*
X171420814Y-95137892D01*
X171385657Y-95246092D01*
X171351897Y-95298830D01*
X171296673Y-95328347D01*
X171234067Y-95327117D01*
X171180045Y-95295454D01*
X168997286Y-93112695D01*
X168989842Y-93104514D01*
X168985786Y-93098123D01*
X168936775Y-93052098D01*
X168933978Y-93049387D01*
X168917227Y-93032636D01*
X168914471Y-93029880D01*
X168911290Y-93027412D01*
X168902414Y-93019830D01*
X168876269Y-92995278D01*
X168876267Y-92995276D01*
X168870582Y-92989938D01*
X168863749Y-92986182D01*
X168863743Y-92986177D01*
X168853025Y-92980285D01*
X168836766Y-92969606D01*
X168827095Y-92962104D01*
X168827092Y-92962102D01*
X168820936Y-92957327D01*
X168813779Y-92954229D01*
X168813776Y-92954228D01*
X168780849Y-92939978D01*
X168770363Y-92934841D01*
X168738932Y-92917562D01*
X168738923Y-92917558D01*
X168732092Y-92913803D01*
X168724535Y-92911862D01*
X168724531Y-92911861D01*
X168712688Y-92908820D01*
X168694284Y-92902519D01*
X168683057Y-92897660D01*
X168683050Y-92897658D01*
X168675896Y-92894562D01*
X168668192Y-92893341D01*
X168668190Y-92893341D01*
X168632759Y-92887729D01*
X168621324Y-92885361D01*
X168586571Y-92876438D01*
X168586563Y-92876437D01*
X168579019Y-92874500D01*
X168571223Y-92874500D01*
X168558983Y-92874500D01*
X168539597Y-92872974D01*
X168519804Y-92869840D01*
X168512038Y-92870574D01*
X168512035Y-92870574D01*
X168476324Y-92873950D01*
X168464655Y-92874500D01*
X162810452Y-92874500D01*
X162762999Y-92865061D01*
X162722771Y-92838181D01*
X160913609Y-91029019D01*
X159097286Y-89212695D01*
X159089842Y-89204514D01*
X159085786Y-89198123D01*
X159036775Y-89152098D01*
X159033978Y-89149387D01*
X159017227Y-89132636D01*
X159017226Y-89132635D01*
X159014471Y-89129880D01*
X159011290Y-89127412D01*
X159002414Y-89119830D01*
X158976269Y-89095278D01*
X158976267Y-89095276D01*
X158970582Y-89089938D01*
X158963749Y-89086182D01*
X158963743Y-89086177D01*
X158953025Y-89080285D01*
X158936766Y-89069606D01*
X158927095Y-89062104D01*
X158927092Y-89062102D01*
X158920936Y-89057327D01*
X158913779Y-89054229D01*
X158913776Y-89054228D01*
X158880849Y-89039978D01*
X158870363Y-89034841D01*
X158838932Y-89017562D01*
X158838923Y-89017558D01*
X158832092Y-89013803D01*
X158824535Y-89011862D01*
X158824531Y-89011861D01*
X158812688Y-89008820D01*
X158794284Y-89002519D01*
X158783057Y-88997660D01*
X158783050Y-88997658D01*
X158775896Y-88994562D01*
X158768192Y-88993341D01*
X158768190Y-88993341D01*
X158732759Y-88987729D01*
X158721324Y-88985361D01*
X158686571Y-88976438D01*
X158686563Y-88976437D01*
X158679019Y-88974500D01*
X158671223Y-88974500D01*
X158658983Y-88974500D01*
X158639597Y-88972974D01*
X158619804Y-88969840D01*
X158612038Y-88970574D01*
X158612035Y-88970574D01*
X158576324Y-88973950D01*
X158564655Y-88974500D01*
X152066375Y-88974500D01*
X152055322Y-88973979D01*
X152047936Y-88972328D01*
X152040138Y-88972573D01*
X151980748Y-88974439D01*
X151976854Y-88974500D01*
X151949254Y-88974500D01*
X151945403Y-88974986D01*
X151945372Y-88974988D01*
X151945244Y-88975005D01*
X151933633Y-88975918D01*
X151897775Y-88977045D01*
X151897768Y-88977046D01*
X151889976Y-88977291D01*
X151882492Y-88979465D01*
X151882481Y-88979467D01*
X151870732Y-88982881D01*
X151851687Y-88986825D01*
X151839551Y-88988358D01*
X151839548Y-88988358D01*
X151831812Y-88989336D01*
X151824564Y-88992205D01*
X151824554Y-88992208D01*
X151791196Y-89005415D01*
X151780154Y-89009196D01*
X151745701Y-89019207D01*
X151745696Y-89019208D01*
X151738214Y-89021383D01*
X151731506Y-89025349D01*
X151731501Y-89025352D01*
X151720968Y-89031581D01*
X151703504Y-89040136D01*
X151692128Y-89044640D01*
X151692121Y-89044643D01*
X151684872Y-89047514D01*
X151678566Y-89052094D01*
X151678561Y-89052098D01*
X151649531Y-89073189D01*
X151639773Y-89079598D01*
X151608902Y-89097856D01*
X151602183Y-89101830D01*
X151596667Y-89107344D01*
X151596660Y-89107351D01*
X151588011Y-89116000D01*
X151573228Y-89128626D01*
X151563331Y-89135817D01*
X151563324Y-89135823D01*
X151557017Y-89140406D01*
X151552050Y-89146408D01*
X151552039Y-89146420D01*
X151529174Y-89174059D01*
X151521314Y-89182697D01*
X150115832Y-90588181D01*
X150075604Y-90615061D01*
X150028151Y-90624500D01*
X149655439Y-90624500D01*
X149655420Y-90624500D01*
X149652128Y-90624501D01*
X149648850Y-90624853D01*
X149648838Y-90624854D01*
X149600231Y-90630079D01*
X149600225Y-90630080D01*
X149592517Y-90630909D01*
X149585252Y-90633618D01*
X149585246Y-90633620D01*
X149465976Y-90678105D01*
X149465972Y-90678107D01*
X149457669Y-90681204D01*
X149452391Y-90685154D01*
X149394232Y-90700000D01*
X149266326Y-90700000D01*
X149253450Y-90703450D01*
X149250000Y-90716326D01*
X149250000Y-90876931D01*
X149242182Y-90920264D01*
X149208620Y-91010247D01*
X149208619Y-91010250D01*
X149205909Y-91017517D01*
X149205079Y-91025227D01*
X149205079Y-91025232D01*
X149199855Y-91073819D01*
X149199854Y-91073831D01*
X149199500Y-91077127D01*
X149199500Y-91080448D01*
X149199500Y-91080449D01*
X149199500Y-91419560D01*
X149199500Y-91419578D01*
X149199501Y-91422872D01*
X149199853Y-91426150D01*
X149199854Y-91426161D01*
X149205909Y-91482483D01*
X149204306Y-91482655D01*
X149204307Y-91517344D01*
X149205909Y-91517517D01*
X149199855Y-91573819D01*
X149199854Y-91573831D01*
X149199500Y-91577127D01*
X149199500Y-91580448D01*
X149199500Y-91580449D01*
X149199500Y-91919560D01*
X149199500Y-91919578D01*
X149199501Y-91922872D01*
X149199853Y-91926150D01*
X149199854Y-91926161D01*
X149205909Y-91982483D01*
X149204306Y-91982655D01*
X149204307Y-92017344D01*
X149205909Y-92017517D01*
X149199855Y-92073819D01*
X149199854Y-92073831D01*
X149199500Y-92077127D01*
X149199500Y-92080448D01*
X149199500Y-92080449D01*
X149199500Y-92419560D01*
X149199500Y-92419578D01*
X149199501Y-92422872D01*
X149199853Y-92426150D01*
X149199854Y-92426161D01*
X149205909Y-92482483D01*
X149204306Y-92482655D01*
X149204307Y-92517344D01*
X149205909Y-92517517D01*
X149199855Y-92573819D01*
X149199854Y-92573831D01*
X149199500Y-92577127D01*
X149199500Y-92580448D01*
X149199500Y-92580449D01*
X149199500Y-92919560D01*
X149199500Y-92919578D01*
X149199501Y-92922872D01*
X149199853Y-92926150D01*
X149199854Y-92926161D01*
X149205079Y-92974768D01*
X149205080Y-92974773D01*
X149205909Y-92982483D01*
X149208619Y-92989749D01*
X149208620Y-92989753D01*
X149242182Y-93079736D01*
X149250000Y-93123069D01*
X149250000Y-93283674D01*
X149253450Y-93296549D01*
X149266326Y-93300000D01*
X149394232Y-93300000D01*
X149452391Y-93314845D01*
X149457669Y-93318796D01*
X149592517Y-93369091D01*
X149652127Y-93375500D01*
X149870980Y-93375499D01*
X149870981Y-93375500D01*
X150865962Y-93375500D01*
X150927976Y-93392121D01*
X150973365Y-93437528D01*
X150973942Y-93438528D01*
X150990539Y-93500524D01*
X150973918Y-93562514D01*
X150928532Y-93607891D01*
X150866539Y-93624500D01*
X147749500Y-93624500D01*
X147687500Y-93607887D01*
X147642113Y-93562500D01*
X147625500Y-93500500D01*
X147625500Y-93499500D01*
X147642113Y-93437500D01*
X147687500Y-93392113D01*
X147749500Y-93375500D01*
X148089342Y-93375500D01*
X148089350Y-93375500D01*
X148089352Y-93375499D01*
X148089358Y-93375499D01*
X148344561Y-93375499D01*
X148347872Y-93375499D01*
X148407483Y-93369091D01*
X148542331Y-93318796D01*
X148547608Y-93314845D01*
X148605768Y-93300000D01*
X148733674Y-93300000D01*
X148746549Y-93296549D01*
X148750000Y-93283674D01*
X148750000Y-93123069D01*
X148757818Y-93079736D01*
X148768126Y-93052098D01*
X148794091Y-92982483D01*
X148800500Y-92922873D01*
X148800499Y-92577128D01*
X148794091Y-92517517D01*
X148795698Y-92517344D01*
X148795698Y-92482655D01*
X148794091Y-92482483D01*
X148794090Y-92482483D01*
X148800500Y-92422873D01*
X148800499Y-92077128D01*
X148794091Y-92017517D01*
X148795698Y-92017344D01*
X148795698Y-91982655D01*
X148794091Y-91982483D01*
X148797750Y-91948451D01*
X148800500Y-91922873D01*
X148800499Y-91577128D01*
X148794091Y-91517517D01*
X148757817Y-91420263D01*
X148750000Y-91376931D01*
X148750000Y-90716326D01*
X148746549Y-90703450D01*
X148733674Y-90700000D01*
X148604715Y-90700000D01*
X148545287Y-90684832D01*
X148533776Y-90678546D01*
X148414641Y-90634111D01*
X148399667Y-90630573D01*
X148351114Y-90625353D01*
X148344518Y-90625000D01*
X148191326Y-90625000D01*
X148178450Y-90628450D01*
X148175000Y-90641326D01*
X148175000Y-91000500D01*
X148158387Y-91062500D01*
X148113000Y-91107887D01*
X148051000Y-91124500D01*
X148049000Y-91124500D01*
X147987000Y-91107887D01*
X147941613Y-91062500D01*
X147925000Y-91000500D01*
X147925000Y-90641326D01*
X147921549Y-90628450D01*
X147908674Y-90625000D01*
X147755482Y-90625000D01*
X147748885Y-90625353D01*
X147700332Y-90630573D01*
X147685358Y-90634111D01*
X147566222Y-90678547D01*
X147550810Y-90686962D01*
X147449907Y-90762498D01*
X147437498Y-90774907D01*
X147361962Y-90875810D01*
X147353547Y-90891222D01*
X147309112Y-91010357D01*
X147304702Y-91029019D01*
X147280576Y-91078308D01*
X147237542Y-91112357D01*
X147184026Y-91124500D01*
X145510453Y-91124500D01*
X145463000Y-91115061D01*
X145422772Y-91088181D01*
X143247286Y-88912695D01*
X143239842Y-88904514D01*
X143235786Y-88898123D01*
X143186775Y-88852098D01*
X143183978Y-88849387D01*
X143167227Y-88832636D01*
X143164471Y-88829880D01*
X143161290Y-88827412D01*
X143152414Y-88819830D01*
X143126269Y-88795278D01*
X143126267Y-88795276D01*
X143120582Y-88789938D01*
X143113749Y-88786182D01*
X143113743Y-88786177D01*
X143103025Y-88780285D01*
X143086766Y-88769606D01*
X143077095Y-88762104D01*
X143077092Y-88762102D01*
X143070936Y-88757327D01*
X143063779Y-88754229D01*
X143063776Y-88754228D01*
X143030849Y-88739978D01*
X143020363Y-88734841D01*
X142988932Y-88717562D01*
X142988923Y-88717558D01*
X142982092Y-88713803D01*
X142974535Y-88711862D01*
X142974531Y-88711861D01*
X142962688Y-88708820D01*
X142944284Y-88702519D01*
X142933057Y-88697660D01*
X142933050Y-88697658D01*
X142925896Y-88694562D01*
X142918192Y-88693341D01*
X142918190Y-88693341D01*
X142882759Y-88687729D01*
X142871324Y-88685361D01*
X142836571Y-88676438D01*
X142836563Y-88676437D01*
X142829019Y-88674500D01*
X142821223Y-88674500D01*
X142808983Y-88674500D01*
X142789597Y-88672974D01*
X142769804Y-88669840D01*
X142762038Y-88670574D01*
X142762035Y-88670574D01*
X142726324Y-88673950D01*
X142714655Y-88674500D01*
X131477771Y-88674500D01*
X131466718Y-88673979D01*
X131459332Y-88672328D01*
X131451534Y-88672573D01*
X131392144Y-88674439D01*
X131388250Y-88674500D01*
X131360650Y-88674500D01*
X131356799Y-88674986D01*
X131356768Y-88674988D01*
X131356640Y-88675005D01*
X131345029Y-88675918D01*
X131309171Y-88677045D01*
X131309164Y-88677046D01*
X131301372Y-88677291D01*
X131293888Y-88679465D01*
X131293877Y-88679467D01*
X131282128Y-88682881D01*
X131263083Y-88686825D01*
X131250947Y-88688358D01*
X131250944Y-88688358D01*
X131243208Y-88689336D01*
X131235960Y-88692205D01*
X131235950Y-88692208D01*
X131202592Y-88705415D01*
X131191550Y-88709196D01*
X131157097Y-88719207D01*
X131157092Y-88719208D01*
X131149610Y-88721383D01*
X131142902Y-88725349D01*
X131142897Y-88725352D01*
X131132364Y-88731581D01*
X131114900Y-88740136D01*
X131103524Y-88744640D01*
X131103517Y-88744643D01*
X131096268Y-88747514D01*
X131089962Y-88752094D01*
X131089957Y-88752098D01*
X131060927Y-88773189D01*
X131051169Y-88779598D01*
X131020298Y-88797856D01*
X131013579Y-88801830D01*
X131008063Y-88807344D01*
X131008056Y-88807351D01*
X130999407Y-88816000D01*
X130984624Y-88828626D01*
X130974727Y-88835817D01*
X130974720Y-88835823D01*
X130968413Y-88840406D01*
X130963446Y-88846408D01*
X130963435Y-88846420D01*
X130940570Y-88874059D01*
X130932710Y-88882697D01*
X129752226Y-90063181D01*
X129711998Y-90090061D01*
X129664545Y-90099500D01*
X129355439Y-90099500D01*
X129355420Y-90099500D01*
X129352128Y-90099501D01*
X129348850Y-90099853D01*
X129348838Y-90099854D01*
X129300231Y-90105079D01*
X129300225Y-90105080D01*
X129292517Y-90105909D01*
X129285252Y-90108618D01*
X129285246Y-90108620D01*
X129165980Y-90153104D01*
X129165978Y-90153104D01*
X129157669Y-90156204D01*
X129150572Y-90161516D01*
X129150568Y-90161519D01*
X129049550Y-90237141D01*
X129049546Y-90237144D01*
X129042454Y-90242454D01*
X129037144Y-90249546D01*
X129037141Y-90249550D01*
X128961519Y-90350568D01*
X128961516Y-90350572D01*
X128956204Y-90357669D01*
X128953104Y-90365978D01*
X128953104Y-90365980D01*
X128908620Y-90485247D01*
X128908619Y-90485250D01*
X128905909Y-90492517D01*
X128905079Y-90500227D01*
X128905079Y-90500232D01*
X128899855Y-90548819D01*
X128899854Y-90548831D01*
X128899500Y-90552127D01*
X128899500Y-90555448D01*
X128899500Y-90555449D01*
X128899500Y-93144560D01*
X128899500Y-93144578D01*
X128899501Y-93147872D01*
X128899853Y-93151150D01*
X128899854Y-93151161D01*
X128905079Y-93199768D01*
X128905080Y-93199773D01*
X128905909Y-93207483D01*
X128908619Y-93214749D01*
X128908620Y-93214753D01*
X128925157Y-93259090D01*
X128956204Y-93342331D01*
X128961518Y-93349430D01*
X128961519Y-93349431D01*
X129027468Y-93437528D01*
X129042454Y-93457546D01*
X129157669Y-93543796D01*
X129292517Y-93594091D01*
X129352127Y-93600500D01*
X130147872Y-93600499D01*
X130207483Y-93594091D01*
X130342331Y-93543796D01*
X130425689Y-93481393D01*
X130473640Y-93459495D01*
X130526357Y-93459495D01*
X130574310Y-93481394D01*
X130620974Y-93516326D01*
X130657669Y-93543796D01*
X130746080Y-93576771D01*
X130789933Y-93605936D01*
X130790406Y-93606587D01*
X130824058Y-93634426D01*
X130832698Y-93642288D01*
X135373029Y-98182620D01*
X135373031Y-98182621D01*
X135373034Y-98182624D01*
X135577705Y-98387296D01*
X135585158Y-98395487D01*
X135589214Y-98401877D01*
X135594895Y-98407212D01*
X135594896Y-98407213D01*
X135638224Y-98447901D01*
X135641020Y-98450611D01*
X135660529Y-98470120D01*
X135663709Y-98472587D01*
X135672571Y-98480155D01*
X135679689Y-98486840D01*
X135698732Y-98504723D01*
X135698734Y-98504724D01*
X135704418Y-98510062D01*
X135711251Y-98513818D01*
X135711252Y-98513819D01*
X135721973Y-98519713D01*
X135738234Y-98530394D01*
X135754064Y-98542673D01*
X135794155Y-98560021D01*
X135804635Y-98565155D01*
X135842908Y-98586197D01*
X135862316Y-98591180D01*
X135880719Y-98597481D01*
X135891944Y-98602339D01*
X135891946Y-98602339D01*
X135899104Y-98605437D01*
X135942258Y-98612271D01*
X135953644Y-98614629D01*
X135995981Y-98625500D01*
X136016017Y-98625500D01*
X136035415Y-98627027D01*
X136047486Y-98628939D01*
X136047487Y-98628939D01*
X136055196Y-98630160D01*
X136093660Y-98626524D01*
X136098676Y-98626050D01*
X136110345Y-98625500D01*
X136250500Y-98625500D01*
X136312500Y-98642113D01*
X136357887Y-98687500D01*
X136374500Y-98749500D01*
X136374500Y-102551313D01*
X136366264Y-102595751D01*
X136342650Y-102634285D01*
X136271813Y-102712956D01*
X136271808Y-102712962D01*
X136267467Y-102717784D01*
X136264222Y-102723404D01*
X136264218Y-102723410D01*
X136176069Y-102876089D01*
X136176066Y-102876094D01*
X136172821Y-102881716D01*
X136170815Y-102887888D01*
X136170813Y-102887894D01*
X136116333Y-103055564D01*
X136116331Y-103055573D01*
X136114326Y-103061744D01*
X136113648Y-103068194D01*
X136113646Y-103068204D01*
X136095962Y-103236464D01*
X136094540Y-103250000D01*
X136095219Y-103256460D01*
X136113646Y-103431795D01*
X136113647Y-103431803D01*
X136114326Y-103438256D01*
X136116331Y-103444428D01*
X136116333Y-103444435D01*
X136166718Y-103599501D01*
X136172821Y-103618284D01*
X136176068Y-103623908D01*
X136176069Y-103623910D01*
X136237484Y-103730285D01*
X136267467Y-103782216D01*
X136271811Y-103787041D01*
X136271813Y-103787043D01*
X136381462Y-103908820D01*
X136394129Y-103922888D01*
X136399387Y-103926708D01*
X136399388Y-103926709D01*
X136437265Y-103954228D01*
X136547270Y-104034151D01*
X136720197Y-104111144D01*
X136905354Y-104150500D01*
X137088143Y-104150500D01*
X137094646Y-104150500D01*
X137279803Y-104111144D01*
X137452730Y-104034151D01*
X137605871Y-103922888D01*
X137732533Y-103782216D01*
X137827179Y-103618284D01*
X137885674Y-103438256D01*
X137905460Y-103250000D01*
X137892444Y-103126154D01*
X137886353Y-103068204D01*
X137886352Y-103068203D01*
X137885674Y-103061744D01*
X137827179Y-102881716D01*
X137732533Y-102717784D01*
X137679884Y-102659312D01*
X137657350Y-102634285D01*
X137633736Y-102595751D01*
X137625500Y-102551313D01*
X137625500Y-101146829D01*
X138650001Y-101146829D01*
X138650321Y-101153111D01*
X138659805Y-101245959D01*
X138662623Y-101259122D01*
X138713370Y-101412267D01*
X138719432Y-101425266D01*
X138803890Y-101562194D01*
X138812794Y-101573455D01*
X138926544Y-101687205D01*
X138937805Y-101696109D01*
X139074733Y-101780567D01*
X139087732Y-101786629D01*
X139240874Y-101837375D01*
X139254041Y-101840194D01*
X139346890Y-101849680D01*
X139353168Y-101850000D01*
X140233674Y-101850000D01*
X140246549Y-101846549D01*
X140250000Y-101833674D01*
X140250000Y-101833673D01*
X140750000Y-101833673D01*
X140753450Y-101846548D01*
X140766326Y-101849999D01*
X141646829Y-101849999D01*
X141653111Y-101849678D01*
X141745959Y-101840194D01*
X141759122Y-101837376D01*
X141912267Y-101786629D01*
X141925266Y-101780567D01*
X142062194Y-101696109D01*
X142073455Y-101687205D01*
X142187205Y-101573455D01*
X142196109Y-101562194D01*
X142280567Y-101425266D01*
X142286629Y-101412267D01*
X142337375Y-101259125D01*
X142340194Y-101245958D01*
X142349680Y-101153109D01*
X142350000Y-101146832D01*
X142350000Y-101041326D01*
X142346549Y-101028450D01*
X142333674Y-101025000D01*
X140766326Y-101025000D01*
X140753450Y-101028450D01*
X140750000Y-101041326D01*
X140750000Y-101833673D01*
X140250000Y-101833673D01*
X140250000Y-101041326D01*
X140246549Y-101028450D01*
X140233674Y-101025000D01*
X138666327Y-101025000D01*
X138653451Y-101028450D01*
X138650001Y-101041326D01*
X138650001Y-101146829D01*
X137625500Y-101146829D01*
X137625500Y-100508674D01*
X138650000Y-100508674D01*
X138653450Y-100521549D01*
X138666326Y-100525000D01*
X140233674Y-100525000D01*
X140246549Y-100521549D01*
X140250000Y-100508674D01*
X140750000Y-100508674D01*
X140753450Y-100521549D01*
X140766326Y-100525000D01*
X142333673Y-100525000D01*
X142346548Y-100521549D01*
X142349999Y-100508674D01*
X142349999Y-100403171D01*
X142349678Y-100396888D01*
X142340194Y-100304040D01*
X142337376Y-100290877D01*
X142286629Y-100137732D01*
X142280567Y-100124733D01*
X142196109Y-99987805D01*
X142187205Y-99976544D01*
X142073455Y-99862794D01*
X142062194Y-99853890D01*
X141925266Y-99769432D01*
X141912267Y-99763370D01*
X141759125Y-99712624D01*
X141745958Y-99709805D01*
X141653109Y-99700319D01*
X141646832Y-99700000D01*
X140766326Y-99700000D01*
X140753450Y-99703450D01*
X140750000Y-99716326D01*
X140750000Y-100508674D01*
X140250000Y-100508674D01*
X140250000Y-99716327D01*
X140246549Y-99703451D01*
X140233674Y-99700001D01*
X139353171Y-99700001D01*
X139346888Y-99700321D01*
X139254040Y-99709805D01*
X139240877Y-99712623D01*
X139087732Y-99763370D01*
X139074733Y-99769432D01*
X138937805Y-99853890D01*
X138926544Y-99862794D01*
X138812794Y-99976544D01*
X138803890Y-99987805D01*
X138719432Y-100124733D01*
X138713370Y-100137732D01*
X138662624Y-100290874D01*
X138659805Y-100304041D01*
X138650319Y-100396890D01*
X138650000Y-100403168D01*
X138650000Y-100508674D01*
X137625500Y-100508674D01*
X137625500Y-98749500D01*
X137642113Y-98687500D01*
X137687500Y-98642113D01*
X137749500Y-98625500D01*
X138170981Y-98625500D01*
X138289350Y-98625500D01*
X141672225Y-98625500D01*
X141683280Y-98626021D01*
X141690667Y-98627673D01*
X141757872Y-98625561D01*
X141761768Y-98625500D01*
X141785448Y-98625500D01*
X141789350Y-98625500D01*
X141793313Y-98624999D01*
X141804963Y-98624080D01*
X141848627Y-98622709D01*
X141867861Y-98617119D01*
X141886917Y-98613174D01*
X141906792Y-98610664D01*
X141947395Y-98594587D01*
X141958450Y-98590802D01*
X142000390Y-98578618D01*
X142017629Y-98568422D01*
X142035103Y-98559862D01*
X142046474Y-98555360D01*
X142046476Y-98555358D01*
X142053732Y-98552486D01*
X142089069Y-98526811D01*
X142098824Y-98520403D01*
X142136420Y-98498170D01*
X142150584Y-98484005D01*
X142165379Y-98471368D01*
X142181587Y-98459594D01*
X142209428Y-98425938D01*
X142217279Y-98417309D01*
X143722770Y-96911819D01*
X143762999Y-96884939D01*
X143810452Y-96875500D01*
X145546252Y-96875500D01*
X145596685Y-96886219D01*
X145634781Y-96913895D01*
X145634950Y-96913709D01*
X145636728Y-96915310D01*
X145638398Y-96916523D01*
X145644129Y-96922888D01*
X145649387Y-96926708D01*
X145649388Y-96926709D01*
X145683004Y-96951132D01*
X145797270Y-97034151D01*
X145970197Y-97111144D01*
X146155354Y-97150500D01*
X146338143Y-97150500D01*
X146344646Y-97150500D01*
X146529803Y-97111144D01*
X146702730Y-97034151D01*
X146855871Y-96922888D01*
X146982533Y-96782216D01*
X147077179Y-96618284D01*
X147135674Y-96438256D01*
X147155460Y-96250000D01*
X147155230Y-96247820D01*
X147171394Y-96187500D01*
X147216781Y-96142113D01*
X147278781Y-96125500D01*
X152471219Y-96125500D01*
X152533219Y-96142113D01*
X152578606Y-96187500D01*
X152594769Y-96247820D01*
X152594540Y-96250000D01*
X152595219Y-96256460D01*
X152614326Y-96438256D01*
X152612659Y-96438431D01*
X152612090Y-96482530D01*
X152587886Y-96531626D01*
X152544901Y-96565518D01*
X152491512Y-96577600D01*
X150255400Y-96577600D01*
X150255400Y-96588183D01*
X150233784Y-96629707D01*
X150191199Y-96662382D01*
X150138795Y-96674000D01*
X148458239Y-96674000D01*
X148458220Y-96674000D01*
X148454928Y-96674001D01*
X148451650Y-96674353D01*
X148451638Y-96674354D01*
X148403031Y-96679579D01*
X148403025Y-96679580D01*
X148395317Y-96680409D01*
X148388052Y-96683118D01*
X148388046Y-96683120D01*
X148268780Y-96727604D01*
X148268778Y-96727604D01*
X148260469Y-96730704D01*
X148253372Y-96736016D01*
X148253368Y-96736019D01*
X148152350Y-96811641D01*
X148152346Y-96811644D01*
X148145254Y-96816954D01*
X148139944Y-96824046D01*
X148139941Y-96824050D01*
X148064319Y-96925068D01*
X148064316Y-96925072D01*
X148059004Y-96932169D01*
X148055904Y-96940478D01*
X148055904Y-96940480D01*
X148011420Y-97059747D01*
X148011419Y-97059750D01*
X148008709Y-97067017D01*
X148007879Y-97074727D01*
X148007879Y-97074732D01*
X148002655Y-97123319D01*
X148002654Y-97123331D01*
X148002300Y-97126627D01*
X148002300Y-97129948D01*
X148002300Y-97129949D01*
X148002300Y-98816149D01*
X147987132Y-98875576D01*
X147945340Y-98920464D01*
X147887146Y-98939833D01*
X147826789Y-98928944D01*
X147779033Y-98890460D01*
X147775217Y-98885363D01*
X147703046Y-98788954D01*
X147677001Y-98769457D01*
X147594931Y-98708019D01*
X147594930Y-98708018D01*
X147587831Y-98702704D01*
X147452983Y-98652409D01*
X147445270Y-98651579D01*
X147445267Y-98651579D01*
X147396680Y-98646355D01*
X147396669Y-98646354D01*
X147393373Y-98646000D01*
X147390050Y-98646000D01*
X143109939Y-98646000D01*
X143109920Y-98646000D01*
X143106628Y-98646001D01*
X143103350Y-98646353D01*
X143103338Y-98646354D01*
X143054731Y-98651579D01*
X143054725Y-98651580D01*
X143047017Y-98652409D01*
X143039752Y-98655118D01*
X143039746Y-98655120D01*
X142920480Y-98699604D01*
X142920478Y-98699604D01*
X142912169Y-98702704D01*
X142905072Y-98708016D01*
X142905068Y-98708019D01*
X142804050Y-98783641D01*
X142804046Y-98783644D01*
X142796954Y-98788954D01*
X142791644Y-98796046D01*
X142791641Y-98796050D01*
X142716019Y-98897068D01*
X142716016Y-98897072D01*
X142710704Y-98904169D01*
X142707604Y-98912478D01*
X142707604Y-98912480D01*
X142663120Y-99031747D01*
X142663119Y-99031750D01*
X142660409Y-99039017D01*
X142659579Y-99046727D01*
X142659579Y-99046732D01*
X142654355Y-99095319D01*
X142654354Y-99095331D01*
X142654000Y-99098627D01*
X142654000Y-99101948D01*
X142654000Y-99101949D01*
X142654000Y-100638860D01*
X142654000Y-100638878D01*
X142654001Y-100642172D01*
X142654353Y-100645450D01*
X142654354Y-100645461D01*
X142659579Y-100694068D01*
X142659580Y-100694073D01*
X142660409Y-100701783D01*
X142663119Y-100709049D01*
X142663120Y-100709053D01*
X142692207Y-100787038D01*
X142710704Y-100836631D01*
X142716018Y-100843730D01*
X142716019Y-100843731D01*
X142784505Y-100935217D01*
X142796954Y-100951846D01*
X142912169Y-101038096D01*
X143047017Y-101088391D01*
X143106627Y-101094800D01*
X144582249Y-101094799D01*
X144641983Y-101110136D01*
X144686942Y-101152354D01*
X144706002Y-101211009D01*
X144694448Y-101271591D01*
X144655137Y-101319113D01*
X144649392Y-101323286D01*
X144649379Y-101323297D01*
X144644129Y-101327112D01*
X144639784Y-101331937D01*
X144639779Y-101331942D01*
X144521813Y-101462956D01*
X144521808Y-101462962D01*
X144517467Y-101467784D01*
X144514222Y-101473404D01*
X144514218Y-101473410D01*
X144426069Y-101626089D01*
X144426066Y-101626094D01*
X144422821Y-101631716D01*
X144420815Y-101637888D01*
X144420813Y-101637894D01*
X144366333Y-101805564D01*
X144366331Y-101805573D01*
X144364326Y-101811744D01*
X144363648Y-101818194D01*
X144363646Y-101818204D01*
X144347110Y-101975551D01*
X144344540Y-102000000D01*
X144345219Y-102006460D01*
X144363646Y-102181795D01*
X144363647Y-102181803D01*
X144364326Y-102188256D01*
X144366331Y-102194428D01*
X144366333Y-102194435D01*
X144382075Y-102242882D01*
X144386617Y-102300598D01*
X144364462Y-102354085D01*
X144320439Y-102391685D01*
X144264144Y-102405200D01*
X143109939Y-102405200D01*
X143109920Y-102405200D01*
X143106628Y-102405201D01*
X143103350Y-102405553D01*
X143103338Y-102405554D01*
X143054731Y-102410779D01*
X143054725Y-102410780D01*
X143047017Y-102411609D01*
X143039752Y-102414318D01*
X143039746Y-102414320D01*
X142920480Y-102458804D01*
X142920478Y-102458804D01*
X142912169Y-102461904D01*
X142905072Y-102467216D01*
X142905068Y-102467219D01*
X142804050Y-102542841D01*
X142804046Y-102542844D01*
X142796954Y-102548154D01*
X142791644Y-102555246D01*
X142791641Y-102555250D01*
X142716019Y-102656268D01*
X142716016Y-102656272D01*
X142710704Y-102663369D01*
X142707604Y-102671678D01*
X142707604Y-102671680D01*
X142663120Y-102790947D01*
X142663119Y-102790950D01*
X142660409Y-102798217D01*
X142659579Y-102805927D01*
X142659579Y-102805932D01*
X142654355Y-102854519D01*
X142654354Y-102854531D01*
X142654000Y-102857827D01*
X142654000Y-102861149D01*
X142654000Y-102880100D01*
X142637387Y-102942100D01*
X142592000Y-102987487D01*
X142530000Y-103004100D01*
X142306795Y-103004100D01*
X142246363Y-102988377D01*
X142201257Y-102945198D01*
X142192712Y-102931344D01*
X142068656Y-102807288D01*
X142062515Y-102803500D01*
X142062511Y-102803497D01*
X141925480Y-102718977D01*
X141919334Y-102715186D01*
X141892228Y-102706204D01*
X141759225Y-102662131D01*
X141759224Y-102662130D01*
X141752797Y-102660001D01*
X141746064Y-102659313D01*
X141746059Y-102659312D01*
X141653140Y-102649819D01*
X141653123Y-102649818D01*
X141650009Y-102649500D01*
X141646860Y-102649500D01*
X139353140Y-102649500D01*
X139353120Y-102649500D01*
X139349992Y-102649501D01*
X139346860Y-102649820D01*
X139346858Y-102649821D01*
X139253938Y-102659312D01*
X139253928Y-102659313D01*
X139247203Y-102660001D01*
X139240781Y-102662128D01*
X139240776Y-102662130D01*
X139087521Y-102712914D01*
X139087517Y-102712915D01*
X139080666Y-102715186D01*
X139074522Y-102718975D01*
X139074519Y-102718977D01*
X138937488Y-102803497D01*
X138937480Y-102803503D01*
X138931344Y-102807288D01*
X138926242Y-102812389D01*
X138926238Y-102812393D01*
X138812393Y-102926238D01*
X138812389Y-102926242D01*
X138807288Y-102931344D01*
X138803503Y-102937480D01*
X138803497Y-102937488D01*
X138718977Y-103074519D01*
X138715186Y-103080666D01*
X138712915Y-103087517D01*
X138712914Y-103087521D01*
X138672863Y-103208387D01*
X138660001Y-103247203D01*
X138659313Y-103253933D01*
X138659312Y-103253940D01*
X138649819Y-103346859D01*
X138649818Y-103346877D01*
X138649500Y-103349991D01*
X138649500Y-103353138D01*
X138649500Y-103353139D01*
X138649500Y-104096858D01*
X138649500Y-104096877D01*
X138649501Y-104100008D01*
X138649820Y-104103140D01*
X138649821Y-104103141D01*
X138659312Y-104196061D01*
X138659313Y-104196069D01*
X138660001Y-104202797D01*
X138662129Y-104209219D01*
X138662130Y-104209223D01*
X138685097Y-104278532D01*
X138715186Y-104369334D01*
X138718977Y-104375480D01*
X138803497Y-104512511D01*
X138803500Y-104512515D01*
X138807288Y-104518656D01*
X138931344Y-104642712D01*
X138937485Y-104646500D01*
X138937488Y-104646502D01*
X138960890Y-104660936D01*
X139080666Y-104734814D01*
X139247203Y-104789999D01*
X139349991Y-104800500D01*
X141650008Y-104800499D01*
X141752797Y-104789999D01*
X141919334Y-104734814D01*
X142068656Y-104642712D01*
X142192712Y-104518656D01*
X142284814Y-104369334D01*
X142294502Y-104340095D01*
X142320380Y-104295772D01*
X142361992Y-104265723D01*
X142412208Y-104255100D01*
X142530001Y-104255100D01*
X142592001Y-104271713D01*
X142637388Y-104317100D01*
X142654001Y-104379100D01*
X142654001Y-104401372D01*
X142654353Y-104404650D01*
X142654354Y-104404661D01*
X142659579Y-104453268D01*
X142659580Y-104453273D01*
X142660409Y-104460983D01*
X142663119Y-104468249D01*
X142663120Y-104468253D01*
X142683836Y-104523794D01*
X142710704Y-104595831D01*
X142716018Y-104602930D01*
X142716019Y-104602931D01*
X142755898Y-104656203D01*
X142796954Y-104711046D01*
X142912169Y-104797296D01*
X142919341Y-104799971D01*
X142961179Y-104837535D01*
X142982077Y-104890544D01*
X142977062Y-104947303D01*
X142962624Y-104990876D01*
X142959805Y-105004041D01*
X142950319Y-105096890D01*
X142950000Y-105103168D01*
X142950000Y-105983674D01*
X142953450Y-105996549D01*
X142966326Y-106000000D01*
X145083673Y-106000000D01*
X145096548Y-105996549D01*
X145099999Y-105983674D01*
X145099999Y-105103171D01*
X145099678Y-105096888D01*
X145090193Y-105004035D01*
X145090176Y-105003953D01*
X145090176Y-105003872D01*
X145089506Y-104997304D01*
X145090255Y-104997227D01*
X145090824Y-104949181D01*
X145115007Y-104900032D01*
X145158006Y-104866098D01*
X145211427Y-104853999D01*
X145788056Y-104853999D01*
X145841479Y-104866097D01*
X145884477Y-104900031D01*
X145908660Y-104949179D01*
X145909228Y-104997124D01*
X145910001Y-104997203D01*
X145899819Y-105096859D01*
X145899818Y-105096877D01*
X145899500Y-105099991D01*
X145899500Y-105103138D01*
X145899500Y-105103139D01*
X145899500Y-107396859D01*
X145899500Y-107396878D01*
X145899501Y-107400008D01*
X145899820Y-107403140D01*
X145899821Y-107403141D01*
X145909312Y-107496061D01*
X145909313Y-107496069D01*
X145910001Y-107502797D01*
X145912129Y-107509219D01*
X145912130Y-107509223D01*
X145946186Y-107611996D01*
X145951037Y-107669863D01*
X145929010Y-107723593D01*
X145884936Y-107761402D01*
X145828481Y-107775000D01*
X145704835Y-107775000D01*
X145698552Y-107775321D01*
X145609132Y-107784455D01*
X145595963Y-107787274D01*
X145448374Y-107836180D01*
X145435366Y-107842246D01*
X145303419Y-107923632D01*
X145292157Y-107932537D01*
X145182537Y-108042157D01*
X145173632Y-108053419D01*
X145092246Y-108185366D01*
X145086180Y-108198374D01*
X145037272Y-108345969D01*
X145034456Y-108359125D01*
X145025319Y-108448555D01*
X145025000Y-108454832D01*
X145025000Y-108483674D01*
X145028450Y-108496549D01*
X145041326Y-108500000D01*
X146101000Y-108500000D01*
X146163000Y-108516613D01*
X146208387Y-108562000D01*
X146225000Y-108624000D01*
X146225000Y-109708673D01*
X146228450Y-109721548D01*
X146241326Y-109724999D01*
X146245165Y-109724999D01*
X146251447Y-109724678D01*
X146340867Y-109715544D01*
X146354036Y-109712725D01*
X146501625Y-109663819D01*
X146514633Y-109657753D01*
X146646584Y-109576364D01*
X146657831Y-109567472D01*
X146661955Y-109563348D01*
X146717544Y-109531248D01*
X146781735Y-109531244D01*
X146837327Y-109563339D01*
X146846956Y-109572968D01*
X146852603Y-109576451D01*
X146887109Y-109619447D01*
X146899500Y-109673479D01*
X146899500Y-110414547D01*
X146890061Y-110462000D01*
X146863181Y-110502228D01*
X146527228Y-110838181D01*
X146487000Y-110865061D01*
X146439547Y-110874500D01*
X141810452Y-110874500D01*
X141762999Y-110865061D01*
X141722771Y-110838181D01*
X139929756Y-109045165D01*
X145025001Y-109045165D01*
X145025321Y-109051447D01*
X145034455Y-109140867D01*
X145037274Y-109154036D01*
X145086180Y-109301625D01*
X145092246Y-109314633D01*
X145173632Y-109446580D01*
X145182537Y-109457842D01*
X145292157Y-109567462D01*
X145303419Y-109576367D01*
X145435366Y-109657753D01*
X145448374Y-109663819D01*
X145595969Y-109712727D01*
X145609125Y-109715543D01*
X145698555Y-109724680D01*
X145704832Y-109725000D01*
X145708674Y-109725000D01*
X145721549Y-109721549D01*
X145725000Y-109708674D01*
X145725000Y-109016326D01*
X145721549Y-109003450D01*
X145708674Y-109000000D01*
X145041327Y-109000000D01*
X145028451Y-109003450D01*
X145025001Y-109016326D01*
X145025001Y-109045165D01*
X139929756Y-109045165D01*
X139438961Y-108554370D01*
X139414721Y-108520072D01*
X139403321Y-108479650D01*
X139402866Y-108475325D01*
X139385674Y-108311744D01*
X139327179Y-108131716D01*
X139232533Y-107967784D01*
X139227945Y-107962689D01*
X139110220Y-107831942D01*
X139110219Y-107831941D01*
X139105871Y-107827112D01*
X139100613Y-107823292D01*
X139100611Y-107823290D01*
X138957988Y-107719669D01*
X138957987Y-107719668D01*
X138952730Y-107715849D01*
X138946792Y-107713205D01*
X138785745Y-107641501D01*
X138785740Y-107641499D01*
X138779803Y-107638856D01*
X138773444Y-107637504D01*
X138773440Y-107637503D01*
X138601008Y-107600852D01*
X138601005Y-107600851D01*
X138594646Y-107599500D01*
X138405354Y-107599500D01*
X138398995Y-107600851D01*
X138398991Y-107600852D01*
X138226559Y-107637503D01*
X138226552Y-107637505D01*
X138220197Y-107638856D01*
X138214262Y-107641498D01*
X138214254Y-107641501D01*
X138053207Y-107713205D01*
X138053202Y-107713207D01*
X138047270Y-107715849D01*
X138042016Y-107719665D01*
X138042011Y-107719669D01*
X137899388Y-107823290D01*
X137899381Y-107823295D01*
X137894129Y-107827112D01*
X137889784Y-107831937D01*
X137889779Y-107831942D01*
X137771813Y-107962956D01*
X137771808Y-107962962D01*
X137767467Y-107967784D01*
X137764222Y-107973404D01*
X137764218Y-107973410D01*
X137676069Y-108126089D01*
X137676066Y-108126094D01*
X137672821Y-108131716D01*
X137670815Y-108137888D01*
X137670813Y-108137894D01*
X137616333Y-108305564D01*
X137616331Y-108305573D01*
X137614326Y-108311744D01*
X137613648Y-108318194D01*
X137613646Y-108318204D01*
X137597773Y-108469236D01*
X137594540Y-108500000D01*
X137595219Y-108506460D01*
X137613646Y-108681795D01*
X137613647Y-108681803D01*
X137614326Y-108688256D01*
X137616331Y-108694428D01*
X137616333Y-108694435D01*
X137670813Y-108862105D01*
X137672821Y-108868284D01*
X137676068Y-108873908D01*
X137676069Y-108873910D01*
X137759465Y-109018357D01*
X137767467Y-109032216D01*
X137771811Y-109037041D01*
X137771813Y-109037043D01*
X137885259Y-109163037D01*
X137894129Y-109172888D01*
X137899387Y-109176708D01*
X137899388Y-109176709D01*
X137906529Y-109181897D01*
X138047270Y-109284151D01*
X138220197Y-109361144D01*
X138405354Y-109400500D01*
X138464548Y-109400500D01*
X138512001Y-109409939D01*
X138552229Y-109436819D01*
X140278229Y-111162819D01*
X140308479Y-111212182D01*
X140313021Y-111269898D01*
X140290866Y-111323385D01*
X140246843Y-111360985D01*
X140190548Y-111374500D01*
X137035147Y-111374500D01*
X136987694Y-111365061D01*
X136947466Y-111338181D01*
X134186819Y-108577533D01*
X134159939Y-108537305D01*
X134150500Y-108489852D01*
X134150500Y-108077771D01*
X134151020Y-108066718D01*
X134152672Y-108059332D01*
X134150561Y-107992144D01*
X134150500Y-107988250D01*
X134150500Y-107964545D01*
X134150500Y-107960650D01*
X134149998Y-107956681D01*
X134149080Y-107945024D01*
X134147709Y-107901373D01*
X134142119Y-107882135D01*
X134138175Y-107863091D01*
X134135664Y-107843208D01*
X134119582Y-107802591D01*
X134115798Y-107791539D01*
X134111336Y-107776180D01*
X134103617Y-107749610D01*
X134099645Y-107742894D01*
X134099643Y-107742889D01*
X134093422Y-107732370D01*
X134084860Y-107714892D01*
X134080360Y-107703527D01*
X134080359Y-107703526D01*
X134077486Y-107696268D01*
X134051812Y-107660931D01*
X134045409Y-107651184D01*
X134023170Y-107613579D01*
X134009005Y-107599414D01*
X133996368Y-107584618D01*
X133989184Y-107574729D01*
X133989178Y-107574723D01*
X133984594Y-107568413D01*
X133950946Y-107540577D01*
X133942305Y-107532714D01*
X133806420Y-107396829D01*
X142950001Y-107396829D01*
X142950321Y-107403111D01*
X142959805Y-107495959D01*
X142962623Y-107509122D01*
X143013370Y-107662267D01*
X143019432Y-107675266D01*
X143103890Y-107812194D01*
X143112794Y-107823455D01*
X143226544Y-107937205D01*
X143237805Y-107946109D01*
X143374733Y-108030567D01*
X143387732Y-108036629D01*
X143540874Y-108087375D01*
X143554041Y-108090194D01*
X143646890Y-108099680D01*
X143653168Y-108100000D01*
X143758674Y-108100000D01*
X143771549Y-108096549D01*
X143775000Y-108083674D01*
X143775000Y-108083673D01*
X144275000Y-108083673D01*
X144278450Y-108096548D01*
X144291326Y-108099999D01*
X144396829Y-108099999D01*
X144403111Y-108099678D01*
X144495959Y-108090194D01*
X144509122Y-108087376D01*
X144662267Y-108036629D01*
X144675266Y-108030567D01*
X144812194Y-107946109D01*
X144823455Y-107937205D01*
X144937205Y-107823455D01*
X144946109Y-107812194D01*
X145030567Y-107675266D01*
X145036629Y-107662267D01*
X145087375Y-107509125D01*
X145090194Y-107495958D01*
X145099680Y-107403109D01*
X145100000Y-107396832D01*
X145100000Y-106516326D01*
X145096549Y-106503450D01*
X145083674Y-106500000D01*
X144291326Y-106500000D01*
X144278450Y-106503450D01*
X144275000Y-106516326D01*
X144275000Y-108083673D01*
X143775000Y-108083673D01*
X143775000Y-106516326D01*
X143771549Y-106503450D01*
X143758674Y-106500000D01*
X142966327Y-106500000D01*
X142953451Y-106503450D01*
X142950001Y-106516326D01*
X142950001Y-107396829D01*
X133806420Y-107396829D01*
X127261818Y-100852227D01*
X127234938Y-100811999D01*
X127225499Y-100764546D01*
X127225499Y-100454805D01*
X127225499Y-100451656D01*
X127215349Y-100352292D01*
X127162003Y-100191303D01*
X127072968Y-100046956D01*
X126953044Y-99927032D01*
X126947396Y-99923548D01*
X126912891Y-99880553D01*
X126900500Y-99826521D01*
X126900500Y-99239171D01*
X126901021Y-99228115D01*
X126902673Y-99220729D01*
X126900561Y-99153523D01*
X126900500Y-99149628D01*
X126900500Y-99125937D01*
X126900500Y-99122046D01*
X126899998Y-99118073D01*
X126899080Y-99106414D01*
X126898835Y-99098628D01*
X126897709Y-99062769D01*
X126892120Y-99043536D01*
X126888174Y-99024479D01*
X126886641Y-99012340D01*
X126885664Y-99004604D01*
X126869582Y-98963987D01*
X126865803Y-98952947D01*
X126855795Y-98918498D01*
X126855793Y-98918495D01*
X126853618Y-98911006D01*
X126843417Y-98893756D01*
X126834863Y-98876297D01*
X126827486Y-98857664D01*
X126801808Y-98822321D01*
X126795401Y-98812567D01*
X126777142Y-98781692D01*
X126777141Y-98781690D01*
X126773170Y-98774976D01*
X126759005Y-98760811D01*
X126746370Y-98746018D01*
X126734594Y-98729809D01*
X126728583Y-98724836D01*
X126728581Y-98724834D01*
X126700941Y-98701969D01*
X126692300Y-98694106D01*
X125911819Y-97913624D01*
X125884939Y-97873396D01*
X125875500Y-97825943D01*
X125875500Y-97198687D01*
X125883736Y-97154249D01*
X125907350Y-97115715D01*
X125910248Y-97112496D01*
X125982533Y-97032216D01*
X126077179Y-96868284D01*
X126135674Y-96688256D01*
X126155460Y-96500000D01*
X126149629Y-96444518D01*
X126750000Y-96444518D01*
X126750353Y-96451114D01*
X126755573Y-96499667D01*
X126759111Y-96514641D01*
X126803547Y-96633777D01*
X126811962Y-96649189D01*
X126887498Y-96750092D01*
X126899907Y-96762501D01*
X127000810Y-96838037D01*
X127016222Y-96846452D01*
X127135358Y-96890888D01*
X127150332Y-96894426D01*
X127198885Y-96899646D01*
X127205482Y-96900000D01*
X127533674Y-96900000D01*
X127546549Y-96896549D01*
X127550000Y-96883674D01*
X128050000Y-96883674D01*
X128053450Y-96896549D01*
X128066326Y-96900000D01*
X128394518Y-96900000D01*
X128401114Y-96899646D01*
X128449667Y-96894426D01*
X128464641Y-96890888D01*
X128583777Y-96846452D01*
X128599189Y-96838037D01*
X128700092Y-96762501D01*
X128712501Y-96750092D01*
X128788037Y-96649189D01*
X128796452Y-96633777D01*
X128840888Y-96514641D01*
X128844426Y-96499667D01*
X128849646Y-96451114D01*
X128850000Y-96444518D01*
X128850000Y-95716326D01*
X128846549Y-95703450D01*
X128833674Y-95700000D01*
X128066326Y-95700000D01*
X128053450Y-95703450D01*
X128050000Y-95716326D01*
X128050000Y-96883674D01*
X127550000Y-96883674D01*
X127550000Y-95716326D01*
X127546549Y-95703450D01*
X127533674Y-95700000D01*
X126766326Y-95700000D01*
X126753450Y-95703450D01*
X126750000Y-95716326D01*
X126750000Y-96444518D01*
X126149629Y-96444518D01*
X126140121Y-96354052D01*
X126136353Y-96318204D01*
X126136352Y-96318203D01*
X126135674Y-96311744D01*
X126077179Y-96131716D01*
X125982533Y-95967784D01*
X125855871Y-95827112D01*
X125850613Y-95823292D01*
X125850611Y-95823290D01*
X125707988Y-95719669D01*
X125707987Y-95719668D01*
X125702730Y-95715849D01*
X125696792Y-95713205D01*
X125535745Y-95641501D01*
X125535740Y-95641499D01*
X125529803Y-95638856D01*
X125523444Y-95637504D01*
X125523440Y-95637503D01*
X125351008Y-95600852D01*
X125351005Y-95600851D01*
X125344646Y-95599500D01*
X125155354Y-95599500D01*
X125148995Y-95600851D01*
X125148991Y-95600852D01*
X124976559Y-95637503D01*
X124976552Y-95637505D01*
X124970197Y-95638856D01*
X124964262Y-95641498D01*
X124964254Y-95641501D01*
X124799936Y-95714662D01*
X124739771Y-95725001D01*
X124681965Y-95705378D01*
X124640527Y-95660551D01*
X124625500Y-95601383D01*
X124625500Y-95577772D01*
X124626020Y-95566719D01*
X124627672Y-95559333D01*
X124625561Y-95492145D01*
X124625500Y-95488251D01*
X124625500Y-95464545D01*
X124625500Y-95460650D01*
X124624998Y-95456681D01*
X124624080Y-95445024D01*
X124624065Y-95444551D01*
X124622709Y-95401373D01*
X124617120Y-95382140D01*
X124613174Y-95363083D01*
X124611641Y-95350944D01*
X124610664Y-95343208D01*
X124594582Y-95302591D01*
X124590803Y-95291551D01*
X124580795Y-95257102D01*
X124580793Y-95257099D01*
X124578618Y-95249610D01*
X124574647Y-95242896D01*
X124574645Y-95242891D01*
X124568421Y-95232368D01*
X124559858Y-95214890D01*
X124552486Y-95196268D01*
X124543336Y-95183674D01*
X126750000Y-95183674D01*
X126753450Y-95196549D01*
X126766326Y-95200000D01*
X127533674Y-95200000D01*
X127546549Y-95196549D01*
X127550000Y-95183674D01*
X128050000Y-95183674D01*
X128053450Y-95196549D01*
X128066326Y-95200000D01*
X128833674Y-95200000D01*
X128846549Y-95196549D01*
X128850000Y-95183674D01*
X128850000Y-94455482D01*
X128849646Y-94448885D01*
X128844426Y-94400332D01*
X128840888Y-94385358D01*
X128796452Y-94266222D01*
X128788037Y-94250810D01*
X128712501Y-94149907D01*
X128700092Y-94137498D01*
X128599189Y-94061962D01*
X128583777Y-94053547D01*
X128464641Y-94009111D01*
X128449667Y-94005573D01*
X128401114Y-94000353D01*
X128394518Y-94000000D01*
X128066326Y-94000000D01*
X128053450Y-94003450D01*
X128050000Y-94016326D01*
X128050000Y-95183674D01*
X127550000Y-95183674D01*
X127550000Y-94016326D01*
X127546549Y-94003450D01*
X127533674Y-94000000D01*
X127205482Y-94000000D01*
X127198885Y-94000353D01*
X127150332Y-94005573D01*
X127135358Y-94009111D01*
X127016222Y-94053547D01*
X127000810Y-94061962D01*
X126899907Y-94137498D01*
X126887498Y-94149907D01*
X126811962Y-94250810D01*
X126803547Y-94266222D01*
X126759111Y-94385358D01*
X126755573Y-94400332D01*
X126750353Y-94448885D01*
X126750000Y-94455482D01*
X126750000Y-95183674D01*
X124543336Y-95183674D01*
X124526812Y-95160931D01*
X124520409Y-95151184D01*
X124498170Y-95113579D01*
X124484005Y-95099414D01*
X124471368Y-95084618D01*
X124464184Y-95074729D01*
X124464178Y-95074723D01*
X124459594Y-95068413D01*
X124425946Y-95040577D01*
X124417305Y-95032714D01*
X123747286Y-94362695D01*
X123739842Y-94354514D01*
X123735786Y-94348123D01*
X123686775Y-94302098D01*
X123683978Y-94299387D01*
X123667227Y-94282636D01*
X123667226Y-94282635D01*
X123664471Y-94279880D01*
X123661290Y-94277412D01*
X123652414Y-94269830D01*
X123626269Y-94245278D01*
X123626267Y-94245276D01*
X123620582Y-94239938D01*
X123613749Y-94236182D01*
X123613743Y-94236177D01*
X123603025Y-94230285D01*
X123586766Y-94219606D01*
X123577095Y-94212104D01*
X123577092Y-94212102D01*
X123570936Y-94207327D01*
X123563779Y-94204229D01*
X123563776Y-94204228D01*
X123530849Y-94189978D01*
X123520363Y-94184841D01*
X123488932Y-94167562D01*
X123488923Y-94167558D01*
X123482092Y-94163803D01*
X123474535Y-94161862D01*
X123474531Y-94161861D01*
X123462688Y-94158820D01*
X123444284Y-94152519D01*
X123433057Y-94147660D01*
X123433050Y-94147658D01*
X123425896Y-94144562D01*
X123418192Y-94143341D01*
X123418190Y-94143341D01*
X123382759Y-94137729D01*
X123371324Y-94135361D01*
X123336571Y-94126438D01*
X123336563Y-94126437D01*
X123329019Y-94124500D01*
X123321223Y-94124500D01*
X123308983Y-94124500D01*
X123289597Y-94122974D01*
X123269804Y-94119840D01*
X123262038Y-94120574D01*
X123262035Y-94120574D01*
X123226324Y-94123950D01*
X123214655Y-94124500D01*
X121453748Y-94124500D01*
X121403315Y-94113781D01*
X121365218Y-94086104D01*
X121365050Y-94086291D01*
X121363271Y-94084689D01*
X121361601Y-94083476D01*
X121355871Y-94077112D01*
X121350613Y-94073292D01*
X121350611Y-94073290D01*
X121207988Y-93969669D01*
X121207987Y-93969668D01*
X121202730Y-93965849D01*
X121196792Y-93963205D01*
X121035745Y-93891501D01*
X121035740Y-93891499D01*
X121029803Y-93888856D01*
X121023444Y-93887504D01*
X121023440Y-93887503D01*
X120851008Y-93850852D01*
X120851005Y-93850851D01*
X120844646Y-93849500D01*
X120655354Y-93849500D01*
X120648995Y-93850851D01*
X120648991Y-93850852D01*
X120578422Y-93865852D01*
X120525279Y-93877147D01*
X120470553Y-93876432D01*
X120421464Y-93852224D01*
X120387579Y-93809241D01*
X120375500Y-93755858D01*
X120375500Y-93310452D01*
X120384939Y-93262999D01*
X120411819Y-93222771D01*
X120472771Y-93161819D01*
X120512999Y-93134939D01*
X120560452Y-93125500D01*
X121420981Y-93125500D01*
X121539350Y-93125500D01*
X122546252Y-93125500D01*
X122596685Y-93136219D01*
X122634781Y-93163895D01*
X122634950Y-93163709D01*
X122636728Y-93165310D01*
X122638398Y-93166523D01*
X122644129Y-93172888D01*
X122797270Y-93284151D01*
X122970197Y-93361144D01*
X123155354Y-93400500D01*
X123338143Y-93400500D01*
X123344646Y-93400500D01*
X123529803Y-93361144D01*
X123702730Y-93284151D01*
X123855871Y-93172888D01*
X123982533Y-93032216D01*
X124077179Y-92868284D01*
X124135674Y-92688256D01*
X124155460Y-92500000D01*
X124142724Y-92378819D01*
X124136353Y-92318204D01*
X124136352Y-92318203D01*
X124135674Y-92311744D01*
X124125757Y-92281225D01*
X124122397Y-92217128D01*
X124151537Y-92159936D01*
X124205369Y-92124976D01*
X124269469Y-92121617D01*
X124405354Y-92150500D01*
X124588143Y-92150500D01*
X124594646Y-92150500D01*
X124779803Y-92111144D01*
X124952730Y-92034151D01*
X125105871Y-91922888D01*
X125232533Y-91782216D01*
X125327179Y-91618284D01*
X125385674Y-91438256D01*
X125405460Y-91250000D01*
X125385674Y-91061744D01*
X125327179Y-90881716D01*
X125232533Y-90717784D01*
X125148539Y-90624500D01*
X125110220Y-90581942D01*
X125110219Y-90581941D01*
X125105871Y-90577112D01*
X125100613Y-90573292D01*
X125100611Y-90573290D01*
X124957988Y-90469669D01*
X124957987Y-90469668D01*
X124952730Y-90465849D01*
X124946792Y-90463205D01*
X124785745Y-90391501D01*
X124785740Y-90391499D01*
X124779803Y-90388856D01*
X124773444Y-90387504D01*
X124773440Y-90387503D01*
X124601008Y-90350852D01*
X124601005Y-90350851D01*
X124594646Y-90349500D01*
X124405354Y-90349500D01*
X124398995Y-90350851D01*
X124398991Y-90350852D01*
X124226559Y-90387503D01*
X124226552Y-90387505D01*
X124220197Y-90388856D01*
X124214262Y-90391498D01*
X124214254Y-90391501D01*
X124053207Y-90463205D01*
X124053202Y-90463207D01*
X124047270Y-90465849D01*
X124042020Y-90469663D01*
X124042017Y-90469665D01*
X123925764Y-90554128D01*
X123877382Y-90575364D01*
X123824551Y-90574530D01*
X123788504Y-90557331D01*
X123787598Y-90558865D01*
X123656108Y-90481102D01*
X123656106Y-90481101D01*
X123649393Y-90477131D01*
X123623695Y-90469665D01*
X123501292Y-90434103D01*
X123501285Y-90434101D01*
X123495204Y-90432335D01*
X123488893Y-90431838D01*
X123488886Y-90431837D01*
X123461615Y-90429691D01*
X123461600Y-90429690D01*
X123459181Y-90429500D01*
X123456735Y-90429500D01*
X123063243Y-90429500D01*
X123063217Y-90429500D01*
X123060820Y-90429501D01*
X123058406Y-90429690D01*
X123058403Y-90429691D01*
X123031111Y-90431838D01*
X123031109Y-90431838D01*
X123024796Y-90432335D01*
X123018718Y-90434100D01*
X123018711Y-90434102D01*
X122878099Y-90474954D01*
X122878096Y-90474955D01*
X122870607Y-90477131D01*
X122863894Y-90481100D01*
X122863889Y-90481103D01*
X122813118Y-90511128D01*
X122749998Y-90528395D01*
X122686879Y-90511127D01*
X122636112Y-90481104D01*
X122636108Y-90481102D01*
X122629393Y-90477131D01*
X122603695Y-90469665D01*
X122481292Y-90434103D01*
X122481285Y-90434101D01*
X122475204Y-90432335D01*
X122468893Y-90431838D01*
X122468886Y-90431837D01*
X122441615Y-90429691D01*
X122441600Y-90429690D01*
X122439181Y-90429500D01*
X122436735Y-90429500D01*
X122043243Y-90429500D01*
X122043217Y-90429500D01*
X122040820Y-90429501D01*
X122038406Y-90429690D01*
X122038403Y-90429691D01*
X122011111Y-90431838D01*
X122011109Y-90431838D01*
X122004796Y-90432335D01*
X121998718Y-90434100D01*
X121998711Y-90434102D01*
X121858099Y-90474954D01*
X121858096Y-90474955D01*
X121850607Y-90477131D01*
X121843896Y-90481099D01*
X121843891Y-90481102D01*
X121719119Y-90554892D01*
X121719115Y-90554894D01*
X121712402Y-90558865D01*
X121706887Y-90564379D01*
X121706883Y-90564383D01*
X121683086Y-90588181D01*
X121642858Y-90615061D01*
X121595405Y-90624500D01*
X120397272Y-90624500D01*
X120349819Y-90615061D01*
X120309591Y-90588181D01*
X120288338Y-90566928D01*
X120282820Y-90561410D01*
X120276106Y-90557439D01*
X120276103Y-90557437D01*
X120148612Y-90482040D01*
X120148610Y-90482039D01*
X120141897Y-90478069D01*
X120112971Y-90469665D01*
X119990763Y-90434159D01*
X119990755Y-90434157D01*
X119984675Y-90432391D01*
X119978364Y-90431894D01*
X119978357Y-90431893D01*
X119950374Y-90429691D01*
X119950360Y-90429690D01*
X119947940Y-90429500D01*
X119522060Y-90429500D01*
X119519640Y-90429690D01*
X119519625Y-90429691D01*
X119491642Y-90431893D01*
X119491633Y-90431894D01*
X119485325Y-90432391D01*
X119479245Y-90434157D01*
X119479236Y-90434159D01*
X119335595Y-90475892D01*
X119335592Y-90475893D01*
X119328103Y-90478069D01*
X119321393Y-90482036D01*
X119321384Y-90482041D01*
X119313116Y-90486931D01*
X119250000Y-90504196D01*
X119186884Y-90486931D01*
X119178615Y-90482041D01*
X119178609Y-90482038D01*
X119171897Y-90478069D01*
X119142971Y-90469665D01*
X119020763Y-90434159D01*
X119020755Y-90434157D01*
X119014675Y-90432391D01*
X119008364Y-90431894D01*
X119008357Y-90431893D01*
X118980374Y-90429691D01*
X118980360Y-90429690D01*
X118977940Y-90429500D01*
X118552060Y-90429500D01*
X118549640Y-90429690D01*
X118549625Y-90429691D01*
X118521642Y-90431893D01*
X118521633Y-90431894D01*
X118515325Y-90432391D01*
X118509245Y-90434157D01*
X118509236Y-90434159D01*
X118365595Y-90475892D01*
X118365592Y-90475893D01*
X118358103Y-90478069D01*
X118351392Y-90482037D01*
X118351387Y-90482040D01*
X118223896Y-90557437D01*
X118223889Y-90557442D01*
X118217180Y-90561410D01*
X118211665Y-90566924D01*
X118211661Y-90566928D01*
X118106928Y-90671661D01*
X118106924Y-90671665D01*
X118101410Y-90677180D01*
X118097442Y-90683889D01*
X118097437Y-90683896D01*
X118022040Y-90811387D01*
X118022037Y-90811392D01*
X118018069Y-90818103D01*
X118015893Y-90825592D01*
X118015892Y-90825595D01*
X117974159Y-90969236D01*
X117974157Y-90969245D01*
X117972391Y-90975325D01*
X117971894Y-90981633D01*
X117971893Y-90981642D01*
X117969691Y-91009625D01*
X117969690Y-91009640D01*
X117969500Y-91012060D01*
X117969500Y-91487940D01*
X117969690Y-91490360D01*
X117969691Y-91490374D01*
X117971893Y-91518357D01*
X117971894Y-91518364D01*
X117972391Y-91524675D01*
X117974157Y-91530755D01*
X117974159Y-91530763D01*
X117987630Y-91577128D01*
X118018069Y-91681897D01*
X118022039Y-91688610D01*
X118022040Y-91688612D01*
X118080251Y-91787043D01*
X118101410Y-91822820D01*
X118103463Y-91824873D01*
X118127616Y-91883183D01*
X118129336Y-91896792D01*
X118132206Y-91904042D01*
X118132208Y-91904048D01*
X118145414Y-91937404D01*
X118149197Y-91948451D01*
X118161382Y-91990390D01*
X118165353Y-91997105D01*
X118165354Y-91997107D01*
X118171581Y-92007637D01*
X118180136Y-92025099D01*
X118184642Y-92036480D01*
X118184643Y-92036483D01*
X118187514Y-92043732D01*
X118204522Y-92067141D01*
X118213181Y-92079060D01*
X118219593Y-92088822D01*
X118237856Y-92119702D01*
X118237859Y-92119707D01*
X118241830Y-92126420D01*
X118247344Y-92131934D01*
X118247345Y-92131935D01*
X118255990Y-92140580D01*
X118268626Y-92155374D01*
X118275819Y-92165275D01*
X118275823Y-92165279D01*
X118280406Y-92171587D01*
X118286415Y-92176558D01*
X118286416Y-92176559D01*
X118314058Y-92199426D01*
X118322699Y-92207289D01*
X118633181Y-92517771D01*
X118660061Y-92557999D01*
X118669500Y-92605452D01*
X118669500Y-95225500D01*
X118652887Y-95287500D01*
X118607500Y-95332887D01*
X118545500Y-95349500D01*
X118125439Y-95349500D01*
X118125420Y-95349500D01*
X118122128Y-95349501D01*
X118118850Y-95349853D01*
X118118838Y-95349854D01*
X118070231Y-95355079D01*
X118070225Y-95355080D01*
X118062517Y-95355909D01*
X118055252Y-95358618D01*
X118055246Y-95358620D01*
X117935980Y-95403104D01*
X117935978Y-95403104D01*
X117927669Y-95406204D01*
X117920572Y-95411516D01*
X117920564Y-95411521D01*
X117834157Y-95476205D01*
X117775809Y-95499906D01*
X117713343Y-95491887D01*
X117662873Y-95454217D01*
X117637418Y-95396612D01*
X117637350Y-95396190D01*
X117637191Y-95395075D01*
X117456097Y-94383547D01*
X117239286Y-93379068D01*
X116987029Y-92382899D01*
X116699643Y-91396292D01*
X116377489Y-90420484D01*
X116020971Y-89456700D01*
X115630536Y-88506150D01*
X115206674Y-87570027D01*
X114978579Y-87110336D01*
X114750390Y-86650454D01*
X114750387Y-86650448D01*
X114749919Y-86649505D01*
X114260842Y-85745742D01*
X114017605Y-85332020D01*
X114000500Y-85269176D01*
X114000500Y-85000000D01*
X118945000Y-85000000D01*
X118962963Y-85193856D01*
X118964531Y-85199367D01*
X118964533Y-85199377D01*
X119014671Y-85375591D01*
X119014673Y-85375597D01*
X119016242Y-85381110D01*
X119103021Y-85555386D01*
X119106473Y-85559957D01*
X119216888Y-85706171D01*
X119216892Y-85706176D01*
X119220346Y-85710749D01*
X119224582Y-85714610D01*
X119224586Y-85714615D01*
X119291473Y-85775590D01*
X119364220Y-85841908D01*
X119529746Y-85944397D01*
X119711286Y-86014726D01*
X119902657Y-86050500D01*
X119999901Y-86050500D01*
X120000000Y-86050500D01*
X120000500Y-86050500D01*
X136999500Y-86050500D01*
X137000099Y-86050500D01*
X137091614Y-86050500D01*
X137097343Y-86050500D01*
X137288714Y-86014726D01*
X137470254Y-85944397D01*
X137635780Y-85841908D01*
X137779654Y-85710749D01*
X137896979Y-85555386D01*
X137983758Y-85381110D01*
X138037037Y-85193856D01*
X138055000Y-85000000D01*
X152945000Y-85000000D01*
X152962963Y-85193856D01*
X152964531Y-85199367D01*
X152964533Y-85199377D01*
X153014671Y-85375591D01*
X153014673Y-85375597D01*
X153016242Y-85381110D01*
X153103021Y-85555386D01*
X153106473Y-85559957D01*
X153216888Y-85706171D01*
X153216892Y-85706176D01*
X153220346Y-85710749D01*
X153224582Y-85714610D01*
X153224586Y-85714615D01*
X153291473Y-85775590D01*
X153364220Y-85841908D01*
X153529746Y-85944397D01*
X153711286Y-86014726D01*
X153902657Y-86050500D01*
X153999901Y-86050500D01*
X154000000Y-86050500D01*
X154000500Y-86050500D01*
X173999500Y-86050500D01*
X174000099Y-86050500D01*
X174091614Y-86050500D01*
X174097343Y-86050500D01*
X174288714Y-86014726D01*
X174470254Y-85944397D01*
X174635780Y-85841908D01*
X174779654Y-85710749D01*
X174896979Y-85555386D01*
X174983758Y-85381110D01*
X175037037Y-85193856D01*
X175055000Y-85000000D01*
X175037037Y-84806144D01*
X175010475Y-84712791D01*
X174985328Y-84624408D01*
X174983758Y-84618890D01*
X174896979Y-84444614D01*
X174850975Y-84383696D01*
X174783111Y-84293828D01*
X174783107Y-84293824D01*
X174779654Y-84289251D01*
X174775417Y-84285388D01*
X174775413Y-84285384D01*
X174640014Y-84161952D01*
X174640015Y-84161952D01*
X174635780Y-84158092D01*
X174630910Y-84155077D01*
X174630908Y-84155075D01*
X174475128Y-84058621D01*
X174475129Y-84058621D01*
X174470254Y-84055603D01*
X174464911Y-84053533D01*
X174294061Y-83987345D01*
X174294056Y-83987343D01*
X174288714Y-83985274D01*
X174283076Y-83984220D01*
X174102972Y-83950552D01*
X174102969Y-83950551D01*
X174097343Y-83949500D01*
X174000099Y-83949500D01*
X154000500Y-83949500D01*
X154000000Y-83949500D01*
X153902657Y-83949500D01*
X153897031Y-83950551D01*
X153897027Y-83950552D01*
X153716923Y-83984220D01*
X153716920Y-83984220D01*
X153711286Y-83985274D01*
X153705946Y-83987342D01*
X153705938Y-83987345D01*
X153535088Y-84053533D01*
X153535083Y-84053535D01*
X153529746Y-84055603D01*
X153524874Y-84058619D01*
X153524871Y-84058621D01*
X153369091Y-84155075D01*
X153369083Y-84155080D01*
X153364220Y-84158092D01*
X153359989Y-84161948D01*
X153359985Y-84161952D01*
X153224586Y-84285384D01*
X153224576Y-84285394D01*
X153220346Y-84289251D01*
X153216897Y-84293817D01*
X153216888Y-84293828D01*
X153106473Y-84440042D01*
X153106470Y-84440046D01*
X153103021Y-84444614D01*
X153016242Y-84618890D01*
X153014674Y-84624398D01*
X153014671Y-84624408D01*
X152964533Y-84800622D01*
X152964530Y-84800633D01*
X152962963Y-84806144D01*
X152945000Y-85000000D01*
X138055000Y-85000000D01*
X138037037Y-84806144D01*
X138010475Y-84712791D01*
X137985328Y-84624408D01*
X137983758Y-84618890D01*
X137896979Y-84444614D01*
X137850975Y-84383696D01*
X137783111Y-84293828D01*
X137783107Y-84293824D01*
X137779654Y-84289251D01*
X137775417Y-84285388D01*
X137775413Y-84285384D01*
X137640014Y-84161952D01*
X137640015Y-84161952D01*
X137635780Y-84158092D01*
X137630910Y-84155077D01*
X137630908Y-84155075D01*
X137475128Y-84058621D01*
X137475129Y-84058621D01*
X137470254Y-84055603D01*
X137464911Y-84053533D01*
X137294061Y-83987345D01*
X137294056Y-83987343D01*
X137288714Y-83985274D01*
X137283076Y-83984220D01*
X137102972Y-83950552D01*
X137102969Y-83950551D01*
X137097343Y-83949500D01*
X137000099Y-83949500D01*
X120000500Y-83949500D01*
X120000000Y-83949500D01*
X119902657Y-83949500D01*
X119897031Y-83950551D01*
X119897027Y-83950552D01*
X119716923Y-83984220D01*
X119716920Y-83984220D01*
X119711286Y-83985274D01*
X119705946Y-83987342D01*
X119705938Y-83987345D01*
X119535088Y-84053533D01*
X119535083Y-84053535D01*
X119529746Y-84055603D01*
X119524874Y-84058619D01*
X119524871Y-84058621D01*
X119369091Y-84155075D01*
X119369083Y-84155080D01*
X119364220Y-84158092D01*
X119359989Y-84161948D01*
X119359985Y-84161952D01*
X119224586Y-84285384D01*
X119224576Y-84285394D01*
X119220346Y-84289251D01*
X119216897Y-84293817D01*
X119216888Y-84293828D01*
X119106473Y-84440042D01*
X119106470Y-84440046D01*
X119103021Y-84444614D01*
X119016242Y-84618890D01*
X119014674Y-84624398D01*
X119014671Y-84624408D01*
X118964533Y-84800622D01*
X118964530Y-84800633D01*
X118962963Y-84806144D01*
X118945000Y-85000000D01*
X114000500Y-85000000D01*
X114000500Y-82500000D01*
X115194532Y-82500000D01*
X115214365Y-82726692D01*
X115215762Y-82731907D01*
X115215764Y-82731916D01*
X115271858Y-82941263D01*
X115271861Y-82941271D01*
X115273261Y-82946496D01*
X115369432Y-83152734D01*
X115499953Y-83339139D01*
X115660861Y-83500047D01*
X115847266Y-83630568D01*
X116053504Y-83726739D01*
X116273308Y-83785635D01*
X116500000Y-83805468D01*
X116726692Y-83785635D01*
X116946496Y-83726739D01*
X117152734Y-83630568D01*
X117339139Y-83500047D01*
X117500047Y-83339139D01*
X117630568Y-83152734D01*
X117726739Y-82946496D01*
X117785635Y-82726692D01*
X117805468Y-82500000D01*
X182194532Y-82500000D01*
X182214365Y-82726692D01*
X182215762Y-82731907D01*
X182215764Y-82731916D01*
X182271858Y-82941263D01*
X182271861Y-82941271D01*
X182273261Y-82946496D01*
X182369432Y-83152734D01*
X182499953Y-83339139D01*
X182660861Y-83500047D01*
X182847266Y-83630568D01*
X183053504Y-83726739D01*
X183273308Y-83785635D01*
X183500000Y-83805468D01*
X183726692Y-83785635D01*
X183946496Y-83726739D01*
X184152734Y-83630568D01*
X184339139Y-83500047D01*
X184500047Y-83339139D01*
X184630568Y-83152734D01*
X184726739Y-82946496D01*
X184785635Y-82726692D01*
X184805468Y-82500000D01*
X184785635Y-82273308D01*
X184726739Y-82053504D01*
X184630568Y-81847266D01*
X184500047Y-81660861D01*
X184339139Y-81499953D01*
X184152734Y-81369432D01*
X184088145Y-81339313D01*
X183951405Y-81275550D01*
X183951403Y-81275549D01*
X183946496Y-81273261D01*
X183941271Y-81271861D01*
X183941263Y-81271858D01*
X183731916Y-81215764D01*
X183731907Y-81215762D01*
X183726692Y-81214365D01*
X183721304Y-81213893D01*
X183721301Y-81213893D01*
X183505395Y-81195004D01*
X183500000Y-81194532D01*
X183494605Y-81195004D01*
X183278698Y-81213893D01*
X183278693Y-81213893D01*
X183273308Y-81214365D01*
X183268094Y-81215762D01*
X183268083Y-81215764D01*
X183058736Y-81271858D01*
X183058724Y-81271862D01*
X183053504Y-81273261D01*
X183048599Y-81275547D01*
X183048594Y-81275550D01*
X182852176Y-81367142D01*
X182852172Y-81367144D01*
X182847266Y-81369432D01*
X182842833Y-81372535D01*
X182842826Y-81372540D01*
X182665296Y-81496847D01*
X182665291Y-81496850D01*
X182660861Y-81499953D01*
X182657037Y-81503776D01*
X182657031Y-81503782D01*
X182503782Y-81657031D01*
X182503776Y-81657037D01*
X182499953Y-81660861D01*
X182496850Y-81665291D01*
X182496847Y-81665296D01*
X182372540Y-81842826D01*
X182372535Y-81842833D01*
X182369432Y-81847266D01*
X182367144Y-81852172D01*
X182367142Y-81852176D01*
X182275550Y-82048594D01*
X182275547Y-82048599D01*
X182273261Y-82053504D01*
X182271862Y-82058724D01*
X182271858Y-82058736D01*
X182215764Y-82268083D01*
X182215762Y-82268094D01*
X182214365Y-82273308D01*
X182194532Y-82500000D01*
X117805468Y-82500000D01*
X117785635Y-82273308D01*
X117726739Y-82053504D01*
X117630568Y-81847266D01*
X117500047Y-81660861D01*
X117339139Y-81499953D01*
X117152734Y-81369432D01*
X117088145Y-81339313D01*
X116951405Y-81275550D01*
X116951403Y-81275549D01*
X116946496Y-81273261D01*
X116941271Y-81271861D01*
X116941263Y-81271858D01*
X116731916Y-81215764D01*
X116731907Y-81215762D01*
X116726692Y-81214365D01*
X116721304Y-81213893D01*
X116721301Y-81213893D01*
X116505395Y-81195004D01*
X116500000Y-81194532D01*
X116494605Y-81195004D01*
X116278698Y-81213893D01*
X116278693Y-81213893D01*
X116273308Y-81214365D01*
X116268094Y-81215762D01*
X116268083Y-81215764D01*
X116058736Y-81271858D01*
X116058724Y-81271862D01*
X116053504Y-81273261D01*
X116048599Y-81275547D01*
X116048594Y-81275550D01*
X115852176Y-81367142D01*
X115852172Y-81367144D01*
X115847266Y-81369432D01*
X115842833Y-81372535D01*
X115842826Y-81372540D01*
X115665296Y-81496847D01*
X115665291Y-81496850D01*
X115660861Y-81499953D01*
X115657037Y-81503776D01*
X115657031Y-81503782D01*
X115503782Y-81657031D01*
X115503776Y-81657037D01*
X115499953Y-81660861D01*
X115496850Y-81665291D01*
X115496847Y-81665296D01*
X115372540Y-81842826D01*
X115372535Y-81842833D01*
X115369432Y-81847266D01*
X115367144Y-81852172D01*
X115367142Y-81852176D01*
X115275550Y-82048594D01*
X115275547Y-82048599D01*
X115273261Y-82053504D01*
X115271862Y-82058724D01*
X115271858Y-82058736D01*
X115215764Y-82268083D01*
X115215762Y-82268094D01*
X115214365Y-82273308D01*
X115194532Y-82500000D01*
X114000500Y-82500000D01*
X114000500Y-80124500D01*
X114017113Y-80062500D01*
X114062500Y-80017113D01*
X114124500Y-80000500D01*
X117999901Y-80000500D01*
X118000099Y-80000500D01*
X181999901Y-80000500D01*
X182000099Y-80000500D01*
X185875500Y-80000500D01*
X185937500Y-80017113D01*
G37*
%TD.AperFunction*%
%TA.AperFunction,Conductor*%
G36*
X173400738Y-105392495D02*
G01*
X173405017Y-105394091D01*
X173464627Y-105400500D01*
X173588000Y-105400499D01*
X173649999Y-105417112D01*
X173695387Y-105462499D01*
X173712000Y-105524499D01*
X173712000Y-107614560D01*
X173712000Y-107614578D01*
X173712001Y-107617872D01*
X173712353Y-107621150D01*
X173712354Y-107621161D01*
X173717579Y-107669768D01*
X173717580Y-107669773D01*
X173718409Y-107677483D01*
X173721119Y-107684749D01*
X173721120Y-107684753D01*
X173749709Y-107761402D01*
X173768704Y-107812331D01*
X173774018Y-107819430D01*
X173774019Y-107819431D01*
X173847948Y-107918188D01*
X173854954Y-107927546D01*
X173970169Y-108013796D01*
X174105017Y-108064091D01*
X174164627Y-108070500D01*
X176245547Y-108070499D01*
X176301842Y-108084014D01*
X176345865Y-108121614D01*
X176368020Y-108175101D01*
X176363478Y-108232817D01*
X176333228Y-108282180D01*
X173277228Y-111338181D01*
X173237000Y-111365061D01*
X173189547Y-111374500D01*
X172182244Y-111374500D01*
X172125949Y-111360985D01*
X172081926Y-111323385D01*
X172059771Y-111269898D01*
X172064313Y-111212182D01*
X172094563Y-111162819D01*
X172419200Y-110838181D01*
X172537306Y-110720074D01*
X172545482Y-110712635D01*
X172551877Y-110708578D01*
X172597933Y-110659532D01*
X172600550Y-110656830D01*
X172620120Y-110637262D01*
X172622565Y-110634108D01*
X172630155Y-110625220D01*
X172660062Y-110593374D01*
X172669709Y-110575824D01*
X172680393Y-110559558D01*
X172692674Y-110543728D01*
X172710018Y-110503643D01*
X172715160Y-110493148D01*
X172727136Y-110471365D01*
X172736197Y-110454884D01*
X172741179Y-110435481D01*
X172747480Y-110417075D01*
X172755438Y-110398687D01*
X172762269Y-110355548D01*
X172764639Y-110344107D01*
X172773560Y-110309366D01*
X172773559Y-110309366D01*
X172775500Y-110301811D01*
X172775500Y-110281775D01*
X172777025Y-110262389D01*
X172780160Y-110242596D01*
X172776050Y-110199116D01*
X172775500Y-110187447D01*
X172775500Y-106704983D01*
X172776021Y-106693927D01*
X172777673Y-106686541D01*
X172775561Y-106619335D01*
X172775500Y-106615440D01*
X172775500Y-106591749D01*
X172775500Y-106587858D01*
X172774998Y-106583885D01*
X172774080Y-106572226D01*
X172772954Y-106536381D01*
X172772709Y-106528581D01*
X172767120Y-106509348D01*
X172763174Y-106490291D01*
X172762766Y-106487064D01*
X172760664Y-106470416D01*
X172744582Y-106429799D01*
X172740803Y-106418759D01*
X172730795Y-106384310D01*
X172730793Y-106384307D01*
X172728618Y-106376818D01*
X172718417Y-106359568D01*
X172709863Y-106342109D01*
X172702486Y-106323476D01*
X172676808Y-106288133D01*
X172670401Y-106278379D01*
X172652142Y-106247504D01*
X172652141Y-106247502D01*
X172648170Y-106240788D01*
X172634004Y-106226622D01*
X172621368Y-106211827D01*
X172610512Y-106196885D01*
X172587212Y-106133729D01*
X172600345Y-106067705D01*
X172646040Y-106018273D01*
X172710830Y-106000000D01*
X172794518Y-106000000D01*
X172801114Y-105999646D01*
X172849667Y-105994426D01*
X172864641Y-105990888D01*
X172983777Y-105946452D01*
X172999189Y-105938037D01*
X173100092Y-105862501D01*
X173112501Y-105850092D01*
X173188037Y-105749189D01*
X173196452Y-105733777D01*
X173240888Y-105614641D01*
X173244426Y-105599667D01*
X173249646Y-105551114D01*
X173250000Y-105544518D01*
X173250000Y-105513183D01*
X173262383Y-105459168D01*
X173297059Y-105415941D01*
X173347101Y-105392136D01*
X173400738Y-105392495D01*
G37*
%TD.AperFunction*%
%TA.AperFunction,Conductor*%
G36*
X151137501Y-107616613D02*
G01*
X151182888Y-107662000D01*
X151199500Y-107723999D01*
X151199501Y-107772872D01*
X151199853Y-107776150D01*
X151199854Y-107776161D01*
X151205909Y-107832483D01*
X151204306Y-107832655D01*
X151204307Y-107867344D01*
X151205909Y-107867517D01*
X151199855Y-107923819D01*
X151199854Y-107923831D01*
X151199500Y-107927127D01*
X151199500Y-107930448D01*
X151199500Y-107930449D01*
X151199500Y-108269560D01*
X151199500Y-108269578D01*
X151199501Y-108272872D01*
X151199853Y-108276150D01*
X151199854Y-108276161D01*
X151205079Y-108324768D01*
X151205080Y-108324773D01*
X151205909Y-108332483D01*
X151208619Y-108339749D01*
X151208620Y-108339753D01*
X151242182Y-108429736D01*
X151250000Y-108473069D01*
X151250000Y-109133674D01*
X151253450Y-109146549D01*
X151266326Y-109150000D01*
X151395285Y-109150000D01*
X151454713Y-109165168D01*
X151466223Y-109171453D01*
X151585358Y-109215888D01*
X151600332Y-109219426D01*
X151648885Y-109224646D01*
X151655482Y-109225000D01*
X151808674Y-109225000D01*
X151821549Y-109221549D01*
X151825000Y-109208674D01*
X151825000Y-108849500D01*
X151841613Y-108787500D01*
X151887000Y-108742113D01*
X151949000Y-108725500D01*
X151951000Y-108725500D01*
X152013000Y-108742113D01*
X152058387Y-108787500D01*
X152075000Y-108849500D01*
X152075000Y-109208674D01*
X152078450Y-109221549D01*
X152091326Y-109225000D01*
X152244518Y-109225000D01*
X152251114Y-109224646D01*
X152299667Y-109219426D01*
X152314641Y-109215888D01*
X152433777Y-109171452D01*
X152449189Y-109163037D01*
X152550092Y-109087501D01*
X152562499Y-109075094D01*
X152595757Y-109030667D01*
X152635597Y-108996145D01*
X152686178Y-108981293D01*
X152738358Y-108988795D01*
X152782705Y-109017295D01*
X153183603Y-109418194D01*
X153578228Y-109812819D01*
X153608478Y-109862182D01*
X153613020Y-109919898D01*
X153590865Y-109973385D01*
X153546842Y-110010985D01*
X153490547Y-110024500D01*
X149999500Y-110024500D01*
X149937500Y-110007887D01*
X149892113Y-109962500D01*
X149875500Y-109900500D01*
X149875500Y-109349500D01*
X149892113Y-109287500D01*
X149937500Y-109242113D01*
X149999500Y-109225500D01*
X150089342Y-109225500D01*
X150089350Y-109225500D01*
X150089352Y-109225499D01*
X150089358Y-109225499D01*
X150344561Y-109225499D01*
X150347872Y-109225499D01*
X150407483Y-109219091D01*
X150542331Y-109168796D01*
X150547608Y-109164845D01*
X150605768Y-109150000D01*
X150733674Y-109150000D01*
X150746549Y-109146549D01*
X150750000Y-109133674D01*
X150750000Y-108973069D01*
X150757818Y-108929736D01*
X150772215Y-108891135D01*
X150794091Y-108832483D01*
X150800500Y-108772873D01*
X150800499Y-108427128D01*
X150794091Y-108367517D01*
X150795698Y-108367344D01*
X150795698Y-108332655D01*
X150794091Y-108332483D01*
X150796359Y-108311387D01*
X150800500Y-108272873D01*
X150800499Y-107927128D01*
X150794091Y-107867517D01*
X150795698Y-107867344D01*
X150795698Y-107832655D01*
X150794091Y-107832483D01*
X150795578Y-107818656D01*
X150800500Y-107772873D01*
X150800499Y-107724000D01*
X150817113Y-107662000D01*
X150862500Y-107616613D01*
X150924500Y-107600000D01*
X151075501Y-107600000D01*
X151137501Y-107616613D01*
G37*
%TD.AperFunction*%
%TA.AperFunction,Conductor*%
G36*
X158120772Y-96139015D02*
G01*
X158164795Y-96176615D01*
X158186950Y-96230102D01*
X158182408Y-96287818D01*
X158152158Y-96337181D01*
X158062794Y-96426544D01*
X158053890Y-96437805D01*
X157969432Y-96574733D01*
X157963370Y-96587732D01*
X157912624Y-96740874D01*
X157909805Y-96754041D01*
X157900319Y-96846890D01*
X157900000Y-96853168D01*
X157900000Y-97733674D01*
X157903450Y-97746549D01*
X157916326Y-97750000D01*
X160033673Y-97750000D01*
X160046548Y-97746549D01*
X160049999Y-97733674D01*
X160049999Y-96853171D01*
X160049678Y-96846888D01*
X160040194Y-96754040D01*
X160037376Y-96740877D01*
X159986629Y-96587732D01*
X159980567Y-96574733D01*
X159896109Y-96437805D01*
X159887205Y-96426544D01*
X159797842Y-96337181D01*
X159767592Y-96287818D01*
X159763050Y-96230102D01*
X159785205Y-96176615D01*
X159829228Y-96139015D01*
X159885523Y-96125500D01*
X161855973Y-96125500D01*
X161917973Y-96142113D01*
X161963360Y-96187500D01*
X161979973Y-96249500D01*
X161963360Y-96311500D01*
X161926069Y-96376089D01*
X161926066Y-96376094D01*
X161922821Y-96381716D01*
X161920815Y-96387888D01*
X161920813Y-96387894D01*
X161866333Y-96555564D01*
X161866331Y-96555573D01*
X161864326Y-96561744D01*
X161863648Y-96568194D01*
X161863646Y-96568204D01*
X161851029Y-96688256D01*
X161844540Y-96750000D01*
X161845571Y-96759814D01*
X161863646Y-96931795D01*
X161863647Y-96931803D01*
X161864326Y-96938256D01*
X161866331Y-96944428D01*
X161866333Y-96944435D01*
X161906163Y-97067017D01*
X161922821Y-97118284D01*
X161926068Y-97123908D01*
X161926069Y-97123910D01*
X161969241Y-97198687D01*
X162017467Y-97282216D01*
X162021811Y-97287041D01*
X162021813Y-97287043D01*
X162102795Y-97376982D01*
X162144129Y-97422888D01*
X162149387Y-97426708D01*
X162149388Y-97426709D01*
X162161237Y-97435318D01*
X162297270Y-97534151D01*
X162470197Y-97611144D01*
X162655354Y-97650500D01*
X162838143Y-97650500D01*
X162844646Y-97650500D01*
X163029803Y-97611144D01*
X163202730Y-97534151D01*
X163355871Y-97422888D01*
X163361601Y-97416523D01*
X163363271Y-97415310D01*
X163365050Y-97413709D01*
X163365218Y-97413895D01*
X163403315Y-97386219D01*
X163453748Y-97375500D01*
X163670981Y-97375500D01*
X163789350Y-97375500D01*
X164189548Y-97375500D01*
X164237001Y-97384939D01*
X164277229Y-97411819D01*
X167064486Y-100199077D01*
X167091366Y-100239305D01*
X167100805Y-100286758D01*
X167100805Y-102027618D01*
X167092569Y-102072056D01*
X167068955Y-102110590D01*
X166998118Y-102189261D01*
X166998113Y-102189267D01*
X166993772Y-102194089D01*
X166990527Y-102199709D01*
X166990523Y-102199715D01*
X166902374Y-102352394D01*
X166902371Y-102352399D01*
X166899126Y-102358021D01*
X166897120Y-102364193D01*
X166897118Y-102364199D01*
X166842638Y-102531869D01*
X166842636Y-102531878D01*
X166840631Y-102538049D01*
X166839953Y-102544499D01*
X166839951Y-102544509D01*
X166826939Y-102668322D01*
X166820845Y-102726305D01*
X166821524Y-102732765D01*
X166839951Y-102908100D01*
X166839952Y-102908108D01*
X166840631Y-102914561D01*
X166842636Y-102920733D01*
X166842638Y-102920740D01*
X166894602Y-103080666D01*
X166899126Y-103094589D01*
X166902373Y-103100213D01*
X166902374Y-103100215D01*
X166988798Y-103249907D01*
X166993772Y-103258521D01*
X166998116Y-103263346D01*
X166998118Y-103263348D01*
X167076278Y-103350153D01*
X167104950Y-103405231D01*
X167103324Y-103467304D01*
X167071809Y-103520806D01*
X165362696Y-105229919D01*
X165354511Y-105237367D01*
X165348123Y-105241422D01*
X165342788Y-105247102D01*
X165342783Y-105247107D01*
X165302096Y-105290433D01*
X165299392Y-105293224D01*
X165282628Y-105309988D01*
X165282621Y-105309995D01*
X165279880Y-105312737D01*
X165277500Y-105315804D01*
X165277489Y-105315817D01*
X165277400Y-105315933D01*
X165269842Y-105324778D01*
X165245280Y-105350935D01*
X165245273Y-105350944D01*
X165239938Y-105356626D01*
X165236182Y-105363457D01*
X165236179Y-105363462D01*
X165230285Y-105374183D01*
X165219609Y-105390435D01*
X165212109Y-105400104D01*
X165212101Y-105400115D01*
X165207327Y-105406272D01*
X165204234Y-105413416D01*
X165204229Y-105413427D01*
X165189974Y-105446368D01*
X165184838Y-105456851D01*
X165167636Y-105488143D01*
X165163803Y-105495116D01*
X165161864Y-105502664D01*
X165161863Y-105502669D01*
X165158822Y-105514515D01*
X165152521Y-105532919D01*
X165147658Y-105544156D01*
X165147656Y-105544160D01*
X165144562Y-105551312D01*
X165143342Y-105559011D01*
X165143342Y-105559013D01*
X165137729Y-105594449D01*
X165135361Y-105605884D01*
X165126438Y-105640636D01*
X165126436Y-105640644D01*
X165124500Y-105648189D01*
X165124500Y-105655985D01*
X165124500Y-105668225D01*
X165122974Y-105687610D01*
X165119840Y-105707404D01*
X165120574Y-105715169D01*
X165120574Y-105715172D01*
X165123950Y-105750884D01*
X165124500Y-105762553D01*
X165124500Y-106418965D01*
X165111375Y-106474487D01*
X165074780Y-106518254D01*
X165073895Y-106518917D01*
X165073862Y-106518942D01*
X165025915Y-106540823D01*
X164973211Y-106540814D01*
X164925272Y-106518918D01*
X164849189Y-106461962D01*
X164833777Y-106453547D01*
X164714641Y-106409111D01*
X164699667Y-106405573D01*
X164651114Y-106400353D01*
X164644518Y-106400000D01*
X164516326Y-106400000D01*
X164503450Y-106403450D01*
X164500000Y-106416326D01*
X164500000Y-108276000D01*
X164483387Y-108338000D01*
X164438000Y-108383387D01*
X164376000Y-108400000D01*
X164124000Y-108400000D01*
X164062000Y-108383387D01*
X164016613Y-108338000D01*
X164000000Y-108276000D01*
X164000000Y-106416326D01*
X163996549Y-106403450D01*
X163983674Y-106400000D01*
X163855482Y-106400000D01*
X163848885Y-106400353D01*
X163800332Y-106405573D01*
X163785358Y-106409111D01*
X163666222Y-106453547D01*
X163650811Y-106461962D01*
X163574726Y-106518918D01*
X163526773Y-106540816D01*
X163474057Y-106540816D01*
X163426105Y-106518917D01*
X163349431Y-106461519D01*
X163349430Y-106461518D01*
X163342331Y-106456204D01*
X163236788Y-106416839D01*
X163214752Y-106408620D01*
X163214750Y-106408619D01*
X163207483Y-106405909D01*
X163199770Y-106405079D01*
X163199767Y-106405079D01*
X163151180Y-106399855D01*
X163151169Y-106399854D01*
X163147873Y-106399500D01*
X163144550Y-106399500D01*
X162355439Y-106399500D01*
X162355420Y-106399500D01*
X162352128Y-106399501D01*
X162348850Y-106399853D01*
X162348838Y-106399854D01*
X162300231Y-106405079D01*
X162300225Y-106405080D01*
X162292517Y-106405909D01*
X162285252Y-106408618D01*
X162285246Y-106408620D01*
X162165980Y-106453104D01*
X162165978Y-106453104D01*
X162157669Y-106456204D01*
X162150572Y-106461516D01*
X162150568Y-106461519D01*
X162049550Y-106537141D01*
X162049546Y-106537144D01*
X162042454Y-106542454D01*
X162037144Y-106549546D01*
X162037141Y-106549550D01*
X161961519Y-106650568D01*
X161961516Y-106650572D01*
X161956204Y-106657669D01*
X161953104Y-106665978D01*
X161953104Y-106665980D01*
X161908620Y-106785247D01*
X161908619Y-106785250D01*
X161905909Y-106792517D01*
X161905079Y-106800227D01*
X161905079Y-106800232D01*
X161899855Y-106848819D01*
X161899854Y-106848831D01*
X161899500Y-106852127D01*
X161899500Y-107988250D01*
X161899501Y-109000500D01*
X161882888Y-109062500D01*
X161837501Y-109107887D01*
X161775501Y-109124500D01*
X155346849Y-109124500D01*
X155299396Y-109115061D01*
X155259168Y-109088181D01*
X153383682Y-107212695D01*
X153376238Y-107204514D01*
X153372182Y-107198123D01*
X153323171Y-107152098D01*
X153320374Y-107149387D01*
X153303623Y-107132636D01*
X153300867Y-107129880D01*
X153297686Y-107127412D01*
X153288810Y-107119830D01*
X153262665Y-107095278D01*
X153262663Y-107095276D01*
X153256978Y-107089938D01*
X153250145Y-107086182D01*
X153250139Y-107086177D01*
X153239421Y-107080285D01*
X153223162Y-107069606D01*
X153213491Y-107062104D01*
X153213488Y-107062102D01*
X153207332Y-107057327D01*
X153200175Y-107054229D01*
X153200172Y-107054228D01*
X153167245Y-107039978D01*
X153156759Y-107034841D01*
X153125328Y-107017562D01*
X153125319Y-107017558D01*
X153118488Y-107013803D01*
X153110931Y-107011862D01*
X153110927Y-107011861D01*
X153099084Y-107008820D01*
X153080680Y-107002519D01*
X153069453Y-106997660D01*
X153069446Y-106997658D01*
X153062292Y-106994562D01*
X153054588Y-106993341D01*
X153054586Y-106993341D01*
X153019155Y-106987729D01*
X153007720Y-106985361D01*
X152972967Y-106976438D01*
X152972959Y-106976437D01*
X152965415Y-106974500D01*
X152957619Y-106974500D01*
X152945379Y-106974500D01*
X152925993Y-106972974D01*
X152906200Y-106969840D01*
X152898434Y-106970574D01*
X152898431Y-106970574D01*
X152862720Y-106973950D01*
X152851051Y-106974500D01*
X152816492Y-106974500D01*
X152762976Y-106962357D01*
X152719941Y-106928307D01*
X152695816Y-106879018D01*
X152694919Y-106875224D01*
X152694091Y-106867517D01*
X152643796Y-106732669D01*
X152600233Y-106674476D01*
X152581846Y-106639324D01*
X152575500Y-106600165D01*
X152575500Y-106502466D01*
X152576020Y-106491413D01*
X152577672Y-106484027D01*
X152575561Y-106416839D01*
X152575500Y-106412945D01*
X152575500Y-106389240D01*
X152575500Y-106385345D01*
X152574998Y-106381376D01*
X152574080Y-106369719D01*
X152573819Y-106361420D01*
X152572709Y-106326067D01*
X152567120Y-106306834D01*
X152563174Y-106287777D01*
X152562829Y-106285044D01*
X152560664Y-106267903D01*
X152544581Y-106227282D01*
X152540799Y-106216235D01*
X152533563Y-106191329D01*
X152528617Y-106174305D01*
X152522555Y-106164055D01*
X152518422Y-106157065D01*
X152509860Y-106139587D01*
X152505360Y-106128222D01*
X152505359Y-106128221D01*
X152502486Y-106120963D01*
X152476812Y-106085626D01*
X152470409Y-106075879D01*
X152448170Y-106038274D01*
X152434006Y-106024110D01*
X152421368Y-106009313D01*
X152414184Y-105999424D01*
X152414178Y-105999418D01*
X152409594Y-105993108D01*
X152375946Y-105965272D01*
X152367305Y-105957409D01*
X151954414Y-105544518D01*
X159750000Y-105544518D01*
X159750353Y-105551114D01*
X159755573Y-105599667D01*
X159759111Y-105614641D01*
X159803547Y-105733777D01*
X159811962Y-105749189D01*
X159887498Y-105850092D01*
X159899907Y-105862501D01*
X160000810Y-105938037D01*
X160016222Y-105946452D01*
X160135358Y-105990888D01*
X160150332Y-105994426D01*
X160198885Y-105999646D01*
X160205482Y-106000000D01*
X160533674Y-106000000D01*
X160546549Y-105996549D01*
X160550000Y-105983674D01*
X161050000Y-105983674D01*
X161053450Y-105996549D01*
X161066326Y-106000000D01*
X161394518Y-106000000D01*
X161401114Y-105999646D01*
X161449667Y-105994426D01*
X161464641Y-105990888D01*
X161583777Y-105946452D01*
X161599189Y-105938037D01*
X161700092Y-105862501D01*
X161712501Y-105850092D01*
X161788037Y-105749189D01*
X161796452Y-105733777D01*
X161840888Y-105614641D01*
X161844426Y-105599667D01*
X161849646Y-105551114D01*
X161850000Y-105544518D01*
X161850000Y-104816326D01*
X161846549Y-104803450D01*
X161833674Y-104800000D01*
X161066326Y-104800000D01*
X161053450Y-104803450D01*
X161050000Y-104816326D01*
X161050000Y-105983674D01*
X160550000Y-105983674D01*
X160550000Y-104816326D01*
X160546549Y-104803450D01*
X160533674Y-104800000D01*
X159766326Y-104800000D01*
X159753450Y-104803450D01*
X159750000Y-104816326D01*
X159750000Y-105544518D01*
X151954414Y-105544518D01*
X151816319Y-105406423D01*
X151789686Y-105366788D01*
X151780007Y-105320027D01*
X151787003Y-105282303D01*
X151786197Y-105282096D01*
X151788149Y-105274488D01*
X151791180Y-105262683D01*
X151797483Y-105244275D01*
X151805438Y-105225895D01*
X151812272Y-105182743D01*
X151814634Y-105171337D01*
X151825501Y-105129018D01*
X151825501Y-105108982D01*
X151827028Y-105089584D01*
X151828940Y-105077512D01*
X151828939Y-105077512D01*
X151830161Y-105069803D01*
X151826358Y-105029569D01*
X151830438Y-104984325D01*
X151850539Y-104943588D01*
X151923197Y-104846531D01*
X151973492Y-104711683D01*
X151979901Y-104652073D01*
X151979901Y-104283674D01*
X159750000Y-104283674D01*
X159753450Y-104296549D01*
X159766326Y-104300000D01*
X160533674Y-104300000D01*
X160546549Y-104296549D01*
X160550000Y-104283674D01*
X161050000Y-104283674D01*
X161053450Y-104296549D01*
X161066326Y-104300000D01*
X161833674Y-104300000D01*
X161846549Y-104296549D01*
X161850000Y-104283674D01*
X161850000Y-103555482D01*
X161849646Y-103548885D01*
X161844426Y-103500332D01*
X161840888Y-103485358D01*
X161796452Y-103366222D01*
X161788037Y-103350810D01*
X161712501Y-103249907D01*
X161700092Y-103237498D01*
X161599189Y-103161962D01*
X161583777Y-103153547D01*
X161464641Y-103109111D01*
X161449667Y-103105573D01*
X161401114Y-103100353D01*
X161394518Y-103100000D01*
X161066326Y-103100000D01*
X161053450Y-103103450D01*
X161050000Y-103116326D01*
X161050000Y-104283674D01*
X160550000Y-104283674D01*
X160550000Y-103116326D01*
X160546549Y-103103450D01*
X160533674Y-103100000D01*
X160205482Y-103100000D01*
X160198885Y-103100353D01*
X160150332Y-103105573D01*
X160135358Y-103109111D01*
X160016222Y-103153547D01*
X160000810Y-103161962D01*
X159899907Y-103237498D01*
X159887498Y-103249907D01*
X159811962Y-103350810D01*
X159803547Y-103366222D01*
X159759111Y-103485358D01*
X159755573Y-103500332D01*
X159750353Y-103548885D01*
X159750000Y-103555482D01*
X159750000Y-104283674D01*
X151979901Y-104283674D01*
X151979900Y-103578428D01*
X151973492Y-103518817D01*
X151923197Y-103383969D01*
X151836947Y-103268754D01*
X151823277Y-103258521D01*
X151728832Y-103187819D01*
X151728831Y-103187818D01*
X151721732Y-103182504D01*
X151586884Y-103132209D01*
X151579171Y-103131379D01*
X151579168Y-103131379D01*
X151530581Y-103126155D01*
X151530570Y-103126154D01*
X151527274Y-103125800D01*
X151523951Y-103125800D01*
X150876040Y-103125800D01*
X150876021Y-103125800D01*
X150872729Y-103125801D01*
X150869451Y-103126153D01*
X150869439Y-103126154D01*
X150820827Y-103131380D01*
X150820824Y-103131380D01*
X150813118Y-103132209D01*
X150805855Y-103134917D01*
X150805854Y-103134918D01*
X150768331Y-103148913D01*
X150725000Y-103156730D01*
X150681669Y-103148913D01*
X150636883Y-103132209D01*
X150629166Y-103131379D01*
X150629165Y-103131379D01*
X150580580Y-103126155D01*
X150580569Y-103126154D01*
X150577273Y-103125800D01*
X150573950Y-103125800D01*
X149926039Y-103125800D01*
X149926020Y-103125800D01*
X149922728Y-103125801D01*
X149919450Y-103126153D01*
X149919438Y-103126154D01*
X149870826Y-103131380D01*
X149870823Y-103131380D01*
X149863117Y-103132209D01*
X149855854Y-103134917D01*
X149855853Y-103134918D01*
X149818330Y-103148913D01*
X149774999Y-103156730D01*
X149731668Y-103148913D01*
X149686882Y-103132209D01*
X149679165Y-103131379D01*
X149679164Y-103131379D01*
X149630579Y-103126155D01*
X149630568Y-103126154D01*
X149627272Y-103125800D01*
X149623949Y-103125800D01*
X148976038Y-103125800D01*
X148976019Y-103125800D01*
X148972727Y-103125801D01*
X148969449Y-103126153D01*
X148969437Y-103126154D01*
X148920830Y-103131379D01*
X148920824Y-103131380D01*
X148913116Y-103132209D01*
X148905851Y-103134918D01*
X148905845Y-103134920D01*
X148786579Y-103179404D01*
X148786577Y-103179404D01*
X148778268Y-103182504D01*
X148771171Y-103187816D01*
X148771167Y-103187819D01*
X148670149Y-103263441D01*
X148670145Y-103263444D01*
X148663053Y-103268754D01*
X148657743Y-103275846D01*
X148657740Y-103275850D01*
X148582118Y-103376868D01*
X148582115Y-103376872D01*
X148576803Y-103383969D01*
X148573703Y-103392278D01*
X148573703Y-103392280D01*
X148529219Y-103511547D01*
X148529218Y-103511550D01*
X148526508Y-103518817D01*
X148525678Y-103526527D01*
X148525678Y-103526532D01*
X148520454Y-103575119D01*
X148520453Y-103575131D01*
X148520099Y-103578427D01*
X148520099Y-103581749D01*
X148520099Y-103836147D01*
X148506584Y-103892442D01*
X148468984Y-103936465D01*
X148415497Y-103958620D01*
X148357781Y-103954078D01*
X148308418Y-103923828D01*
X148171633Y-103787043D01*
X147882318Y-103497727D01*
X147855438Y-103457499D01*
X147845999Y-103410046D01*
X147845999Y-102861139D01*
X147845999Y-102857828D01*
X147839591Y-102798217D01*
X147789296Y-102663369D01*
X147703046Y-102548154D01*
X147689547Y-102538049D01*
X147594931Y-102467219D01*
X147594930Y-102467218D01*
X147587831Y-102461904D01*
X147452983Y-102411609D01*
X147445270Y-102410779D01*
X147445267Y-102410779D01*
X147396680Y-102405555D01*
X147396669Y-102405554D01*
X147393373Y-102405200D01*
X147390051Y-102405200D01*
X146235856Y-102405200D01*
X146179561Y-102391685D01*
X146135538Y-102354085D01*
X146113383Y-102300598D01*
X146117925Y-102242882D01*
X146124012Y-102224149D01*
X146135674Y-102188256D01*
X146155460Y-102000000D01*
X146143572Y-101886892D01*
X146136353Y-101818204D01*
X146136352Y-101818203D01*
X146135674Y-101811744D01*
X146077179Y-101631716D01*
X145982533Y-101467784D01*
X145965134Y-101448461D01*
X145860220Y-101331942D01*
X145860219Y-101331941D01*
X145855871Y-101327112D01*
X145844864Y-101319115D01*
X145805553Y-101271595D01*
X145793997Y-101211012D01*
X145813056Y-101152356D01*
X145858015Y-101110137D01*
X145917750Y-101094799D01*
X147393372Y-101094799D01*
X147452983Y-101088391D01*
X147587831Y-101038096D01*
X147594935Y-101032778D01*
X147611160Y-101020633D01*
X147646311Y-101002246D01*
X147685470Y-100995900D01*
X148396099Y-100995900D01*
X148458099Y-101012513D01*
X148503486Y-101057900D01*
X148520099Y-101119900D01*
X148520099Y-101918260D01*
X148520099Y-101918278D01*
X148520100Y-101921572D01*
X148520452Y-101924850D01*
X148520453Y-101924861D01*
X148525678Y-101973468D01*
X148525679Y-101973473D01*
X148526508Y-101981183D01*
X148529218Y-101988449D01*
X148529219Y-101988453D01*
X148554203Y-102055438D01*
X148576803Y-102116031D01*
X148582117Y-102123130D01*
X148582118Y-102123131D01*
X148640036Y-102200500D01*
X148663053Y-102231246D01*
X148778268Y-102317496D01*
X148913116Y-102367791D01*
X148972726Y-102374200D01*
X149627271Y-102374199D01*
X149686882Y-102367791D01*
X149732385Y-102350819D01*
X149775712Y-102343002D01*
X149819048Y-102350821D01*
X149855957Y-102364588D01*
X149870930Y-102368126D01*
X149919485Y-102373346D01*
X149926082Y-102373700D01*
X149983674Y-102373700D01*
X149996549Y-102370249D01*
X150000000Y-102357374D01*
X150000000Y-102187525D01*
X150015168Y-102128098D01*
X150017879Y-102123131D01*
X150023195Y-102116031D01*
X150073490Y-101981183D01*
X150079899Y-101921573D01*
X150079898Y-100847928D01*
X150073490Y-100788317D01*
X150023195Y-100653469D01*
X150017879Y-100646368D01*
X150015168Y-100641402D01*
X150000000Y-100581975D01*
X150000000Y-100412126D01*
X149996211Y-100397986D01*
X149987489Y-100389264D01*
X149969792Y-100380051D01*
X149937116Y-100337467D01*
X149925499Y-100285063D01*
X149925499Y-100127771D01*
X149926019Y-100116718D01*
X149927671Y-100109332D01*
X149925560Y-100042144D01*
X149925499Y-100038250D01*
X149925499Y-100014544D01*
X149925499Y-100010649D01*
X149924997Y-100006680D01*
X149924079Y-99995023D01*
X149923924Y-99990096D01*
X149922708Y-99951372D01*
X149917119Y-99932139D01*
X149913173Y-99913082D01*
X149911640Y-99900943D01*
X149910663Y-99893207D01*
X149894581Y-99852590D01*
X149890802Y-99841550D01*
X149880794Y-99807101D01*
X149880792Y-99807098D01*
X149878617Y-99799609D01*
X149868416Y-99782359D01*
X149859862Y-99764900D01*
X149852485Y-99746267D01*
X149826807Y-99710924D01*
X149820400Y-99701170D01*
X149817005Y-99695430D01*
X149809595Y-99682900D01*
X149802141Y-99670295D01*
X149802140Y-99670293D01*
X149798169Y-99663579D01*
X149784004Y-99649414D01*
X149771369Y-99634621D01*
X149759593Y-99618412D01*
X149753582Y-99613439D01*
X149753580Y-99613437D01*
X149725940Y-99590572D01*
X149717299Y-99582709D01*
X149672270Y-99537680D01*
X149642020Y-99488317D01*
X149637478Y-99430601D01*
X149659633Y-99377114D01*
X149703656Y-99339514D01*
X149759951Y-99325999D01*
X150138795Y-99325999D01*
X150191199Y-99337617D01*
X150233784Y-99370293D01*
X150255400Y-99411816D01*
X150255400Y-99422400D01*
X152396800Y-99422400D01*
X152458800Y-99439013D01*
X152504187Y-99484400D01*
X152520800Y-99546400D01*
X152520800Y-99568525D01*
X152520278Y-99579580D01*
X152518627Y-99586967D01*
X152518871Y-99594753D01*
X152518871Y-99594761D01*
X152520739Y-99654173D01*
X152520800Y-99658060D01*
X152520800Y-99685650D01*
X152521288Y-99689519D01*
X152521289Y-99689525D01*
X152521304Y-99689643D01*
X152522218Y-99701266D01*
X152523345Y-99737130D01*
X152523346Y-99737137D01*
X152523591Y-99744927D01*
X152525767Y-99752419D01*
X152525768Y-99752421D01*
X152529179Y-99764162D01*
X152533125Y-99783215D01*
X152535636Y-99803092D01*
X152538506Y-99810342D01*
X152538508Y-99810348D01*
X152551714Y-99843704D01*
X152555497Y-99854751D01*
X152567682Y-99896690D01*
X152571653Y-99903405D01*
X152571654Y-99903407D01*
X152577881Y-99913937D01*
X152586436Y-99931399D01*
X152590942Y-99942780D01*
X152590943Y-99942783D01*
X152593814Y-99950032D01*
X152600455Y-99959172D01*
X152619481Y-99985360D01*
X152625893Y-99995122D01*
X152644156Y-100026002D01*
X152644159Y-100026007D01*
X152648130Y-100032720D01*
X152653645Y-100038235D01*
X152662290Y-100046880D01*
X152674926Y-100061674D01*
X152682119Y-100071575D01*
X152682123Y-100071579D01*
X152686706Y-100077887D01*
X152692715Y-100082858D01*
X152692716Y-100082859D01*
X152720358Y-100105726D01*
X152728999Y-100113589D01*
X152811038Y-100195628D01*
X152835278Y-100229926D01*
X152846678Y-100270347D01*
X152860770Y-100404419D01*
X152864326Y-100438256D01*
X152866331Y-100444428D01*
X152866333Y-100444435D01*
X152915883Y-100596932D01*
X152920425Y-100654648D01*
X152898270Y-100708135D01*
X152854247Y-100745735D01*
X152797952Y-100759250D01*
X152048746Y-100759250D01*
X151999933Y-100749238D01*
X151959003Y-100720820D01*
X151932564Y-100678583D01*
X151932363Y-100678045D01*
X151923197Y-100653469D01*
X151836947Y-100538254D01*
X151805731Y-100514886D01*
X151728832Y-100457319D01*
X151728831Y-100457318D01*
X151721732Y-100452004D01*
X151632383Y-100418679D01*
X151594153Y-100404420D01*
X151594151Y-100404419D01*
X151586884Y-100401709D01*
X151579171Y-100400879D01*
X151579168Y-100400879D01*
X151530581Y-100395655D01*
X151530570Y-100395654D01*
X151527274Y-100395300D01*
X151523951Y-100395300D01*
X150876040Y-100395300D01*
X150876021Y-100395300D01*
X150872729Y-100395301D01*
X150869451Y-100395653D01*
X150869439Y-100395654D01*
X150820827Y-100400880D01*
X150820824Y-100400880D01*
X150813118Y-100401709D01*
X150805854Y-100404418D01*
X150805851Y-100404419D01*
X150767618Y-100418679D01*
X150724285Y-100426497D01*
X150680953Y-100418679D01*
X150644041Y-100404911D01*
X150629067Y-100401373D01*
X150580514Y-100396153D01*
X150573918Y-100395800D01*
X150516326Y-100395800D01*
X150503450Y-100399250D01*
X150500000Y-100412126D01*
X150500000Y-100581975D01*
X150484832Y-100641402D01*
X150482118Y-100646370D01*
X150476805Y-100653469D01*
X150473707Y-100661775D01*
X150473706Y-100661777D01*
X150429221Y-100781047D01*
X150429220Y-100781050D01*
X150426510Y-100788317D01*
X150425680Y-100796027D01*
X150425680Y-100796032D01*
X150420456Y-100844619D01*
X150420455Y-100844631D01*
X150420101Y-100847927D01*
X150420101Y-100851248D01*
X150420101Y-100851249D01*
X150420101Y-101918260D01*
X150420101Y-101918278D01*
X150420102Y-101921572D01*
X150420454Y-101924850D01*
X150420455Y-101924861D01*
X150425680Y-101973468D01*
X150425681Y-101973473D01*
X150426510Y-101981183D01*
X150429220Y-101988449D01*
X150429221Y-101988453D01*
X150454205Y-102055438D01*
X150476805Y-102116031D01*
X150482119Y-102123129D01*
X150484832Y-102128098D01*
X150500000Y-102187525D01*
X150500000Y-102357374D01*
X150503450Y-102370249D01*
X150516326Y-102373700D01*
X150573918Y-102373700D01*
X150580514Y-102373346D01*
X150629062Y-102368127D01*
X150644040Y-102364587D01*
X150680947Y-102350821D01*
X150724283Y-102343002D01*
X150767618Y-102350821D01*
X150805844Y-102365079D01*
X150805851Y-102365080D01*
X150813118Y-102367791D01*
X150872728Y-102374200D01*
X151527273Y-102374199D01*
X151586884Y-102367791D01*
X151721732Y-102317496D01*
X151836947Y-102231246D01*
X151923197Y-102116031D01*
X151932563Y-102090917D01*
X151959003Y-102048680D01*
X151999933Y-102020262D01*
X152048746Y-102010250D01*
X155287475Y-102010250D01*
X155298530Y-102010771D01*
X155305917Y-102012423D01*
X155373122Y-102010311D01*
X155377018Y-102010250D01*
X155400698Y-102010250D01*
X155404600Y-102010250D01*
X155408563Y-102009749D01*
X155420213Y-102008830D01*
X155463877Y-102007459D01*
X155483111Y-102001869D01*
X155502167Y-101997924D01*
X155503584Y-101997745D01*
X155522042Y-101995414D01*
X155557934Y-101981203D01*
X155562647Y-101979337D01*
X155573700Y-101975552D01*
X155615640Y-101963368D01*
X155632879Y-101953172D01*
X155650353Y-101944612D01*
X155661724Y-101940110D01*
X155661726Y-101940108D01*
X155668982Y-101937236D01*
X155704319Y-101911561D01*
X155714074Y-101905153D01*
X155751670Y-101882920D01*
X155765834Y-101868755D01*
X155780629Y-101856118D01*
X155796837Y-101844344D01*
X155824678Y-101810688D01*
X155832529Y-101802059D01*
X156397310Y-101237278D01*
X156405481Y-101229844D01*
X156411877Y-101225786D01*
X156457918Y-101176756D01*
X156460535Y-101174054D01*
X156480120Y-101154471D01*
X156482585Y-101151292D01*
X156490167Y-101142416D01*
X156493510Y-101138856D01*
X156520062Y-101110582D01*
X156529713Y-101093023D01*
X156540390Y-101076770D01*
X156552673Y-101060936D01*
X156570018Y-101020852D01*
X156575125Y-101010420D01*
X156575887Y-101009033D01*
X156621420Y-100962019D01*
X156684553Y-100944735D01*
X156747687Y-100962002D01*
X156850607Y-101022869D01*
X157004796Y-101067665D01*
X157040819Y-101070500D01*
X157439180Y-101070499D01*
X157475204Y-101067665D01*
X157629393Y-101022869D01*
X157687370Y-100988581D01*
X157750490Y-100971313D01*
X157813612Y-100988581D01*
X157864092Y-101018434D01*
X157878299Y-101024582D01*
X157996143Y-101058819D01*
X158007409Y-101059394D01*
X158010000Y-101048415D01*
X158510000Y-101048415D01*
X158512590Y-101059394D01*
X158523856Y-101058819D01*
X158641700Y-101024582D01*
X158655907Y-101018434D01*
X158780571Y-100944708D01*
X158792807Y-100935217D01*
X158895217Y-100832807D01*
X158904708Y-100820571D01*
X158978434Y-100695907D01*
X158984582Y-100681700D01*
X159025398Y-100541212D01*
X159027664Y-100528808D01*
X159028585Y-100517098D01*
X159025921Y-100503706D01*
X159012779Y-100500000D01*
X158526326Y-100500000D01*
X158513450Y-100503450D01*
X158510000Y-100516326D01*
X158510000Y-101048415D01*
X158010000Y-101048415D01*
X158010000Y-100510409D01*
X158010249Y-100504046D01*
X158010213Y-100504045D01*
X158010307Y-100501624D01*
X158010500Y-100499181D01*
X158010499Y-100123999D01*
X158027112Y-100062000D01*
X158072499Y-100016613D01*
X158134499Y-100000000D01*
X159012779Y-100000000D01*
X159025921Y-99996293D01*
X159031932Y-99966079D01*
X159032152Y-99966122D01*
X159041783Y-99917705D01*
X159087478Y-99868272D01*
X159152268Y-99849999D01*
X159346829Y-99849999D01*
X159353111Y-99849678D01*
X159445959Y-99840194D01*
X159459122Y-99837376D01*
X159612267Y-99786629D01*
X159625266Y-99780567D01*
X159762194Y-99696109D01*
X159773455Y-99687205D01*
X159887205Y-99573455D01*
X159896109Y-99562194D01*
X159980567Y-99425266D01*
X159986629Y-99412267D01*
X160037375Y-99259125D01*
X160040194Y-99245958D01*
X160049680Y-99153109D01*
X160050000Y-99146832D01*
X160050000Y-98266326D01*
X160046549Y-98253450D01*
X160033674Y-98250000D01*
X157916327Y-98250000D01*
X157903451Y-98253450D01*
X157900001Y-98266326D01*
X157900001Y-99146829D01*
X157900321Y-99153111D01*
X157909805Y-99245959D01*
X157912623Y-99259122D01*
X157935304Y-99327568D01*
X157939723Y-99388054D01*
X157914928Y-99443402D01*
X157870698Y-99477412D01*
X157870806Y-99477595D01*
X157869312Y-99478478D01*
X157866851Y-99480371D01*
X157864094Y-99481564D01*
X157813611Y-99511419D01*
X157750491Y-99528686D01*
X157687371Y-99511418D01*
X157636112Y-99481103D01*
X157636101Y-99481098D01*
X157629393Y-99477131D01*
X157603492Y-99469606D01*
X157481292Y-99434103D01*
X157481285Y-99434101D01*
X157475204Y-99432335D01*
X157468893Y-99431838D01*
X157468886Y-99431837D01*
X157441615Y-99429691D01*
X157441600Y-99429690D01*
X157439181Y-99429500D01*
X157436736Y-99429500D01*
X157203165Y-99429500D01*
X157146708Y-99415902D01*
X157102634Y-99378091D01*
X157080608Y-99324359D01*
X157085461Y-99266491D01*
X157089999Y-99252797D01*
X157100500Y-99150009D01*
X157100499Y-96849992D01*
X157089999Y-96747203D01*
X157034814Y-96580666D01*
X156976881Y-96486741D01*
X156946502Y-96437488D01*
X156946500Y-96437485D01*
X156942712Y-96431344D01*
X156848549Y-96337181D01*
X156818299Y-96287818D01*
X156813757Y-96230102D01*
X156835912Y-96176615D01*
X156879935Y-96139015D01*
X156936230Y-96125500D01*
X158064477Y-96125500D01*
X158120772Y-96139015D01*
G37*
%TD.AperFunction*%
%TA.AperFunction,Conductor*%
G36*
X122987001Y-95384939D02*
G01*
X123027229Y-95411819D01*
X123338181Y-95722772D01*
X123365061Y-95763000D01*
X123374500Y-95810453D01*
X123374500Y-96672225D01*
X123373978Y-96683280D01*
X123372327Y-96690667D01*
X123372571Y-96698453D01*
X123372571Y-96698461D01*
X123374439Y-96757873D01*
X123374500Y-96761768D01*
X123374500Y-96789350D01*
X123374988Y-96793219D01*
X123374989Y-96793225D01*
X123375004Y-96793343D01*
X123375918Y-96804966D01*
X123377045Y-96840830D01*
X123377046Y-96840837D01*
X123377291Y-96848627D01*
X123379467Y-96856119D01*
X123379468Y-96856121D01*
X123382879Y-96867862D01*
X123386825Y-96886915D01*
X123389336Y-96906792D01*
X123392206Y-96914042D01*
X123392208Y-96914048D01*
X123405414Y-96947404D01*
X123409197Y-96958451D01*
X123421382Y-97000390D01*
X123425353Y-97007105D01*
X123425354Y-97007107D01*
X123431581Y-97017637D01*
X123440136Y-97035099D01*
X123444642Y-97046480D01*
X123444643Y-97046483D01*
X123447514Y-97053732D01*
X123457166Y-97067017D01*
X123473181Y-97089060D01*
X123479593Y-97098822D01*
X123497856Y-97129702D01*
X123497859Y-97129707D01*
X123501830Y-97136420D01*
X123507345Y-97141935D01*
X123515990Y-97150580D01*
X123528626Y-97165374D01*
X123535819Y-97175275D01*
X123535823Y-97175279D01*
X123540406Y-97181587D01*
X123546415Y-97186558D01*
X123546416Y-97186559D01*
X123574058Y-97209426D01*
X123582699Y-97217289D01*
X124138181Y-97772772D01*
X124165061Y-97813000D01*
X124174500Y-97860453D01*
X124174500Y-98245017D01*
X124173978Y-98256072D01*
X124172327Y-98263459D01*
X124172571Y-98271245D01*
X124172571Y-98271253D01*
X124174439Y-98330665D01*
X124174500Y-98334560D01*
X124174500Y-98362142D01*
X124174988Y-98366011D01*
X124174989Y-98366017D01*
X124175004Y-98366135D01*
X124175918Y-98377758D01*
X124177045Y-98413622D01*
X124177046Y-98413629D01*
X124177291Y-98421419D01*
X124179467Y-98428911D01*
X124179468Y-98428913D01*
X124182879Y-98440654D01*
X124186825Y-98459707D01*
X124187792Y-98467366D01*
X124189336Y-98479584D01*
X124192206Y-98486834D01*
X124192208Y-98486840D01*
X124205414Y-98520196D01*
X124209197Y-98531243D01*
X124221382Y-98573182D01*
X124225353Y-98579897D01*
X124225354Y-98579899D01*
X124231581Y-98590429D01*
X124240136Y-98607891D01*
X124244642Y-98619272D01*
X124244643Y-98619275D01*
X124247514Y-98626524D01*
X124268290Y-98655120D01*
X124273181Y-98661852D01*
X124279593Y-98671614D01*
X124297856Y-98702494D01*
X124297859Y-98702499D01*
X124301830Y-98709212D01*
X124307344Y-98714726D01*
X124307345Y-98714727D01*
X124315990Y-98723372D01*
X124328626Y-98738166D01*
X124335819Y-98748067D01*
X124335823Y-98748071D01*
X124340406Y-98754379D01*
X124346415Y-98759350D01*
X124346416Y-98759351D01*
X124374058Y-98782218D01*
X124382699Y-98790081D01*
X124838181Y-99245564D01*
X124865061Y-99285792D01*
X124874500Y-99333245D01*
X124874500Y-101422225D01*
X124873978Y-101433280D01*
X124872327Y-101440667D01*
X124872571Y-101448453D01*
X124872571Y-101448461D01*
X124874439Y-101507873D01*
X124874500Y-101511768D01*
X124874500Y-101539350D01*
X124874988Y-101543219D01*
X124874989Y-101543225D01*
X124875004Y-101543343D01*
X124875918Y-101554966D01*
X124877045Y-101590830D01*
X124877046Y-101590837D01*
X124877291Y-101598627D01*
X124879467Y-101606119D01*
X124879468Y-101606121D01*
X124882879Y-101617862D01*
X124886825Y-101636915D01*
X124888319Y-101648746D01*
X124889336Y-101656792D01*
X124892206Y-101664042D01*
X124892208Y-101664048D01*
X124905414Y-101697404D01*
X124909197Y-101708451D01*
X124921382Y-101750390D01*
X124925353Y-101757105D01*
X124925354Y-101757107D01*
X124931581Y-101767637D01*
X124940136Y-101785099D01*
X124944642Y-101796480D01*
X124944643Y-101796483D01*
X124947514Y-101803732D01*
X124962767Y-101824726D01*
X124973181Y-101839060D01*
X124979593Y-101848822D01*
X124997855Y-101879701D01*
X124997860Y-101879707D01*
X124997876Y-101879735D01*
X124997880Y-101879743D01*
X125001829Y-101886420D01*
X125001056Y-101886876D01*
X125021931Y-101933759D01*
X125018219Y-101992796D01*
X125008864Y-102008243D01*
X125000000Y-102041326D01*
X125000000Y-103101000D01*
X124983387Y-103163000D01*
X124938000Y-103208387D01*
X124876000Y-103225000D01*
X124624000Y-103225000D01*
X124562000Y-103208387D01*
X124516613Y-103163000D01*
X124500000Y-103101000D01*
X124500000Y-102041327D01*
X124496549Y-102028451D01*
X124483674Y-102025001D01*
X124454835Y-102025001D01*
X124448552Y-102025321D01*
X124359132Y-102034455D01*
X124345968Y-102037273D01*
X124265292Y-102064006D01*
X124213806Y-102069669D01*
X124164498Y-102053806D01*
X124125973Y-102019186D01*
X124101808Y-101985925D01*
X124095401Y-101976171D01*
X124095034Y-101975551D01*
X124073170Y-101938580D01*
X124059004Y-101924413D01*
X124046371Y-101909622D01*
X124039179Y-101899724D01*
X124034594Y-101893413D01*
X124026711Y-101886892D01*
X124003675Y-101867835D01*
X123988954Y-101853114D01*
X123985786Y-101848123D01*
X123980097Y-101842780D01*
X123980093Y-101842776D01*
X123979835Y-101842534D01*
X123964395Y-101825021D01*
X123964180Y-101824726D01*
X123959594Y-101818413D01*
X123925946Y-101790577D01*
X123917305Y-101782714D01*
X123917233Y-101782642D01*
X123917232Y-101782641D01*
X123914471Y-101779880D01*
X123913163Y-101778866D01*
X123889890Y-101744889D01*
X123871817Y-101737678D01*
X123870577Y-101739935D01*
X123863411Y-101735995D01*
X123844117Y-101722882D01*
X123843838Y-101722651D01*
X123843832Y-101722647D01*
X123837823Y-101717676D01*
X123830969Y-101714450D01*
X123830441Y-101714079D01*
X123827484Y-101712267D01*
X123826920Y-101711968D01*
X123820936Y-101707327D01*
X123813777Y-101704229D01*
X123813774Y-101704227D01*
X123780849Y-101689978D01*
X123770363Y-101684841D01*
X123738927Y-101667560D01*
X123738923Y-101667558D01*
X123732092Y-101663803D01*
X123724543Y-101661864D01*
X123724539Y-101661863D01*
X123724179Y-101661771D01*
X123702223Y-101653867D01*
X123694826Y-101650386D01*
X123687388Y-101648967D01*
X123686804Y-101648746D01*
X123683453Y-101647715D01*
X123682845Y-101647569D01*
X123675896Y-101644562D01*
X123668192Y-101643341D01*
X123668190Y-101643341D01*
X123632759Y-101637729D01*
X123621324Y-101635361D01*
X123586571Y-101626438D01*
X123586563Y-101626437D01*
X123579019Y-101624500D01*
X123571223Y-101624500D01*
X123570849Y-101624500D01*
X123547614Y-101622304D01*
X123547246Y-101622233D01*
X123547239Y-101622232D01*
X123539588Y-101620773D01*
X123532032Y-101621247D01*
X123531393Y-101621177D01*
X123527916Y-101621014D01*
X123527280Y-101621023D01*
X123519804Y-101619840D01*
X123512047Y-101620573D01*
X123512041Y-101620573D01*
X123476324Y-101623950D01*
X123464655Y-101624500D01*
X122661035Y-101624500D01*
X122605531Y-101611384D01*
X122561769Y-101574812D01*
X122552323Y-101562194D01*
X122537546Y-101542454D01*
X122530449Y-101537141D01*
X122530448Y-101537140D01*
X122429431Y-101461519D01*
X122429430Y-101461518D01*
X122422331Y-101456204D01*
X122304530Y-101412267D01*
X122294752Y-101408620D01*
X122294750Y-101408619D01*
X122287483Y-101405909D01*
X122279770Y-101405079D01*
X122279767Y-101405079D01*
X122231180Y-101399855D01*
X122231169Y-101399854D01*
X122227873Y-101399500D01*
X122224550Y-101399500D01*
X120635439Y-101399500D01*
X120635420Y-101399500D01*
X120632128Y-101399501D01*
X120628850Y-101399853D01*
X120628838Y-101399854D01*
X120580231Y-101405079D01*
X120580225Y-101405080D01*
X120572517Y-101405909D01*
X120565250Y-101408619D01*
X120565243Y-101408621D01*
X120515886Y-101427030D01*
X120447305Y-101432250D01*
X120386492Y-101400119D01*
X120352157Y-101340523D01*
X120350042Y-101331942D01*
X120329790Y-101249775D01*
X120250734Y-101099148D01*
X120221275Y-101065896D01*
X120202909Y-101045165D01*
X123775001Y-101045165D01*
X123775321Y-101051447D01*
X123784455Y-101140867D01*
X123787274Y-101154036D01*
X123836180Y-101301625D01*
X123842246Y-101314633D01*
X123923632Y-101446580D01*
X123932537Y-101457842D01*
X124019058Y-101544363D01*
X124036152Y-101573095D01*
X124060591Y-101580791D01*
X124185366Y-101657753D01*
X124198374Y-101663819D01*
X124345969Y-101712727D01*
X124359125Y-101715543D01*
X124448555Y-101724680D01*
X124454832Y-101725000D01*
X124458674Y-101725000D01*
X124471549Y-101721549D01*
X124475000Y-101708674D01*
X124475000Y-101016326D01*
X124471549Y-101003450D01*
X124458674Y-101000000D01*
X123791327Y-101000000D01*
X123778451Y-101003450D01*
X123775001Y-101016326D01*
X123775001Y-101045165D01*
X120202909Y-101045165D01*
X120173620Y-101012104D01*
X120145959Y-100959228D01*
X120146200Y-100899554D01*
X120174282Y-100846909D01*
X120232533Y-100782216D01*
X120327179Y-100618284D01*
X120370917Y-100483674D01*
X123775000Y-100483674D01*
X123778450Y-100496549D01*
X123791326Y-100500000D01*
X124458674Y-100500000D01*
X124471549Y-100496549D01*
X124475000Y-100483674D01*
X124475000Y-99791327D01*
X124471549Y-99778451D01*
X124458674Y-99775001D01*
X124454835Y-99775001D01*
X124448552Y-99775321D01*
X124359132Y-99784455D01*
X124345963Y-99787274D01*
X124198374Y-99836180D01*
X124185366Y-99842246D01*
X124053419Y-99923632D01*
X124042157Y-99932537D01*
X123932537Y-100042157D01*
X123923632Y-100053419D01*
X123842246Y-100185366D01*
X123836180Y-100198374D01*
X123787272Y-100345969D01*
X123784456Y-100359125D01*
X123775319Y-100448555D01*
X123775000Y-100454832D01*
X123775000Y-100483674D01*
X120370917Y-100483674D01*
X120385674Y-100438256D01*
X120405460Y-100250000D01*
X120404781Y-100243540D01*
X120404781Y-100243534D01*
X120402516Y-100221988D01*
X120411790Y-100160347D01*
X120449885Y-100111007D01*
X120507173Y-100086437D01*
X120557223Y-100091609D01*
X120557699Y-100089596D01*
X120565246Y-100091379D01*
X120572517Y-100094091D01*
X120632127Y-100100500D01*
X122227872Y-100100499D01*
X122287483Y-100094091D01*
X122422331Y-100043796D01*
X122537546Y-99957546D01*
X122623796Y-99842331D01*
X122674091Y-99707483D01*
X122680500Y-99647873D01*
X122680499Y-98852128D01*
X122674091Y-98792517D01*
X122623796Y-98657669D01*
X122561082Y-98573894D01*
X122539183Y-98525941D01*
X122539183Y-98473225D01*
X122561082Y-98425272D01*
X122618037Y-98349189D01*
X122626452Y-98333777D01*
X122670888Y-98214641D01*
X122674426Y-98199667D01*
X122679646Y-98151114D01*
X122680000Y-98144518D01*
X122680000Y-98016326D01*
X122676549Y-98003450D01*
X122663674Y-98000000D01*
X121304000Y-98000000D01*
X121242000Y-97983387D01*
X121196613Y-97938000D01*
X121180000Y-97876000D01*
X121180000Y-97624000D01*
X121196613Y-97562000D01*
X121242000Y-97516613D01*
X121304000Y-97500000D01*
X122663674Y-97500000D01*
X122676549Y-97496549D01*
X122680000Y-97483674D01*
X122680000Y-97355482D01*
X122679646Y-97348885D01*
X122674426Y-97300332D01*
X122670888Y-97285358D01*
X122626452Y-97166222D01*
X122618037Y-97150810D01*
X122542501Y-97049907D01*
X122530092Y-97037498D01*
X122429189Y-96961962D01*
X122413777Y-96953547D01*
X122294641Y-96909111D01*
X122279667Y-96905573D01*
X122231114Y-96900353D01*
X122224518Y-96900000D01*
X121804500Y-96900000D01*
X121742500Y-96883387D01*
X121697113Y-96838000D01*
X121680500Y-96776000D01*
X121680499Y-95805439D01*
X121680499Y-95802128D01*
X121674091Y-95742517D01*
X121623796Y-95607669D01*
X121598450Y-95573811D01*
X121574211Y-95510553D01*
X121586833Y-95443996D01*
X121632550Y-95394005D01*
X121697717Y-95375500D01*
X122939548Y-95375500D01*
X122987001Y-95384939D01*
G37*
%TD.AperFunction*%
%TA.AperFunction,Conductor*%
G36*
X169482678Y-100634208D02*
G01*
X169521914Y-100659108D01*
X169563224Y-100697901D01*
X169566020Y-100700611D01*
X169585529Y-100720120D01*
X169588709Y-100722587D01*
X169597571Y-100730155D01*
X169629418Y-100760062D01*
X169632139Y-100761558D01*
X169665621Y-100799237D01*
X169681048Y-100850097D01*
X169673765Y-100902743D01*
X169645111Y-100947505D01*
X168563486Y-102029131D01*
X168514123Y-102059381D01*
X168456407Y-102063923D01*
X168402920Y-102041768D01*
X168365320Y-101997745D01*
X168351805Y-101941450D01*
X168351805Y-100749500D01*
X168368418Y-100687500D01*
X168413805Y-100642113D01*
X168475805Y-100625500D01*
X169437030Y-100625500D01*
X169482678Y-100634208D01*
G37*
%TD.AperFunction*%
%TA.AperFunction,Conductor*%
G36*
X167487001Y-96134939D02*
G01*
X167527229Y-96161819D01*
X170778228Y-99412819D01*
X170808478Y-99462182D01*
X170813020Y-99519898D01*
X170790865Y-99573385D01*
X170746842Y-99610985D01*
X170690547Y-99624500D01*
X170312970Y-99624500D01*
X170267322Y-99615792D01*
X170228086Y-99590892D01*
X170186775Y-99552098D01*
X170183978Y-99549387D01*
X170167227Y-99532636D01*
X170164471Y-99529880D01*
X170161290Y-99527412D01*
X170152414Y-99519830D01*
X170126269Y-99495278D01*
X170126267Y-99495276D01*
X170120582Y-99489938D01*
X170113749Y-99486182D01*
X170113743Y-99486177D01*
X170103025Y-99480285D01*
X170086766Y-99469606D01*
X170077095Y-99462104D01*
X170077092Y-99462102D01*
X170070936Y-99457327D01*
X170063779Y-99454229D01*
X170063776Y-99454228D01*
X170030849Y-99439978D01*
X170020363Y-99434841D01*
X169988932Y-99417562D01*
X169988923Y-99417558D01*
X169982092Y-99413803D01*
X169974535Y-99411862D01*
X169974531Y-99411861D01*
X169962688Y-99408820D01*
X169944284Y-99402519D01*
X169933057Y-99397660D01*
X169933050Y-99397658D01*
X169925896Y-99394562D01*
X169918192Y-99393341D01*
X169918190Y-99393341D01*
X169882759Y-99387729D01*
X169871324Y-99385361D01*
X169836571Y-99376438D01*
X169836563Y-99376437D01*
X169829019Y-99374500D01*
X169821223Y-99374500D01*
X169808983Y-99374500D01*
X169789597Y-99372974D01*
X169769804Y-99369840D01*
X169762038Y-99370574D01*
X169762035Y-99370574D01*
X169726324Y-99373950D01*
X169714655Y-99374500D01*
X168060452Y-99374500D01*
X168012999Y-99365061D01*
X167972771Y-99338181D01*
X166495043Y-97860453D01*
X164997286Y-96362695D01*
X164989842Y-96354514D01*
X164985786Y-96348123D01*
X164977021Y-96339892D01*
X164944974Y-96290769D01*
X164939088Y-96232413D01*
X164960679Y-96177881D01*
X165004917Y-96139371D01*
X165061905Y-96125500D01*
X167439548Y-96125500D01*
X167487001Y-96134939D01*
G37*
%TD.AperFunction*%
%TA.AperFunction,Conductor*%
G36*
X142237001Y-90384939D02*
G01*
X142277228Y-90411818D01*
X143390084Y-91524675D01*
X144502707Y-92637298D01*
X144510159Y-92645487D01*
X144514214Y-92651877D01*
X144546073Y-92681795D01*
X144563223Y-92697900D01*
X144566019Y-92700610D01*
X144585529Y-92720120D01*
X144588709Y-92722587D01*
X144597571Y-92730155D01*
X144611020Y-92742785D01*
X144623732Y-92754723D01*
X144623734Y-92754724D01*
X144629418Y-92760062D01*
X144636251Y-92763818D01*
X144636252Y-92763819D01*
X144646973Y-92769713D01*
X144663234Y-92780394D01*
X144679064Y-92792673D01*
X144719154Y-92810021D01*
X144729631Y-92815154D01*
X144767908Y-92836197D01*
X144784957Y-92840574D01*
X144787305Y-92841177D01*
X144805719Y-92847481D01*
X144824104Y-92855438D01*
X144867265Y-92862273D01*
X144878664Y-92864634D01*
X144920981Y-92875500D01*
X144941017Y-92875500D01*
X144960402Y-92877025D01*
X144980196Y-92880160D01*
X145019570Y-92876438D01*
X145023676Y-92876050D01*
X145035345Y-92875500D01*
X146247112Y-92875500D01*
X146305709Y-92890219D01*
X146350395Y-92930880D01*
X146370561Y-92987831D01*
X146370761Y-92989938D01*
X146373950Y-93023677D01*
X146374500Y-93035345D01*
X146374500Y-93922225D01*
X146373978Y-93933280D01*
X146372327Y-93940667D01*
X146372571Y-93948453D01*
X146372571Y-93948461D01*
X146374439Y-94007873D01*
X146374500Y-94011768D01*
X146374500Y-94039350D01*
X146374988Y-94043219D01*
X146374989Y-94043225D01*
X146375004Y-94043343D01*
X146375918Y-94054966D01*
X146377045Y-94090830D01*
X146377046Y-94090837D01*
X146377291Y-94098627D01*
X146379467Y-94106119D01*
X146379468Y-94106121D01*
X146382879Y-94117862D01*
X146386825Y-94136915D01*
X146389336Y-94156792D01*
X146392206Y-94164042D01*
X146392208Y-94164048D01*
X146405414Y-94197404D01*
X146409196Y-94208450D01*
X146411361Y-94215901D01*
X146414269Y-94272775D01*
X146391448Y-94324950D01*
X146347712Y-94361423D01*
X146292286Y-94374500D01*
X143327772Y-94374500D01*
X143316719Y-94373979D01*
X143309333Y-94372328D01*
X143301535Y-94372573D01*
X143242145Y-94374439D01*
X143238251Y-94374500D01*
X143210650Y-94374500D01*
X143206799Y-94374986D01*
X143206768Y-94374988D01*
X143206640Y-94375005D01*
X143195029Y-94375918D01*
X143159172Y-94377045D01*
X143159165Y-94377046D01*
X143151373Y-94377291D01*
X143143888Y-94379465D01*
X143143872Y-94379468D01*
X143132126Y-94382881D01*
X143113083Y-94386825D01*
X143100949Y-94388358D01*
X143100948Y-94388358D01*
X143093208Y-94389336D01*
X143085958Y-94392205D01*
X143085951Y-94392208D01*
X143052598Y-94405413D01*
X143041554Y-94409194D01*
X143007105Y-94419203D01*
X143007095Y-94419207D01*
X142999610Y-94421382D01*
X142992900Y-94425349D01*
X142992898Y-94425351D01*
X142989505Y-94427357D01*
X142982360Y-94431583D01*
X142964900Y-94440136D01*
X142946268Y-94447514D01*
X142939965Y-94452092D01*
X142939958Y-94452097D01*
X142910939Y-94473181D01*
X142901179Y-94479592D01*
X142870294Y-94497857D01*
X142870284Y-94497864D01*
X142863579Y-94501830D01*
X142858063Y-94507345D01*
X142858060Y-94507348D01*
X142849407Y-94516000D01*
X142834624Y-94528626D01*
X142824727Y-94535817D01*
X142824720Y-94535823D01*
X142818413Y-94540406D01*
X142813446Y-94546408D01*
X142813435Y-94546420D01*
X142790570Y-94574059D01*
X142782710Y-94582697D01*
X141027228Y-96338181D01*
X140987000Y-96365061D01*
X140939547Y-96374500D01*
X140374000Y-96374500D01*
X140312000Y-96357887D01*
X140266613Y-96312500D01*
X140250000Y-96250500D01*
X140250000Y-95716326D01*
X140246549Y-95703450D01*
X140233674Y-95700000D01*
X138166326Y-95700000D01*
X138153450Y-95703450D01*
X138150000Y-95716326D01*
X138150000Y-96250500D01*
X138133387Y-96312500D01*
X138088000Y-96357887D01*
X138026000Y-96374500D01*
X136810453Y-96374500D01*
X136763000Y-96365061D01*
X136722772Y-96338181D01*
X135568265Y-95183674D01*
X138150000Y-95183674D01*
X138153450Y-95196549D01*
X138166326Y-95200000D01*
X138933674Y-95200000D01*
X138946549Y-95196549D01*
X138950000Y-95183674D01*
X139450000Y-95183674D01*
X139453450Y-95196549D01*
X139466326Y-95200000D01*
X140233674Y-95200000D01*
X140246549Y-95196549D01*
X140250000Y-95183674D01*
X140250000Y-94455482D01*
X140249646Y-94448885D01*
X140244426Y-94400332D01*
X140240888Y-94385358D01*
X140196452Y-94266222D01*
X140188037Y-94250810D01*
X140112501Y-94149907D01*
X140100092Y-94137498D01*
X139999189Y-94061962D01*
X139983777Y-94053547D01*
X139864641Y-94009111D01*
X139849667Y-94005573D01*
X139801114Y-94000353D01*
X139794518Y-94000000D01*
X139466326Y-94000000D01*
X139453450Y-94003450D01*
X139450000Y-94016326D01*
X139450000Y-95183674D01*
X138950000Y-95183674D01*
X138950000Y-94016326D01*
X138946549Y-94003450D01*
X138933674Y-94000000D01*
X138605482Y-94000000D01*
X138598885Y-94000353D01*
X138550332Y-94005573D01*
X138535358Y-94009111D01*
X138416222Y-94053547D01*
X138400810Y-94061962D01*
X138299907Y-94137498D01*
X138287498Y-94149907D01*
X138211962Y-94250810D01*
X138203547Y-94266222D01*
X138159111Y-94385358D01*
X138155573Y-94400332D01*
X138150353Y-94448885D01*
X138150000Y-94455482D01*
X138150000Y-95183674D01*
X135568265Y-95183674D01*
X134911819Y-94527228D01*
X134884939Y-94487000D01*
X134875500Y-94439547D01*
X134875500Y-93581035D01*
X134888591Y-93525581D01*
X134925100Y-93481835D01*
X134926021Y-93481145D01*
X134973985Y-93459198D01*
X135026738Y-93459174D01*
X135074727Y-93481082D01*
X135150805Y-93538035D01*
X135166222Y-93546452D01*
X135285358Y-93590888D01*
X135300332Y-93594426D01*
X135348885Y-93599646D01*
X135355482Y-93600000D01*
X135483674Y-93600000D01*
X135496549Y-93596549D01*
X135500000Y-93583674D01*
X135500000Y-91724000D01*
X135516613Y-91662000D01*
X135562000Y-91616613D01*
X135624000Y-91600000D01*
X135876000Y-91600000D01*
X135938000Y-91616613D01*
X135983387Y-91662000D01*
X136000000Y-91724000D01*
X136000000Y-93583674D01*
X136003450Y-93596549D01*
X136016326Y-93600000D01*
X136144518Y-93600000D01*
X136151114Y-93599646D01*
X136199667Y-93594426D01*
X136214641Y-93590888D01*
X136333777Y-93546452D01*
X136349189Y-93538037D01*
X136425272Y-93481082D01*
X136473225Y-93459183D01*
X136525941Y-93459183D01*
X136573894Y-93481082D01*
X136657669Y-93543796D01*
X136792517Y-93594091D01*
X136852127Y-93600500D01*
X137647872Y-93600499D01*
X137707483Y-93594091D01*
X137842331Y-93543796D01*
X137957546Y-93457546D01*
X138043796Y-93342331D01*
X138094091Y-93207483D01*
X138100500Y-93147873D01*
X138100499Y-90585453D01*
X138109938Y-90538001D01*
X138136818Y-90497772D01*
X138222773Y-90411818D01*
X138263002Y-90384939D01*
X138310454Y-90375500D01*
X142189548Y-90375500D01*
X142237001Y-90384939D01*
G37*
%TD.AperFunction*%
%TA.AperFunction,Conductor*%
G36*
X157737001Y-91134939D02*
G01*
X157777229Y-91161819D01*
X157938681Y-91323271D01*
X157965561Y-91363499D01*
X157975000Y-91410952D01*
X157975000Y-92983674D01*
X157978450Y-92996549D01*
X157991326Y-93000000D01*
X158783673Y-93000000D01*
X158796548Y-92996549D01*
X158799999Y-92983674D01*
X158799999Y-92483951D01*
X158813514Y-92427656D01*
X158851114Y-92383633D01*
X158904601Y-92361478D01*
X158962317Y-92366020D01*
X159011678Y-92396269D01*
X159895739Y-93280330D01*
X160778228Y-94162819D01*
X160808478Y-94212182D01*
X160813020Y-94269898D01*
X160790865Y-94323385D01*
X160746842Y-94360985D01*
X160690547Y-94374500D01*
X158924000Y-94374500D01*
X158862000Y-94357887D01*
X158816613Y-94312500D01*
X158800000Y-94250500D01*
X158800000Y-93516326D01*
X158796549Y-93503450D01*
X158783674Y-93500000D01*
X156666327Y-93500000D01*
X156653451Y-93503450D01*
X156650001Y-93516326D01*
X156650001Y-94250500D01*
X156633388Y-94312500D01*
X156588001Y-94357887D01*
X156526001Y-94374500D01*
X155974500Y-94374500D01*
X155912500Y-94357887D01*
X155867113Y-94312500D01*
X155850500Y-94250500D01*
X155850499Y-92983674D01*
X156650000Y-92983674D01*
X156653450Y-92996549D01*
X156666326Y-93000000D01*
X157458674Y-93000000D01*
X157471549Y-92996549D01*
X157475000Y-92983674D01*
X157475000Y-91416327D01*
X157471549Y-91403451D01*
X157458674Y-91400001D01*
X157353171Y-91400001D01*
X157346888Y-91400321D01*
X157254040Y-91409805D01*
X157240877Y-91412623D01*
X157087732Y-91463370D01*
X157074733Y-91469432D01*
X156937805Y-91553890D01*
X156926544Y-91562794D01*
X156812794Y-91676544D01*
X156803890Y-91687805D01*
X156719432Y-91824733D01*
X156713370Y-91837732D01*
X156662624Y-91990874D01*
X156659805Y-92004041D01*
X156650319Y-92096890D01*
X156650000Y-92103168D01*
X156650000Y-92983674D01*
X155850499Y-92983674D01*
X155850499Y-92103140D01*
X155850499Y-92099992D01*
X155839999Y-91997203D01*
X155784814Y-91830666D01*
X155697195Y-91688612D01*
X155696502Y-91687488D01*
X155696500Y-91687485D01*
X155692712Y-91681344D01*
X155568656Y-91557288D01*
X155562515Y-91553500D01*
X155562511Y-91553497D01*
X155425480Y-91468977D01*
X155419334Y-91465186D01*
X155252797Y-91410001D01*
X155246064Y-91409313D01*
X155246059Y-91409312D01*
X155153140Y-91399819D01*
X155153123Y-91399818D01*
X155150009Y-91399500D01*
X155146860Y-91399500D01*
X154403141Y-91399500D01*
X154403121Y-91399500D01*
X154399992Y-91399501D01*
X154396860Y-91399820D01*
X154396858Y-91399821D01*
X154303938Y-91409312D01*
X154303928Y-91409313D01*
X154297203Y-91410001D01*
X154290781Y-91412128D01*
X154290776Y-91412130D01*
X154211935Y-91438256D01*
X154138002Y-91462755D01*
X154080136Y-91467606D01*
X154026406Y-91445579D01*
X153988596Y-91401505D01*
X153974999Y-91345049D01*
X153974999Y-91249500D01*
X153991612Y-91187500D01*
X154036999Y-91142113D01*
X154098999Y-91125500D01*
X157689548Y-91125500D01*
X157737001Y-91134939D01*
G37*
%TD.AperFunction*%
%TD*%
M02*
