%TF.GenerationSoftware,KiCad,Pcbnew,(7.0.0)*%
%TF.CreationDate,2023-10-22T09:49:58+03:00*%
%TF.ProjectId,nanoInvaderBot-power,6e616e6f-496e-4766-9164-6572426f742d,rev?*%
%TF.SameCoordinates,Original*%
%TF.FileFunction,Legend,Bot*%
%TF.FilePolarity,Positive*%
%FSLAX46Y46*%
G04 Gerber Fmt 4.6, Leading zero omitted, Abs format (unit mm)*
G04 Created by KiCad (PCBNEW (7.0.0)) date 2023-10-22 09:49:58*
%MOMM*%
%LPD*%
G01*
G04 APERTURE LIST*
%ADD10C,0.150000*%
%ADD11C,0.152400*%
%ADD12C,0.120000*%
%ADD13C,0.127000*%
%ADD14C,0.240000*%
%ADD15C,0.100000*%
%ADD16C,0.200000*%
G04 APERTURE END LIST*
D10*
%TO.C,U5*%
X152367380Y-102738095D02*
X153176904Y-102738095D01*
X153176904Y-102738095D02*
X153272142Y-102785714D01*
X153272142Y-102785714D02*
X153319761Y-102833333D01*
X153319761Y-102833333D02*
X153367380Y-102928571D01*
X153367380Y-102928571D02*
X153367380Y-103119047D01*
X153367380Y-103119047D02*
X153319761Y-103214285D01*
X153319761Y-103214285D02*
X153272142Y-103261904D01*
X153272142Y-103261904D02*
X153176904Y-103309523D01*
X153176904Y-103309523D02*
X152367380Y-103309523D01*
X152367380Y-104261904D02*
X152367380Y-103785714D01*
X152367380Y-103785714D02*
X152843571Y-103738095D01*
X152843571Y-103738095D02*
X152795952Y-103785714D01*
X152795952Y-103785714D02*
X152748333Y-103880952D01*
X152748333Y-103880952D02*
X152748333Y-104119047D01*
X152748333Y-104119047D02*
X152795952Y-104214285D01*
X152795952Y-104214285D02*
X152843571Y-104261904D01*
X152843571Y-104261904D02*
X152938809Y-104309523D01*
X152938809Y-104309523D02*
X153176904Y-104309523D01*
X153176904Y-104309523D02*
X153272142Y-104261904D01*
X153272142Y-104261904D02*
X153319761Y-104214285D01*
X153319761Y-104214285D02*
X153367380Y-104119047D01*
X153367380Y-104119047D02*
X153367380Y-103880952D01*
X153367380Y-103880952D02*
X153319761Y-103785714D01*
X153319761Y-103785714D02*
X153272142Y-103738095D01*
%TO.C,R10*%
X155642857Y-102117380D02*
X155976190Y-101641190D01*
X156214285Y-102117380D02*
X156214285Y-101117380D01*
X156214285Y-101117380D02*
X155833333Y-101117380D01*
X155833333Y-101117380D02*
X155738095Y-101165000D01*
X155738095Y-101165000D02*
X155690476Y-101212619D01*
X155690476Y-101212619D02*
X155642857Y-101307857D01*
X155642857Y-101307857D02*
X155642857Y-101450714D01*
X155642857Y-101450714D02*
X155690476Y-101545952D01*
X155690476Y-101545952D02*
X155738095Y-101593571D01*
X155738095Y-101593571D02*
X155833333Y-101641190D01*
X155833333Y-101641190D02*
X156214285Y-101641190D01*
X154690476Y-102117380D02*
X155261904Y-102117380D01*
X154976190Y-102117380D02*
X154976190Y-101117380D01*
X154976190Y-101117380D02*
X155071428Y-101260238D01*
X155071428Y-101260238D02*
X155166666Y-101355476D01*
X155166666Y-101355476D02*
X155261904Y-101403095D01*
X154071428Y-101117380D02*
X153976190Y-101117380D01*
X153976190Y-101117380D02*
X153880952Y-101165000D01*
X153880952Y-101165000D02*
X153833333Y-101212619D01*
X153833333Y-101212619D02*
X153785714Y-101307857D01*
X153785714Y-101307857D02*
X153738095Y-101498333D01*
X153738095Y-101498333D02*
X153738095Y-101736428D01*
X153738095Y-101736428D02*
X153785714Y-101926904D01*
X153785714Y-101926904D02*
X153833333Y-102022142D01*
X153833333Y-102022142D02*
X153880952Y-102069761D01*
X153880952Y-102069761D02*
X153976190Y-102117380D01*
X153976190Y-102117380D02*
X154071428Y-102117380D01*
X154071428Y-102117380D02*
X154166666Y-102069761D01*
X154166666Y-102069761D02*
X154214285Y-102022142D01*
X154214285Y-102022142D02*
X154261904Y-101926904D01*
X154261904Y-101926904D02*
X154309523Y-101736428D01*
X154309523Y-101736428D02*
X154309523Y-101498333D01*
X154309523Y-101498333D02*
X154261904Y-101307857D01*
X154261904Y-101307857D02*
X154214285Y-101212619D01*
X154214285Y-101212619D02*
X154166666Y-101165000D01*
X154166666Y-101165000D02*
X154071428Y-101117380D01*
%TO.C,L1*%
X145617380Y-97833333D02*
X145617380Y-97357143D01*
X145617380Y-97357143D02*
X144617380Y-97357143D01*
X145617380Y-98690476D02*
X145617380Y-98119048D01*
X145617380Y-98404762D02*
X144617380Y-98404762D01*
X144617380Y-98404762D02*
X144760238Y-98309524D01*
X144760238Y-98309524D02*
X144855476Y-98214286D01*
X144855476Y-98214286D02*
X144903095Y-98119048D01*
%TO.C,J2*%
X164006830Y-109853413D02*
X164006830Y-110568131D01*
X164006830Y-110568131D02*
X164054477Y-110711075D01*
X164054477Y-110711075D02*
X164149773Y-110806371D01*
X164149773Y-110806371D02*
X164292717Y-110854019D01*
X164292717Y-110854019D02*
X164388013Y-110854019D01*
X163577999Y-109948708D02*
X163530351Y-109901061D01*
X163530351Y-109901061D02*
X163435055Y-109853413D01*
X163435055Y-109853413D02*
X163196816Y-109853413D01*
X163196816Y-109853413D02*
X163101520Y-109901061D01*
X163101520Y-109901061D02*
X163053872Y-109948708D01*
X163053872Y-109948708D02*
X163006224Y-110044004D01*
X163006224Y-110044004D02*
X163006224Y-110139300D01*
X163006224Y-110139300D02*
X163053872Y-110282244D01*
X163053872Y-110282244D02*
X163625647Y-110854019D01*
X163625647Y-110854019D02*
X163006224Y-110854019D01*
%TO.C,D1*%
X119988094Y-110287380D02*
X119988094Y-109287380D01*
X119988094Y-109287380D02*
X119749999Y-109287380D01*
X119749999Y-109287380D02*
X119607142Y-109335000D01*
X119607142Y-109335000D02*
X119511904Y-109430238D01*
X119511904Y-109430238D02*
X119464285Y-109525476D01*
X119464285Y-109525476D02*
X119416666Y-109715952D01*
X119416666Y-109715952D02*
X119416666Y-109858809D01*
X119416666Y-109858809D02*
X119464285Y-110049285D01*
X119464285Y-110049285D02*
X119511904Y-110144523D01*
X119511904Y-110144523D02*
X119607142Y-110239761D01*
X119607142Y-110239761D02*
X119749999Y-110287380D01*
X119749999Y-110287380D02*
X119988094Y-110287380D01*
X118464285Y-110287380D02*
X119035713Y-110287380D01*
X118749999Y-110287380D02*
X118749999Y-109287380D01*
X118749999Y-109287380D02*
X118845237Y-109430238D01*
X118845237Y-109430238D02*
X118940475Y-109525476D01*
X118940475Y-109525476D02*
X119035713Y-109573095D01*
%TO.C,J1*%
X136660240Y-88880583D02*
X136660240Y-89595301D01*
X136660240Y-89595301D02*
X136707887Y-89738245D01*
X136707887Y-89738245D02*
X136803183Y-89833541D01*
X136803183Y-89833541D02*
X136946127Y-89881189D01*
X136946127Y-89881189D02*
X137041423Y-89881189D01*
X135659634Y-89881189D02*
X136231409Y-89881189D01*
X135945521Y-89881189D02*
X135945521Y-88880583D01*
X135945521Y-88880583D02*
X136040817Y-89023526D01*
X136040817Y-89023526D02*
X136136113Y-89118822D01*
X136136113Y-89118822D02*
X136231409Y-89166470D01*
%TO.C,C2*%
X161166666Y-98272142D02*
X161214285Y-98319761D01*
X161214285Y-98319761D02*
X161357142Y-98367380D01*
X161357142Y-98367380D02*
X161452380Y-98367380D01*
X161452380Y-98367380D02*
X161595237Y-98319761D01*
X161595237Y-98319761D02*
X161690475Y-98224523D01*
X161690475Y-98224523D02*
X161738094Y-98129285D01*
X161738094Y-98129285D02*
X161785713Y-97938809D01*
X161785713Y-97938809D02*
X161785713Y-97795952D01*
X161785713Y-97795952D02*
X161738094Y-97605476D01*
X161738094Y-97605476D02*
X161690475Y-97510238D01*
X161690475Y-97510238D02*
X161595237Y-97415000D01*
X161595237Y-97415000D02*
X161452380Y-97367380D01*
X161452380Y-97367380D02*
X161357142Y-97367380D01*
X161357142Y-97367380D02*
X161214285Y-97415000D01*
X161214285Y-97415000D02*
X161166666Y-97462619D01*
X160785713Y-97462619D02*
X160738094Y-97415000D01*
X160738094Y-97415000D02*
X160642856Y-97367380D01*
X160642856Y-97367380D02*
X160404761Y-97367380D01*
X160404761Y-97367380D02*
X160309523Y-97415000D01*
X160309523Y-97415000D02*
X160261904Y-97462619D01*
X160261904Y-97462619D02*
X160214285Y-97557857D01*
X160214285Y-97557857D02*
X160214285Y-97653095D01*
X160214285Y-97653095D02*
X160261904Y-97795952D01*
X160261904Y-97795952D02*
X160833332Y-98367380D01*
X160833332Y-98367380D02*
X160214285Y-98367380D01*
%TO.C,R9*%
X157916666Y-102117380D02*
X158249999Y-101641190D01*
X158488094Y-102117380D02*
X158488094Y-101117380D01*
X158488094Y-101117380D02*
X158107142Y-101117380D01*
X158107142Y-101117380D02*
X158011904Y-101165000D01*
X158011904Y-101165000D02*
X157964285Y-101212619D01*
X157964285Y-101212619D02*
X157916666Y-101307857D01*
X157916666Y-101307857D02*
X157916666Y-101450714D01*
X157916666Y-101450714D02*
X157964285Y-101545952D01*
X157964285Y-101545952D02*
X158011904Y-101593571D01*
X158011904Y-101593571D02*
X158107142Y-101641190D01*
X158107142Y-101641190D02*
X158488094Y-101641190D01*
X157440475Y-102117380D02*
X157249999Y-102117380D01*
X157249999Y-102117380D02*
X157154761Y-102069761D01*
X157154761Y-102069761D02*
X157107142Y-102022142D01*
X157107142Y-102022142D02*
X157011904Y-101879285D01*
X157011904Y-101879285D02*
X156964285Y-101688809D01*
X156964285Y-101688809D02*
X156964285Y-101307857D01*
X156964285Y-101307857D02*
X157011904Y-101212619D01*
X157011904Y-101212619D02*
X157059523Y-101165000D01*
X157059523Y-101165000D02*
X157154761Y-101117380D01*
X157154761Y-101117380D02*
X157345237Y-101117380D01*
X157345237Y-101117380D02*
X157440475Y-101165000D01*
X157440475Y-101165000D02*
X157488094Y-101212619D01*
X157488094Y-101212619D02*
X157535713Y-101307857D01*
X157535713Y-101307857D02*
X157535713Y-101545952D01*
X157535713Y-101545952D02*
X157488094Y-101641190D01*
X157488094Y-101641190D02*
X157440475Y-101688809D01*
X157440475Y-101688809D02*
X157345237Y-101736428D01*
X157345237Y-101736428D02*
X157154761Y-101736428D01*
X157154761Y-101736428D02*
X157059523Y-101688809D01*
X157059523Y-101688809D02*
X157011904Y-101641190D01*
X157011904Y-101641190D02*
X156964285Y-101545952D01*
%TO.C,C6*%
X146916666Y-110772142D02*
X146964285Y-110819761D01*
X146964285Y-110819761D02*
X147107142Y-110867380D01*
X147107142Y-110867380D02*
X147202380Y-110867380D01*
X147202380Y-110867380D02*
X147345237Y-110819761D01*
X147345237Y-110819761D02*
X147440475Y-110724523D01*
X147440475Y-110724523D02*
X147488094Y-110629285D01*
X147488094Y-110629285D02*
X147535713Y-110438809D01*
X147535713Y-110438809D02*
X147535713Y-110295952D01*
X147535713Y-110295952D02*
X147488094Y-110105476D01*
X147488094Y-110105476D02*
X147440475Y-110010238D01*
X147440475Y-110010238D02*
X147345237Y-109915000D01*
X147345237Y-109915000D02*
X147202380Y-109867380D01*
X147202380Y-109867380D02*
X147107142Y-109867380D01*
X147107142Y-109867380D02*
X146964285Y-109915000D01*
X146964285Y-109915000D02*
X146916666Y-109962619D01*
X146059523Y-109867380D02*
X146249999Y-109867380D01*
X146249999Y-109867380D02*
X146345237Y-109915000D01*
X146345237Y-109915000D02*
X146392856Y-109962619D01*
X146392856Y-109962619D02*
X146488094Y-110105476D01*
X146488094Y-110105476D02*
X146535713Y-110295952D01*
X146535713Y-110295952D02*
X146535713Y-110676904D01*
X146535713Y-110676904D02*
X146488094Y-110772142D01*
X146488094Y-110772142D02*
X146440475Y-110819761D01*
X146440475Y-110819761D02*
X146345237Y-110867380D01*
X146345237Y-110867380D02*
X146154761Y-110867380D01*
X146154761Y-110867380D02*
X146059523Y-110819761D01*
X146059523Y-110819761D02*
X146011904Y-110772142D01*
X146011904Y-110772142D02*
X145964285Y-110676904D01*
X145964285Y-110676904D02*
X145964285Y-110438809D01*
X145964285Y-110438809D02*
X146011904Y-110343571D01*
X146011904Y-110343571D02*
X146059523Y-110295952D01*
X146059523Y-110295952D02*
X146154761Y-110248333D01*
X146154761Y-110248333D02*
X146345237Y-110248333D01*
X146345237Y-110248333D02*
X146440475Y-110295952D01*
X146440475Y-110295952D02*
X146488094Y-110343571D01*
X146488094Y-110343571D02*
X146535713Y-110438809D01*
%TO.C,C4*%
X153272142Y-89333333D02*
X153319761Y-89285714D01*
X153319761Y-89285714D02*
X153367380Y-89142857D01*
X153367380Y-89142857D02*
X153367380Y-89047619D01*
X153367380Y-89047619D02*
X153319761Y-88904762D01*
X153319761Y-88904762D02*
X153224523Y-88809524D01*
X153224523Y-88809524D02*
X153129285Y-88761905D01*
X153129285Y-88761905D02*
X152938809Y-88714286D01*
X152938809Y-88714286D02*
X152795952Y-88714286D01*
X152795952Y-88714286D02*
X152605476Y-88761905D01*
X152605476Y-88761905D02*
X152510238Y-88809524D01*
X152510238Y-88809524D02*
X152415000Y-88904762D01*
X152415000Y-88904762D02*
X152367380Y-89047619D01*
X152367380Y-89047619D02*
X152367380Y-89142857D01*
X152367380Y-89142857D02*
X152415000Y-89285714D01*
X152415000Y-89285714D02*
X152462619Y-89333333D01*
X152700714Y-90190476D02*
X153367380Y-90190476D01*
X152319761Y-89952381D02*
X153034047Y-89714286D01*
X153034047Y-89714286D02*
X153034047Y-90333333D01*
%TO.C,C8*%
X126452142Y-103583333D02*
X126499761Y-103535714D01*
X126499761Y-103535714D02*
X126547380Y-103392857D01*
X126547380Y-103392857D02*
X126547380Y-103297619D01*
X126547380Y-103297619D02*
X126499761Y-103154762D01*
X126499761Y-103154762D02*
X126404523Y-103059524D01*
X126404523Y-103059524D02*
X126309285Y-103011905D01*
X126309285Y-103011905D02*
X126118809Y-102964286D01*
X126118809Y-102964286D02*
X125975952Y-102964286D01*
X125975952Y-102964286D02*
X125785476Y-103011905D01*
X125785476Y-103011905D02*
X125690238Y-103059524D01*
X125690238Y-103059524D02*
X125595000Y-103154762D01*
X125595000Y-103154762D02*
X125547380Y-103297619D01*
X125547380Y-103297619D02*
X125547380Y-103392857D01*
X125547380Y-103392857D02*
X125595000Y-103535714D01*
X125595000Y-103535714D02*
X125642619Y-103583333D01*
X125975952Y-104154762D02*
X125928333Y-104059524D01*
X125928333Y-104059524D02*
X125880714Y-104011905D01*
X125880714Y-104011905D02*
X125785476Y-103964286D01*
X125785476Y-103964286D02*
X125737857Y-103964286D01*
X125737857Y-103964286D02*
X125642619Y-104011905D01*
X125642619Y-104011905D02*
X125595000Y-104059524D01*
X125595000Y-104059524D02*
X125547380Y-104154762D01*
X125547380Y-104154762D02*
X125547380Y-104345238D01*
X125547380Y-104345238D02*
X125595000Y-104440476D01*
X125595000Y-104440476D02*
X125642619Y-104488095D01*
X125642619Y-104488095D02*
X125737857Y-104535714D01*
X125737857Y-104535714D02*
X125785476Y-104535714D01*
X125785476Y-104535714D02*
X125880714Y-104488095D01*
X125880714Y-104488095D02*
X125928333Y-104440476D01*
X125928333Y-104440476D02*
X125975952Y-104345238D01*
X125975952Y-104345238D02*
X125975952Y-104154762D01*
X125975952Y-104154762D02*
X126023571Y-104059524D01*
X126023571Y-104059524D02*
X126071190Y-104011905D01*
X126071190Y-104011905D02*
X126166428Y-103964286D01*
X126166428Y-103964286D02*
X126356904Y-103964286D01*
X126356904Y-103964286D02*
X126452142Y-104011905D01*
X126452142Y-104011905D02*
X126499761Y-104059524D01*
X126499761Y-104059524D02*
X126547380Y-104154762D01*
X126547380Y-104154762D02*
X126547380Y-104345238D01*
X126547380Y-104345238D02*
X126499761Y-104440476D01*
X126499761Y-104440476D02*
X126452142Y-104488095D01*
X126452142Y-104488095D02*
X126356904Y-104535714D01*
X126356904Y-104535714D02*
X126166428Y-104535714D01*
X126166428Y-104535714D02*
X126071190Y-104488095D01*
X126071190Y-104488095D02*
X126023571Y-104440476D01*
X126023571Y-104440476D02*
X125975952Y-104345238D01*
%TO.C,J4*%
X171447165Y-94570747D02*
X172018864Y-94570747D01*
X172018864Y-94570747D02*
X172133204Y-94532634D01*
X172133204Y-94532634D02*
X172209430Y-94456407D01*
X172209430Y-94456407D02*
X172247543Y-94342068D01*
X172247543Y-94342068D02*
X172247543Y-94265841D01*
X171713958Y-95294899D02*
X172247543Y-95294899D01*
X171409052Y-95104333D02*
X171980751Y-94913766D01*
X171980751Y-94913766D02*
X171980751Y-95409239D01*
%TO.C,R7*%
X125166666Y-109117380D02*
X125499999Y-108641190D01*
X125738094Y-109117380D02*
X125738094Y-108117380D01*
X125738094Y-108117380D02*
X125357142Y-108117380D01*
X125357142Y-108117380D02*
X125261904Y-108165000D01*
X125261904Y-108165000D02*
X125214285Y-108212619D01*
X125214285Y-108212619D02*
X125166666Y-108307857D01*
X125166666Y-108307857D02*
X125166666Y-108450714D01*
X125166666Y-108450714D02*
X125214285Y-108545952D01*
X125214285Y-108545952D02*
X125261904Y-108593571D01*
X125261904Y-108593571D02*
X125357142Y-108641190D01*
X125357142Y-108641190D02*
X125738094Y-108641190D01*
X124833332Y-108117380D02*
X124166666Y-108117380D01*
X124166666Y-108117380D02*
X124595237Y-109117380D01*
%TO.C,U2*%
X151761904Y-109617380D02*
X151761904Y-110426904D01*
X151761904Y-110426904D02*
X151714285Y-110522142D01*
X151714285Y-110522142D02*
X151666666Y-110569761D01*
X151666666Y-110569761D02*
X151571428Y-110617380D01*
X151571428Y-110617380D02*
X151380952Y-110617380D01*
X151380952Y-110617380D02*
X151285714Y-110569761D01*
X151285714Y-110569761D02*
X151238095Y-110522142D01*
X151238095Y-110522142D02*
X151190476Y-110426904D01*
X151190476Y-110426904D02*
X151190476Y-109617380D01*
X150761904Y-109712619D02*
X150714285Y-109665000D01*
X150714285Y-109665000D02*
X150619047Y-109617380D01*
X150619047Y-109617380D02*
X150380952Y-109617380D01*
X150380952Y-109617380D02*
X150285714Y-109665000D01*
X150285714Y-109665000D02*
X150238095Y-109712619D01*
X150238095Y-109712619D02*
X150190476Y-109807857D01*
X150190476Y-109807857D02*
X150190476Y-109903095D01*
X150190476Y-109903095D02*
X150238095Y-110045952D01*
X150238095Y-110045952D02*
X150809523Y-110617380D01*
X150809523Y-110617380D02*
X150190476Y-110617380D01*
%TO.C,SW1*%
X123519761Y-98666667D02*
X123567380Y-98809524D01*
X123567380Y-98809524D02*
X123567380Y-99047619D01*
X123567380Y-99047619D02*
X123519761Y-99142857D01*
X123519761Y-99142857D02*
X123472142Y-99190476D01*
X123472142Y-99190476D02*
X123376904Y-99238095D01*
X123376904Y-99238095D02*
X123281666Y-99238095D01*
X123281666Y-99238095D02*
X123186428Y-99190476D01*
X123186428Y-99190476D02*
X123138809Y-99142857D01*
X123138809Y-99142857D02*
X123091190Y-99047619D01*
X123091190Y-99047619D02*
X123043571Y-98857143D01*
X123043571Y-98857143D02*
X122995952Y-98761905D01*
X122995952Y-98761905D02*
X122948333Y-98714286D01*
X122948333Y-98714286D02*
X122853095Y-98666667D01*
X122853095Y-98666667D02*
X122757857Y-98666667D01*
X122757857Y-98666667D02*
X122662619Y-98714286D01*
X122662619Y-98714286D02*
X122615000Y-98761905D01*
X122615000Y-98761905D02*
X122567380Y-98857143D01*
X122567380Y-98857143D02*
X122567380Y-99095238D01*
X122567380Y-99095238D02*
X122615000Y-99238095D01*
X122567380Y-99571429D02*
X123567380Y-99809524D01*
X123567380Y-99809524D02*
X122853095Y-100000000D01*
X122853095Y-100000000D02*
X123567380Y-100190476D01*
X123567380Y-100190476D02*
X122567380Y-100428572D01*
X123567380Y-101333333D02*
X123567380Y-100761905D01*
X123567380Y-101047619D02*
X122567380Y-101047619D01*
X122567380Y-101047619D02*
X122710238Y-100952381D01*
X122710238Y-100952381D02*
X122805476Y-100857143D01*
X122805476Y-100857143D02*
X122853095Y-100761905D01*
%TO.C,D3*%
X152238094Y-96117380D02*
X152238094Y-95117380D01*
X152238094Y-95117380D02*
X151999999Y-95117380D01*
X151999999Y-95117380D02*
X151857142Y-95165000D01*
X151857142Y-95165000D02*
X151761904Y-95260238D01*
X151761904Y-95260238D02*
X151714285Y-95355476D01*
X151714285Y-95355476D02*
X151666666Y-95545952D01*
X151666666Y-95545952D02*
X151666666Y-95688809D01*
X151666666Y-95688809D02*
X151714285Y-95879285D01*
X151714285Y-95879285D02*
X151761904Y-95974523D01*
X151761904Y-95974523D02*
X151857142Y-96069761D01*
X151857142Y-96069761D02*
X151999999Y-96117380D01*
X151999999Y-96117380D02*
X152238094Y-96117380D01*
X151333332Y-95117380D02*
X150714285Y-95117380D01*
X150714285Y-95117380D02*
X151047618Y-95498333D01*
X151047618Y-95498333D02*
X150904761Y-95498333D01*
X150904761Y-95498333D02*
X150809523Y-95545952D01*
X150809523Y-95545952D02*
X150761904Y-95593571D01*
X150761904Y-95593571D02*
X150714285Y-95688809D01*
X150714285Y-95688809D02*
X150714285Y-95926904D01*
X150714285Y-95926904D02*
X150761904Y-96022142D01*
X150761904Y-96022142D02*
X150809523Y-96069761D01*
X150809523Y-96069761D02*
X150904761Y-96117380D01*
X150904761Y-96117380D02*
X151190475Y-96117380D01*
X151190475Y-96117380D02*
X151285713Y-96069761D01*
X151285713Y-96069761D02*
X151333332Y-96022142D01*
%TO.C,C7*%
X128416666Y-101022142D02*
X128464285Y-101069761D01*
X128464285Y-101069761D02*
X128607142Y-101117380D01*
X128607142Y-101117380D02*
X128702380Y-101117380D01*
X128702380Y-101117380D02*
X128845237Y-101069761D01*
X128845237Y-101069761D02*
X128940475Y-100974523D01*
X128940475Y-100974523D02*
X128988094Y-100879285D01*
X128988094Y-100879285D02*
X129035713Y-100688809D01*
X129035713Y-100688809D02*
X129035713Y-100545952D01*
X129035713Y-100545952D02*
X128988094Y-100355476D01*
X128988094Y-100355476D02*
X128940475Y-100260238D01*
X128940475Y-100260238D02*
X128845237Y-100165000D01*
X128845237Y-100165000D02*
X128702380Y-100117380D01*
X128702380Y-100117380D02*
X128607142Y-100117380D01*
X128607142Y-100117380D02*
X128464285Y-100165000D01*
X128464285Y-100165000D02*
X128416666Y-100212619D01*
X128083332Y-100117380D02*
X127416666Y-100117380D01*
X127416666Y-100117380D02*
X127845237Y-101117380D01*
%TO.C,C3*%
X156416666Y-95822142D02*
X156464285Y-95869761D01*
X156464285Y-95869761D02*
X156607142Y-95917380D01*
X156607142Y-95917380D02*
X156702380Y-95917380D01*
X156702380Y-95917380D02*
X156845237Y-95869761D01*
X156845237Y-95869761D02*
X156940475Y-95774523D01*
X156940475Y-95774523D02*
X156988094Y-95679285D01*
X156988094Y-95679285D02*
X157035713Y-95488809D01*
X157035713Y-95488809D02*
X157035713Y-95345952D01*
X157035713Y-95345952D02*
X156988094Y-95155476D01*
X156988094Y-95155476D02*
X156940475Y-95060238D01*
X156940475Y-95060238D02*
X156845237Y-94965000D01*
X156845237Y-94965000D02*
X156702380Y-94917380D01*
X156702380Y-94917380D02*
X156607142Y-94917380D01*
X156607142Y-94917380D02*
X156464285Y-94965000D01*
X156464285Y-94965000D02*
X156416666Y-95012619D01*
X156083332Y-94917380D02*
X155464285Y-94917380D01*
X155464285Y-94917380D02*
X155797618Y-95298333D01*
X155797618Y-95298333D02*
X155654761Y-95298333D01*
X155654761Y-95298333D02*
X155559523Y-95345952D01*
X155559523Y-95345952D02*
X155511904Y-95393571D01*
X155511904Y-95393571D02*
X155464285Y-95488809D01*
X155464285Y-95488809D02*
X155464285Y-95726904D01*
X155464285Y-95726904D02*
X155511904Y-95822142D01*
X155511904Y-95822142D02*
X155559523Y-95869761D01*
X155559523Y-95869761D02*
X155654761Y-95917380D01*
X155654761Y-95917380D02*
X155940475Y-95917380D01*
X155940475Y-95917380D02*
X156035713Y-95869761D01*
X156035713Y-95869761D02*
X156083332Y-95822142D01*
%TO.C,U1*%
X149761904Y-93267380D02*
X149761904Y-94076904D01*
X149761904Y-94076904D02*
X149714285Y-94172142D01*
X149714285Y-94172142D02*
X149666666Y-94219761D01*
X149666666Y-94219761D02*
X149571428Y-94267380D01*
X149571428Y-94267380D02*
X149380952Y-94267380D01*
X149380952Y-94267380D02*
X149285714Y-94219761D01*
X149285714Y-94219761D02*
X149238095Y-94172142D01*
X149238095Y-94172142D02*
X149190476Y-94076904D01*
X149190476Y-94076904D02*
X149190476Y-93267380D01*
X148190476Y-94267380D02*
X148761904Y-94267380D01*
X148476190Y-94267380D02*
X148476190Y-93267380D01*
X148476190Y-93267380D02*
X148571428Y-93410238D01*
X148571428Y-93410238D02*
X148666666Y-93505476D01*
X148666666Y-93505476D02*
X148761904Y-93553095D01*
%TO.C,C5*%
X142166666Y-106522142D02*
X142214285Y-106569761D01*
X142214285Y-106569761D02*
X142357142Y-106617380D01*
X142357142Y-106617380D02*
X142452380Y-106617380D01*
X142452380Y-106617380D02*
X142595237Y-106569761D01*
X142595237Y-106569761D02*
X142690475Y-106474523D01*
X142690475Y-106474523D02*
X142738094Y-106379285D01*
X142738094Y-106379285D02*
X142785713Y-106188809D01*
X142785713Y-106188809D02*
X142785713Y-106045952D01*
X142785713Y-106045952D02*
X142738094Y-105855476D01*
X142738094Y-105855476D02*
X142690475Y-105760238D01*
X142690475Y-105760238D02*
X142595237Y-105665000D01*
X142595237Y-105665000D02*
X142452380Y-105617380D01*
X142452380Y-105617380D02*
X142357142Y-105617380D01*
X142357142Y-105617380D02*
X142214285Y-105665000D01*
X142214285Y-105665000D02*
X142166666Y-105712619D01*
X141261904Y-105617380D02*
X141738094Y-105617380D01*
X141738094Y-105617380D02*
X141785713Y-106093571D01*
X141785713Y-106093571D02*
X141738094Y-106045952D01*
X141738094Y-106045952D02*
X141642856Y-105998333D01*
X141642856Y-105998333D02*
X141404761Y-105998333D01*
X141404761Y-105998333D02*
X141309523Y-106045952D01*
X141309523Y-106045952D02*
X141261904Y-106093571D01*
X141261904Y-106093571D02*
X141214285Y-106188809D01*
X141214285Y-106188809D02*
X141214285Y-106426904D01*
X141214285Y-106426904D02*
X141261904Y-106522142D01*
X141261904Y-106522142D02*
X141309523Y-106569761D01*
X141309523Y-106569761D02*
X141404761Y-106617380D01*
X141404761Y-106617380D02*
X141642856Y-106617380D01*
X141642856Y-106617380D02*
X141738094Y-106569761D01*
X141738094Y-106569761D02*
X141785713Y-106522142D01*
%TO.C,R8*%
X122916666Y-90447380D02*
X123249999Y-89971190D01*
X123488094Y-90447380D02*
X123488094Y-89447380D01*
X123488094Y-89447380D02*
X123107142Y-89447380D01*
X123107142Y-89447380D02*
X123011904Y-89495000D01*
X123011904Y-89495000D02*
X122964285Y-89542619D01*
X122964285Y-89542619D02*
X122916666Y-89637857D01*
X122916666Y-89637857D02*
X122916666Y-89780714D01*
X122916666Y-89780714D02*
X122964285Y-89875952D01*
X122964285Y-89875952D02*
X123011904Y-89923571D01*
X123011904Y-89923571D02*
X123107142Y-89971190D01*
X123107142Y-89971190D02*
X123488094Y-89971190D01*
X122345237Y-89875952D02*
X122440475Y-89828333D01*
X122440475Y-89828333D02*
X122488094Y-89780714D01*
X122488094Y-89780714D02*
X122535713Y-89685476D01*
X122535713Y-89685476D02*
X122535713Y-89637857D01*
X122535713Y-89637857D02*
X122488094Y-89542619D01*
X122488094Y-89542619D02*
X122440475Y-89495000D01*
X122440475Y-89495000D02*
X122345237Y-89447380D01*
X122345237Y-89447380D02*
X122154761Y-89447380D01*
X122154761Y-89447380D02*
X122059523Y-89495000D01*
X122059523Y-89495000D02*
X122011904Y-89542619D01*
X122011904Y-89542619D02*
X121964285Y-89637857D01*
X121964285Y-89637857D02*
X121964285Y-89685476D01*
X121964285Y-89685476D02*
X122011904Y-89780714D01*
X122011904Y-89780714D02*
X122059523Y-89828333D01*
X122059523Y-89828333D02*
X122154761Y-89875952D01*
X122154761Y-89875952D02*
X122345237Y-89875952D01*
X122345237Y-89875952D02*
X122440475Y-89923571D01*
X122440475Y-89923571D02*
X122488094Y-89971190D01*
X122488094Y-89971190D02*
X122535713Y-90066428D01*
X122535713Y-90066428D02*
X122535713Y-90256904D01*
X122535713Y-90256904D02*
X122488094Y-90352142D01*
X122488094Y-90352142D02*
X122440475Y-90399761D01*
X122440475Y-90399761D02*
X122345237Y-90447380D01*
X122345237Y-90447380D02*
X122154761Y-90447380D01*
X122154761Y-90447380D02*
X122059523Y-90399761D01*
X122059523Y-90399761D02*
X122011904Y-90352142D01*
X122011904Y-90352142D02*
X121964285Y-90256904D01*
X121964285Y-90256904D02*
X121964285Y-90066428D01*
X121964285Y-90066428D02*
X122011904Y-89971190D01*
X122011904Y-89971190D02*
X122059523Y-89923571D01*
X122059523Y-89923571D02*
X122154761Y-89875952D01*
%TO.C,C1*%
X138522142Y-102083333D02*
X138569761Y-102035714D01*
X138569761Y-102035714D02*
X138617380Y-101892857D01*
X138617380Y-101892857D02*
X138617380Y-101797619D01*
X138617380Y-101797619D02*
X138569761Y-101654762D01*
X138569761Y-101654762D02*
X138474523Y-101559524D01*
X138474523Y-101559524D02*
X138379285Y-101511905D01*
X138379285Y-101511905D02*
X138188809Y-101464286D01*
X138188809Y-101464286D02*
X138045952Y-101464286D01*
X138045952Y-101464286D02*
X137855476Y-101511905D01*
X137855476Y-101511905D02*
X137760238Y-101559524D01*
X137760238Y-101559524D02*
X137665000Y-101654762D01*
X137665000Y-101654762D02*
X137617380Y-101797619D01*
X137617380Y-101797619D02*
X137617380Y-101892857D01*
X137617380Y-101892857D02*
X137665000Y-102035714D01*
X137665000Y-102035714D02*
X137712619Y-102083333D01*
X138617380Y-103035714D02*
X138617380Y-102464286D01*
X138617380Y-102750000D02*
X137617380Y-102750000D01*
X137617380Y-102750000D02*
X137760238Y-102654762D01*
X137760238Y-102654762D02*
X137855476Y-102559524D01*
X137855476Y-102559524D02*
X137903095Y-102464286D01*
%TO.C,D2*%
X119988094Y-92787380D02*
X119988094Y-91787380D01*
X119988094Y-91787380D02*
X119749999Y-91787380D01*
X119749999Y-91787380D02*
X119607142Y-91835000D01*
X119607142Y-91835000D02*
X119511904Y-91930238D01*
X119511904Y-91930238D02*
X119464285Y-92025476D01*
X119464285Y-92025476D02*
X119416666Y-92215952D01*
X119416666Y-92215952D02*
X119416666Y-92358809D01*
X119416666Y-92358809D02*
X119464285Y-92549285D01*
X119464285Y-92549285D02*
X119511904Y-92644523D01*
X119511904Y-92644523D02*
X119607142Y-92739761D01*
X119607142Y-92739761D02*
X119749999Y-92787380D01*
X119749999Y-92787380D02*
X119988094Y-92787380D01*
X119035713Y-91882619D02*
X118988094Y-91835000D01*
X118988094Y-91835000D02*
X118892856Y-91787380D01*
X118892856Y-91787380D02*
X118654761Y-91787380D01*
X118654761Y-91787380D02*
X118559523Y-91835000D01*
X118559523Y-91835000D02*
X118511904Y-91882619D01*
X118511904Y-91882619D02*
X118464285Y-91977857D01*
X118464285Y-91977857D02*
X118464285Y-92073095D01*
X118464285Y-92073095D02*
X118511904Y-92215952D01*
X118511904Y-92215952D02*
X119083332Y-92787380D01*
X119083332Y-92787380D02*
X118464285Y-92787380D01*
D11*
%TO.C,U5*%
X151901000Y-101746700D02*
X151901000Y-103753300D01*
X148599000Y-103753300D02*
X148599000Y-100210000D01*
D12*
%TO.C,R10*%
X155346359Y-99870000D02*
X155653641Y-99870000D01*
X155346359Y-100630000D02*
X155653641Y-100630000D01*
D11*
%TO.C,L1*%
X147980500Y-99019500D02*
X147980500Y-104480500D01*
X147653050Y-99019500D02*
X147980500Y-99019500D01*
X142519500Y-99019500D02*
X142846950Y-99019500D01*
X147980500Y-104480500D02*
X147653050Y-104480500D01*
X142846950Y-104480500D02*
X142519500Y-104480500D01*
X142519500Y-104480500D02*
X142519500Y-99019500D01*
D13*
%TO.C,J2*%
X160500000Y-102650000D02*
X160500000Y-103250000D01*
X160500000Y-108550000D02*
X160500000Y-105850000D01*
X160500000Y-108600000D02*
X162000000Y-108600000D01*
X172500000Y-102600000D02*
X160500000Y-102600000D01*
X172500000Y-102650000D02*
X172500000Y-103250000D01*
X172500000Y-108550000D02*
X172500000Y-105950000D01*
X172500000Y-108600000D02*
X171000000Y-108600000D01*
D14*
X161820000Y-109150000D02*
G75*
G03*
X161820000Y-109150000I-120000J0D01*
G01*
D15*
%TO.C,D1*%
X118210000Y-108750000D02*
G75*
G03*
X118210000Y-108750000I-50000J0D01*
G01*
D13*
%TO.C,J1*%
X139500000Y-97350000D02*
X139500000Y-96750000D01*
X139500000Y-91450000D02*
X139500000Y-94150000D01*
X139500000Y-91400000D02*
X138000000Y-91400000D01*
X127500000Y-97400000D02*
X139500000Y-97400000D01*
X127500000Y-97350000D02*
X127500000Y-96750000D01*
X127500000Y-91450000D02*
X127500000Y-94050000D01*
X127500000Y-91400000D02*
X129000000Y-91400000D01*
D14*
X138420000Y-90850000D02*
G75*
G03*
X138420000Y-90850000I-120000J0D01*
G01*
D12*
%TO.C,C2*%
X156788748Y-96640000D02*
X158211252Y-96640000D01*
X156788748Y-99360000D02*
X158211252Y-99360000D01*
%TO.C,R9*%
X157596359Y-99870000D02*
X157903641Y-99870000D01*
X157596359Y-100630000D02*
X157903641Y-100630000D01*
%TO.C,C6*%
X146890580Y-109260000D02*
X146609420Y-109260000D01*
X146890580Y-108240000D02*
X146609420Y-108240000D01*
%TO.C,C4*%
X152490000Y-92390580D02*
X152490000Y-92109420D01*
X153510000Y-92390580D02*
X153510000Y-92109420D01*
%TO.C,C8*%
X124240000Y-103890580D02*
X124240000Y-103609420D01*
X125260000Y-103890580D02*
X125260000Y-103609420D01*
D13*
%TO.C,J4*%
X179062500Y-92285000D02*
X179062500Y-107715000D01*
X177562500Y-92285000D02*
X179062500Y-92285000D01*
X179062500Y-107715000D02*
X177562500Y-107715000D01*
D16*
X172962500Y-95270000D02*
G75*
G03*
X172962500Y-95270000I-100000J0D01*
G01*
D12*
%TO.C,R7*%
X122903641Y-109130000D02*
X122596359Y-109130000D01*
X122903641Y-108370000D02*
X122596359Y-108370000D01*
%TO.C,U2*%
X152500000Y-106730000D02*
X150500000Y-106730000D01*
X150500000Y-108970000D02*
X151500000Y-108970000D01*
%TO.C,SW1*%
X120070000Y-103450000D02*
X119280000Y-103450000D01*
X118270000Y-102850000D02*
X118270000Y-97150000D01*
X121120000Y-101600000D02*
X121120000Y-99900000D01*
X116980000Y-101400000D02*
X116770000Y-101200000D01*
X118270000Y-101400000D02*
X116980000Y-101400000D01*
X116770000Y-101200000D02*
X116770000Y-100300000D01*
X116980000Y-100100000D02*
X116770000Y-100300000D01*
X116980000Y-100100000D02*
X118270000Y-100100000D01*
X121120000Y-98600000D02*
X121120000Y-98400000D01*
X119280000Y-96550000D02*
X120070000Y-96550000D01*
D11*
%TO.C,D3*%
X153925700Y-99600200D02*
X151500000Y-99600200D01*
X153925700Y-99158240D02*
X153925700Y-99600200D01*
X153925700Y-96399800D02*
X153925700Y-96841760D01*
X151500000Y-96399800D02*
X153925700Y-96399800D01*
D12*
%TO.C,C7*%
X125640580Y-101260000D02*
X125359420Y-101260000D01*
X125640580Y-100240000D02*
X125359420Y-100240000D01*
%TO.C,C3*%
X155538748Y-91890000D02*
X156961252Y-91890000D01*
X155538748Y-94610000D02*
X156961252Y-94610000D01*
%TO.C,U1*%
X147500000Y-93120000D02*
X149500000Y-93120000D01*
X149500000Y-90880000D02*
X148500000Y-90880000D01*
%TO.C,C5*%
X146211252Y-107610000D02*
X144788748Y-107610000D01*
X146211252Y-104890000D02*
X144788748Y-104890000D01*
%TO.C,R8*%
X122903641Y-91630000D02*
X122596359Y-91630000D01*
X122903641Y-90870000D02*
X122596359Y-90870000D01*
%TO.C,C1*%
X139140000Y-102961252D02*
X139140000Y-101538748D01*
X141860000Y-102961252D02*
X141860000Y-101538748D01*
D15*
%TO.C,D2*%
X118210000Y-91250000D02*
G75*
G03*
X118210000Y-91250000I-50000J0D01*
G01*
%TD*%
M02*
