%TF.GenerationSoftware,KiCad,Pcbnew,(7.0.0)*%
%TF.CreationDate,2023-10-22T09:49:58+03:00*%
%TF.ProjectId,nanoInvaderBot-power,6e616e6f-496e-4766-9164-6572426f742d,rev?*%
%TF.SameCoordinates,Original*%
%TF.FileFunction,Soldermask,Bot*%
%TF.FilePolarity,Negative*%
%FSLAX46Y46*%
G04 Gerber Fmt 4.6, Leading zero omitted, Abs format (unit mm)*
G04 Created by KiCad (PCBNEW (7.0.0)) date 2023-10-22 09:49:58*
%MOMM*%
%LPD*%
G01*
G04 APERTURE LIST*
G04 Aperture macros list*
%AMRoundRect*
0 Rectangle with rounded corners*
0 $1 Rounding radius*
0 $2 $3 $4 $5 $6 $7 $8 $9 X,Y pos of 4 corners*
0 Add a 4 corners polygon primitive as box body*
4,1,4,$2,$3,$4,$5,$6,$7,$8,$9,$2,$3,0*
0 Add four circle primitives for the rounded corners*
1,1,$1+$1,$2,$3*
1,1,$1+$1,$4,$5*
1,1,$1+$1,$6,$7*
1,1,$1+$1,$8,$9*
0 Add four rect primitives between the rounded corners*
20,1,$1+$1,$2,$3,$4,$5,0*
20,1,$1+$1,$4,$5,$6,$7,0*
20,1,$1+$1,$6,$7,$8,$9,0*
20,1,$1+$1,$8,$9,$2,$3,0*%
G04 Aperture macros list end*
%ADD10R,0.558800X0.977900*%
%ADD11C,1.180000*%
%ADD12RoundRect,0.135000X-0.135000X-0.185000X0.135000X-0.185000X0.135000X0.185000X-0.135000X0.185000X0*%
%ADD13R,4.191000X1.447800*%
%ADD14RoundRect,0.102000X-0.350000X-1.250000X0.350000X-1.250000X0.350000X1.250000X-0.350000X1.250000X0*%
%ADD15RoundRect,0.102000X-0.550000X-0.950000X0.550000X-0.950000X0.550000X0.950000X-0.550000X0.950000X0*%
%ADD16RoundRect,0.147500X-0.147500X-0.172500X0.147500X-0.172500X0.147500X0.172500X-0.147500X0.172500X0*%
%ADD17RoundRect,0.102000X0.350000X1.250000X-0.350000X1.250000X-0.350000X-1.250000X0.350000X-1.250000X0*%
%ADD18RoundRect,0.102000X0.550000X0.950000X-0.550000X0.950000X-0.550000X-0.950000X0.550000X-0.950000X0*%
%ADD19RoundRect,0.250000X-0.325000X-1.100000X0.325000X-1.100000X0.325000X1.100000X-0.325000X1.100000X0*%
%ADD20RoundRect,0.225000X0.225000X0.250000X-0.225000X0.250000X-0.225000X-0.250000X0.225000X-0.250000X0*%
%ADD21RoundRect,0.225000X0.250000X-0.225000X0.250000X0.225000X-0.250000X0.225000X-0.250000X-0.225000X0*%
%ADD22RoundRect,0.102000X-0.550000X0.150000X-0.550000X-0.150000X0.550000X-0.150000X0.550000X0.150000X0*%
%ADD23RoundRect,0.102000X-1.550000X1.150000X-1.550000X-1.150000X1.550000X-1.150000X1.550000X1.150000X0*%
%ADD24RoundRect,0.135000X0.135000X0.185000X-0.135000X0.185000X-0.135000X-0.185000X0.135000X-0.185000X0*%
%ADD25R,0.500000X0.250000*%
%ADD26R,0.900000X1.600000*%
%ADD27R,0.800000X1.000000*%
%ADD28C,0.900000*%
%ADD29R,1.500000X0.700000*%
%ADD30R,1.701800X1.651000*%
%ADD31RoundRect,0.250000X0.325000X1.100000X-0.325000X1.100000X-0.325000X-1.100000X0.325000X-1.100000X0*%
%ADD32RoundRect,0.250000X1.100000X-0.325000X1.100000X0.325000X-1.100000X0.325000X-1.100000X-0.325000X0*%
G04 APERTURE END LIST*
D10*
%TO.C,U5*%
X149299998Y-101384749D03*
X150249999Y-101384749D03*
X151200000Y-101384749D03*
X151200000Y-104115249D03*
X150249999Y-104115249D03*
X149299998Y-104115249D03*
%TD*%
D11*
%TO.C,J3*%
X121250000Y-106800000D03*
X121250000Y-112800000D03*
%TD*%
D12*
%TO.C,R10*%
X154990000Y-100250000D03*
X156010000Y-100250000D03*
%TD*%
D13*
%TO.C,L1*%
X145249999Y-99870399D03*
X145249999Y-103629599D03*
%TD*%
D14*
%TO.C,J2*%
X162750000Y-108150000D03*
X164250000Y-108150000D03*
X165750000Y-108150000D03*
X167250000Y-108150000D03*
X168750000Y-108150000D03*
X170250000Y-108150000D03*
D15*
X160800000Y-104550000D03*
X172200000Y-104550000D03*
%TD*%
D16*
%TO.C,D1*%
X118765000Y-108750000D03*
X119735000Y-108750000D03*
%TD*%
D17*
%TO.C,J1*%
X137250000Y-91850000D03*
X135750000Y-91850000D03*
X134250000Y-91850000D03*
X132750000Y-91850000D03*
X131250000Y-91850000D03*
X129750000Y-91850000D03*
D18*
X139200000Y-95450000D03*
X127800000Y-95450000D03*
%TD*%
D19*
%TO.C,C2*%
X156025000Y-98000000D03*
X158975000Y-98000000D03*
%TD*%
D12*
%TO.C,R9*%
X157240000Y-100250000D03*
X158260000Y-100250000D03*
%TD*%
D20*
%TO.C,C6*%
X147525000Y-108750000D03*
X145975000Y-108750000D03*
%TD*%
D21*
%TO.C,C4*%
X153000000Y-93025000D03*
X153000000Y-91475000D03*
%TD*%
%TO.C,C8*%
X124750000Y-104525000D03*
X124750000Y-102975000D03*
%TD*%
D22*
%TO.C,J4*%
X174062500Y-95250000D03*
X174062500Y-95750000D03*
X174062500Y-96250000D03*
X174062500Y-96750000D03*
X174062500Y-97250000D03*
X174062500Y-97750000D03*
X174062500Y-98250000D03*
X174062500Y-98750000D03*
X174062500Y-99250000D03*
X174062500Y-99750000D03*
X174062500Y-100250000D03*
X174062500Y-100750000D03*
X174062500Y-101250000D03*
X174062500Y-101750000D03*
X174062500Y-102250000D03*
X174062500Y-102750000D03*
X174062500Y-103250000D03*
X174062500Y-103750000D03*
X174062500Y-104250000D03*
X174062500Y-104750000D03*
D23*
X175762500Y-93580000D03*
X175762500Y-106420000D03*
%TD*%
D24*
%TO.C,R7*%
X123260000Y-108750000D03*
X122240000Y-108750000D03*
%TD*%
D25*
%TO.C,U2*%
X151949999Y-107099999D03*
X151949999Y-107599999D03*
X151949999Y-108099999D03*
X151949999Y-108599999D03*
X150049999Y-108599999D03*
X150049999Y-108099999D03*
X150049999Y-107599999D03*
X150049999Y-107099999D03*
D26*
X150999999Y-107849999D03*
%TD*%
D27*
%TO.C,SW1*%
X118569999Y-103649999D03*
X120779999Y-103649999D03*
D28*
X119670000Y-101500000D03*
X119670000Y-98500000D03*
D27*
X118569999Y-96349999D03*
X120779999Y-96349999D03*
D29*
X121429999Y-102249999D03*
X121429999Y-99249999D03*
X121429999Y-97749999D03*
%TD*%
D30*
%TO.C,D3*%
X153646299Y-97999999D03*
X149353699Y-97999999D03*
%TD*%
D20*
%TO.C,C7*%
X126275000Y-100750000D03*
X124725000Y-100750000D03*
%TD*%
D19*
%TO.C,C3*%
X154775000Y-93250000D03*
X157725000Y-93250000D03*
%TD*%
D25*
%TO.C,U1*%
X148049999Y-92749999D03*
X148049999Y-92249999D03*
X148049999Y-91749999D03*
X148049999Y-91249999D03*
X149949999Y-91249999D03*
X149949999Y-91749999D03*
X149949999Y-92249999D03*
X149949999Y-92749999D03*
D26*
X148999999Y-91999999D03*
%TD*%
D31*
%TO.C,C5*%
X146975000Y-106250000D03*
X144025000Y-106250000D03*
%TD*%
D24*
%TO.C,R8*%
X123260000Y-91250000D03*
X122240000Y-91250000D03*
%TD*%
D32*
%TO.C,C1*%
X140500000Y-103725000D03*
X140500000Y-100775000D03*
%TD*%
D16*
%TO.C,D2*%
X118765000Y-91250000D03*
X119735000Y-91250000D03*
%TD*%
M02*
