M48
; DRILL file {KiCad (7.0.0)} date Sun Oct 22 09:50:10 2023
; FORMAT={-:-/ absolute / metric / decimal}
; #@! TF.CreationDate,2023-10-22T09:50:10+03:00
; #@! TF.GenerationSoftware,Kicad,Pcbnew,(7.0.0)
; #@! TF.FileFunction,Plated,1,2,PTH
FMAT,2
METRIC
; #@! TA.AperFunction,Plated,PTH,ViaDrill
T1C0.400
%
G90
G05
T1
X116.0Y-114.5
X118.0Y-93.75
X119.5Y-100.25
X120.0Y-107.5
X120.5Y-110.0
X120.75Y-94.75
X123.0Y-98.0
X123.25Y-92.5
X123.5Y-103.0
X123.75Y-101.25
X124.5Y-91.25
X125.25Y-93.75
X125.25Y-96.5
X126.25Y-106.25
X127.25Y-89.75
X127.25Y-112.25
X130.0Y-102.5
X130.75Y-97.25
X132.0Y-112.25
X134.25Y-108.5
X134.75Y-102.0
X136.0Y-94.25
X137.0Y-103.25
X138.5Y-108.5
X138.75Y-105.75
X140.5Y-85.0
X142.75Y-109.0
X143.75Y-93.5
X145.25Y-102.0
X146.0Y-89.25
X146.25Y-96.25
X148.75Y-106.25
X149.0Y-90.5
X149.0Y-93.5
X150.25Y-115.0
X150.5Y-84.75
X151.0Y-106.5
X151.0Y-109.5
X151.775Y-93.025
X153.5Y-94.25
X153.5Y-96.25
X153.75Y-100.25
X154.0Y-106.5
X156.25Y-92.0
X159.0Y-106.5
X159.0Y-115.0
X159.25Y-93.5
X162.75Y-96.75
X163.5Y-91.25
X163.5Y-101.0
X167.25Y-97.25
X167.726Y-102.726
X168.75Y-101.0
X168.75Y-104.5
X171.0Y-89.25
X172.25Y-95.5
X174.0Y-109.25
X175.75Y-87.75
X178.0Y-96.5
X178.0Y-103.5
T0
M30
